<?xml version="1.0" encoding="utf-8"?>
<!-- Generator: Adobe Illustrator 25.3.1, SVG Export Plug-In . SVG Version: 6.00 Build 0)  -->
<svg version="1.1" id="Layer_1" xmlns="http://www.w3.org/2000/svg" xmlns:xlink="http://www.w3.org/1999/xlink" x="0px" y="0px"
	 viewBox="0 0 900 900" style="enable-background:new 0 0 900 900;" xml:space="preserve">
<g id="yyizSv.tif">
	<g>
		<path d="M430.6,31.7c-1.1,1.6-1.8,4-3.2,4.7c-9.3,3.9-18.5,8.3-28.1,10.8c-21.9,5.7-43.6,11.6-63,23.9c-1.6,1-3.2,2.1-4.4,5
			c4.4-0.8,9-1.2,13.3-2.3c20.4-5.4,40.8-11.2,61.2-16.4c6-1.5,12.3-1.5,18.5-2.2c0.2,0.8,0.5,1.6,0.7,2.5
			c-3.4,1.3-6.8,2.4-10.1,3.8c-10.6,4.6-21.2,9.4-31.9,13.7c-3.9,1.6-8.1,2.8-12.3,3c-21.4,1.3-42.9,1.2-64.2,3.6
			c-20.7,2.4-38.5,11.7-52.2,28.2c-4.6,5.5-10.5,10.1-16.5,14.2c-27.7,18.7-36.5,47-40.2,78c-0.1,0.8,0.1,1.7,0.4,2.5
			c0.1,0.5,0.6,0.9,1.3,1.7c0.9-0.3,2.1-0.4,2.8-1.1c36.7-32.2,78.8-36.8,124.5-25.7c15.9,3.9,26.9,11.4,31.8,27.4
			c2.1,6.7,5.7,12.9,9,20.3c7.2-7.1,7-14.9,7.7-22.8c0.9-10-5.6-13.3-14.1-15.3c0.3-0.9,0.7-1.8,1-2.8c14.7-0.8,29.4-1.6,45.1-2.5
			c-19.1-16.2-39.7-0.9-59.8-6.1c3.2-2,6.2-5.1,9.8-6c24.1-6,47.8-9.9,71.5,3.7c7.6,4.4,18.8,3.1,28.4,3.3c11.3,0.1,22.6-1,34-0.8
			c-16.5,10.8-35.2,7.5-53.2,8.6c0,1-0.1,2-0.1,3c6.7,0.4,13.4,1,20.1,1c7,0,14.1-0.7,24.4-1.2c-10.6,10.7-4.2,18.9-1.1,27.6
			c5,14,1.1,21.1-13.4,24.4c-12.2,2.8-19.7,9.2-21.3,22.3c-0.3,2.6-4.8,6-7.8,6.6c-5.5,1-11.5-0.5-17.1,0.5c-4.2,0.8-8.3,3.4-12,6
			c-2.4,1.7-4,4.6-6.2,7.3c3.3,0.5,7.8,0.7,12,1.7c6.6,1.7,13,3.9,19.4,5.9c6.4,2.1,12.9,3.9,19.1,6.5c4.2,1.7,10.7,3.8,11.4,6.9
			c1.4,5.5,0.4,11.9-5.9,16.3c-27.7,19.6-59.5,30.2-90.6,42.2c-4.1,1.6-8.4,2.6-12.7,3.9c-0.5-1-1-2-1.5-3.1
			c20.6-12,41.1-24,61.7-36c-0.2-0.5-0.4-1-0.7-1.6c-7,1.6-14,3.3-20.9,4.9c-0.7-0.9-1.3-1.9-2-2.8c3.3-3.2,6.3-6.8,9.9-9.6
			c5.6-4.4,10-14.9,6.5-19.5c-4.5-6-10.3-11-16.7-17.6c0.3,2.8,0.2,4.1,0.6,5.2c4.8,11.3,3.7,22.6-3.5,31.8
			c-33.4,42.6-73.1,77.4-128.3,86.7c-62.7,10.6-109.9-22.9-124.5-85c-9.1-38.8-2.7-76.8,8-114.2c8.7-30.6,20.2-60,43-83.8
			c19-20,40.4-37.3,63.9-50.9c13.5-7.8,29.9-11.4,45.5-14.6c31-6.5,62.4-11.2,93.5-17.1c11.6-2.2,22.9-5.7,34.4-8.6
			C427.2,31.7,428.9,31.7,430.6,31.7z M228.2,207.4c-3.3,0.7-6.9,1.4-10.5,2.2c-6.9,1.6-14,5.1-20.7,4.4c-9.6-1-15.8,3-21.9,8.9
			c-8.2,7.9-11.9,17.8-13.8,28.8c-0.6,3.2-2.7,6.8-5.2,8.8c-5.2,3.9-4.4,7.7,0.3,9.8c6.9,3.1,14.4,6.3,21.8,6.6
			c27.8,1.3,34.6-4.7,39.3-27.3C220.2,236,224.2,222.7,228.2,207.4z M212.2,368.6c4.9,11.6,20.6,27.8,29.7,28.8
			c22.2,2.3,42.7-3.2,61-16.8c-4.4,0.6-8.7,1.2-13.1,1.8c-0.2-0.7-0.3-1.3-0.5-2c12.8-4.8,25.7-9.6,38.5-14.3
			c-0.4-1-0.8-2.1-1.2-3.1c-5.4,1.5-10.9,2.9-16.2,4.6c-9.7,3.2-19.3,7.1-29.1,9.8c-15.7,4.2-31,1.9-45.9-4.5
			C228.4,369.6,221.2,365.3,212.2,368.6z M308.4,187.5c-0.2-1-0.4-2-0.6-3c-5.6-0.6-11.3-1.3-16.9-1.9c-5-0.6-7.9,1.2-6.6,6.7
			c2.2,9-1.7,14.4-9.5,18.5c-9.9,5.3-17.3,13.6-20,24.5c-1.4,5.5,0.5,12,1.9,17.8c0.3,1.4,5.1,3.4,6.8,2.7
			c15.9-6.4,22.1-21.3,29.7-34.9c4.2-7.6-2.2-12.1-4.8-17.7c-0.6-1.3-0.9-2.6-1.5-4.3C294.1,193,301.3,190.2,308.4,187.5z
			 M198.2,120.7c-17.2,16.3-25.5,37.9-34.8,58.9C174.4,159.6,192.9,144.1,198.2,120.7z M154,283.4c15.8,8.7,50.2,8.6,59.6,0
			C193.8,283.4,175,283.4,154,283.4z"/>
		<path d="M117.3,876.4c3.6-0.6,7.4-0.5,10.7-1.8c53-20.3,106-40.8,159-61.2c3.1-1.2,6.3-2,9.4-3c0.4,0.7,0.8,1.4,1.1,2.1
			c-2.8,1.8-5.5,4-8.5,5.3c-52.4,23.5-104.6,47.4-159.9,63.4c-7.9,2.3-16.2,3.7-24.4,4.3c-3.7,0.3-7.6-2.6-11.4-4
			c1.6-3.1,2.4-7.1,4.9-9.3c4.7-4.1,9.9-7.9,15.5-10.4c30.4-13.8,61.6-25.9,91.4-40.9c39.7-20.1,78.8-41.6,117.1-64.2
			c21.8-12.8,42.1-28.4,61.9-44.2c8.3-6.6,14.6-16.4,20.1-25.8c31.9-54.4,66.4-107.4,87.6-167.5c12.4-35,20-70.8,23-107.8
			c1.3-16.1,6.1-31.1,13.1-45.8c6.4-13.4,16.5-17.9,30-18.4c22.3-0.8,44.6-1.4,66.8-2.7c8.8-0.5,17.4-2.9,26.1-3.9
			c3.3-0.4,7.7-0.1,9.9,1.8c1.5,1.3,1.1,7-0.5,9.1c-17.4,22.1-19.5,48.3-20.7,74.7c-1.5,31.1-11.5,59.1-28.1,85.2
			c-11,17.4-20.9,35.4-30.6,53.6c-6.6,12.2-12,25-18,37.5c-20.8,43.9-54.3,77.2-90.7,108c-4.6,3.9-9,7.9-13.3,12.1
			c-14,13.7-28.8,26.2-47.1,33.8c-3.9,1.6-7.9,3.5-11.4,5.9c-34.6,24.7-74.9,35.7-114.7,47.9c-22.6,7-44.6,15.9-67.1,23.4
			c-26.8,8.9-53.8,17.1-80.6,25.8c-4.6,1.5-9.2,3.3-13.3,5.7c-3.3,2-5.9,5.3-8.8,8C116.3,874.2,116.8,875.3,117.3,876.4z M198,830.6
			c0.4,0.6,0.7,1.3,1.1,1.9c3.4-1.2,6.9-2.2,10.3-3.5c22.5-8.8,44.7-18,67.4-26.4c27.5-10.1,55.9-18.1,82.7-29.8
			c20.5-8.9,39.9-21.2,58.5-33.8c17.6-12,34.1-26,50.2-40c15.9-13.9,33.3-27.1,45.7-43.9c22.4-30.2,42.1-62.5,61.9-94.5
			c8.8-14.3,15.3-30,22.7-45.1c1.1-2.3,1.3-5.1,1.8-6.7c-6.7,4.2-13.5,8-19.8,12.7c-5.7,4.3-11,9.3-16,14.4
			c-1.6,1.6-1.7,4.7-2.5,7.1c-1.7-1.2-3.4-2.4-5.1-3.5c0.8-3.9,0.9-8,2.4-11.6c3.1-7.4,7.4-14.2,10.2-21.7c1.3-3.6,2.1-9.4,0.2-11.6
			c-2.4-2.7-7.9-4-11.9-3.7c-6.8,0.5-13.3,2.9-20.1,4.3c-2.4,0.5-4.9,0.4-7.4,0.6c-0.2-1.1-0.4-2.3-0.6-3.4
			c9.9-2.2,19.8-4.4,29.7-6.6c-7.4-1.7-14.7-2.6-22.1-3.2c-7.2-0.6-13,2.3-16.7,8.4c-7.9,12.9-16,25.7-23,39.1
			c-16.4,31.1-32.2,62.5-48.2,93.7c-7.5,14.7-15,29.4-22.6,44c-3.7,7.1-7.2,14.4-11.8,20.8c-15,21-34.3,37.4-56.3,50.7
			c-18,10.9-36,21.9-54.1,32.6c-16,9.4-32.1,18.7-48.4,27.5C236.9,810.3,217.4,820.4,198,830.6z M515.6,476.6
			c10-2.2,18.3-5.3,26.6-5.4c10.8-0.2,18.7-4.9,25.1-12.5c6-7.1,12.3-14.6,16.1-23c5.6-12.7,9.9-26.1,13.4-39.6
			c3.8-14.8,11.9-25.6,24.9-33.2c4.6-2.7,9-5.7,14.4-9.1c-24.9,0.9-48.3,2.5-71.7,2.3c-17.1-0.1-34.7,9.5-37.6,30.9
			c-2.4,17.5-4.7,35.1-6.9,52.7C518.4,451.7,517.1,463.8,515.6,476.6z M607.1,387.3c-0.6,0.6-1.1,1-1.3,1.4
			c-7.6,23.6-7.6,49.7-24.1,70.5c-3.7,4.7,0.2,9.2,6.6,8.4c7.1-0.8,14.1-2.4,21.2-3.1c19-1.9,19.9-2.7,21.7-22
			c0.1-1.1,0.1-2.3,0.3-3.4c3.5-27.2,0.5-55.7,15-80.9c0.2-0.3-0.2-1-0.6-2.2c-16.9,10.8-24.6,29-37.6,43.7
			C607.9,395.7,607.5,391.6,607.1,387.3z"/>
		<path d="M761.4,108.2c14.9,12.1,15.2,26.9,12.9,42.4c-0.2,1.4,0,2.8,0.3,4.2c3.1,11.9-0.8,22.1-8.3,31c-15.8,18.7-49,25.1-70,13.9
			c-22-11.7-34-40-27.4-64.7c5.5-20.7,26.9-37.2,50.2-39.5c24.4-2.4,48.8-5.6,73.2-8.2c4.8-0.5,9.7-0.3,14.5,0.2
			c1.6,0.2,4.3,2.2,4.3,3.3c0,1.8-1.5,4.7-3,5.3c-9,3.4-18.1,6.6-27.4,9.2C775.4,106.8,769.6,107.1,761.4,108.2z M765.2,144.6
			c1.5-10.6,1.8-22.5-9.6-28.4c-10.5-5.5-22.4-10.1-34.1-10.9c-19.3-1.5-35.7,11.2-41.6,28.2c-6.3,18.2-0.3,41.1,13.8,52.4
			c13.9,11.1,36.2,11.9,52.5,2.4c6.7-3.9,8.7-7.4,4.5-14.9c-6.3-11-7.9-23.2-3.6-35.6c3.1-9.2,6.1-9.9,12.5-3.1
			C762,137.5,763.4,141.5,765.2,144.6z"/>
		<path d="M776.5,354c-0.3,5.1,0.1,10.5-1.2,15.3c-1.6,6.2-3.2,13.4-7.4,17.8c-16.1,17-36.7,23.3-59.4,18c-20.7-4.9-33.3-19-37.7-40
			c-5.1-24.2,3.2-43.5,22.6-57.8c20.3-15,58.5-9.3,74.6,10C777.1,328.3,776.5,341.1,776.5,354z M769.1,353.9
			c0.1-26.6-21.1-48.1-47.6-48.2c-23.8-0.1-44.4,20.3-44.5,44c-0.1,23.1,26.3,49.1,50,49.4C745.9,399.3,769,374.5,769.1,353.9z"/>
		<path d="M275.8,111.4c-26.3,9.2-45.5,25.2-53.2,54.5C216.6,143.6,247.4,112.8,275.8,111.4z"/>
		<path d="M335.8,816.8c-29.5,9.2-58.9,18.4-88.4,27.6c-0.3-0.9-0.6-1.8-0.8-2.7c29.4-9,58.8-17.9,88.1-26.9
			C335,815.5,335.4,816.1,335.8,816.8z"/>
		<path d="M215.4,868.4c1-0.5,1.9-1.1,3-1.3c13.1-3.6,26.1-7.1,39.2-10.6c0.2,0.9,0.5,1.7,0.7,2.6c-14.1,3.9-28.3,7.9-42.4,11.8
			C215.7,870,215.5,869.2,215.4,868.4z"/>
		<path d="M737.2,320.5c-4.7,4-9.4,8.1-14.1,12.1c-5.1,4.3-9.5,9-4.4,15.9c4,5.3,15.7,5.9,21.1,1.3c3.9-3.4,7.3-7.4,11.5-10.2
			c2.2-1.4,5.8-0.8,8.7-1.1c-1.2,3.1-1.6,7.4-3.9,9.2c-3.5,2.7-8.3,3.6-12.5,5.5c-6.6,3-8,6.7-6.1,14.8c2.2,9.5,9.1,9.8,16.8,13.8
			c-19.3,6.9-28.7-7.9-38.8-13.2c-5.4,0-9.2,1.1-11.4-0.3c-2.6-1.7-5.8-6-5.4-8.5c2.7-14.9,7.7-29,21.6-37.3
			c4.6-2.7,10.4-3.4,15.6-5.1C736.4,318.4,736.8,319.5,737.2,320.5z"/>
	</g>
</g>
</svg>
