<svg id="Layer_1" data-name="Layer 1" xmlns="http://www.w3.org/2000/svg" viewBox="0 0 884.19 790.29">
  <g id="rQYlcu.tif">
    <g>
      <path d="M297.84,34.53c-.91,1.38-1.52,3.5-2.79,4-8.25,3.39-16.44,7.18-25,9.43-20.29,5.33-40.33,11-57.52,24.83,3.82-.64,7.72-1,11.46-2,18.12-4.77,36.16-9.89,54.33-14.47,4.75-1.2,9.87-.93,14.83-1.34l.4,2.31c-7.11,2.25-14.31,4.23-21.28,6.83-4.3,1.61-8.16,4.33-12.35,6.26-3.53,1.63-7.19,3.83-10.89,4.06-22.66,1.4-45.36,2.34-68,3.34a9.67,9.67,0,0,1-6.47-2.22l39.72-14.9c-.37-1-.74-2-1.12-2.94l-25.66,9.64c10.4-10.76,23.16-16.9,37.47-19.54,20.38-3.76,40.85-6.95,61.26-10.54,2.5-.44,4.83-1.84,7.23-2.8Z" transform="translate(-6.61 -34.53)"/>
      <path d="M247,202.6c1.12-6.32,2.28-12.64,3.37-19,1.51-8.76-5-11.22-11.74-13.5l.55-2.13,39.26-2.16c-8.22-6.47-16.56-7.61-25.58-6.19-8.4,1.32-16.81,2.52-25.22,3.78-.37-.94-.73-1.88-1.09-2.82,2.8-1.76,5.4-4.4,8.45-5.15,20.83-5.14,41.26-8.53,61.76,3.2,6.59,3.76,16.26,2.7,24.53,2.8,9.76.12,19.53-.89,29.36-.68-14.22,9.31-30.44,6.45-48.13,7.6,13.53,7.62,26.09-.11,39,3.67-7.76,7.79-2.23,14.91.43,22.37,4.32,12.09,1,18.26-11.54,21.08-10.57,2.39-17,8-18.42,19.28-.28,2.27-4.15,5.47-6.69,5.81-6.29.84-12.76.28-19.18.73,17.7,3.38,35.57,4.89,53.51,3,25.29-2.62,50.45-6.77,75.78-8.56,23.34-1.66,46.85-.9,70.27-1.52,21.22-.55,42.43-1.61,63.65-2.19,3-.08,6,1.37,9.06,2,5.49,1.16,11,2.93,16.5,3.19,10.7.51,21.44.15,32.17.15.11.77.23,1.53.35,2.29-3.08.8-6.12,2-9.24,2.34a1041.77,1041.77,0,0,1-139,5.65c-23.1-.61-46.29,2.65-69.46,3.78-34.53,1.69-69.08,3.72-103.58-.72-3.83-.5-7.77-.07-13.81-.07,2.8,1.19,3.66,1.81,4.58,1.9,10.88,1.05,21.38,2.88,30.68,9.5,2.73,1.95,7.25,1.16,10.64,2.45,3.69,1.39,9.36,3.18,10,5.79,1.14,4.76.48,10.31-5,14.15C301.43,299.9,276.65,309,252,318.37c-5.88,2.23-11.85,4.25-17.77,6.36l-1.45-3,53.16-31-.52-1.35L266,293.7c1.55-10.86,16.06-11.17,14.1-22.54-1.53-8.88-9.28-12.75-13.19-20-1.16,1.22-1.74,1.65-1.68,1.8,6.55,15.37.83,27.83-9.29,39.22C233.72,317.25,208.08,337.92,177,351a103.77,103.77,0,0,1-63.9,6c-34.85-7.71-55-30.79-66.07-63.38-8.91-26.33-7.18-53-2.54-79.78a278.58,278.58,0,0,1,20.58-66.24,121.63,121.63,0,0,1,29-39.83c3.38-3.12,8.11-4.79,13-6.18-23.48,13.81-29.08,39.08-41.43,59.87l1.84,1.24c1.89-2.76,3.68-5.6,5.69-8.27,11.4-15.14,22.62-30.43,34.5-45.18,2.41-3,7.28-5.14,11.24-5.53,8.41-.83,17-.25,25.84.49-14,9.08-27,19.44-35.16,33.71s-11.81,30.37-12.59,48.24c2.46-1.17,3.68-1.46,4.51-2.18,31.53-27.63,67.75-31.16,107-21.78,13.78,3.3,23.2,9.88,27.49,23.68,1.8,5.76,4.91,11.12,7.42,16.66ZM122.72,186.34c-2.53.49-5.63,1-8.71,1.71-6.21,1.36-12.5,4.2-18.59,3.82-7-.44-11.9,1.91-16.66,6-8.05,7-12,16-13.59,26.39-.38,2.46-1.36,5.38-3.09,7-5.66,5.29-5.5,9.44,2.42,11.26a129.82,129.82,0,0,0,29.78,2.9c9.07-.06,14.94-5.83,17.23-14.71C115.22,216.31,118.8,201.86,122.72,186.34Zm53.37,151-.26-1.91,33-12.31L207.63,320c-8.76,3-17.57,6-26.27,9.15-13,4.77-26.14,7.54-39.77,3.83-7.33-2-14.29-5.33-21.58-7.49-3.29-1-7-.55-11.8-.83,13.88,20.7,21.08,28,40.77,25.79,14.12-1.56,27.13-5.72,38.42-14.84Zm16.1-168.31-.47-2.57c-4.85-.57-9.7-1.16-14.56-1.7-4.23-.46-6.93.81-5.76,5.71,1.84,7.72-1.34,12.44-8.17,16-8.59,4.52-15,11.74-17.31,21.11-1.18,4.74.36,10.34,1.53,15.36.29,1.26,4.35,3,5.84,2.42,13.77-5.46,19.13-18.31,25.69-30.09,3.64-6.54-1.72-10.47-4.1-15.3a38.82,38.82,0,0,1-1.37-3.77Zm-82.48,84.29C93.5,252.1,77.2,249.11,61,252.83A71,71,0,0,0,109.71,253.37Z" transform="translate(-6.61 -34.53)"/>
      <path d="M620.19,737.46c-.57-10.27-1.65-20.55-1.65-30.82q0-142.24.44-284.5c0-12.34.66-24.68.65-37,0-6.41,3.61-8.69,9-9.6,5.59-.95,8.78,2.11,9.34,7.07a227.44,227.44,0,0,1,1.19,23.5c.27,34.56.6,69.13.44,103.69-.06,14.43-1.3,28.86-2,42.41,6-6.75,12.17-14.78,19.45-21.61,14.73-13.8,32.68-21,52.7-22.74,42.6-3.63,72,28.37,65.17,70.68-3.78,23.43-14.92,42.6-30.92,60.16-25.16,27.62-54.25,50.24-84.3,71.95-6.18,4.46-11.36,10.26-17.4,14.93-6.32,4.88-13.12,9.13-19.71,13.66Zm18.8-32c6.63-6.07,15-14,23.67-21.61,20.09-17.61,39.73-35.7,55.44-57.42,13.36-18.47,22.89-38.64,21.95-62.28-.65-16.7-13.9-31.44-30.47-33-21.44-2-39.29,6.11-53.5,21.73-8.27,9.08-16.83,18.88-17,32C638.74,626,639,667.09,639,705.42Z" transform="translate(-6.61 -34.53)"/>
      <path d="M743,266.71c7.51-7.66,14.37-16.15,22.69-22.8C781.1,231.59,799.34,226,819,228.11c30.31,3.32,48.45,26.11,46,56.42-1.68,21.16-9.94,39.33-24.15,55.19a399,399,0,0,1-71.06,62.39c-8.05,5.55-15,12.76-22.05,19.66-5.38,5.28-11.25,8.51-21,8.32V401.23q0-132.61,0-265.25c0-5.92.47-11.84.45-17.76s3.68-7.66,8.58-7.88,8.21,2.34,8.38,7.34c.35,10.59.29,21.2.36,31.8.18,26.41.58,52.83.4,79.24C744.84,241.51,743.65,254.3,743,266.71Zm.67,136.4,3.4,2.42c15.69-16.63,31.48-33.16,47-49.92,7.88-8.5,15.64-17.14,22.89-26.17a76.23,76.23,0,0,0,16.95-50.12c-.31-18.85-13.39-31.66-32.15-31.15-23.62.64-40.23,13.61-52.13,32.78-3.28,5.29-4.74,12.46-4.84,18.81-.41,24.15.23,48.31.16,72.47C744.93,382.52,744.11,392.82,743.65,403.11Z" transform="translate(-6.61 -34.53)"/>
      <path d="M811.51,786.78l-69.86,2.09v1.9l30.4,1.79.11.65a32.18,32.18,0,0,1-4.08.77c-32,1.84-64.1,3.14-96.08,5.65-18.89,1.48-37.6,5.07-56.44,7.32-12.43,1.49-24.93,3.2-37.4,3.21-37.32,0-74.41.41-111.41,7.39-24.13,4.55-49,6.38-73.61,6.8-56.09.95-112.21.1-168.31.36-47.29.22-94.18-4.53-141-10-1.7-.2-3.9-.14-4.93-1.16-2-2-3.35-4.63-5-7,2.22-1.38,4.51-4,6.65-3.92,14.29.75,28.54,2.39,42.84,3.17,33.48,1.83,67,3.72,100.49,4.87C258.91,811.91,294,812.28,329,813c53.17,1.16,106.06.25,158.45-11.47,17.8-4,36.83-2.7,55.31-3.29,21-.66,42.81,2.87,62.8-1.75,49.25-11.4,99.26-8.45,148.87-12.25,17-1.31,34.07-.68,51.12-.88,2,0,3.94.27,5.91.42Z" transform="translate(-6.61 -34.53)"/>
      <path d="M57.11,65.49c3.44,1.33,7.26,2.1,10.25,4.1,23.4,15.66,50.21,16.84,76.81,17.35,20.18.39,40.41-1.63,60.62-2.45,20.72-.83,41.45-1.31,62.16-2.34,12.56-.62,25.08-2.05,37.63-3,18.2-1.39,36.41-2.6,54.61-4,26.31-2.08,52.58-4.88,78.93-6.3,31.8-1.71,63.65-3.12,95.49-3.15a707.61,707.61,0,0,0,94.48-6c21.41-2.9,43.33-2.17,65-2.72,37-.93,74.08-2.2,111.13-2.19,28.09,0,56.19,1.81,86.53,2.89-12.74,4.21-21.83,10.94-34.85,10-70.33-4.86-140.75-3.2-211.09,0-28.08,1.27-56,5.64-84.06,7.65-14.73,1.06-29.64.59-44.43-.07-41.9-1.88-83.27,4.46-124.87,7.34-21.43,1.49-43.1.49-64.35,3.13-59.94,7.44-120.29,6.19-180.41,9.14-23.52,1.16-47.49-4.7-71.09-8.44-9.91-1.56-16.79-8.53-20-18.14Z" transform="translate(-6.61 -34.53)"/>
      <path d="M444.39,446.89c-6.36,3.77-13.33,7.18-19.46,11.73-5.82,4.33-10.76,9.86-17.79,14.6.46-3.07.34-6.39,1.51-9.17,2.76-6.59,6.58-12.74,9.06-19.42,1.2-3.25,1.78-8.41,0-10.62s-6.9-3.06-10.41-2.77c-5.59.47-11.05,2.42-16.59,3.62-2.15.47-4.37.58-6.55.86l-.66-3.09L409,426.79l.07-.79c-6.7-.67-13.4-1.64-20.12-1.94-7.28-.32-11.95,4.07-15.22,10-9.35,17.06-18.69,34.13-27.85,51.3-11.37,21.31-22.43,42.8-33.87,64.07-7.94,14.77-16.42,29.25-24.42,44-3.46,6.36-8.05,11-16.68,13.53,1.93-3.11,3.19-5,4.32-7,27.25-47.14,57.18-92.84,75.52-144.7a364.27,364.27,0,0,0,19.8-93.06c1.42-17.8,6.54-34.38,17.87-48.6a15.33,15.33,0,0,1,6.53-5.09c-.41,1.72-.33,3.8-1.31,5.09-12,15.95-14.39,34.81-16.51,53.78-1.87,16.86-3.84,33.71-5.78,50.66,35.08-1.48,53.93-15.67,64.39-48.19,3.16-9.85,5.87-19.85,8.94-29.73a19.64,19.64,0,0,1,3.19-6.62c12.88-15.68,31.65-21.56,48.83-30.1l1.85,1.3c-1.31,3.18-2,6.93-4.05,9.47-12.86,15.51-14.64,34.27-15.49,53.05-1.34,29.22-8.83,56.08-24.63,81.07-18.72,29.58-35.63,60.3-54,90.1-6.79,11-15.56,20.79-23.43,31.14l-2.31-1.36a54.38,54.38,0,0,1,3.13-6.36c11.53-17.53,23.82-34.6,34.53-52.61C423.34,490.62,433,471.12,443.08,452A18.14,18.14,0,0,0,444.39,446.89ZM450.07,340c-.81,2.93-1.08,4.08-1.44,5.21-6.26,19.46-6.18,41-20,58.06-3.53,4.34-.1,8.39,5.83,7.71,8.07-.93,16.1-2.47,24.19-3,7.28-.46,10.73-4.12,11.45-10.92,1.07-10,2.26-20.08,2.93-30.15,1.13-16.75,1.94-33.51,10.68-48.57.51-.87.4-2.1.58-3.16l-1.73-1.16c-5.3,6-11,11.73-15.79,18.11-5,6.58-9.07,13.81-13.55,20.76l-1.63-.31C451.17,349.14,450.75,345.67,450.07,340Z" transform="translate(-6.61 -34.53)"/>
      <path d="M602.53,627.63c-11.23.27-22.47.8-33.7.74-26.93-.17-53.85-.69-80.77-.93q-94.12-.81-188.25-1.51c-49.4-.43-98.82-.33-148.19-1.79-19.09-.57-38.08-4.79-57.11-7.34l-9.72-1.26L84,617.4l17,12c-6.86,6.22-8.88,5.64-13.74-.85-2.54-3.4-6.47-5.9-10.1-8.31-5-3.33-10.34-6.19-15.53-9.26l.54-2.75c6.89,0,14.05-1.24,20.62.2,34.5,7.6,69.52,8.85,104.59,9q180.86.81,361.72,1.11c13.58,0,27.17.35,40.72,1.14,4.5.26,8.89,2.44,13.34,3.74Z" transform="translate(-6.61 -34.53)"/>
      <path d="M97.61,726.2,240,675.87c.32.74.64,1.48.95,2.22a84.41,84.41,0,0,1-8.63,4.4c-36.41,13.84-72.69,28.06-109.35,41.2-26.4,9.47-53.35,17.38-80,26.22-6.59,2.2-13.55,4.45-17.83,14.12,4.88-.7,8.16-.58,11-1.66q68.39-26.16,136.68-52.54c3-1.16,6.17-1.93,9.26-2.88.27.62.54,1.23.8,1.84-2.59,1.57-5,3.45-7.79,4.67-44.83,20-89.39,40.65-136.77,54.15a127.12,127.12,0,0,1-22.47,4.2c-3,.29-6.17-2.1-9.27-3.27,1.23-2.73,1.79-6.25,3.85-8a58.75,58.75,0,0,1,14-9.38c22-9.91,44.38-19,66.34-29.07a911.91,911.91,0,0,0,130.72-73.64,13,13,0,0,1,5.9-2.34C188,679,141.49,700.21,96.82,724.48Z" transform="translate(-6.61 -34.53)"/>
      <path d="M595.45,141.59c1.79,10.17-1.27,18.55-7.4,25.85-13.53,16.1-42.26,21.8-60.45,12.18-19.28-10.2-29.67-35.05-23.64-56.51,5-17.72,23.76-31.67,43.87-33.55,20.64-1.93,41.21-4.67,61.82-6.91a57,57,0,0,1,12.52-.14c1.74.2,3.85,2.12,4.62,3.8.37.8-1.69,3.37-3.17,4.27-11.58,7-24.68,8.68-37.73,9.19-10.28.4-20.65-.88-30.95-1.8-16.45-1.49-30.17,3.58-38.58,18-8.57,14.73-7.15,30.05,2,44.19,11.11,17.16,41.24,20.67,55.84,6.55,1.5-1.45,1.6-5.94.53-8.15-4.41-9.19-7.14-18.61-4.51-28.61,1-3.88,4.28-7.18,6.51-10.75,4.34,3,8.85,5.5,9,12.17C586,141.84,587.58,143.1,595.45,141.59Z" transform="translate(-6.61 -34.53)"/>
      <path d="M357.28,422.55c-3.91,1.62-7.74,4.34-11.75,4.64-10,.77-20.2.27-30.3.58q-58.08,1.73-116.15,3.68c-41.42,1.45-82.83,3.17-124.24,4.62-5.37.19-10.78-.53-17.62-.9L75.66,457c-11.67-2.51-20.9-11.49-22.1-20.68-.25-1.87,2-5.15,3.93-6,2.78-1.23,6.26-1,9.46-1.1,44.85-1.83,89.69-4,134.55-5.32,40-1.18,80-1.49,119.94-2.09,11.54-.17,23.07,0,34.61,0Z" transform="translate(-6.61 -34.53)"/>
      <path d="M596.39,316.14c1.94,16.13-5.38,29.85-23.48,37.07A80.37,80.37,0,0,1,561,357.15c-25.44,5.77-49.39-8.3-55.17-32.25-6.34-26.31,7.85-52.31,32.26-58.2,15.61-3.77,30.35-.91,43.87,7.9C596.25,283.91,597.46,298.21,596.39,316.14Zm-6.12-3.66A41.31,41.31,0,0,0,549,271.07c-20.59,0-38.36,17.8-38.25,38.22.11,20,23.31,42.67,43.45,42.45C570.79,351.56,590.29,330.36,590.27,312.48Z" transform="translate(-6.61 -34.53)"/>
      <path d="M478.68,421.84c10.29-7.52,114.39-12.33,125.74-6.5-7.26,1.14-13.15,2.49-19.12,2.93-28.54,2.13-57.08,4.22-85.65,5.83C493.37,424.46,487,422.8,478.68,421.84Z" transform="translate(-6.61 -34.53)"/>
      <path d="M607.88,156.42,641.75,130l2.49,1.27c-.44,2.7.11,6.45-1.47,7.91A66.91,66.91,0,0,1,607.88,156.42Z" transform="translate(-6.61 -34.53)"/>
      <path d="M116.91,147.39c-1.14-19.14,20.06-40,49.41-46.1-11.22,6.6-22.23,10.85-30.12,18.36C128.08,127.39,123,138.32,116.91,147.39Z" transform="translate(-6.61 -34.53)"/>
      <path d="M643.63,320.12c-10.16,12.34-24,14.52-37.69,18.92C610.74,330,632.15,319.08,643.63,320.12Z" transform="translate(-6.61 -34.53)"/>
      <path d="M215.65,712.54l-76.36,23.74-.72-2.31,76.52-23.32C215.28,711.28,215.47,711.91,215.65,712.54Z" transform="translate(-6.61 -34.53)"/>
      <path d="M359.46,119.12,334.32,97.65C344.73,97.34,356.15,106.62,359.46,119.12Z" transform="translate(-6.61 -34.53)"/>
      <path d="M146.21,75C157.5,63.66,172.29,60.89,187.05,58Z" transform="translate(-6.61 -34.53)"/>
      <path d="M149.05,748.89,112.13,759l-.66-2.33,37-10.2Z" transform="translate(-6.61 -34.53)"/>
      <path d="M562.74,283.9c-4.06,3.5-8.1,7-12.21,10.48-4.44,3.73-8.25,7.73-3.75,13.7,3.46,4.6,13.6,5.1,18.19,1.12,3.35-2.92,6.28-6.41,9.95-8.82,1.9-1.24,5-.68,7.54-.93-1.07,2.71-1.39,6.36-3.37,7.91-3,2.34-7.17,3.11-10.76,4.75-5.74,2.61-6.88,5.78-5.25,12.8,1.91,8.2,7.89,8.5,14.49,11.93-16.71,6-24.81-6.83-33.54-11.42-4.65,0-8,1-9.88-.26-2.28-1.49-5-5.18-4.63-7.38,2.34-12.83,6.67-25,18.65-32.2,4-2.37,9-3,13.52-4.39Z" transform="translate(-6.61 -34.53)"/>
    </g>
  </g>
</svg>
