<svg xmlns="http://www.w3.org/2000/svg" viewBox="0 0 283.24 136.65">
  <g id="Layer_1" data-name="Layer 1">
    <path d="M270.33,767.45c2.21-.74,4.66-6.42,4.1-8.28.41-.12,1.07-.13,1.18-.38.93-2.16,2.28-4.31,2.47-6.56s1.93-3.57,2.37-5.56c.13-.6.93-1.52,1.35-1.48a2.7,2.7,0,0,1,1.89,1.27c1,2.25,1.82,4.6,2.74,6.89,1.91,4.82,3.85,9.63,5.84,14.6-2.59,1-4.07,0-5.31-1.93-1.75-2.72-3.85-3.57-6.87-2.61a5.29,5.29,0,0,0-2.56,2C275.57,768.27,274.63,768.64,270.33,767.45Zm12.57-8.91.86-.14c-.31-1.5-.62-3-.95-4.67C280.6,756.23,280.61,756.41,282.9,758.54Z" transform="translate(-92.08 -631.91)"/>
    <path d="M317.88,764.42c.23,2.15-.22,3.6-2.28,4-2.53.54-6-1.13-6.48-3.47a41,41,0,0,1-.45-6.39c-.1-1.75.7-3.78-1.62-4.85-.28-.12-.19-1-.25-1.42,2.42-1.47,1.82-6.18,6.19-5.59a4.24,4.24,0,0,1,0,1.24c-.88,2.48,0,3.41,2.56,3.24,1.43-.09,2.2.65,1.9,2.17s-.87,1-1.93.64c-1.71-.57-2.71.72-2.87,2.24a23.85,23.85,0,0,0,0,5.91c.24,1.62,1.17,3,3.29,2.43A12.93,12.93,0,0,1,317.88,764.42Z" transform="translate(-92.08 -631.91)"/>
    <path d="M330.85,752.48c-.75,1.87-2.21,2.11-4,1.95a7.43,7.43,0,0,0-2.39.6,11.27,11.27,0,0,0,1.35,2.58c.44.48,1.36.51,2.05.78a5.28,5.28,0,0,1,3.61,5.6c-.32,2.4-2.28,4-5.09,4.14a15.51,15.51,0,0,1-3.46.12,4.2,4.2,0,0,1-2.36-1.4c-.3-.37-.05-1.81.3-2a3.29,3.29,0,0,1,2.52,0c1.57.83,2.81.61,3.56-.87.87-1.72-.33-2.35-1.79-3a13.76,13.76,0,0,1-3.93-2.48,4.17,4.17,0,0,1,1.47-7A8.36,8.36,0,0,1,330.85,752.48Z" transform="translate(-92.08 -631.91)"/>
    <path d="M294.42,767.69c0-4.6-.09-9.1,0-13.6.07-2.87.25-2.9,3.58-2.85l-1.32,1.93.32.37a7.42,7.42,0,0,1,1.63-1.1,24,24,0,0,1,4.86-1.33c.57-.07,1.27.94,1.91,1.45-.58.59-1.06,1.54-1.75,1.72-5.15,1.35-5.25,1.42-5.18,6.85,0,1.25.06,2.49,0,3.73C298.49,767.79,297.89,768.26,294.42,767.69Z" transform="translate(-92.08 -631.91)"/>
    <g id="yQjEOB.tif">
      <g>
        <path d="M92.08,750a6.26,6.26,0,0,1,3.17-2.34c1.7-.68,3.34-1.49,5-2.21.8-.34,1.67-.53,2.45-.91,3.9-1.88,7.81-3.74,11.64-5.74,2.32-1.21,4.5-2.67,6.74-4,.76-.44,1.55-.81,2.29-1.28,1.12-.72,2.19-1.49,3.29-2.23l1.09-.71.15.17a5.36,5.36,0,0,1-.73.7,101.91,101.91,0,0,1-10.81,6.83c-3.3,1.69-6.57,3.44-9.85,5.17a1,1,0,0,0-.45.44,7.87,7.87,0,0,0,1.09-.26q4.92-1.73,9.82-3.47c3.69-1.31,7.38-2.64,11.07-3.94.62-.22,1.26-.34,1.89-.51l.09.2a9.12,9.12,0,0,1-1,.53c-2.84,1.15-5.68,2.33-8.55,3.41-3.23,1.21-6.5,2.31-9.74,3.5-1.54.56-3,1.26-4.58,1.81-.87.3-1.82.39-2.72.62s-1.89.49-2.82.8c-1.32.43-2.63.88-3.9,1.41a4.45,4.45,0,0,0-1.34,1,.81.81,0,0,0-.07.69c0,.11.37.18.56.17a2.49,2.49,0,0,0,.81-.17c2.17-.81,4.33-1.68,6.51-2.47,1.82-.65,3.67-1.21,5.5-1.85.85-.29,1.67-.64,2.5-1l8.55-3.57a6.2,6.2,0,0,1,.77-.2l.11.26a6.87,6.87,0,0,1-1,.64c-1.79.8-3.59,1.57-5.39,2.36-2.51,1.1-5,2.32-7.56,3.29-3.32,1.26-6.71,2.36-10.09,3.45a17.7,17.7,0,0,1-3,.52,1.82,1.82,0,0,1-1.59-.64Z" transform="translate(-92.08 -631.91)"/>
        <path d="M139.3,631.91c-.23.21-.42.5-.69.61s-.83.16-1.24.28c-.22.05-.52.14-.61.31-.28.58-.82.6-1.33.71a34.25,34.25,0,0,0-7.49,2.33c-1,.47-1.88,1.05-2.82,1.59l.08.25a7.48,7.48,0,0,0,1.26-.09c1.45-.35,2.89-.73,4.33-1.12,1.91-.53,3.82-1.12,5.75-1.57a5.76,5.76,0,0,1,2.25.1c-.25.1-.49.22-.74.3-1.32.42-2.64.8-4,1.23a1.89,1.89,0,0,0-.7.49,3.54,3.54,0,0,1-2.46.95c-3.6.23-7.2.37-10.81.53a2.18,2.18,0,0,1-1-.26,2.61,2.61,0,0,1,.53-.31c1.34-.44,2.69-.84,4-1.32a5.36,5.36,0,0,0,2.46-1.5c-1.89.33-3.55,1.33-5.35,1.9a14.51,14.51,0,0,1,7.4-3.49A75,75,0,0,0,138.51,632a2.39,2.39,0,0,0,.28-.13Z" transform="translate(-92.08 -631.91)"/>
        <path d="M135.94,665.14c1.06.16,2.12.4,3.18.48a38.55,38.55,0,0,0,9.72-.12A110.4,110.4,0,0,1,166,664c1.65,0,3.29.17,4.94.14,1.9,0,3.79-.2,5.69-.28,1.28-.06,2.56-.07,3.85-.1a.85.85,0,0,1,.43.06c1.24,1,2.69.8,4.12.79,1.25,0,2.51,0,3.76,0a2.1,2.1,0,0,1,.58.2V665c-.47.11-.94.26-1.42.33a73.37,73.37,0,0,1-9,.68c-1.58,0-3.15.33-4.73.38s-3.1-.06-4.65-.1c-1.2,0-2.39,0-3.58-.05-3.69-.28-7.33.31-11,.58-2.68.21-5.37.25-8.06.34-1,0-1.93,0-2.89,0a36,36,0,0,1-6.64-.44,16,16,0,0,0-2.59,0l0,.19a11.86,11.86,0,0,0,2.1.37,5.25,5.25,0,0,1,3.13,1,4.16,4.16,0,0,0,2.4.75,2.64,2.64,0,0,1,1,.22c.76.33.89.68.66,1.48a6.66,6.66,0,0,0-.16,1,36.84,36.84,0,0,1-7.12,4c-2.24.84-4.45,1.74-6.68,2.58-.47.18-1,.48-1.51.11,1.52-1,3-1.88,4.49-2.83s3.24-1.35,4.53-2.59l-.09-.2-.59.16c-.79.23-1.58.48-2.38.68-.16,0-.35-.08-.53-.12a1.53,1.53,0,0,1,.19-.57,4.52,4.52,0,0,1,1.11-.95,1.67,1.67,0,0,0,1-1.53,15.55,15.55,0,0,0-.07-1.67l-.18,0-.33.38a4.7,4.7,0,0,0-2.11-2.56,6.22,6.22,0,0,0,.18.62,4.43,4.43,0,0,1,0,4.07,7.87,7.87,0,0,1-1.14,1.77,38.69,38.69,0,0,1-11.13,9,18.69,18.69,0,0,1-10.06,2.2,17.08,17.08,0,0,1-6.3-1.83,16.83,16.83,0,0,1-2.79-2.33,11.42,11.42,0,0,1-2.74-3.87c-2.3-4.61-2.47-9.43-1.62-14.37a41.39,41.39,0,0,1,2.28-8.83A35,35,0,0,1,103,647.4a27.9,27.9,0,0,1,3.73-4.2c.36-.36,1-.39,1.59-.57l.09.17a5.52,5.52,0,0,1-.55.4,7,7,0,0,0-3.14,3.16c-.86,1.67-1.8,3.29-2.67,4.95a7.31,7.31,0,0,0-.42,1.3l.21.11c.22-.3.44-.59.64-.89.92-1.44,1.81-2.9,2.77-4.3.37-.53,1-.91,1.39-1.41s.83-1.08,1.26-1.61a11.64,11.64,0,0,1,1.1-1.23,1.26,1.26,0,0,1,.76-.28c1.27-.08,2.54-.13,3.81-.17a1.83,1.83,0,0,1,1,.26,3.25,3.25,0,0,1-.62.45,7.91,7.91,0,0,0-2.71,2c-.66.67-1.34,1.32-2,2a3.25,3.25,0,0,0-.46.68,21,21,0,0,0-1.93,6.13,13,13,0,0,0-.22,1.39.63.63,0,0,0,.18.5c.11.07.35,0,.51-.12a1.06,1.06,0,0,0,.35-.28c1.69-1.84,4-2.58,6.22-3.39,3.17-1.14,6.39-.86,9.61-.21.79.16,1.57.36,2.36.57a4.1,4.1,0,0,1,2.88,2.5c.36.85.7,1.7,1.07,2.54.19.42.42.83.72,1.4a5,5,0,0,0,.59-.82,6.23,6.23,0,0,0,.36-3.39,1,1,0,0,0-.85-.92,3.52,3.52,0,0,1-1.19-.57,26.81,26.81,0,0,1,6.63-.31l.08-.18a3.09,3.09,0,0,0-.57-.47,5.5,5.5,0,0,0-4-.51,19.57,19.57,0,0,1-3.16.46,2.7,2.7,0,0,1-.78-.13,1.92,1.92,0,0,1,1.26-1,19.15,19.15,0,0,1,5-.77,7.3,7.3,0,0,1,4.69,1.16,4.67,4.67,0,0,0,2.42.62c1.92,0,3.84-.17,5.75-.26.42,0,.84,0,1.38,0a8.89,8.89,0,0,1-4.18,1.15c-1.41.07-2.83,0-4.26.1a4,4,0,0,0,2.33.69,20.7,20.7,0,0,0,2.2-.21,13,13,0,0,1,1.53,0c.41,0,.44.26.24.57s-.22.32-.32.48a1.17,1.17,0,0,0,0,1.25,11.2,11.2,0,0,1,.88,2.32,2,2,0,0,1-1.54,2.41l-.74.19a3.2,3.2,0,0,0-2.8,3.12.89.89,0,0,1-.92.94c-1,0-2,0-2.93-.08L136,665Zm-31.4,1.1,0-.09,1.66-.15a3.13,3.13,0,0,0,2.89-2.5c.06-.22.13-.45.18-.68.45-2,.58-4.06,1.74-5.84.1-.15.12-.52,0-.58a.9.9,0,0,0-.65-.08c-.68.18-1.34.42-2,.63a4.4,4.4,0,0,1-2.82.2.6.6,0,0,0-.4.09,6.41,6.41,0,0,0-3.61,5.38,1.09,1.09,0,0,1-.72,1.12c-.71.28-.76.85-.17,1.33a2.83,2.83,0,0,0,1.06.58C102.66,665.89,103.6,666.05,104.54,666.24Zm6.94,16.19,1,.18-.22.3a13.68,13.68,0,0,0,9.85-2.66l-2.68.59-.09-.3c.42-.17.83-.36,1.25-.5,1-.32,2-.58,3-.94a7.83,7.83,0,0,0,1.31-.76l-.12-.29a14.7,14.7,0,0,0-1.63.33c-1.39.47-2.73,1.07-4.13,1.47a9.39,9.39,0,0,1-6.68-.29,17.32,17.32,0,0,0-2-.77,3.2,3.2,0,0,0-1.19-.15c-.58.05-.73.34-.39.8.47.65,1.05,1.23,1.58,1.83Zm10.72-29.11v-.19c-.9-.11-1.79-.26-2.69-.32s-1,.24-.83,1c.26,1.4.07,1.75-1.19,2.46a6.47,6.47,0,0,0-3,3.61,2.61,2.61,0,0,0,.43,2.65c.26.3.55.45.88.24a8.67,8.67,0,0,0,2.2-1.57,29.43,29.43,0,0,0,1.9-3.23,1.57,1.57,0,0,0-.26-2.1,4,4,0,0,1-.55-1.16l1.33-.5h.06C121.29,654.36,121.69,653.73,122.2,653.32ZM100.32,667c1.54,1.26,8.24,1.21,9.07-.1C106.28,667.19,103.3,666.27,100.32,667Z" transform="translate(-92.08 -631.91)"/>
        <path d="M193.85,716.4c.65-.91,1.2-1.8,1.87-2.6a14.56,14.56,0,0,1,10.45-5.4,9.88,9.88,0,0,1,7.18,2.22c2.64,2.2,3.45,5.18,3.12,8.46a16.46,16.46,0,0,1-5.15,10.45c-.87.85-1.56,1.88-2.46,2.7A93.17,93.17,0,0,1,197.94,741a25.53,25.53,0,0,0-2.95,2.56,8.39,8.39,0,0,1-3.55,2.12c-.09-1.37-.23-2.71-.26-4-.05-2.56,0-5.13,0-7.69q0-17.25,0-34.49c0-3.61.08-7.22.14-10.82,0-1.14.23-1.37,1.29-1.65a1.14,1.14,0,0,1,1.51.72,5.15,5.15,0,0,1,.37,1.73c0,2-.09,4.1-.11,6.15,0,2.26,0,4.53,0,6.79,0,2,.07,3.93.11,5.9A33.28,33.28,0,0,1,193.85,716.4Zm.26,24.87a54.4,54.4,0,0,1,5.41-5.53,52.15,52.15,0,0,0,7.55-7.89,11.38,11.38,0,0,0,1.55-2.33c1.27-2.59,2.48-5.17,2.2-8.22a5.87,5.87,0,0,0-4.43-5.15,8.14,8.14,0,0,0-2.87,0c-4.15.69-6.86,3.29-8.71,6.9a4.64,4.64,0,0,0-.43,2.09c0,2.35.06,4.7.07,7,0,1.28-.08,2.56-.09,3.84,0,2.22,0,4.44,0,6.66C194.33,739.55,194.19,740.44,194.11,741.27Z" transform="translate(-92.08 -631.91)"/>
        <path d="M211.06,670.25c.2-.32.46-.8.77-1.25a12.9,12.9,0,0,1,11.62-5.89,8.1,8.1,0,0,1,4.6,1.9c2.48,1.86,3.11,4.41,2.93,7.31a14.56,14.56,0,0,1-4.2,9.12c-.85.92-1.71,1.85-2.58,2.76a60.12,60.12,0,0,1-7.69,6.36,23.14,23.14,0,0,0-4.56,3.88,3.69,3.69,0,0,1-3.09,1.33,10.49,10.49,0,0,1-.13-1.11c0-3.14-.12-6.28-.13-9.42q0-14.75,0-29.49c0-3.42.08-6.84.14-10.26,0-1,.14-1.16,1-1.35s1.54.11,1.67,1a23.49,23.49,0,0,1,.13,3.25c0,1.26-.08,2.52-.09,3.78,0,2.73,0,5.47,0,8.2,0,1.43.16,2.86.1,4.29C211.44,666.58,211.22,668.48,211.06,670.25Zm.23,21.75c.58-.61,1.24-1.36,2-2.06,1.22-1.19,2.51-2.31,3.7-3.54,2-2,4-4.06,5.78-6.25A12.94,12.94,0,0,0,226,671a5.06,5.06,0,0,0-3.36-4.46,8.14,8.14,0,0,0-5.78.77,11.9,11.9,0,0,0-5,5,2.75,2.75,0,0,0-.34,1.25c0,3.91.09,7.82.08,11.72C211.5,687.61,211.37,689.87,211.29,692Z" transform="translate(-92.08 -631.91)"/>
        <path d="M274,639l-1.43-.39v-.18c.27,0,.54-.1.81-.12l5-.37c.51,0,1-.15,1.52-.14l15.58.36.44,0,.05.18-2.37.58V639l7.1.25,0,.25a16.87,16.87,0,0,1-2.32.28c-3,0-5.94-.11-8.91-.17-2.79,0-5.59-.12-8.39-.13-3.4,0-6.8.15-10.19,0a26,26,0,0,1-4.91-.88,24.22,24.22,0,0,0-7.5-.45,59,59,0,0,1-9.86-.23c-1.89-.17-3.8-.21-5.7-.31-2.71-.15-5.41-.32-8.13-.44-1.75-.07-3.51.06-5.25-.09-7.56-.63-15.13-.33-22.69-.34-4,0-8,.15-12,.39-2.57.16-5.12.64-7.69.89-2,.19-4.09.36-6.14.38-5,0-10-.05-15,0-1.44,0-2.87.39-4.32.52-3.5.31-7,.63-10.53.85-2.68.17-5.38.15-8.07.27-.87,0-1.72.27-2.59.38-1.1.14-2.2.33-3.3.37-2.87.08-5.73,0-8.6.15-4.69.2-9.37.53-14.06.7a27.71,27.71,0,0,1-4.72-.35c-2.09-.27-4.17-.62-6.24-1a5.06,5.06,0,0,1-3.36-2.47A3.38,3.38,0,0,1,100,637c.3,0,.67-.16.91,0,1.44.69,2.84,1.44,4.26,2.16a3.07,3.07,0,0,0,.92.39c2.63.3,5.25.67,7.89.82a21.81,21.81,0,0,0,3.74-.4,6.51,6.51,0,0,1,.76-.07q6.32.12,12.62-.35c1.55-.12,3.13.1,4.68,0,2.76-.24,5.51-.63,8.26-1,.34,0,.68-.07,1-.08,3.33-.09,6.67-.07,10-.29,2.59-.16,5.16-.68,7.75-.92s5.19-.43,7.79-.46c4.81-.07,9.63.07,14.44,0,2,0,4-.55,6-.79a53.93,53.93,0,0,1,8.43-.52c2.62.09,5.25-.14,7.88-.24,1.41-.05,2.81-.19,4.22-.2,4,0,8,0,11.93,0,1.79,0,3.57.29,5.36.36,2.54.09,5.09,0,7.63.15,1.56.06,3.1.31,4.66.38,2.41.12,4.83.16,7.24.25.58,0,1.15.11,1.72.17,1.06.11,2.12.21,3.17.35a12.71,12.71,0,0,1,1.48.35c.48.13,1,.26,1.44.41,1.51.48,3,0,4.53,0a43.15,43.15,0,0,1,6.21.86c2.17.33,4.35.57,6.53.84a3.62,3.62,0,0,0,.57,0Zm12-.26v-.26a54.61,54.61,0,0,0-8.19.26Z" transform="translate(-92.08 -631.91)"/>
        <path d="M347.16,682.31c-.37.44-.75.87-1.1,1.32a8.94,8.94,0,0,1-4.93,3.53,9.26,9.26,0,0,1-5.7.05A9.44,9.44,0,0,1,329,679.4a10.91,10.91,0,0,1,.58-6.33,8,8,0,0,1,6.09-4.94,10.6,10.6,0,0,1,6.88.73,8.42,8.42,0,0,1,2.77,2c.65.76,1.34,1.49,2,2.24.05-.07.1-.11.09-.12-.54-1.13-1.05-2.28-1.64-3.39a3.65,3.65,0,0,0-3.3-2c-.85,0-1.68-.25-2.53-.37a18.3,18.3,0,0,0-6.17.31c-1.48.3-3,.56-4.48.74a21.67,21.67,0,0,1-2.55,0c-.45,0-.89,0-1.34.07a17.12,17.12,0,0,1-5.36-.8,20.86,20.86,0,0,0-8.76-.08,22.12,22.12,0,0,1-3.05.07c-.76,0-1.53,0-2.29,0a2.39,2.39,0,0,0-1.79,1,2.25,2.25,0,0,1-2.51.6,1.77,1.77,0,0,1-1.38-1.67c.83,0,1.65,0,2.47-.12,1.31-.15,2.61-.43,3.93-.55s2.68-.07,4-.14c.79,0,1.57-.22,2.35-.24,1.24,0,2.48,0,3.71,0,6.54,0,13.09,0,19.63,0a33.31,33.31,0,0,1,4.79.3,37.61,37.61,0,0,1,4.28,1c.88.24,1.75.52,2.61.83a1,1,0,0,1,.53.57,23.8,23.8,0,0,1,1.42,9.11,39.3,39.3,0,0,1-.63,3.91c-.45,2.3-.86,4.61-1.43,6.88a12.28,12.28,0,0,1-1.79,4.74,9.76,9.76,0,0,1-7,3.63,12.31,12.31,0,0,1-8.59-2,1.45,1.45,0,0,0-.47-.16,1.45,1.45,0,0,1-1.23-1.3,1.9,1.9,0,0,1,.84-1.82,1.37,1.37,0,0,1,1.68.37,8.91,8.91,0,0,0,4.28,2.19,10.23,10.23,0,0,0,4.7-.11,6.12,6.12,0,0,0,4.78-5.38c.13-.87.21-1.74.42-2.59a16.78,16.78,0,0,1,.81-2.21c.3-.72.66-1.41,1-2.12Zm-15.05-5.55a9.84,9.84,0,0,0,1.62,5.45,6.44,6.44,0,0,0,7.28,2.56,11.61,11.61,0,0,0,4.14-2.4c2.85-2.38,2.86-7.25-.62-10a9.23,9.23,0,0,0-6.36-2,5.71,5.71,0,0,0-5.61,4.15A15.68,15.68,0,0,0,332.11,676.76Z" transform="translate(-92.08 -631.91)"/>
        <path d="M264.6,752.31c-.52.05-1.05.14-1.57.15-3.47,0-6.93.12-10.39.11-4.71,0-9.41-.12-14.11-.09a71.17,71.17,0,0,0-8.26.4c-5.87.74-11.77.7-17.66.87-.65,0-1.3.16-2,.24l0,.22,5.69.26v.11c-2.15.19-4.31.4-6.46.56a53.82,53.82,0,0,1-6.33.34,51.2,51.2,0,0,0-11.46.95c-1.4.26-2.78.73-4.18.87-1.61.15-3.24,0-4.87,0-2,0-4,0-6.08,0-1.56,0-3.12.09-4.67.28-2,.25-3.94.68-5.92,1-1.65.25-3.3.43-5,.62a35.46,35.46,0,0,1-3.69.37c-2.69.06-5.39,0-8.08,0-6.7,0-13.39,0-20.08,0-3.61,0-7.23,0-10.84-.16-1.83-.05-3.66-.31-5.49-.5-2.88-.29-5.77-.58-8.66-.89a3.41,3.41,0,0,1-1-.27.85.85,0,0,1-.53-1,.73.73,0,0,1,.84-.69c1.18.06,2.37.14,3.56.26,2.44.23,4.89.45,7.33.75a114.43,114.43,0,0,0,12.42.38c6.35.1,12.69.29,19,.4,2.57,0,5.13,0,7.7,0a73.11,73.11,0,0,0,15.79-1.94,28.26,28.26,0,0,1,6.12-.46c3.95-.08,7.91,0,11.86-.08a12,12,0,0,0,2.91-.41,46.7,46.7,0,0,1,12.69-1.37c2.87,0,5.75-.29,8.63-.43,1.22-.06,2.43-.08,3.65-.1,2.31,0,4.62,0,6.92-.12,3.43-.24,6.85-.71,10.27-1a68.48,68.48,0,0,1,9.16-.32c7.3.46,14.61.33,21.92.39.23,0,.45,0,.68,0Z" transform="translate(-92.08 -631.91)"/>
        <path d="M295.32,721.72c-.22-1.27-.47-2.54-.67-3.82a14.1,14.1,0,0,1-.13-5.53c.13-.56,0-1.19.06-1.78a2,2,0,0,1,3.26-1.57,3.6,3.6,0,0,1,1.38,4.5,7,7,0,0,0-.43,2.67c0,3.83,0,7.65,0,11.48a2.73,2.73,0,0,0,.27,1.15,4.46,4.46,0,0,1-.9,5.34,3.61,3.61,0,0,1-.89.61,1.34,1.34,0,0,1-2.1-1,13.79,13.79,0,0,1,0-2.22c-.47.62-1,1.37-1.59,2.06-.86,1-1.87,2-3.23,1.85-2.32-.18-4.66-.51-6.47-2.21a8.42,8.42,0,0,1-2.76-5.87,9.55,9.55,0,0,1,1.9-6.5,7.87,7.87,0,0,1,9.89-1.94,3.21,3.21,0,0,1,1.66,1.94,5.31,5.31,0,0,0,.55,1Zm-5.08,9.72a4.53,4.53,0,0,0,4.44-4.46c-.07-3.12-1.29-5.26-4.75-5.26-2.73,0-4.6,1.83-4.61,5A4.85,4.85,0,0,0,290.24,731.44Z" transform="translate(-92.08 -631.91)"/>
        <path d="M134.84,724.34c2.84-3.83,4.72-8.2,7.23-12.21a65.71,65.71,0,0,0,6.86-15.92,28.23,28.23,0,0,0,1.4-5.57c.23-2.27.47-4.54.8-6.79a13.5,13.5,0,0,1,3.1-7.31,7.27,7.27,0,0,1,.57-.54l.17.11a4.07,4.07,0,0,1-.43,1.09,11.52,11.52,0,0,0-2.15,5.61c-.38,2.44-.61,4.91-.9,7.36-.16,1.29-.33,2.58-.5,4l.78-.25a11.13,11.13,0,0,1,4.31-.82,1.23,1.23,0,0,0,.67-.28c3-2.06,4.44-5,5.28-8.43a26.11,26.11,0,0,1,1.13-3.58,4,4,0,0,1,1.19-1.53,17,17,0,0,1,5.36-3.08,7.46,7.46,0,0,0,1.18-.74,2.32,2.32,0,0,1,.65-.09,1.49,1.49,0,0,1,0,.6A10.93,10.93,0,0,1,170.4,678a8.37,8.37,0,0,0-1.58,4.33c-.27,2.18-.41,4.37-.67,6.55a21.1,21.1,0,0,1-.69,3.71A17.38,17.38,0,0,1,166,696c-1.61,2.91-3.32,5.77-5,8.66a77.83,77.83,0,0,1-5.69,9.34c-1,1.26-1.92,2.51-2.9,3.74a5.1,5.1,0,0,1-.65.57l-.2-.15c.41-.7.8-1.41,1.25-2.09,2-3.08,4.2-6.08,6.11-9.23,1.4-2.31,2.48-4.8,3.69-7.23a1.88,1.88,0,0,0,.2-1.79c-.53,1.52-1.76,2-2.93,2.48a3.26,3.26,0,0,0-2.12,2.22c0,.16-.41.25-.63.37-.1-.19-.3-.4-.27-.55a6.7,6.7,0,0,1,.46-1.46c.46-1,1-2,1.46-2.92a1.36,1.36,0,0,0-1.26-2.12,15.69,15.69,0,0,0-2.68.53c-.44.09-.86.26-1.3.35-.16,0-.36-.09-.54-.14.12-.15.22-.41.37-.45.84-.22,1.69-.41,2.55-.55a16,16,0,0,0,2.14-.39c-1.34-.14-2.68-.32-4-.42a2.53,2.53,0,0,0-2.26,1.12c-.35.48-.62,1-.94,1.52-.48.74-1,1.46-1.45,2.23s-.69,1.32-1,2c-1.43,2.95-2.76,5.95-4.31,8.84s-3.44,5.89-5.15,8.84c-.54,1-1,2-1.46,2.92a3.93,3.93,0,0,1-2.45,2.11Zm29.28-43.77-.07,0a3.51,3.51,0,0,0-.26.56c-.59,2.42-1.16,4.84-1.78,7.25a6,6,0,0,1-.67,1.61c-.31.53-.8.95-1.1,1.48a1.38,1.38,0,0,0,0,1c.13.39.49.35.86.3,1.5-.23,3-.5,4.51-.58.91,0,1.2-.51,1.4-1.23a4.66,4.66,0,0,0,.15-.62c.17-1.8.4-3.6.49-5.41.12-2.42.3-4.82,1.62-7a3.64,3.64,0,0,0,.23-.77l-.19-.12a12.15,12.15,0,0,0-1.07.77,21.12,21.12,0,0,0-3.55,5.05,2.86,2.86,0,0,1-.5.48,2,2,0,0,1-.23-.67C164,682,164.06,681.27,164.12,680.57Z" transform="translate(-92.08 -631.91)"/>
        <path d="M221.53,726.53c-.16-4.28,3-8.9,9.35-8.53,4.93.3,8.24,3.42,8.26,8.67,0,5.55-4.61,8.82-9.75,8.46A8.29,8.29,0,0,1,221.53,726.53Zm8.8-4.88a4.65,4.65,0,0,0-4.71,4.71,4.7,4.7,0,1,0,9.38.31A4.67,4.67,0,0,0,230.33,721.65Z" transform="translate(-92.08 -631.91)"/>
        <path d="M352,717.92a7.39,7.39,0,0,1,7,4.79c.24.61.56,1.2.76,1.83.66,2-.26,3.38-2.36,3.68a13.07,13.07,0,0,1-4.32-.31,9.26,9.26,0,0,0-4.19,0,3.54,3.54,0,0,0-.55.18c-1,.44-1.18,1.2-.37,1.89a13.37,13.37,0,0,0,2.65,1.75,2.76,2.76,0,0,0,2.42-.14c.7-.31,1.37-.7,2.08-1a3.11,3.11,0,0,1,1.35-.3,1.64,1.64,0,0,1,1.2,2.66,3.35,3.35,0,0,1-1.09,1,9.41,9.41,0,0,1-10.46-.89,7.93,7.93,0,0,1-2.83-7c0-.63.15-1.27.24-1.9.54-3.39,4.3-5.73,6.81-6.06C350.86,718,351.42,718,352,717.92Zm-4.52,6.91h2.94c1.3,0,2.61,0,3.9-.09s1.58-.86.76-1.91a4.31,4.31,0,0,0-6.46-.66A3,3,0,0,0,347.45,724.83Z" transform="translate(-92.08 -631.91)"/>
        <path d="M313.12,732.85a3.51,3.51,0,0,1-.3.36,6.51,6.51,0,0,1-9,.39,4.58,4.58,0,0,1,.52-7.31,11.34,11.34,0,0,1,4.94-1.63,19.41,19.41,0,0,1,2.16,0c.7,0,1.5.07,1.86-.7s-.19-1.39-.69-1.9a3.75,3.75,0,0,0-3.17-1.25,6,6,0,0,0-1.63.62c-.45.21-.83.54-1.28.71a1.66,1.66,0,0,1-2.1-.59,1.8,1.8,0,0,1,.25-2.29,3.22,3.22,0,0,1,1.5-.77,35,35,0,0,1,4.89-.43,8.66,8.66,0,0,1,3,.64c2,.77,2.75,2.56,3.05,4.48a37.25,37.25,0,0,1,.23,4.85c0,1.47,0,2.94,0,4.42v.19c0,1.42-.64,2.24-1.75,2.35S313.44,734.3,313.12,732.85Zm.11-3.89a1.62,1.62,0,0,0-2-1.81c-.92.11-1.84.3-2.74.5a2.35,2.35,0,0,0-1.88,2.46,2.12,2.12,0,0,0,2.23,2c.53,0,1.06-.2,1.58-.15C311.93,732.1,313.19,730.46,313.23,729Z" transform="translate(-92.08 -631.91)"/>
        <path d="M253.7,732.27c-.45.57-.87,1.18-1.36,1.73a3.68,3.68,0,0,1-3.82,1.2c-.56-.13-1.15-.12-1.71-.26a5.16,5.16,0,0,1-3.64-4,9.08,9.08,0,0,1-.35-3.53,34.9,34.9,0,0,0,0-4,31.91,31.91,0,0,1,.08-3.39,1.78,1.78,0,0,1,1.7-1.78,2,2,0,0,1,2.17,1.42,10.71,10.71,0,0,1,.34,2.71c0,1.38-.08,2.77-.16,4.16a7.05,7.05,0,0,0,.6,3.11,2.82,2.82,0,0,0,3.27,1.64,3.52,3.52,0,0,0,2.92-4.1,61.18,61.18,0,0,1-.1-6.21,5.46,5.46,0,0,1,.14-1.2c.4-2,1.83-2.06,3.26-1.5a1,1,0,0,1,.42.72c.18,1.55.38,3.09.44,4.64.06,1.73-.06,3.47,0,5.2a11.75,11.75,0,0,0,.33,2.57c.4,1.75-.25,3.07-1.77,3.42a2.19,2.19,0,0,1-2.71-1.43A5.41,5.41,0,0,1,253.7,732.27Z" transform="translate(-92.08 -631.91)"/>
        <path d="M265.85,722.35c.16-.29.31-.59.49-.86a29.82,29.82,0,0,1,1.71-2.55,2.49,2.49,0,0,1,2.71-1c.75.19,1.58.06,2.34.23a5.19,5.19,0,0,1,4.11,4.82c.14,1.11,0,2.25,0,3.37,0,1.64.21,3.28.25,4.92a6.86,6.86,0,0,1-.26,2,2,2,0,0,1-2.23,1.53,1.73,1.73,0,0,1-1.71-1.81c0-1.44.1-2.89.19-4.34a8.66,8.66,0,0,0-.28-4,.66.66,0,0,1,0-.25c-.06-2.19-2-3-4-2.53a3.41,3.41,0,0,0-2.5,2.89c-.52,2.17-.07,4.29-.05,6.43a9.75,9.75,0,0,1-.18,2.16,1.82,1.82,0,0,1-2,1.54,1.6,1.6,0,0,1-1.76-1.5,15.37,15.37,0,0,1-.26-3.11c0-1.77.17-3.54.17-5.31a7.18,7.18,0,0,0-.44-2.23c-.63-1.72-.29-3.27,1-4.1a2.65,2.65,0,0,1,.8-.37c1.52-.41,2.51.49,2.23,2-.13.68-.35,1.33-.52,2Z" transform="translate(-92.08 -631.91)"/>
        <path d="M260.06,682.71a16.56,16.56,0,0,0-.78,1.51c-1.73,4.2-7.94,5-11.29,2.39a5.83,5.83,0,0,1-2.15-4.55c-.17-3.52-.2-7-.29-10.57,0-.49,0-1,0-1.47-.05-1.07.31-1.6,1.19-1.73a1.78,1.78,0,0,1,2,1.3,5.06,5.06,0,0,1-.11,1.44,12.74,12.74,0,0,0-.24,1.35c0,2.18-.08,4.37,0,6.54a16,16,0,0,0,.63,3.7,3.8,3.8,0,0,0,3.62,2.76,5.67,5.67,0,0,0,2.46-.21,6.6,6.6,0,0,0,4.41-5.21c.48-2.43.83-4.88,1.14-7.33a23.25,23.25,0,0,0,0-3,14.14,14.14,0,0,1,.07-1.72c.06-.45.26-.9.8-1s1.19,0,1.39.66a6.16,6.16,0,0,1,.42,2.18q-.1,3.19-.43,6.39c-.19,1.86-.55,3.71-.75,5.58a15.66,15.66,0,0,0,.11,2.36c0,.7.1,1.4.08,2.11,0,1-.54,1.46-1.68,1.43-.77,0-1.2-.54-1.1-1.55s.33-1.84.51-2.76c0-.19.08-.39.13-.58Z" transform="translate(-92.08 -631.91)"/>
        <path d="M308.15,673.11l.93-1.73a6.35,6.35,0,0,1,5.38-3.4,8.79,8.79,0,0,1,4.82.71,5.67,5.67,0,0,1,2.48,2.64,12.4,12.4,0,0,1,.95,6.24c-.07,2.63,0,5.26,0,7.89a5.61,5.61,0,0,1,.1,1.07,1.64,1.64,0,0,1-.53.94,1.89,1.89,0,0,1-2.53-.61,2.32,2.32,0,0,1-.09-1.15c0-.46.22-.91.21-1.36,0-2.93-.05-5.85-.11-8.78a5.54,5.54,0,0,0-1.66-4.1,4.74,4.74,0,0,0-3.78-1c-3.52.21-5.35,3.16-5.45,6s0,5.89-.05,8.83a7.83,7.83,0,0,1-.12,1.53,1.09,1.09,0,0,1-1.2.92c-.83,0-1.3-.24-1.45-.88a5.92,5.92,0,0,1-.12-1.46c0-1.48.08-3,.09-4.46,0-2.59,0-5.17,0-7.76,0-.85-.14-1.7-.18-2.55a6.54,6.54,0,0,1,.05-1.4A1.2,1.2,0,0,1,307,668a1.37,1.37,0,0,1,1.54,1,6.73,6.73,0,0,1-.07,1.95c-.08.61-.29,1.2-.43,1.8a1.5,1.5,0,0,0,0,.37Z" transform="translate(-92.08 -631.91)"/>
        <path d="M364.42,730.54a5.71,5.71,0,0,0,5.16,1.33c.69-.11,1.35-.37,1.46-1.21a2.28,2.28,0,0,0-1.26-2.06c-1-.34-2-.58-2.93-.9a15.44,15.44,0,0,1-2.32-.89A3.28,3.28,0,0,1,362.7,724c-.35-3.75,1.72-5.33,4.81-5.88a7.77,7.77,0,0,1,4.9.37,6.47,6.47,0,0,1,1.62,1.11,1.25,1.25,0,0,1-.16,2,4.5,4.5,0,0,1-.53.36.82.82,0,0,1-1.2-.09c-1.16-1.09-4-.83-5.07.37a.85.85,0,0,0,.09,1.38,7.6,7.6,0,0,0,1.77.85c1.1.39,2.25.66,3.35,1.07a4,4,0,0,1,3,3.16c.38,2.75-.49,5-3.62,5.9a10.67,10.67,0,0,1-6.18.24,6.32,6.32,0,0,1-2.05-1.12c-1.12-.91-1-2,.21-2.77C363.87,730.81,364.16,730.68,364.42,730.54Z" transform="translate(-92.08 -631.91)"/>
        <path d="M104.46,726a4.25,4.25,0,0,0,.63.64c.52.32,1.1.56,1.62.9a2.8,2.8,0,0,1,.57.69,2.74,2.74,0,0,1-.72.44c-.55.13-1.06.19-1.28-.6a2,2,0,0,0-.88-1c-.82-.53-1.7-1-2.55-1.47-.3-.18-.58-.39-1-.69a6.58,6.58,0,0,1,.8-.29,7.73,7.73,0,0,1,3.54.23,53.37,53.37,0,0,0,8.83,1.06c7.18.5,14.36.09,21.54.25,15.33.34,30.66,0,46,.18,1.84,0,3.67.1,5.51.18a2.11,2.11,0,0,1,1.58,1,14.27,14.27,0,0,1-1.58.32c-.68.05-1.37,0-2.05,0-4.75,0-9.49-.1-14.23-.13-7.32-.05-14.63-.07-21.94-.14-5.13-.05-10.26-.18-15.39-.24-5.71-.07-11.42-.09-17.13-.14a43.15,43.15,0,0,1-8.41-.77c-.67-.14-1.31-.4-2-.55a11.18,11.18,0,0,0-1.31-.13Z" transform="translate(-92.08 -631.91)"/>
        <path d="M325.06,722.39a3.47,3.47,0,0,0,.41-.45c.44-.65.89-1.3,1.29-2a4.16,4.16,0,0,1,4-2,1.42,1.42,0,0,1,1.37,1.07l.06.19c.61,1.72.18,2.43-1.63,2.66-.36,0-.72.07-1.09.09a3.53,3.53,0,0,0-3.49,3.8c-.06,2,0,4.05,0,6.08a9.32,9.32,0,0,1-.16,1.9,1.4,1.4,0,0,1-1.52,1.2,4.67,4.67,0,0,1-1.79-.34,1.56,1.56,0,0,1-.73-1.09,23.92,23.92,0,0,1,0-2.81v-7.23c0-1.35,0-2.69,0-4a1,1,0,0,1,.66-1.06,3.56,3.56,0,0,1,2.86,0c.78.32.93.87.47,1.59A4.26,4.26,0,0,0,325.06,722.39Z" transform="translate(-92.08 -631.91)"/>
        <path d="M269.1,667.43a9.81,9.81,0,0,1-4.44-.3,3.38,3.38,0,0,1,.6-.52,5.57,5.57,0,0,1,2.69-.71c4,.23,8.07.38,12.1.67,1.78.12,3.55.49,5.32.75a2.19,2.19,0,0,1,.33.12l0,.17c-.72-.05-1.45-.09-2.18-.17a2.34,2.34,0,0,0-2.15.56c-1-1-2.41-1-3.72-1-1.69,0-3.38.2-5.06.14a6.52,6.52,0,0,0-2.9.27l.7,1.39v-1.06c.89,0,1.27.45,1.14,1.26-.19,1.31-.36,2.62-.54,3.93,0,.11,0,.23,0,.35l.17.06a25,25,0,0,0,1.23-2.56,3.44,3.44,0,0,1,1.75-2,8.61,8.61,0,0,1,4.55-.8c.61,0,.63.66.78,1.11a.87.87,0,0,1-.52,1.16,12.09,12.09,0,0,1-2.21.62c-3.21.59-4.81,2.34-5.13,5.64a37.35,37.35,0,0,0,0,7.91,5.84,5.84,0,0,1-.17,2.08,1.77,1.77,0,0,1-.82,1c-.75.41-1.34.17-1.52-.64a11.94,11.94,0,0,1-.25-2.6c0-1.13.15-2.26.17-3.39.06-2.77.08-5.54.11-8.32,0-.79,0-1.58,0-2.37S269.1,668.36,269.1,667.43Z" transform="translate(-92.08 -631.91)"/>
        <path d="M185.71,646.62a16.5,16.5,0,0,0,.16,1.81c.19,1,.58,1.18,1.45.54a4.56,4.56,0,0,1-.09,2.35,5.48,5.48,0,0,1-2,2.79,9.23,9.23,0,0,1-5.46,1.91,6.7,6.7,0,0,1-5.24-2.28,8,8,0,0,1-1.93-7.66,5.92,5.92,0,0,1,1-1.9,8,8,0,0,1,6.46-3.44c3.08-.23,6.15-.71,9.22-1.08.51-.06,1-.14,1.53-.16a3.51,3.51,0,0,1,1.07.11c.69.19.84.69.26,1.09a7.93,7.93,0,0,1-2.22,1,27.11,27.11,0,0,1-3,.54,15.36,15.36,0,0,1-5.28-.13c-2.75-.45-5.19.13-6.94,2.5a6,6,0,0,0-1,3.4,6.81,6.81,0,0,0,1,3.91,5.06,5.06,0,0,0,3.44,2.44,6.63,6.63,0,0,0,4.5-.3,8.51,8.51,0,0,0,.78-.43c1.21-.76,1.22-.79.55-2a6.84,6.84,0,0,1-.65-4.59,3.31,3.31,0,0,1,.5-1.1c.39-.63.64-.61,1.09,0A5.87,5.87,0,0,0,185.71,646.62Z" transform="translate(-92.08 -631.91)"/>
        <path d="M239,669.62c0,3.46,0,6.92,0,10.38,0,1.68.08,3.36.1,5a8.17,8.17,0,0,1-.14,1.71,1.22,1.22,0,0,1-1.34.94c-.69,0-1-.39-1-1a12.29,12.29,0,0,1-.22-1.9c0-1.83,0-3.67-.05-5.5V663.5c0-1.74,0-3.49,0-5.23a4.35,4.35,0,0,1,.19-1.19,1.29,1.29,0,0,1,1.35-.87c.62,0,.82.42.9.89a15.71,15.71,0,0,1,.28,2.46c0,3.36,0,6.71,0,10.06Z" transform="translate(-92.08 -631.91)"/>
        <path d="M284.75,673.7c.1-.21.22-.43.32-.65.38-.88.77-1.76,1.12-2.65a3.08,3.08,0,0,1,1.82-1.78,7.64,7.64,0,0,1,3.74-.67c.79.08,1.34.51,1.4,1.08a1.31,1.31,0,0,1-1.12,1.49c-1,.24-2,.34-3,.49a2.86,2.86,0,0,0-2,1.28c-1.42,1.9-1.63,4.06-1.77,6.29a40,40,0,0,0,.18,6.38,6.89,6.89,0,0,1-.05,1.28,2,2,0,0,1-.15.55,1.45,1.45,0,0,1-1.52.83,1,1,0,0,1-1-1,9.81,9.81,0,0,1-.12-2.48,70.94,70.94,0,0,0,0-9.78c0-1.4-.14-2.81-.14-4.22a3.3,3.3,0,0,1,.36-1.4,1.27,1.27,0,0,1,2.06-.37,2.12,2.12,0,0,1,.31,2.89,4.51,4.51,0,0,0-.66,2.34Z" transform="translate(-92.08 -631.91)"/>
        <path d="M339.34,722c0,2.46,0,4.91,0,7.36,0,1.16.13,2.31.12,3.46,0,1.38-.61,2.13-1.71,2.12-1.44,0-2.25-.3-2.49-2a24,24,0,0,1-.09-3.06c0-1.39,0-2.77,0-4.16,0-2,0-4,.07-5.95.06-1.11.58-1.61,1.33-1.71a2.36,2.36,0,0,1,2.5,1.28,18.75,18.75,0,0,1,.55,2.6Z" transform="translate(-92.08 -631.91)"/>
        <path d="M265,708.69a22.93,22.93,0,0,1-.27-2.45c0-3,.07-5.89.07-8.84,0-1.79-.08-3.58-.09-5.37a3.79,3.79,0,0,1,.23-1.25c.07-.19.38-.44.53-.41a.87.87,0,0,1,.64.48,5.86,5.86,0,0,1,.22,1.51,27.87,27.87,0,0,1-.33,6.95c0,.06,0,.12,0,.09a16.19,16.19,0,0,1,1.77-1.74,4.3,4.3,0,0,1,4.83-.26,3.3,3.3,0,0,1,1.66,3.07c.08,2.31,0,4.64-.11,7a5,5,0,0,1-.41,1.21,3.8,3.8,0,0,1-.55-.73,9.47,9.47,0,0,1-.46-5.71,2.78,2.78,0,0,0-2.75-3.75,3.55,3.55,0,0,0-3.62,3.58c0,1.28,0,2.56,0,3.84a5.65,5.65,0,0,1-.28,1.69,5.82,5.82,0,0,1-.81,1.21Z" transform="translate(-92.08 -631.91)"/>
        <path d="M172.6,676.56a7.71,7.71,0,0,1,2.49-5.49c2.8-3,8.62-2.26,11.16.55a4.87,4.87,0,0,1,1.25,3,27.29,27.29,0,0,1-.12,4.52,4.65,4.65,0,0,1-2.37,3.48,9.86,9.86,0,0,1-5.07,1.58,7.18,7.18,0,0,1-7.13-5.89C172.7,677.75,172.67,677.15,172.6,676.56Zm14,.06c-.06-.46-.09-.93-.19-1.38a6.72,6.72,0,0,0-9-4.74c-2.66,1.15-4.39,4.53-3.6,7.07,1.11,3.55,3.85,5,6.92,5.6a.59.59,0,0,0,.36-.08,27,27,0,0,0,2.73-1.4A5.7,5.7,0,0,0,186.58,676.62Z" transform="translate(-92.08 -631.91)"/>
        <path d="M279.33,703.05a4.26,4.26,0,0,0,3.55,4.17,7.79,7.79,0,0,0,2.66-.48c.64-.17,1.21-.55,1.84-.73a3.67,3.67,0,0,1,1.14.08,5.83,5.83,0,0,1-10.77-2.72,6.17,6.17,0,0,1,1.79-5,5.29,5.29,0,0,1,5.69-1.19,5.13,5.13,0,0,1,3.52,4.13c.27,1.17-.34,1.83-1.55,1.86-1.52,0-3,.13-4.55.1C281.54,703.31,280.43,703.14,279.33,703.05Zm-.21-.66a8.27,8.27,0,0,1,1.19-.2c1.67,0,3.33,0,5,0a6,6,0,0,0,1.57-.24.63.63,0,0,0,.41-1,4.32,4.32,0,0,0-2.65-2.35,4.67,4.67,0,0,0-4.91,2A9.79,9.79,0,0,0,279.12,702.39Z" transform="translate(-92.08 -631.91)"/>
        <path d="M100.26,696.53c.5,1.52,2.32,2,2.69,3.68a4.88,4.88,0,0,1-3.39-3.85.66.66,0,0,1,.41-.49,11,11,0,0,1,2.28-.18,81.93,81.93,0,0,0,11.93-.36c1.88-.17,3.76-.22,5.64-.31,2.53-.13,5.07-.28,7.61-.37s5.17-.14,7.75-.15c3.4,0,6.8,0,10.2,0a29.16,29.16,0,0,0,3.39-.44,1.48,1.48,0,0,1-1.32,1.2,27.62,27.62,0,0,1-3.63.21,115,115,0,0,0-13.39.25c-1.72.18-3.46.14-5.19.2-2.75.08-5.51.13-8.26.26-1.59.08-3.19.29-4.78.42-.64,0-1.28.09-1.92.1-2.8,0-5.6,0-8.4,0C101.36,696.66,100.84,696.58,100.26,696.53Z" transform="translate(-92.08 -631.91)"/>
        <path d="M299.43,674.51c0,1.18,0,2.35,0,3.52,0,2.32.1,4.64.13,7a3.55,3.55,0,0,1-.16,1.26,2.51,2.51,0,0,1-.74,1.06c-.84.61-1.55.33-1.76-.67a9.89,9.89,0,0,1-.26-2c0-2.44-.17-4.88,0-7.29a51.08,51.08,0,0,0-.12-5.94,7.57,7.57,0,0,1,.23-2,2,2,0,0,1,.72-1c.81-.6,1.52-.37,1.64.61.24,1.83.34,3.68.49,5.52Z" transform="translate(-92.08 -631.91)"/>
        <path d="M229,753.83c1-.16,2-.29,3.07-.46,4.71-.78,9.45-.53,14.19-.29,2.2.11,4.41,0,6.61,0,6,0,11.92.06,17.88.14,1.39,0,2.77.25,4.15.34,2.69.17,5.37.32,8.06.46,1.89.09,3.79.14,5.69.22a1,1,0,0,1,.63.26H288c-2.82,0-5.64.06-8.46,0-2.65-.1-5.28-.39-7.92-.59-.24,0-.47,0-.71,0-5.34,0-10.69,0-16,0-1.52,0-3,.27-4.55.22-3.28-.12-6.56-.4-9.84-.57-1.3-.06-2.6,0-3.91,0-.68,0-1.37,0-2.05.09l-4.83.39c-.23,0-.47,0-.7,0Z" transform="translate(-92.08 -631.91)"/>
        <path d="M255.21,698.46a.63.63,0,0,1,.34-.94c.31-.14.61-.3.91-.47.65-.37,1.23-.79,1-1.69a.62.62,0,0,1,0-.13c.11-.47.15-1,.77-1.11s.88.41,1,.89a14.36,14.36,0,0,1,.27,1.77c.36.06.84.14,1.31.25,1.08.24,1.09.27,1.26,1.4-.3,0-.58-.08-.87-.08a1.82,1.82,0,0,0-2,1.55,1.15,1.15,0,0,0,0,.26c.05,2,0,3.92.21,5.86a1.66,1.66,0,0,0,2.67,1.08,3.08,3.08,0,0,1,.69-.21,2.2,2.2,0,0,1,0,.77A2.33,2.33,0,0,1,260,709a2.67,2.67,0,0,1-2.21-2.67c-.05-1.52,0-3-.07-4.54a15.23,15.23,0,0,0-.05-1.79,1.57,1.57,0,0,0-1.87-1.55Z" transform="translate(-92.08 -631.91)"/>
        <path d="M252.63,697.26c-.25,0-.5,0-.74,0a74.31,74.31,0,0,1-11-.84c-3.41-.54-6.87-.74-10.31-1.09-1.14-.12-2.29-.22-3.44-.36a5.53,5.53,0,0,1-.92-.31l0-.18H229c1,0,2-.06,2.94,0,1.36.06,2.72.15,4.08.29q3.85.39,7.69.86c1.14.13,2.27.37,3.41.52,1.49.19,3,.31,4.46.5a6.93,6.93,0,0,1,1.12.36Z" transform="translate(-92.08 -631.91)"/>
        <path d="M188.6,693.42c-.85.14-1.69.35-2.54.41-3.21.2-6.43.34-9.65.54-1.6.11-3.18.31-4.78.46a5.84,5.84,0,0,1-3-.62,4.34,4.34,0,0,1,2.44-.72c2.32-.12,4.64-.15,7-.26s4.51-.3,6.77-.39a27.37,27.37,0,0,1,3,.13,5,5,0,0,1,.83.21Z" transform="translate(-92.08 -631.91)"/>
        <path d="M334.84,712.84a2.39,2.39,0,0,1,2.31-2.68,2.53,2.53,0,0,1,.24,5.06C335.66,715.22,334.84,714.46,334.84,712.84Z" transform="translate(-92.08 -631.91)"/>
        <path d="M331.05,640.1a8.65,8.65,0,0,1,2.82.2,3.51,3.51,0,0,0,1.25.09,41.84,41.84,0,0,1,11.29-.07c1.45.18,2.93.15,4.4.2l4.22.13a3.8,3.8,0,0,1,.67.14l0,.2c-.81.09-1.61.23-2.42.26a33.92,33.92,0,0,1-6.75-.39,36.74,36.74,0,0,0-8.12-.18c-1.57.09-3.11.68-4.7.33-.71-.15-1.42-.3-2.12-.47a3.62,3.62,0,0,1-.6-.28Z" transform="translate(-92.08 -631.91)"/>
        <path d="M299.85,660.83a1.85,1.85,0,0,1-1.8,2,1.73,1.73,0,0,1-1.93-1.87,1.81,1.81,0,0,1,1.9-1.88C299.28,659.08,299.88,659.65,299.85,660.83Z" transform="translate(-92.08 -631.91)"/>
        <path d="M323.11,755.36a2,2,0,0,1-.43.14c-3.07.06-6.16.29-9.22.13-6.34-.33-12.71-.11-19-.71v-.21a5.49,5.49,0,0,1,.7-.05l6,.25c4.84.19,9.69.39,14.53.54,1.43,0,2.86-.07,4.29-.09C321,755.34,322,755.36,323.11,755.36Z" transform="translate(-92.08 -631.91)"/>
        <path d="M303.77,695.53a2.26,2.26,0,0,1-1.64.48c-.94.07-1.88.06-2.82.11-2.49.12-5,.27-7.48.38-.95,0-1.9,0-2.85,0l-.05-.29a5.5,5.5,0,0,1,1.09-.29c2.65-.15,5.3-.3,7.94-.38C299.88,695.48,301.81,695.53,303.77,695.53Z" transform="translate(-92.08 -631.91)"/>
        <path d="M189,651.88c1.93-1.52,3.71-2.94,5.51-4.33.15-.12.56-.2.58-.15a1.39,1.39,0,0,1,.23.79,1.47,1.47,0,0,1-.48.73A16.52,16.52,0,0,1,189,651.88Z" transform="translate(-92.08 -631.91)"/>
        <path d="M354.67,639.55a12.88,12.88,0,0,1-4.82.32c-1.37-.18-2.75-.29-4.13-.39-1.66-.12-3.31-.2-5-.39l.84-.13a21.48,21.48,0,0,1,5.55,0c2.27.21,4.55.33,6.82.49Z" transform="translate(-92.08 -631.91)"/>
        <path d="M109.82,650.68a6.34,6.34,0,0,1,1.73-4.57,11.92,11.92,0,0,1,6.4-3.54,6.78,6.78,0,0,1-.78.54c-.65.33-1.3.64-2,.94a8,8,0,0,0-4.18,4.12C110.64,649,110.22,649.84,109.82,650.68Z" transform="translate(-92.08 -631.91)"/>
        <path d="M195,677.87a1.62,1.62,0,0,1-1,1.24,14.62,14.62,0,0,1-4.61,1.78l-.51.11C189.68,679.8,193.64,677.75,195,677.87Z" transform="translate(-92.08 -631.91)"/>
        <path d="M355.18,667.3l-3.9.22v.23l2.75.32,0,.17c-.72.12-1.43.27-2.16.35a2.66,2.66,0,0,1-1.26,0c-.36-.14-.61-.56-.9-.85.21-.2.41-.57.62-.58,1.56-.09,3.11-.11,4.67-.14.05,0,.1.06.15.1Z" transform="translate(-92.08 -631.91)"/>
        <path d="M126,741.35c-1.67.56-3.33,1.16-5,1.69s-3.38,1-5.07,1.51c-1.16.35-2.32.69-3.5,1,4.34-2,9.07-2.69,13.48-4.43Z" transform="translate(-92.08 -631.91)"/>
        <path d="M295.26,668.19a1.59,1.59,0,0,0-1.54-.88c-1.15,0-2.3,0-3.45,0a1.65,1.65,0,0,1-.73-.12,3.29,3.29,0,0,1,.78-.23c1.32,0,2.65-.09,4,0,1.61.1,3.22.33,4.83.56C297.82,667.73,296.4,667.14,295.26,668.19Z" transform="translate(-92.08 -631.91)"/>
        <path d="M114.18,638.5c2-1.94,4.64-2.35,7.13-3.16l.07.17Z" transform="translate(-92.08 -631.91)"/>
        <path d="M149.16,645.42,145,641.87C146.72,641.82,149.2,644.09,149.16,645.42Z" transform="translate(-92.08 -631.91)"/>
        <path d="M109,748.68l6.11-1.67.06.2A27,27,0,0,1,109,748.9Z" transform="translate(-92.08 -631.91)"/>
        <path d="M182.51,679.22c-.49.47-.22.71.25.86a14.59,14.59,0,0,1,1.6.57c-.63.33-1.2.67-1.94.27a12.52,12.52,0,0,1-3.87-2.59c-.13.28-.24.73-.35.73a1.63,1.63,0,0,1-.92-.32c-.71-.55-.76-1-.4-1.88.17-.41.25-.86.4-1.28a6.4,6.4,0,0,1,2.42-3.15,4.57,4.57,0,0,1,2.48-.62,6.07,6.07,0,0,1-.55.72c-.61.53-1.26,1-1.86,1.56a1.33,1.33,0,0,0,.47,2.46,3.63,3.63,0,0,0,1.61.11c.29,0,.55-.37.81-.59.55-.49,1.06-1,1.65-1.46.28-.21.72-.39,1,.1a1.11,1.11,0,0,1-.47,1.2c-.37.16-.75.29-1.13.44-.22.08-.43.17-.65.27C181.61,677.3,181.46,677.93,182.51,679.22Z" transform="translate(-92.08 -631.91)"/>
      </g>
    </g>
  </g>
</svg>
