<?xml version='1.0' encoding='utf-8'?>
<!-- Generator: imaengine 6.0   -->
<svg xmlns:xlink="http://www.w3.org/1999/xlink" xmlns="http://www.w3.org/2000/svg" viewBox="0,0,407,409" style="enable-background:new 0 0 407 409;" version="1.1">
<defs/>
<g id="layer0">
<path d="M-0.136,409C81.7848,409 162.995,409.122 246.061,409.122C246.061,399.498 246.136,388.405 246.136,380C246.136,356.865 246.136,333.03 246.136,311C246.837,307.52 246.117,301.086 245.957,295.74C245.796,290.395 246.04,286.273 248.98,287.135L250.136,286C298.473,285.116 349.6,284.578 397.937,287.12C399.479,319.919 398.52,353.807 398.864,389.001C398.864,395.537 398.864,403.754 398.864,409C401.264,409 406.143,409.122 407.061,409.122C407.061,354.127 407.136,298.994 407.136,244C271.804,244 137.455,243.878 -0.060821,243.878C-0.060821,298.873 -0.136,354.006 -0.136,409ZM18.8777,288.06L18.136,289C17.8727,287.535 17.667,284.382 18.2572,282.154C18.8475,279.926 20.0461,278.749 22.9485,281.126L25.136,282C29.37,281.586 30.3454,282.857 29.9083,284.49C29.4712,286.122 27.4617,287.98 24.9761,288.866L24.136,289C24.9145,285.484 23.2276,282.167 23.1348,280.982C21.9405,280.79 20.4182,281.351 19.5792,282.584C18.7402,283.816 18.3275,285.798 18.8777,288.06Z" fill="#F5F9FA"/>
<path d="M245.864,409L247.136,409C246.347,406.466 248.117,404.224 248.134,404.023L248,403L247.136,403C247.747,397.767 245.965,388.548 248.068,386.118L248,385L248,384L247.136,384C246.981,383.127 246.991,381.886 247.16,380.971C247.33,380.057 247.457,379.587 247.934,380.119L248.136,377C246.197,375.357 246.444,373.768 247.573,372.71C248.702,371.652 250.542,371.256 251.964,372.131C249.107,371.978 247.639,368.363 247.035,364.044C246.43,359.725 246.834,354.649 248.111,351.079L248.136,348C246.073,339.822 247.669,324.462 248.114,323.073L248,320L248.136,319C246.684,318.79 246.815,317.748 247.249,316.752C247.684,315.757 248.241,314.678 247.956,314.871L247.136,315C247.136,306.402 247.136,296.359 247.136,289C248.76,296.316 247.473,307.698 247.865,315.014L249,315C257.598,315 267.702,315.122 275.061,315.122C275.061,306.524 275.136,296.359 275.136,289L275,288C267.776,288 258.954,287.864 253,287.864L251,288L249.136,287C246.196,286.139 245.525,290.403 245.685,295.748C245.845,301.094 246.567,307.494 245.867,310.973C245.867,333.004 245.864,356.865 245.864,380C245.864,388.405 245.864,399.376 245.864,409ZM270.864,311C268.069,313.095 258.568,311.25 252.993,311.864L253,311L252,311L251.136,311C251.747,305.767 249.965,296.548 252.068,294.118L252.136,292C256.303,290.861 267.264,290.509 269.961,292.13L270.864,292C272.159,294.346 272.494,304.073 270.914,304.895C270.914,306.641 270.864,310.782 270.864,311Z" fill="#020202"/>
<path d="M246.885,409.072L249.136,409C255.865,407.963 268.65,407.54 273.98,409.135C275.726,409.135 279.842,409.122 280.06,409.122C279.905,408.249 279.991,406.886 280.16,405.971C280.33,405.057 280.537,404.604 281.014,405.135C281.493,404.246 283.323,404.154 284.997,404.08C286.671,404.005 288.3,403.76 288.125,402.946L288,401L287.136,401C280.326,399.688 274.985,401.688 272.986,403.865C271.052,402.413 271.855,401.815 273.08,401.25C274.305,400.684 276.097,400.319 276.132,400.032L275,397C271.922,397 266.599,396.87 264.959,396.87C270.994,401.907 267.432,404.179 262.987,403.559C258.541,402.938 253.378,399.612 256.123,393.057C257.926,391.093 265.252,392.69 267.054,392.125C267.685,391.728 268.082,390.665 268.082,389.92C268.083,389.175 267.592,388.493 266.961,388.87C262.155,388.87 255.395,388.878 251.94,388.878C251.357,393.101 253.066,401.522 250.959,402.87L247.864,404C247.847,404.201 246.096,406.538 246.885,409.072Z" fill="#FBFBFB"/>
<path d="M248.99,408.864C257.245,408.864 267.01,409.135 274.019,409.135C268.689,407.54 255.719,407.827 248.99,408.864Z" fill="#626262"/>
<path d="M280.07,408.883C282.807,408.883 287.722,409.136 289,409.136L288,406L287.136,406C287.153,404.948 285.501,404.712 283.992,404.8C282.484,404.887 281.118,405.311 281.135,405.012C280.08,404.675 279.7,405.841 279.784,407.01C279.868,408.178 280.351,409.22 280.07,408.883Z" fill="#020202"/>
<path d="M289,409C291.4,409 296.112,409.133 297.03,409.133C296.554,408.891 296.33,407.783 296.16,406.868C295.991,405.954 295.887,405.229 296.042,405.13L296,404C293.6,404 288.918,403.864 288,403.864L288,406L289,409Z" fill="#FAFAFA"/>
<path d="M296.953,408.872C300.375,408.872 306.029,409.132 308.034,409.132C310.139,407.879 307.368,406.222 308.084,405.107C304.317,405.107 298.311,404.877 295.942,404.877C295.046,407.21 297.373,408.563 296.953,408.872Z" fill="#020202"/>
<path d="M307.961,408.87C310.361,408.87 315.14,409.123 316.058,409.123C317.273,405.851 315.9,404.372 313.924,403.953C311.948,403.535 309.315,403.918 308.003,403.864L307.864,405C307.148,406.114 310.066,407.616 307.961,408.87Z" fill="#FAFAFA"/>
<path d="M315.891,408.919L320.136,409C318.118,404.245 323.738,404.943 324.126,404.052C325.442,390.532 312.105,406.765 312.136,392.001C303.972,394.816 303.069,399.17 307.936,404.12C309.248,404.174 311.892,403.801 313.868,404.219C315.843,404.638 317.106,405.647 315.891,408.919Z" fill="#030303"/>
<path d="M319.896,409.088L324.136,409C322.608,405.161 326.003,404.914 329.528,405.058C333.053,405.202 336.638,405.617 335.066,403.881C331.644,403.881 325.948,403.876 323.943,403.876C323.556,404.767 317.878,404.333 319.896,409.088Z" fill="#5E5E5E"/>
<path d="M323.894,409.085C330.429,409.085 338.813,409.123 344.059,409.123C342.968,405.603 344.651,404.646 346.309,405.043C347.968,405.439 349.473,406.951 347.928,408.885C349.364,408.885 353.172,408.878 353.061,408.878C353.061,406.479 353.136,401.918 353.136,401C350.399,401 345.278,400.864 344,400.864L345,400L344,398L343,396L341,396L340,393C337.932,393 333.597,392.868 333.033,392.868C331.091,391.732 332.425,385.112 332.029,383.867C324.127,395.208 314.48,376.127 311.877,391.942C328.146,386.78 330.854,401.104 334.913,404.105C336.486,405.84 333.064,404.93 329.539,404.786C326.014,404.643 322.365,405.245 323.894,409.085Z" fill="#020202"/>
<path d="M343.884,409.072L348.136,409C349.681,407.067 348.032,405.175 346.373,404.778C344.714,404.382 342.794,405.552 343.884,409.072Z" fill="#FBFBFB"/>
<path d="M352.864,409C354.932,409 359.493,409.124 360.056,409.124C361.319,406.343 359.568,404.763 357.994,403.788C356.42,402.813 355.009,402.448 357.042,401.129L357,400L356,400L356.136,399C353.912,398.373 353.139,398.515 352.083,396.892L352,400L352.864,401C352.864,401.918 352.864,406.6 352.864,409Z" fill="#FBFBFB"/>
<path d="M359.899,408.909L364.136,409C363.239,406.667 365.507,405.205 365.087,404.895C365.737,404.165 368.212,404.034 370.58,404.031C372.949,404.028 375.001,404.199 374.878,404.941C375.933,404.604 376.029,405.821 375.945,406.99C375.861,408.159 375.788,409.454 376.07,409.117L380.136,409C380.136,404.887 380.136,398.732 380.136,396L376,396L375.864,400C371.082,401.754 361.74,400.407 356.958,400.871C354.926,402.19 356.277,403.044 357.851,404.019C359.424,404.994 361.162,406.127 359.899,408.909Z" fill="#020202"/>
<path d="M363.958,409.13C367.725,409.13 373.692,409.122 376.06,409.122C376.215,408.249 376.277,406.836 376.107,405.922C375.937,405.007 375.41,404.349 374.934,404.881C371.855,404.881 366.611,404.867 364.97,404.867C364.494,405.109 364.063,406.168 363.893,407.082C363.723,407.997 363.804,409.03 363.958,409.13Z" fill="#FCFCFC"/>
<path d="M379.864,409L381.136,409C381.136,404.887 381.136,398.732 381.136,396L379.864,396C379.864,398.732 379.864,404.887 379.864,409Z" fill="#B4B4B4"/>
<path d="M380.864,409C385.67,409 392.582,409.131 396.038,409.131C397.041,408.422 397.387,406.059 397.26,403.998C397.133,401.938 396.502,399.915 396.007,399.864L394.136,400C390.693,397.598 388.584,391.768 383.942,391.877C384.668,393.637 384.241,394.872 383.486,395.539C382.732,396.206 381.672,396.297 380.963,395.869C380.963,398.601 380.864,404.887 380.864,409Z" fill="#FCFCFC"/>
<path d="M395.955,408.872L398.136,409C398.136,403.156 398.136,395.533 398.136,391L397,391L395.864,393C395.864,395.068 395.864,399.437 395.864,400C396.359,400.051 396.861,401.955 396.988,404.015C397.115,406.075 396.958,408.163 395.955,408.872Z" fill="#2F2F30"/>
<path d="M397.864,409L399.136,409C399.136,403.754 399.136,395.535 399.136,389L398,389L397.864,391C397.864,395.533 397.864,403.156 397.864,409Z" fill="#C5C5C7"/>
<path d="M286.864,405.996L288,406L288,404L287.864,403C288.039,403.814 286.659,403.734 284.985,403.808C283.311,403.882 281.358,404.049 280.879,404.939C280.862,405.238 282.499,405.159 284.008,405.071C285.517,404.984 286.881,404.944 286.864,405.996Z" fill="#616161"/>
<path d="M296,405C298.368,405 304.233,405.136 308,405.136L308,404C304.233,404 298.368,403.864 296,403.864L296,405Z" fill="#5D5D5D"/>
<path d="M364.933,404.881C366.574,404.881 371.982,405.122 375.06,405.122C375.184,404.38 372.948,403.756 370.58,403.759C368.211,403.762 365.583,404.151 364.933,404.881Z" fill="#A2A2A2"/>
<path d="M248,404L251.136,403C251.719,398.777 249.957,390.468 252.065,389.12C255.133,387.901 265.367,387.51 266.933,389.118C268.437,389.229 268.145,389.849 267.646,390.603C267.147,391.357 266.475,392.259 266.967,392.132C265.165,394.097 257.729,392.32 255.927,392.885C253.182,399.44 258.504,403.207 262.949,403.828C267.394,404.449 271.127,401.936 265.091,396.899C265.741,396.168 268.212,396.034 270.58,396.031C272.949,396.028 274.995,396.215 274.871,396.957L275.864,400C277.496,400.251 280.307,400.125 282.609,400.056C284.911,399.987 286.711,400.015 286.87,401.04L288,401L288.136,400C288.136,397.932 288.136,393.563 288.136,393L287,393L287.136,392C283.485,391.77 283.993,397.81 280.053,395.875C265.898,391.166 282.197,384.069 267.014,380.865C264.614,380.865 259.884,380.868 258.966,380.868C260.063,381.54 259.884,382.386 259.433,382.992C258.981,383.597 258.256,383.961 257.965,383.869C256.538,385.864 249.4,384.289 247.973,384.867L247.864,386C247.864,391.498 247.864,398.825 247.864,403L248,404Z" fill="#020202"/>
<path d="M273.012,404.136C275.01,401.959 280.241,399.814 287.051,401.126C286.892,400.101 284.903,399.715 282.601,399.784C280.298,399.853 277.579,400.126 275.947,399.875C275.912,400.162 274.191,400.437 272.966,401.003C271.741,401.568 271.077,402.684 273.012,404.136Z" fill="#ABABAB"/>
<path d="M288,404C288.918,404 293.661,404.122 296.061,404.122C295.963,399.539 298.492,396.188 299.121,394.198C299.75,392.209 298.355,391.339 290.936,391.88C290.964,393.619 291.169,396.246 290.925,398.074C290.681,399.902 290.086,400.918 288.034,399.868L288,401L288,403L288,404Z" fill="#040404"/>
<path d="M295.864,404.006C298.232,404.006 304.279,404.128 308.046,404.128C303.179,399.178 303.914,394.927 312.078,392.112C314.681,376.297 324.213,395.414 332.115,384.073C332.366,382.441 332.125,379.693 332.056,377.391C331.987,375.089 332.043,373.277 333.068,373.118C333.18,371.614 333.849,371.855 334.603,372.354C335.357,372.853 336.248,373.429 336.121,372.938L337,372L338,369L336,369L335.864,368C328.106,371.57 321.863,377.682 313.93,379.883C312.878,381.909 305.969,380.306 304.916,380.893C303.331,384.115 299.175,386.547 296.043,386.871C301.138,380.665 300.044,373.92 295.027,371.867L291.864,373C289.796,375.738 286.054,378.79 287.9,384.093C290.352,383.497 291.54,385.132 291.913,387.133C292.287,389.133 291.909,391.275 290.964,391.869C298.384,391.327 299.491,392.127 298.862,394.116C298.232,396.106 295.767,399.423 295.864,404.006Z" fill="#FBFBFB"/>
<path d="M323.867,403.974C325.871,403.974 331.617,404.13 335.039,404.13C330.979,401.13 328.192,386.726 311.923,391.888C311.892,406.652 325.183,390.453 323.867,403.974Z" fill="#F4F4F4"/>
<path d="M384.941,404.123C387.442,404.981 388.232,403.798 388.154,402.558C388.077,401.317 387.135,399.773 386.944,399.876C385.718,400.293 384.796,401.151 384.425,401.942C384.053,402.734 384.23,403.706 384.941,404.123Z" fill="#040404"/>
<path d="M246.868,402.969L248.136,403C248.136,398.825 248.136,391.498 248.136,386C246.033,388.43 247.479,397.736 246.868,402.969Z" fill="#BABABA"/>
<path d="M250.884,402.93C252.991,401.581 251.534,393.294 252.116,389.07C250.009,390.419 251.466,398.706 250.884,402.93Z" fill="#434343"/>
<path d="M344,401C345.278,401 350.263,401.136 353,401.136L352,400C349.932,400 345.563,399.864 345,399.864L344,401Z" fill="#545454"/>
<path d="M357.136,401C361.918,400.536 371.243,401.887 376.025,400.134C369.835,400.134 361.89,399.864 357,399.864L357.136,401Z" fill="#545454"/>
<path d="M287.864,400C289.916,401.05 290.951,399.938 291.195,398.11C291.439,396.282 291.164,393.735 291.136,391.996L289,392L287.864,393C287.864,393.563 287.864,397.932 287.864,400Z" fill="#F9F9F9"/>
<path d="M345,400C345.563,400 349.932,400.136 352,400.136L352.136,397C350.629,396.862 348.541,396.718 346.949,396.874C345.356,397.029 344,397.425 343.877,397.942L345,400Z" fill="#FBFBFB"/>
<path d="M356,400L357,400C361.89,400 369.81,400.136 376,400.136L376,396L373.136,396C373.136,393.6 373.136,388.918 373.136,388C370.736,388 365.906,387.865 364.987,387.865C362.688,388.303 361.952,392.587 359.958,391.871C361.635,396.97 355.386,396.558 355.873,399.05L356,400Z" fill="#FCFCFC"/>
<path d="M393.955,400.128L396.136,400C396.136,399.437 396.136,395.068 396.136,393L395.136,393C392.729,392.49 392.2,391.196 392.666,390.026C393.133,388.856 394.451,387.947 395.992,388.136L396.136,387C396.136,383.922 396.136,378.641 396.136,377L395.136,377C393.556,376.935 393.058,375.488 393.079,374.03C393.1,372.572 393.575,371.218 394.071,371.116C394.043,370.426 393.378,369.611 392.794,369.111C392.21,368.611 391.688,368.435 392.053,368.125C387.247,368.125 380.456,367.864 377,367.864L375.864,367C373.185,369.214 373.127,366.7 373.132,363.639C373.137,360.579 373.28,356.85 371.939,356.878C371.589,358.758 372.056,362.147 372.039,364.686C372.022,367.225 371.551,368.903 368.969,367.868C365.206,373.137 365.944,365.139 363.884,371.929L361,372L359.864,373C359.711,377.759 353.765,380.308 349.296,382.828C344.826,385.347 341.9,387.953 347.93,392.117C347.221,392.442 346.088,392.719 345.334,393.386C344.579,394.053 344.19,395.099 344.917,396.107C346.009,396.215 348.043,396.063 349.621,396.07C351.198,396.078 352.281,396.079 351.878,396.941C352.933,398.563 353.823,398.5 356.047,399.128C355.56,396.636 361.791,397.024 360.114,391.925C358.045,391.925 353.602,391.87 353.039,391.87C351.756,390.925 355.359,385.794 358.957,382.847C362.555,379.9 365.979,379.233 364.868,387.966C365.786,387.966 370.659,388.122 373.059,388.122C372.499,386.067 373.314,386.076 374.297,386.596C375.281,387.116 376.387,387.888 376.013,387.865C378.169,387.592 380.693,387.693 382.441,388.178C384.189,388.663 385.052,389.572 383.904,391.903C388.547,391.794 390.513,397.727 393.955,400.128Z" fill="#030303"/>
<path d="M344.136,398C344.259,397.484 345.382,397.3 346.975,397.144C348.568,396.989 350.545,396.988 352.051,397.126C352.454,396.264 351.2,395.806 349.622,395.798C348.044,395.791 346.099,395.972 345.007,395.864L344,396L343,396L344.136,398Z" fill="#AEAEAE"/>
<path d="M264.933,396.881C266.574,396.881 271.982,397.122 275.06,397.122C275.184,396.38 272.948,395.756 270.58,395.759C268.211,395.762 265.583,396.151 264.933,396.881Z" fill="#AFAFAF"/>
<path d="M279.95,396.126C283.889,398.062 283.406,391.893 287.058,392.123C287.058,389.723 287.136,384.918 287.136,384L284.136,384C283.746,380.515 283.481,376.772 284.324,374.25C285.167,371.729 287.024,370.558 291.041,372.13C290.328,369.929 286.839,367.829 285.369,366.317C283.899,364.804 284.451,363.878 292.042,363.129C298.117,359.082 299.16,359.748 298.626,362.296C298.092,364.844 295.831,369.061 294.894,371.915C298.54,371.307 302.407,372.298 305.255,372.461C308.103,372.623 310.173,372.038 310.136,368.997L309.136,369C309.786,368.269 312.212,368.034 314.58,368.031C316.949,368.028 318.991,368.23 318.867,368.972C331.232,377.729 311.663,359.615 327.029,364.133C322.186,359.391 325.078,358.296 328.734,357.434C332.389,356.572 336.879,355.718 335.099,351.907L333,352L332,349L332,348L329,348L327.864,348C329.127,351.32 327.266,351.759 324.954,351.841C322.643,351.924 319.88,351.648 319.864,352.998C320.503,355.176 319.202,355.709 317.456,355.872C315.71,356.036 313.682,355.7 313.029,355.867C310.884,353.888 311.889,352.983 313.672,352.395C315.454,351.806 318.028,351.795 319.043,352.129C321.312,345.054 317.121,342.145 311.922,343.888C311.686,357.093 301.736,342.707 297.007,355.864C295.01,346.672 304.054,345.416 295.04,339.87L293.136,340C290.127,330.986 293.662,327.85 296.637,328.344C299.611,328.837 301.827,332.838 295.939,338.878C302.956,338.742 308.837,341.722 312.027,344.133C309.624,338.44 321.394,338.355 320.12,331.937C315.106,333.184 316.36,325.817 311.918,327.891C313.251,331.624 309.329,332.325 307.957,331.871C308.498,333.446 307.963,334.594 307.208,335.261C306.454,335.927 305.591,336.124 305.067,335.882C303.315,334.533 303.926,333.563 305.036,332.678C306.146,331.794 307.764,331.224 308.077,331.112C307.558,329.559 308.33,328.765 309.36,328.374C310.39,327.983 311.647,328.01 312.046,328.128C313.684,320.992 300.107,327.261 304.098,319.095C300.306,319.07 300.179,324.626 297.067,323.882C295.958,321.954 295.613,318.509 296.059,315.573C296.505,312.638 297.723,310.459 300.047,311.127C300.536,307.217 294.424,307.773 296.101,304.092L296.136,303C294.279,302.579 292.762,304.763 291.976,303.866C291.725,305.498 291.875,308.307 291.944,310.609C292.013,312.911 292.015,314.705 290.989,314.864L289.136,316C287.056,313.967 288.659,306.135 288.122,303.94C285.722,303.94 280.918,303.864 280,303.864L280.136,303C289.048,297.448 274.573,293.651 284.083,288.108C283.374,287.104 281.059,286.613 278.998,286.74C276.938,286.867 274.918,287.478 274.867,287.973L274.864,289C275.892,296.093 276.465,309.241 274.876,314.944C267.56,316.568 256.313,315.472 248.996,315.864L249,315L248.136,315C248.421,314.807 247.434,315.648 247,316.644C246.566,317.64 246.531,318.925 247.983,319.135C253.904,319.75 263.754,318.021 266.915,320.106C265.53,321.825 258.458,326.566 255.026,327.867C257.495,325.267 255.826,324.423 253.502,324.026C251.177,323.63 248.179,323.678 248.009,322.864C247.563,324.253 245.815,339.883 247.879,348.061C252.684,348.061 259.602,348.123 263.058,348.123C264.657,343.54 270.904,335.112 276.038,332.131L275,332C273.254,332 269.263,331.872 269.045,331.872C266.47,329.32 267.741,328.539 269.906,328.155C272.071,327.772 275.14,328.038 276.055,328.124C277.302,323.11 270.035,324.523 272.109,320.081C276.643,318.962 287.838,318.484 290.913,320.105C291.085,324.497 284.074,330.233 279.919,331.891C279.919,333.636 279.864,337.782 279.864,338L281,340L284.136,340C284.614,334.797 286.371,335.589 287.259,337.381C288.147,339.172 287.982,341.836 283.952,340.873C288.268,355.836 274.248,353.795 270.908,359.9L272,360C274.4,360 279.14,360.123 280.058,360.123C279.61,358.802 280.036,357.694 280.586,356.99C281.137,356.286 281.717,355.994 281.963,356.131C283.709,356.131 287.842,356.122 288.06,356.122C285.386,338.614 299.059,355.954 287.942,355.877C288.483,357.452 287.963,358.594 287.208,359.261C286.454,359.927 285.554,360.109 285.031,359.867C283.594,359.867 279.83,360.123 279.941,360.123C280.801,363.039 279.58,364.113 277.745,364.672C275.909,365.231 273.493,365.02 271.974,364.867C277.229,367.846 275.618,370.42 272.017,372.331C268.416,374.241 262.843,375.486 259.991,375.864L258.864,376C257.418,379.064 259.055,379.85 261.173,380.034C263.29,380.219 265.941,379.908 266.916,381.107C282.099,384.311 265.795,391.417 279.95,396.126Z" fill="#FAFAFA"/>
<path d="M341,396L343,396L344.136,396C344.862,394.24 344.421,392.924 343.667,392.257C342.912,391.591 341.67,391.442 340.961,391.87L340,393L341,396Z" fill="#F9F9F9"/>
<path d="M343.895,395.913L345.136,396C344.41,394.992 344.759,394.257 345.514,393.59C346.268,392.923 347.345,392.45 348.053,392.125C346.633,391.582 344.166,389.81 342.417,389.186C340.667,388.563 339.525,389.086 340.943,392.124C341.652,391.696 342.732,391.794 343.486,392.461C344.241,393.128 344.621,394.153 343.895,395.913Z" fill="#040404"/>
<path d="M372.864,396L376.136,396C376.136,393.6 376.136,388.918 376.136,388C376.51,388.023 375.408,386.875 374.424,386.356C373.441,385.836 372.309,385.98 372.869,388.035C372.869,388.953 372.864,393.6 372.864,396Z" fill="#030303"/>
<path d="M375.864,396L380.136,396C379.836,393.3 382.834,391.837 384.044,392.129C385.191,389.797 384.262,388.401 382.514,387.916C380.766,387.43 378.089,387.609 375.933,387.882C375.933,388.8 375.864,393.6 375.864,396Z" fill="#FCFCFC"/>
<path d="M379.867,396.03L380.864,396C381.573,396.427 382.912,396.409 383.667,395.743C384.421,395.076 384.84,393.685 384.114,391.925C382.904,391.634 379.567,393.33 379.867,396.03Z" fill="#040404"/>
<path d="M255.958,392.871C257.761,392.305 265.24,394.094 267.042,392.129C265.239,392.695 257.76,390.906 255.958,392.871Z" fill="#4D4D4D"/>
<path d="M287,393L288,393L289.136,392C287.285,391.114 288.431,384.886 288.113,383.925L286.864,384C286.864,384.918 286.864,389.6 286.864,392L287,393Z" fill="#CFCFCF"/>
<path d="M332.962,393.131C333.525,393.131 337.932,393.136 340,393.136L341.136,392C339.718,388.962 340.576,388.819 342.325,389.442C344.075,390.066 346.595,391.592 348.015,392.135C341.985,387.971 344.96,385.584 349.429,383.065C353.898,380.545 359.983,377.766 360.136,373.007C352.568,370.591 351.514,376.635 347.941,376.878C348.783,378.593 348.17,379.412 347.273,379.77C346.376,380.127 345.292,380.015 345.037,379.869L344.136,378C344.949,376.468 343.984,375.896 342.985,375.811C341.986,375.725 340.863,376.255 341.045,376.128L339.864,377C342.449,384.044 337.275,385.027 333.018,383.865L331.864,384C332.26,385.245 331.02,391.994 332.962,393.131Z" fill="#FBFBFB"/>
<path d="M394.986,393.135L396,393L397,391L396.136,388C394.596,387.811 392.88,388.756 392.414,389.925C391.947,391.095 392.579,392.625 394.986,393.135Z" fill="#F7F9FA"/>
<path d="M288.968,392.132L291.136,392C292.08,391.406 292.554,389.083 292.181,387.083C291.808,385.082 290.381,383.288 287.929,383.884C288.246,384.845 287.117,391.247 288.968,392.132Z" fill="#060606"/>
<path d="M352.953,392.128C353.516,392.128 357.909,392.134 359.977,392.134C361.972,392.85 362.771,388.555 365.07,388.117C366.181,379.383 362.383,379.689 358.785,382.637C355.186,385.584 351.67,391.183 352.953,392.128Z" fill="#FBFBFB"/>
<path d="M55.9383,390.879C57.5978,390.999 58.202,389.45 58.3657,387.704C58.5293,385.957 58.3523,384.265 59.0381,384.131C56.4236,383.055 55.7131,384.479 55.7236,386.399C55.734,388.32 56.3656,390.486 55.9383,390.879Z" fill="#7E838C"/>
<path d="M165.964,391.131C168.856,391.211 170.332,389.805 170.637,388.259C170.942,386.713 170.158,384.769 169.045,383.872C166.726,384.061 164.913,385.422 164.297,386.892C163.68,388.362 164.179,390.201 165.964,391.131Z" fill="#F3F7F8"/>
<path d="M397,391L398,391L398.136,389C398.136,384.541 398.136,378.094 398.136,375L397,375L395.864,377C396.595,377.65 396.966,380.212 396.969,382.58C396.972,384.949 396.754,386.988 396.011,386.864L396,388L397,391Z" fill="#2F2F30"/>
<path d="M105.09,389.898C107.214,390.379 107.492,389.043 107.204,387.591C106.915,386.14 105.906,384.796 105.936,385.12C105.074,383.376 104.806,384.629 104.798,386.377C104.79,388.125 105.197,390.145 105.09,389.898Z" fill="#383E4B"/>
<path d="M135.968,389.868C137.871,390.571 138.335,389.223 138.258,387.56C138.18,385.897 137.624,384.184 138.032,384.132C136.129,383.429 135.665,384.777 135.742,386.44C135.82,388.103 136.376,389.816 135.968,389.868Z" fill="#444A57"/>
<path d="M251.974,388.867C255.429,388.867 262.24,389.128 267.046,389.128C265.48,387.52 255.042,387.648 251.974,388.867Z" fill="#B5B5B5"/>
<path d="M397.864,389L399.136,389C398.792,353.805 399.541,319.663 397.998,286.864C397.998,299.551 397.864,313.49 397.864,325C397.326,328.575 399.005,336.234 396.925,336.887C399.049,344.387 397.233,357.237 397.864,365.011C397.864,368.089 397.864,373.359 397.864,375C397.864,378.094 397.864,384.541 397.864,389Z" fill="#C6C7C9"/>
<path d="M303.926,388.114C305.984,389.188 307.489,388.309 308.004,387.254C308.518,386.198 308.165,384.724 307.049,384.873C306.223,383.166 305.046,383.777 304.37,384.858C303.695,385.938 303.399,387.728 303.926,388.114Z" fill="#060606"/>
<path d="M295.937,386.88C299.068,386.556 303.537,384.282 305.122,381.06C306.174,379.035 313.001,380.712 314.054,380.125C321.987,377.923 328.273,371.703 336.03,368.133L337.136,368C336.17,363.186 344.662,359.17 347.064,356.12C348.737,356.33 348.838,358.334 349.07,360.335C349.302,362.336 349.642,364.345 351.041,364.13C353.461,362.852 354.969,363.684 355.697,364.951C356.426,366.217 356.296,367.658 354.963,367.869C350.918,369.669 342.037,368.376 337.992,368.864L337.136,372C340.274,371.262 340.32,375.905 341.007,376.136C342.328,375.533 343.129,375.852 343.629,376.437C344.129,377.021 344.255,377.615 343.934,377.881C345.791,378.302 347.152,376.224 347.937,377.121C351.511,376.878 352.41,370.718 359.979,373.134L361,372L360.136,372C359.512,368.763 360.862,367.983 362.277,368.337C363.692,368.691 365.049,370.042 364.012,371.865C366.072,365.074 365.351,373.343 369.114,368.074C370.622,361.686 362.381,359.258 365.069,356.117C363.323,356.117 359.174,355.871 358.956,355.871C361.411,358.16 360.383,359.278 358.5,359.766C356.617,360.254 353.997,360.128 353.074,359.886C353.483,338.308 339.568,359.392 340.136,344.009C335.951,343.486 338.883,348.001 335.002,347.864L334.864,352C336.644,355.811 332.327,356.308 328.671,357.169C325.016,358.031 322.119,359.388 326.962,364.131C311.596,359.613 331.41,377.629 319.045,368.872C316.308,368.872 311.217,368.878 309.939,368.878C309.977,371.92 308.118,372.352 305.271,372.189C302.423,372.026 298.61,371.26 294.964,371.869C299.981,373.922 301.031,380.673 295.937,386.88Z" fill="#030303"/>
<path d="M395.864,387C396.606,387.124 397.244,384.948 397.241,382.58C397.238,380.211 396.701,377.517 395.97,376.867C395.97,378.508 395.864,383.922 395.864,387Z" fill="#A8A9A9"/>
<path d="M248.136,385C249.563,384.423 256.651,386.107 258.078,384.111C255,384.111 249.641,383.864 248,383.864L248.136,385Z" fill="#3E3E3E"/>
<path d="M381.136,385C382.768,384.749 385.298,385.147 387.601,385.216C389.903,385.285 391.971,385.065 392.13,384.04C388.708,384.04 383.004,383.864 381,383.864L381.136,385Z" fill="#3D3D3D"/>
<path d="M247.07,383.883L248,384C249.641,384 254.901,384.134 257.98,384.134C258.271,384.227 259.199,383.759 259.651,383.154C260.102,382.549 260.137,381.542 259.04,380.87L258.136,381C256.821,380.57 255.193,378.212 256.072,377.115L255,377L254,375L251.864,376C253.197,379.733 249.414,380.324 248.042,379.871C246.987,379.533 246.7,380.841 246.784,382.01C246.868,383.178 247.351,384.22 247.07,383.883Z" fill="#FAFAFA"/>
<path d="M283.867,384.03L287,384L288.136,384C286.289,378.698 290.007,375.851 292.075,373.113L291.136,372C287.119,370.428 284.909,371.642 284.066,374.164C283.223,376.686 283.477,380.545 283.867,384.03Z" fill="#050505"/>
<path d="M331.87,383.96L333.136,384C333.136,380.578 333.136,375.004 333.136,373C332.111,373.159 331.715,375.097 331.784,377.399C331.853,379.702 332.121,382.328 331.87,383.96Z" fill="#191919"/>
<path d="M332.864,384C337.12,385.162 342.695,383.964 340.11,376.92L339.136,377C338.613,376.489 337.546,375.799 336.792,375.132C336.038,374.465 335.573,373.897 336.114,373.074C335.717,372.443 334.665,371.918 333.92,371.918C333.175,371.917 332.504,372.435 332.881,373.066C332.881,375.07 332.864,380.578 332.864,384Z" fill="#020202"/>
<path d="M380.872,383.954C382.876,383.954 388.578,384.136 392,384.136L391,381C387.922,381 382.602,380.87 380.961,380.87C379.112,382.251 380.982,383.335 380.872,383.954Z" fill="#FBFCFC"/>
<path d="M257.978,381.134L259,381C259.918,381 264.649,381.127 267.049,381.127C266.074,379.928 263.314,379.948 261.196,379.763C259.079,379.579 257.653,379.157 259.099,376.093L255.864,377C254.985,378.097 256.663,380.704 257.978,381.134Z" fill="#353535"/>
<path d="M304.946,380.875C305.999,380.288 313.002,382.15 314.054,380.125C313.001,380.712 305.998,378.85 304.946,380.875Z" fill="#CDCDCD"/>
<path d="M380.871,381.043C382.512,381.043 387.969,381.127 391.048,381.127C390.398,380.396 387.789,379.762 385.42,379.759C383.052,379.756 380.747,380.301 380.871,381.043Z" fill="#CBCBCB"/>
<path d="M247.864,380C249.236,380.454 253.454,379.67 252.121,375.938C249.788,375.041 248.386,377.308 248.076,376.888L247.864,380Z" fill="#080808"/>
<path d="M344.864,380C345.119,380.146 346.477,380.38 347.374,380.022C348.27,379.665 348.949,378.631 348.107,376.916C346.25,376.495 344.853,378.778 344.067,377.882L344.864,380Z" fill="#040404"/>
<path d="M373.996,378.136C377.427,377.603 378.729,375.759 378.578,374.043C378.426,372.328 376.824,370.47 374.999,369.864C372.327,370.809 370.614,372.64 370.367,374.262C370.12,375.883 371.337,377.567 373.996,378.136Z" fill="#050505"/>
<path d="M248.022,377.134C248.264,376.658 249.217,376.33 250.132,376.16C251.046,375.991 251.817,375.952 251.916,376.107L254.136,375C254.795,373.623 253.869,373.045 253.04,372.79C252.211,372.534 251.427,372.708 252.086,372.106C250.664,371.23 248.516,371.454 247.387,372.512C246.258,373.57 246.083,375.491 248.022,377.134Z" fill="#F6F7F8"/>
<path d="M255,377L256,377L259,376L260.136,376C259.613,373.621 261.336,372.588 262.732,371.611C264.128,370.633 265.114,369.586 263.052,367.874C260.984,367.874 256.605,367.87 256.041,367.87C249.898,362.769 251.913,360.667 255.476,360.634C259.039,360.601 263.973,362.762 263.864,366.996C265.959,369.257 267.003,367.944 267.747,366.316C268.49,364.688 269.008,362.873 270.939,364.121C271.994,364.459 272.3,363.159 272.216,361.99C272.132,360.822 271.649,359.78 271.93,360.117L271,360L268.136,360C262.379,348.485 280.29,354.483 275.073,347.885C271.306,347.885 265.31,347.877 262.941,347.877C263.521,349.824 262.302,352.307 260.186,354.053C258.07,355.798 255.19,356.816 252.074,355.886C253.373,351.849 248.524,351.603 247.985,350.865C246.708,354.435 246.16,359.763 246.765,364.082C247.37,368.401 249.086,371.97 251.943,372.124C252.209,372.576 252.979,373.032 253.563,373.532C254.148,374.032 254.547,374.329 253.944,374.876L255,377Z" fill="#F9FAFA"/>
<path d="M338.94,377.122L340,377L341.136,376C340.449,375.769 340.122,371.127 336.984,371.865L335.864,373C335.323,373.823 335.857,374.669 336.612,375.336C337.366,376.002 338.417,376.611 338.94,377.122Z" fill="#F6F6F6"/>
<path d="M394.997,377.136L396,377L397.136,375C398.033,372.667 395.627,371.437 396.047,371.128L393.864,371C393.368,371.102 392.828,372.568 392.807,374.026C392.786,375.485 393.417,377.071 394.997,377.136Z" fill="#F6F8F9"/>
<path d="M259.879,376.062C262.73,375.683 268.543,374.481 272.144,372.571C275.745,370.66 277.293,367.849 272.037,364.869L271,365L271.136,364C269.205,362.751 268.243,364.575 267.499,366.203C266.756,367.831 266.159,369.142 264.065,366.88L262.864,368C264.926,369.711 263.972,370.41 262.576,371.388C261.18,372.365 259.356,373.683 259.879,376.062Z" fill="#040404"/>
<path d="M396.958,374.87L398.136,375C398.136,373.359 398.136,368.078 398.136,365L396.864,365C396.823,365.993 396.96,367.734 396.913,369.109C396.867,370.484 396.78,371.356 396.007,370.864C396.483,371.106 396.67,372.217 396.84,373.132C397.009,374.046 397.113,374.771 396.958,374.87Z" fill="#2F2F31"/>
<path d="M292,373L295.136,372C296.074,369.146 298.358,364.9 298.892,362.352C299.426,359.804 298.025,358.826 291.95,362.873C284.359,363.623 283.704,364.994 285.174,366.506C286.644,368.019 290.173,369.873 290.886,372.074L292,373Z" fill="#050505"/>
<path d="M359.873,372.049L361,372L364.136,372C365.173,370.177 363.758,368.427 362.343,368.073C360.928,367.719 359.249,368.812 359.873,372.049Z" fill="#F8F8F8"/>
<path d="M105.075,371.113C104.588,369.231 106.219,361.803 105.038,360.869C102.897,361.237 102.4,363.991 102.773,366.45C103.146,368.909 104.426,371.318 105.075,371.113Z" fill="#272D3A"/>
<path d="M203.009,371.136C204.008,370.879 204.351,367.976 204.21,365.787C204.069,363.597 203.302,361.953 202.868,363.969C201.957,365.282 201.337,366.987 201.256,368.374C201.176,369.762 201.777,370.999 203.009,371.136Z" fill="#A2A7B1"/>
<path d="M393.947,370.875L396.136,371C396.136,368.263 396.136,363.278 396.136,362L395,360L393.136,360C391.612,354.644 384.103,353.634 384.136,348.001C378.864,346.151 381.353,354.157 377.086,351.895C377.352,350.595 376.052,350.198 374.865,349.963C373.679,349.729 372.501,349.897 372.981,349.135C373.225,352.608 367.467,351.986 362.764,351.817C358.062,351.648 354.378,351.921 358.943,356.124C359.161,356.124 363.265,356.136 365.01,356.136C366.431,355.914 368.109,355.975 369.483,356.186C370.857,356.397 371.793,356.679 371.876,357.056C373.217,357.027 372.865,360.578 372.86,363.639C372.855,366.699 373.394,369.328 376.073,367.114C386.363,363.229 371.512,358.36 378.972,356.133C383.21,360.15 388.04,364.946 391.901,368.094C391.929,368.784 392.622,369.389 393.206,369.889C393.79,370.389 394.312,370.565 393.947,370.875Z" fill="#030303"/>
<path d="M395.864,371C396.637,371.492 397.139,370.493 397.185,369.118C397.232,367.744 397.095,366.004 397.136,365.011L395.864,362C395.864,363.278 395.864,368.263 395.864,371Z" fill="#A9A9A9"/>
<path d="M32.0388,370.13C33.5043,367.884 35.1278,361.258 33.0375,359.869C31.3121,360 30.6477,362.569 30.7086,365.003C30.7695,367.438 31.557,369.999 32.0388,370.13Z" fill="#262D3A"/>
<path d="M56.9383,369.879C58.5978,369.999 59.202,368.45 59.3657,366.704C59.5293,364.957 59.3523,363.265 60.0381,363.131C57.4236,362.055 56.7131,363.479 56.7236,365.399C56.734,367.32 57.3656,369.486 56.9383,369.879Z" fill="#707782"/>
<path d="M69.9925,370.136C71.1829,370.724 71.5284,368.789 71.4568,366.995C71.3853,365.201 70.8286,363.526 70.9244,364.113C69.595,362.5 68.9092,364.015 68.8038,365.986C68.6983,367.957 69.2413,370.406 69.9925,370.136Z" fill="#272E39"/>
<path d="M133.959,369.87C137.272,368.56 136.839,362.218 136.115,360.928C134.217,359.151 133.65,361.255 133.717,363.838C133.783,366.421 134.328,369.426 133.959,369.87Z" fill="#717881"/>
<path d="M197.126,370.052C199.392,370.323 199.182,369.046 198.635,367.64C198.088,366.234 197.137,364.771 198.059,364.123C195.967,363.676 195.494,365.241 195.752,366.936C196.01,368.631 197.066,370.385 197.126,370.052Z" fill="#232934"/>
<path d="M206.875,369.947C208.794,370.327 209.244,368.479 209.234,366.558C209.223,364.637 208.879,362.834 210.002,363.136C207.824,362.497 207.021,363.772 206.857,365.519C206.693,367.265 207.042,369.294 206.875,369.947Z" fill="#242936"/>
<path d="M90.9348,368.881C92.4509,369.143 93.2319,367.101 93.3929,365.075C93.554,363.048 93.0904,361.04 92.9301,361.883C91.2038,359.873 90.7515,361.64 90.7399,363.843C90.7283,366.047 91.1622,368.683 90.9348,368.881Z" fill="#2B313E"/>
<path d="M306.884,368.929C308.356,368.143 308.508,366.507 307.848,365.256C307.188,364.006 305.742,363.11 304.91,363.898C303.144,365.181 303.675,366.445 304.632,367.278C305.589,368.111 306.945,368.546 306.884,368.929Z" fill="#070707"/>
<path d="M308.933,368.881L310,369C311.278,369 316.323,369.122 319.06,369.122C319.184,368.38 316.948,367.756 314.58,367.759C312.211,367.762 309.583,368.151 308.933,368.881Z" fill="#282828"/>
<path d="M336,369L338.136,369C342.181,368.512 350.985,369.932 355.03,368.133C349.185,368.133 341.533,367.864 337,367.864L336,368L336,369Z" fill="#262626"/>
<path d="M255.948,368.126C256.511,368.126 260.932,368.136 263,368.136L264.136,367C264.245,362.766 259.037,360.329 255.474,360.362C251.91,360.395 249.805,363.024 255.948,368.126Z" fill="#040404"/>
<path d="M336.874,368.051C341.407,368.051 349.166,368.136 355.011,368.136C356.344,367.924 356.662,366.082 355.933,364.815C355.205,363.549 353.386,362.591 350.965,363.869L349.136,364C348.229,363.368 348.144,361.359 348.077,359.515C348.011,357.671 347.778,355.865 346.95,355.874C344.548,358.924 335.908,363.236 336.874,368.051Z" fill="#FBFBFB"/>
<path d="M368.871,367.956C371.454,368.992 372.294,367.226 372.311,364.687C372.328,362.148 371.784,358.905 372.134,357.025C372.051,356.648 370.899,356.128 369.525,355.917C368.15,355.706 366.364,355.655 364.943,355.877C362.255,359.017 370.379,361.568 368.871,367.956Z" fill="#FBFBFB"/>
<path d="M377,368C380.456,368 387.235,368.13 392.041,368.13C388.179,364.982 383.274,359.886 379.036,355.869C371.576,358.095 386.265,362.981 375.975,366.866L377,368Z" fill="#FAFAFA"/>
<path d="M271,365L271.864,365C273.383,365.153 275.989,365.491 277.824,364.932C279.659,364.373 280.977,362.847 280.117,359.931C279.199,359.931 274.34,359.878 271.94,359.878C272.095,360.751 272.009,362.114 271.84,363.029C271.67,363.943 271.543,364.413 271.066,363.881L271,365Z" fill="#070707"/>
<path d="M397,365L398.136,365C397.505,357.226 399.242,344.433 397.118,336.933L396,337L396,336L393.136,336C393.149,333.914 391.04,331.948 389.875,330.658C388.709,329.367 388.348,328.888 391.995,329.136L393.136,328C392.68,312.012 385.68,329.5 380.986,319.865C380.758,321.347 380.887,323.987 380.945,326.116C381.003,328.246 380.984,329.866 379.981,329.865C376.799,330.802 374.211,337.697 376.973,340.133C380.894,338.615 382.742,339.481 383.609,341.332C384.476,343.182 384.267,345.823 383.878,347.94C388.275,346.8 391.16,349.923 392.877,353.207C394.595,356.492 395.267,359.863 395,359.864L396,362L397,365Z" fill="#070707"/>
<path d="M307.902,364.094C309.899,364.71 312.727,364.492 314.443,363.837C316.16,363.182 316.939,361.884 315.077,360.888C313.81,359.54 311.375,359.406 309.662,360.058C307.948,360.71 306.781,362.355 307.902,364.094Z" fill="#060606"/>
<path d="M348.955,364.128L350.864,364C349.465,364.215 349.573,362.304 349.341,360.303C349.109,358.302 348.682,356.075 347.009,355.864C347.838,355.856 347.739,357.68 347.806,359.524C347.872,361.368 348.049,363.496 348.955,364.128Z" fill="#040404"/>
<path d="M267.904,360.096L271.136,360C274.476,353.895 288.434,355.896 284.118,340.932L284,340L280.864,340C280.235,341.601 280.18,344.224 279.557,346.156C278.933,348.088 277.85,349.196 274.973,347.867C280.191,354.465 262.146,348.581 267.904,360.096Z" fill="#080808"/>
<path d="M279.887,360.076C281.324,360.076 285.156,359.872 285.045,359.872C284.521,359.361 283.546,358.799 282.792,358.132C282.038,357.465 281.564,356.909 282.105,356.087C281.858,355.95 280.922,356.118 280.372,356.822C279.821,357.527 279.439,358.755 279.887,360.076Z" fill="#090909"/>
<path d="M284.916,360.107C285.44,360.349 286.634,360.131 287.388,359.465C288.143,358.798 288.653,357.498 288.112,355.923C287.894,355.923 283.693,355.875 281.948,355.875C281.407,356.697 281.857,357.669 282.612,358.336C283.366,359.002 284.393,359.596 284.916,360.107Z" fill="#080808"/>
<path d="M352.864,359.996C353.788,360.238 356.685,360.517 358.568,360.029C360.451,359.541 361.548,358.189 359.093,355.9C354.527,351.698 358.052,351.92 362.754,352.089C367.457,352.258 373.379,352.454 373.135,348.981L373,348L369.136,348C367.319,346.586 367.785,345.442 369.003,344.665C370.222,343.889 372.059,343.617 373.002,344.136C370.915,342.9 373.002,340.372 373.109,340.081C370.71,340.081 365.979,339.878 365.06,339.878C365.608,335.218 358.36,336.557 360.067,332.119C355.408,335.029 355.614,344.216 344.961,339.87C344.625,340.734 344.023,342.019 343.34,342.922C342.657,343.824 341.967,344.342 341.033,343.868L339.864,344C339.296,359.383 353.273,338.418 352.864,359.996Z" fill="#FBFBFB"/>
<path d="M392.882,360.067L395.136,360C395.403,359.999 394.836,356.366 393.119,353.081C391.401,349.796 388.323,346.746 383.926,347.886C383.894,353.519 391.358,354.711 392.882,360.067Z" fill="#F9F9F9"/>
<path d="M251.878,355.94C254.995,356.87 258.243,356.008 260.359,354.263C262.475,352.517 263.697,349.877 263.117,347.93C259.661,347.93 252.806,347.864 248,347.864L247.864,351C248.404,351.738 253.177,351.903 251.878,355.94Z" fill="#040404"/>
<path d="M287.866,356.022C290.487,357.263 291.918,355.49 292.22,353.42C292.521,351.35 291.869,348.831 291.043,348.871C289.154,346.9 288.184,348.408 287.885,350.476C287.587,352.543 287.782,355.32 287.866,356.022Z" fill="#080808"/>
<path d="M296.988,356.136C301.717,342.979 311.9,357.208 312.136,344.003C308.947,341.592 303.015,338.728 295.999,338.864L294.864,340C303.878,345.546 294.991,346.943 296.988,356.136Z" fill="#050505"/>
<path d="M312.962,356.131C313.615,355.963 315.735,356.307 317.481,356.143C319.228,355.979 320.756,355.109 320.117,352.931L319,353L319.136,352C318.12,351.666 315.369,351.548 313.586,352.136C311.804,352.725 310.816,354.152 312.962,356.131Z" fill="#070707"/>
<path d="M395.864,354C396.633,353.515 397.262,351.12 397.249,348.918C397.235,346.717 396.633,344.601 395.919,344.891C395.919,347.628 395.864,352.722 395.864,354Z" fill="#A8A8A9"/>
<path d="M319,353L320.136,353C320.152,351.65 322.652,352.196 324.964,352.113C327.276,352.03 329.371,351.237 328.108,347.918L325.136,348C323.366,344.98 324.51,344.223 326.105,344.532C327.701,344.842 329.5,346.141 328.888,347.923L332.136,348C324.224,334.367 333.144,338.895 336.103,332.089L333,332L333,331L332.136,331C332.136,327.578 332.136,322.004 332.136,320C327.222,318.508 328.524,325.358 325.028,323.867L325,323L324.136,323C324.136,318.194 324.136,311.456 324.136,308L323.136,308C316.289,307.789 315.677,308.813 316.832,310.464C317.986,312.115 320.641,314.355 319.869,316.962C319.724,319.544 316.296,320.121 312.553,320.063C308.809,320.005 304.842,319.219 303.963,318.869C299.972,327.035 313.532,320.778 311.894,327.914C316.337,325.84 315.057,333.363 320.071,332.116C323.673,320.884 334.967,335.849 319.952,331.873C321.226,338.291 309.514,338.414 311.917,344.107C317.116,342.364 321.154,344.852 318.886,351.927L319,353Z" fill="#040404"/>
<path d="M333,352L335,352L335,348L332,349L333,352Z" fill="#070707"/>
<path d="M376.869,351.964C381.136,354.226 378.773,346.279 384.044,348.129C384.433,346.012 384.722,343.067 383.855,341.216C382.988,339.366 380.843,338.37 376.923,339.888C376.587,340.753 376.023,342.019 375.34,342.922C374.657,343.824 373.929,344.338 372.996,343.864C370.908,345.1 372.783,347.79 372.891,348.081L372.864,349C372.384,349.762 373.626,349.996 374.813,350.23C375.999,350.465 377.135,350.664 376.869,351.964Z" fill="#FCFCFC"/>
<path d="M107.988,351.135C108.869,350.446 110.137,346.863 110.352,343.807C110.568,340.75 109.683,337.963 106.941,338.878C111.858,342.585 105.74,348.707 107.988,351.135Z" fill="#222935"/>
<path d="M154.006,350.136L156.136,349C158.766,347.336 155.901,342.92 156.126,342.052C152.784,341.219 151.628,343.208 151.766,345.433C151.904,347.657 153.216,350.201 154.006,350.136Z" fill="#F2F7F8"/>
<path d="M37.9518,349.127C39.7461,349.871 40.4149,347.866 40.3336,345.994C40.2524,344.123 39.3685,342.166 38.8991,342.909C37.6872,343.342 37.0985,344.816 36.9995,346.154C36.9004,347.492 37.3438,348.913 37.9518,349.127Z" fill="#292F3C"/>
<path d="M74.9722,348.867C75.7699,348.284 76.7473,346.321 77.0806,344.283C77.4139,342.245 77.1911,340.143 76.0602,339.878C75.035,338.772 74.7145,340.964 74.7836,343.398C74.8526,345.833 75.2234,348.499 74.9722,348.867Z" fill="#252B3A"/>
<path d="M113.866,349.021L115.136,349C115.177,348.007 115.04,346.266 115.087,344.891C115.133,343.516 115.256,342.641 116.03,343.133C115.063,340.966 115.737,339.829 116.8,339.307C117.863,338.785 119.304,338.881 120.017,339.135C116.248,336.488 114.521,337.857 113.924,340.536C113.328,343.214 113.712,347.089 113.866,349.021Z" fill="#575E6B"/>
<path d="M114.998,348.864C115.346,343.031 120.167,345.344 121.105,343.087C119.668,343.087 115.924,343.131 116.035,343.131C115.262,342.64 114.861,343.507 114.815,344.882C114.768,346.256 115.039,347.871 114.998,348.864Z" fill="#3D4450"/>
<path d="M155.952,348.873C159.164,349.219 159.774,344.941 159.186,341.789C158.597,338.638 156.723,336.717 155.866,341.978C155.641,342.846 158.582,347.209 155.952,348.873Z" fill="#838892"/>
<path d="M186.938,348.879C188.598,348.999 189.202,347.45 189.366,345.704C189.529,343.957 189.352,342.265 190.038,342.131C187.424,341.055 186.713,342.479 186.724,344.399C186.734,346.32 187.366,348.486 186.938,348.879Z" fill="#8D949E"/>
<path d="M332,349L334.864,348C338.745,348.137 335.807,343.613 339.992,344.136L341.136,344C339.404,341.474 339.504,340.356 340.525,339.868C341.546,339.38 343.305,339.647 344.952,340.127C346.188,340.743 350.477,336.229 352.226,331.857C353.974,327.485 353.193,322.996 344.963,323.869C344.487,324.111 344.063,325.168 343.893,326.082C343.723,326.997 343.828,328.036 343.983,328.135C347.24,327.003 348.075,328.312 347.863,329.826C347.65,331.34 346.477,332.808 345.07,331.883C344.594,331.641 344.33,330.783 344.16,329.868C343.991,328.954 343.887,328.229 344.042,328.13L339.864,328C340.405,329.575 339.963,330.594 339.208,331.261C338.454,331.927 337.554,332.109 337.031,331.867L335.864,332C332.905,338.806 323.999,334.47 331.911,348.103L332,349Z" fill="#F9F9F9"/>
<path d="M262.888,347.922C265.257,347.922 271.285,348.126 275.052,348.126C271.017,342.191 272.283,340.181 280.074,338.114C280.074,337.896 280.136,333.746 280.136,332L275.864,332C270.73,334.981 264.488,343.339 262.888,347.922Z" fill="#040404"/>
<path d="M274.899,348.091C277.776,349.421 279.192,348.172 279.815,346.24C280.439,344.307 280.478,341.685 281.107,340.084L279.864,338C272.073,340.067 270.864,342.156 274.899,348.091Z" fill="#FAFBFA"/>
<path d="M324.912,348.103L328,348L329.136,348C329.748,346.218 327.753,344.575 326.157,344.265C324.562,343.956 323.142,345.084 324.912,348.103Z" fill="#F6F6F6"/>
<path d="M356.935,348.12C359.471,348.88 361.872,348.42 363.116,347.505C364.36,346.59 364.577,344.98 363.065,343.88C360.529,343.12 358.128,343.58 356.884,344.495C355.64,345.41 355.423,347.02 356.935,348.12Z" fill="#040404"/>
<path d="M368.951,348.127L373.136,348C373.028,347.709 370.981,345.353 373.068,344.118C372.125,343.599 370.076,343.66 368.857,344.436C367.639,345.212 367.134,346.713 368.951,348.127Z" fill="#060606"/>
<path d="M394.981,345.135L396.136,345C398.73,339.593 395.868,338.77 393.761,339.772C391.654,340.774 390.146,343.734 394.981,345.135Z" fill="#F7F9FA"/>
<path d="M252.956,344.129C254.639,344.826 255.762,343.544 256.065,342.277C256.368,341.01 255.88,339.495 254.985,339.865C252.974,339.496 252.149,340.561 252.049,341.624C251.949,342.687 252.547,344.013 252.956,344.129Z" fill="#060606"/>
<path d="M340.898,344.09C341.831,344.564 342.874,343.988 343.557,343.086C344.24,342.183 344.781,340.934 345.117,340.07C343.47,339.59 341.429,339.134 340.408,339.623C339.386,340.111 339.167,341.564 340.898,344.09Z" fill="#0A0A0A"/>
<path d="M372.934,344.119C373.867,344.593 374.874,343.988 375.557,343.086C376.24,342.183 376.772,340.948 377.107,340.083L372.864,340C372.756,340.291 370.846,342.883 372.934,344.119Z" fill="#060606"/>
<path d="M115.899,343.091C117.335,343.091 121.115,342.864 121.004,342.864C122.841,342.747 123.119,341.577 122.614,340.482C122.109,339.387 120.803,338.368 119.985,338.865C119.272,338.611 117.743,338.54 116.68,339.062C115.617,339.584 114.932,340.924 115.899,343.091Z" fill="#F3F7F9"/>
<path d="M283.864,341C287.894,341.963 288.39,339.052 287.502,337.26C286.614,335.468 284.344,334.772 283.866,339.975L283.864,341Z" fill="#0D0D0D"/>
<path d="M292.887,340.076L295,340L296.136,339C302.024,332.96 299.656,328.569 296.681,328.075C293.707,327.582 289.878,331.062 292.887,340.076Z" fill="#080808"/>
<path d="M345.005,339.864C355.658,344.211 355.382,335.04 360.041,332.13L361.136,332C348.981,319.538 369.233,331.804 361.065,319.88C358.381,320.464 353.967,319.783 350.336,319.679C346.705,319.576 343.658,320.19 343.865,323.02L345.136,324C353.366,323.127 353.722,327.384 351.973,331.756C350.225,336.128 346.241,340.479 345.005,339.864Z" fill="#040404"/>
<path d="M364.868,339.969C365.786,339.969 370.659,340.123 373.059,340.123C375.085,333.53 372.376,329.307 369.019,327.968C365.662,326.629 361.469,328.012 360.87,331.961L359.864,332C358.158,336.438 365.415,335.309 364.868,339.969Z" fill="#020202"/>
<path d="M372.884,339.929L377.136,340C374.374,337.564 376.893,331.05 380.075,330.113C380.304,328.631 380.113,326.013 380.055,323.884C379.997,321.754 379.941,320.123 380.944,320.124C385.638,329.759 392.408,312.018 392.864,328.006C394.439,328.547 395.798,328.143 396.465,327.388C397.131,326.634 397.366,325.469 397.124,324.945C397.126,321.522 397.472,315.424 396.026,314.866L394.864,315C387.548,316.624 376.313,315.472 368.996,315.864L369,315L368.136,315C368.723,306.647 367.125,294.799 369.112,289.078L369,288L368,288L367.136,287C366.053,286.635 365.022,287.033 364.522,287.617C364.022,288.201 363.839,289.084 363.923,289.112C364.941,296.32 359.543,298.62 355.922,299.889C355.467,303.893 351.341,306.073 349.045,306.872C348.998,305.885 348.411,304.921 347.61,304.301C346.81,303.681 345.707,303.403 344.957,303.871C342.645,303.959 339.727,305.961 339.865,307.018C339.865,309.086 339.864,313.437 339.864,314C341.859,315.427 340.317,322.658 340.894,324.086L344.136,323C343.929,320.17 346.697,319.848 350.328,319.951C353.959,320.055 358.386,320.701 361.069,320.117C358.005,311.04 353.062,307.46 363.961,304.13C365.811,307.432 364.355,315.733 364.869,319.036C366.742,319.287 367.674,320.73 367.675,322.031C367.675,323.333 366.944,324.34 365.07,323.883C364.735,323.019 364.24,321.817 363.557,320.914C362.874,320.012 361.854,319.415 360.921,319.889C369.089,331.813 348.871,319.672 361.026,332.133C361.625,328.185 365.562,326.881 368.918,328.22C372.275,329.559 374.91,333.336 372.884,339.929Z" fill="#F8F9F9"/>
<path d="M396,337L397.136,337C399.216,336.348 397.593,328.614 398.13,325.039L396.864,325C397.106,325.524 396.927,326.454 396.261,327.208C395.594,327.963 394.598,328.407 393.023,327.866L391.864,329C392.601,332.661 400.02,330.622 395.926,335.886L396,337Z" fill="#313132"/>
<path d="M304.926,336.114C305.45,336.356 306.634,336.131 307.388,335.465C308.143,334.798 308.653,333.498 308.112,331.923L307.864,331C307.552,331.112 305.977,331.581 304.867,332.466C303.757,333.35 303.174,334.765 304.926,336.114Z" fill="#0D0D0D"/>
<path d="M392.864,335.998L396.136,336C400.229,330.737 392.864,332.613 392.127,328.952C388.479,328.704 388.508,329.549 389.673,330.84C390.838,332.13 392.877,333.912 392.864,335.998Z" fill="#F6F8F8"/>
<path d="M268.94,332.122C269.158,332.122 273.284,332.133 275.03,332.133C275.506,331.891 275.937,330.832 276.107,329.918C276.277,329.003 276.203,327.972 276.048,327.873C275.133,327.787 272.024,327.504 269.859,327.887C267.694,328.271 266.364,329.57 268.94,332.122Z" fill="#060606"/>
<path d="M274.953,332.128L276,332L280.136,332C281.469,328.267 277.297,327.433 275.925,327.886C276.822,330.219 274.533,331.818 274.953,332.128Z" fill="#F4F4F4"/>
<path d="M279.912,331.896C284.067,330.239 291.307,324.382 291.136,319.989C284.946,319.989 276.834,319.876 271.944,319.876C269.87,324.318 277.138,322.905 275.89,327.919C277.262,327.466 281.245,328.163 279.912,331.896Z" fill="#020202"/>
<path d="M307.864,332C309.236,332.454 313.452,331.667 312.119,327.934C311.72,327.817 310.293,327.729 309.263,328.12C308.233,328.511 307.368,329.523 307.887,331.076L307.864,332Z" fill="#0A0A0A"/>
<path d="M319.902,332.094C321.899,332.71 324.727,332.492 326.443,331.837C328.16,331.182 328.939,329.884 327.077,328.888C325.81,327.54 323.375,327.406 321.662,328.058C319.948,328.71 318.781,330.355 319.902,332.094Z" fill="#F7F7F7"/>
<path d="M333,332L336,332L337.136,332C335.529,330.875 335.802,329.704 336.738,328.85C337.673,327.995 339.095,327.587 339.959,328.13L340,324L337.136,324C336.8,323.136 336.24,321.817 335.557,320.914C334.874,320.012 333.847,319.42 332.914,319.895C332.914,323.316 332.864,328.996 332.864,331L333,332Z" fill="#F9F9F9"/>
<path d="M336.93,332.116C337.453,332.358 338.634,332.131 339.388,331.465C340.143,330.798 340.665,329.52 340.125,327.945C339.26,327.402 337.49,327.794 336.554,328.649C335.619,329.504 335.322,330.992 336.93,332.116Z" fill="#090909"/>
<path d="M344.921,331.889C346.328,332.813 347.92,331.377 348.132,329.863C348.345,328.349 347.181,326.755 343.924,327.887C343.028,330.22 345.342,331.58 344.921,331.889Z" fill="#0A0A0A"/>
<path d="M331.864,331L333.136,331C333.136,328.996 333.136,323.422 333.136,320L332,319L331.864,320C331.864,322.004 331.864,327.578 331.864,331Z" fill="#F2F2F2"/>
<path d="M379.87,329.96C380.873,329.961 381.275,328.238 381.217,326.109C381.159,323.979 380.902,321.522 381.13,320.04C380.127,320.039 379.725,321.762 379.783,323.891C379.841,326.021 380.098,328.478 379.87,329.96Z" fill="#464646"/>
<path d="M79.8789,327.938C81.8321,328.523 82.3608,326.918 82.2584,325.068C82.156,323.218 81.578,321.314 82.0343,321.132C80.4905,320.956 79.9,322.329 79.8258,324.003C79.7516,325.677 80.0383,327.459 79.8789,327.938Z" fill="#4B525C"/>
<path d="M123.937,327.879C126.803,328.688 127.429,326.662 127.301,324.14C127.174,321.619 126.376,318.855 127.021,318.134C124.515,319.741 125.537,326.748 123.937,327.879Z" fill="#333A46"/>
<path d="M133.936,327.88C136.562,328.841 137.442,326.361 137.375,323.573C137.308,320.785 136.275,317.7 135.917,317.892C133.802,322.006 136.86,325.942 133.936,327.88Z" fill="#242B38"/>
<path d="M254.965,327.869C258.396,326.568 265.687,321.834 267.072,320.116C260.882,320.116 252.89,319.864 248,319.864L247.864,323C248.034,323.814 251.132,323.898 253.456,324.294C255.78,324.691 257.433,325.269 254.965,327.869Z" fill="#030303"/>
<path d="M340,328L344.136,328C343.239,325.667 345.467,324.182 345.047,323.872L344,323L341,324L340,324L340,328Z" fill="#0A0A0A"/>
<path d="M372.971,328.133C375.168,328.95 376.174,326.731 376.294,324.481C376.415,322.23 375.68,319.679 374.999,319.864C372.604,319.245 371.742,321.359 371.728,323.503C371.713,325.647 372.517,328.091 372.971,328.133Z" fill="#040404"/>
<path d="M396.864,325L398.136,325C398.136,313.49 398.136,299.687 398.136,287L397,287L396,288L395.864,289C396.892,296.093 397.462,309.247 395.874,314.949C397.32,315.507 396.865,321.577 396.864,325Z" fill="#2F2F30"/>
<path d="M296.899,324.091C300.012,324.835 300.208,319.112 304,319.136L304,315L301.136,316C299.837,315.553 300.033,311.365 300.124,311.056C297.799,310.388 296.236,312.597 295.79,315.532C295.344,318.468 295.79,322.164 296.899,324.091Z" fill="#040404"/>
<path d="M324.864,324C328.36,325.491 327.066,318.642 331.98,320.134L332.136,319C335.207,317.355 335.607,308.895 340.08,307.11C339.942,306.053 342.751,304.209 345.063,304.121C344.385,296.2 345.302,295.911 347.373,297.25C349.445,298.589 352.689,301.544 356.082,300.109C355.905,295.48 350.937,293.696 353.126,288.051C352.647,287.276 350.156,286.702 347.969,286.702C345.781,286.702 343.654,287.294 343.883,288.069L342.864,291C336.988,292.693 326.871,291.434 320.995,291.864L321,291L320,291L321.136,288C320.685,287.024 318.834,286.574 317.475,286.785C316.116,286.996 315.002,287.947 315.889,289.078C316.333,291.062 314.617,291.102 312.588,290.983C310.559,290.864 308.247,290.399 307.919,290.891L309.136,288C304.329,285.927 293.995,287.478 289.008,286.864L287.864,289C287.653,295.847 288.813,296.323 290.464,295.168C292.115,294.014 294.352,291.359 296.96,292.13C300.978,293.444 299.513,294.311 297.676,295.908C295.838,297.504 293.582,299.805 295.914,303.105C300.47,303.701 309.184,301.969 310.889,304.079C312.485,311.519 308.154,314.516 304.972,315.867L304,315L303.864,319C304.743,319.349 308.804,320.277 312.548,320.335C316.292,320.393 319.99,319.59 320.136,317.008C320.907,314.4 318.209,311.959 317.054,310.308C315.9,308.657 316.151,307.925 322.998,308.136L324.136,306C325.254,303.045 328.014,300.986 330.049,300.752C332.085,300.518 333.136,302.055 330.876,306.945C330.893,307.997 329.517,308.016 328.008,307.929C326.499,307.841 324.847,307.709 324.864,308.008C324.864,312.813 324.864,319.544 324.864,323L324.864,324Z" fill="#FAFBFB"/>
<path d="M336.893,324.083L340.136,324C340.136,320.922 340.136,315.641 340.136,314C340.136,313.437 340.136,309.068 340.136,307C335.663,308.785 335.036,317.224 331.965,318.869L333.136,320C334.069,319.526 334.657,320.176 335.34,321.078C336.023,321.981 336.557,323.219 336.893,324.083Z" fill="#040404"/>
<path d="M339.864,324L341.136,324C340.559,322.573 341.961,315.295 339.966,313.868C339.966,315.509 339.864,320.922 339.864,324Z" fill="#F4F4F4"/>
<path d="M364.884,324.072C366.758,324.529 367.947,323.333 367.947,322.031C367.946,320.73 366.883,319.116 365.009,318.864L364.136,319C364.136,314.194 364.136,307.456 364.136,304C353.237,307.33 357.852,311.031 360.917,320.108C361.85,319.633 362.657,320.176 363.34,321.078C364.023,321.981 364.549,323.207 364.884,324.072Z" fill="#020202"/>
<path d="M323.864,323L325.136,323C325.136,319.544 325.136,312.806 325.136,308L323.864,308C323.864,311.456 323.864,318.194 323.864,323Z" fill="#DCDCDC"/>
<path d="M248,320C252.89,320 260.846,320.131 267.036,320.131C263.875,318.046 253.927,319.479 248.007,318.864L248,320Z" fill="#D0D0D0"/>
<path d="M271.983,319.865C276.873,319.865 284.841,320.132 291.031,320.132C287.956,318.512 276.517,318.747 271.983,319.865Z" fill="#D2D2D2"/>
<path d="M363.864,319L365.136,319C364.622,315.697 365.832,307.167 363.982,303.865C363.982,307.321 363.864,314.194 363.864,319Z" fill="#C9C9C9"/>
<path d="M249.136,316C256.453,315.608 267.699,316.759 275.015,315.135C267.656,315.135 257.598,314.864 249,314.864L249.136,316Z" fill="#3A3A3A"/>
<path d="M281.04,316.13C283.435,316.749 284.258,314.641 284.272,312.497C284.287,310.353 283.482,307.909 283.028,307.867C280.277,306.891 279.508,309.133 279.643,311.427C279.778,313.722 280.83,316.332 281.04,316.13Z" fill="#050505"/>
<path d="M288.94,316.122L291.136,315C291.136,311.233 291.136,305.368 291.136,303L287.864,304C288.401,306.195 286.861,314.089 288.94,316.122Z" fill="#050505"/>
<path d="M300.977,316.134L304.136,315C304.874,311.862 300.228,311.551 299.997,310.864C299.907,311.172 299.678,315.687 300.977,316.134Z" fill="#F8F8F8"/>
<path d="M305.136,316C308.318,314.649 312.72,311.386 311.125,303.946C306.319,303.946 299.399,303.876 295.944,303.876C294.267,307.557 300.353,307.073 299.865,310.983C300.096,311.67 304.615,311.805 303.877,314.942L305.136,316Z" fill="#020202"/>
<path d="M369.136,316C376.453,315.608 387.699,316.759 395.015,315.135C386.417,315.135 376.359,314.864 369,314.864L369.136,316Z" fill="#3A3A3A"/>
<path d="M246.864,315L248.136,315C247.744,307.683 248.617,296.18 246.993,288.864C246.993,296.223 246.864,306.402 246.864,315Z" fill="#BBBBBB"/>
<path d="M274.864,315C276.452,309.298 276.023,295.957 274.995,288.864C274.995,296.223 274.864,306.402 274.864,315Z" fill="#282828"/>
<path d="M290.864,315C291.889,314.841 292.285,312.903 292.216,310.601C292.147,308.298 291.879,305.672 292.13,304.04L291,301L290.864,303C290.864,305.368 290.864,311.233 290.864,315Z" fill="#292929"/>
<path d="M367.865,314.981L369.136,315C369.136,306.402 369.136,296.359 369.136,289C367.149,294.722 368.452,306.628 367.865,314.981Z" fill="#3C3C3C"/>
<path d="M368.864,315C376.223,315 386.402,315.136 395,315.136L396.136,315C396.136,306.402 396.136,296.359 396.136,289L396,288C388.432,288 379.307,287.864 373,287.864L371,288L370,287L369,288L368.864,289C368.864,296.359 368.864,306.402 368.864,315ZM391.864,311C389.798,313.109 380.885,311.259 375.992,311.864L374,312L373,311L372.136,311C372.751,305.08 371.01,295.258 373.095,292.097C377.629,290.979 388.839,290.485 391.914,292.106C393.053,296.272 393.534,307.198 391.913,309.895L391.864,311Z" fill="#010101"/>
<path d="M395.864,315C397.452,309.298 397.023,295.957 395.995,288.864C395.995,296.223 395.864,306.402 395.864,315Z" fill="#A9A9A9"/>
<path d="M253.136,312C258.712,311.386 268.253,313.223 271.048,311.127C265.203,311.127 257.533,310.864 253,310.864L253.136,312Z" fill="#C0C1C0"/>
<path d="M374,312L376.136,312C379.81,310.176 388.335,311.636 392.009,311.136L392.136,310C392.136,304.156 392.136,296.533 392.136,292C385.946,292 377.829,291.878 372.939,291.878C372.939,298.068 372.864,306.11 372.864,311L374,312Z" fill="#FCFDFD"/>
<path d="M375.976,311.866C380.869,311.261 389.986,313.234 392.052,311.126C388.377,311.626 379.65,310.042 375.976,311.866Z" fill="#C1C1C1"/>
<path d="M250.868,310.969L252.136,311C252.136,305.502 252.136,298.175 252.136,294C250.033,296.43 251.479,305.736 250.868,310.969Z" fill="#424242"/>
<path d="M251.864,311L253,311C257.533,311 265.216,311.122 271.061,311.122C271.061,310.904 271.136,306.746 271.136,305C271.136,300.887 271.136,294.732 271.136,292L270,292C264.156,292 256.533,291.864 252,291.864L251.864,294C251.864,298.175 251.864,305.502 251.864,311Z" fill="#FCFCFC"/>
<path d="M371.867,310.972L373.136,311C373.136,306.11 373.136,298.19 373.136,292C371.051,295.161 372.482,305.052 371.867,310.972Z" fill="#C1C1C1"/>
<path d="M391.864,310C393.485,307.303 393.13,296.031 391.991,291.864C391.991,296.398 391.864,304.156 391.864,310Z" fill="#515151"/>
<path d="M256.136,308C257.768,307.749 260.298,308.147 262.601,308.216C264.903,308.285 266.971,308.065 267.13,307.04C263.708,307.04 258.004,306.864 256,306.864L256.136,308Z" fill="#444444"/>
<path d="M323,308L324,308L325.136,308C325.119,307.701 326.484,308.113 327.992,308.2C329.501,308.288 331.153,308.047 331.136,306.996C329.39,306.996 325.218,306.864 325,306.864L324,306L323,308Z" fill="#444444"/>
<path d="M377.136,308C378.618,307.772 380.979,308.159 383.109,308.217C385.238,308.275 387.137,308.003 387.136,307C384.058,307 378.641,306.864 377,306.864L377.136,308Z" fill="#444444"/>
<path d="M254.909,306.899L256.136,307C256.136,304.263 256.136,299.278 256.136,298C254.11,299.053 255.497,305.846 254.909,306.899Z" fill="#BCBCBC"/>
<path d="M255.864,307C257.868,307 263.639,307.122 267.061,307.122C267.061,303.7 267.136,298.004 267.136,296C263.714,296 258.004,295.864 256,295.864L255.864,298C255.864,299.278 255.864,304.263 255.864,307Z" fill="#010101"/>
<path d="M266.864,307C267.563,306.18 268.216,303.455 268.232,300.923C268.249,298.39 267.706,295.926 266.942,295.877C266.942,297.881 266.864,303.578 266.864,307Z" fill="#2B2B2B"/>
<path d="M325,307C325.218,307 329.311,307.124 331.056,307.124C333.317,302.234 332.054,300.248 330.018,300.481C327.983,300.715 325.009,302.963 323.892,305.918L325,307Z" fill="#050505"/>
<path d="M348.865,307.019C351.161,306.221 355.672,304.052 356.127,300.048C352.735,301.483 349.592,298.361 347.521,297.022C345.45,295.683 344.195,296.126 344.872,304.047C345.622,303.578 346.643,303.896 347.444,304.516C348.245,305.136 348.818,306.032 348.865,307.019Z" fill="#040404"/>
<path d="M375.885,306.928L377.136,307C377.136,303.578 377.136,298.004 377.136,296C375.171,297.802 376.45,305.125 375.885,306.928Z" fill="#414141"/>
<path d="M376.864,307C378.505,307 383.922,307.136 387,307.136L388.136,306C388.136,302.922 388.136,297.641 388.136,296C384.714,296 378.944,295.878 376.939,295.878C376.939,297.883 376.864,303.578 376.864,307Z" fill="#010101"/>
<path d="M387.864,306C388.595,305.35 389.238,302.789 389.241,300.42C389.244,298.052 388.673,295.759 387.931,295.883C387.931,297.524 387.864,302.922 387.864,306Z" fill="#ADADAD"/>
<path d="M270.864,305C272.445,304.178 272.277,294.211 270.983,291.865C270.983,294.597 270.864,300.887 270.864,305Z" fill="#D8D8D8"/>
<path d="M280,304C280.918,304 285.6,304.136 288,304.136L291,303L291.136,301C289.001,299.917 284.746,305.179 280.032,302.868L280,304Z" fill="#505050"/>
<path d="M291.864,304C293.721,304.421 295.221,302.239 296.007,303.136C293.675,299.836 296.016,297.709 297.854,296.113C299.692,294.516 301.059,293.184 297.041,291.87C294.433,291.099 291.959,293.791 290.308,294.946C288.657,296.1 287.925,295.856 288.136,289.008L287,289L283.864,288C274.355,293.543 288.845,297.33 279.933,302.882C284.646,305.193 288.832,300.049 290.967,301.132L291.864,304Z" fill="#030303"/>
<path d="M296,304C299.456,304 306.244,304.127 311.049,304.127C309.344,302.016 300.565,303.46 296.009,302.864L296,304Z" fill="#B1B2B1"/>
<path d="M317.007,304.136C318.69,304.833 319.762,303.544 320.065,302.277C320.368,301.01 319.891,299.494 318.996,299.864C316.495,299.006 315.768,300.202 315.846,301.442C315.923,302.683 316.816,304.239 317.007,304.136Z" fill="#090909"/>
<path d="M305.007,300.136C306.69,300.833 307.762,299.544 308.065,298.277C308.368,297.01 307.891,295.494 306.996,295.864C304.495,295.006 303.768,296.202 303.846,297.442C303.923,298.683 304.816,300.239 305.007,300.136Z" fill="#050505"/>
<path d="M355.865,300.015C359.486,298.747 365.153,296.188 364.134,288.98C362.899,286.892 360.214,288.78 359.923,288.888C360.288,289.971 359.791,290.772 359.206,291.272C358.622,291.772 358.157,292.04 358.129,291.956C357.636,290.703 355.175,289.23 356.072,288.116L352.864,288C350.675,293.645 355.688,295.387 355.865,300.015Z" fill="#020202"/>
<path d="M331.904,299.096C333.643,299.125 336.282,299.439 338.11,299.195C339.937,298.951 341.146,297.956 340.096,295.904C338.357,295.875 335.718,295.561 333.89,295.805C332.063,296.049 330.854,297.044 331.904,299.096Z" fill="#030303"/>
<path d="M255.864,296C257.346,295.772 259.979,296.159 262.109,296.217C264.238,296.275 266.137,296.003 266.136,295C264.654,295.228 262.021,294.841 259.891,294.783C257.762,294.725 255.863,294.997 255.864,296Z" fill="#A5A5A5"/>
<path d="M376.865,295.982C378.87,295.982 384.62,296.129 388.042,296.129C387.222,295.431 384.455,294.784 381.923,294.768C379.39,294.751 376.915,295.219 376.865,295.982Z" fill="#A4A4A4"/>
<path d="M251.982,291.865C256.515,291.865 264.19,292.132 270.034,292.132C267.337,290.51 256.148,290.727 251.982,291.865Z" fill="#5E5E5E"/>
<path d="M321.136,292C327.012,291.569 337.144,292.827 343.019,291.135C335.795,291.135 326.954,290.864 321,290.864L321.136,292Z" fill="#5E5E5E"/>
<path d="M357.887,292.076C358.733,292.203 359.553,291.487 359.884,290.733C360.214,289.979 360.259,289.011 360.092,288.9C360.573,286.765 359.313,286.55 358.126,286.867C356.94,287.183 355.71,288.266 355.975,288.134C355.079,289.248 357.395,290.823 357.887,292.076Z" fill="#F8FAFB"/>
<path d="M372.983,291.865C377.873,291.865 385.841,292.132 392.031,292.132C388.956,290.512 377.517,290.747 372.983,291.865Z" fill="#5D5D5D"/>
<path d="M308.136,291C308.465,290.508 310.543,291.136 312.572,291.255C314.601,291.374 316.569,290.928 316.124,288.944L315.136,289C315.153,287.948 313.501,287.712 311.992,287.8C310.484,287.887 309.118,288.314 309.135,288.015L308.136,291Z" fill="#040404"/>
<path d="M320,291L321,291C326.954,291 335.776,291.136 343,291.136L344,288L342,288C335.465,288 327.246,287.864 322,287.864L321,288L320,291Z" fill="#010101"/>
<path d="M12.8925,288.917L14.136,289C14.136,285.578 14.136,280.004 14.136,278C13.0872,277.275 12.706,279.667 12.7886,282.416C12.8711,285.166 13.174,288.191 12.8925,288.917Z" fill="#202634"/>
<path d="M13.864,289C14.5625,288.18 15.2162,285.455 15.2324,282.923C15.2485,280.39 14.7056,277.926 13.9423,277.877C13.9423,279.881 13.864,285.578 13.864,289Z" fill="#494F5B"/>
<path d="M17.872,289.046L19.136,288C18.5858,285.739 18.9651,283.969 19.8041,282.737C20.6431,281.504 21.8376,280.94 23.0318,281.132C20.1295,278.756 18.5846,279.856 17.9943,282.084C17.4041,284.312 17.6087,287.582 17.872,289.046Z" fill="#262D39"/>
<path d="M23.8756,288.945L25.136,289C25.136,286.932 25.136,282.563 25.136,282L22.864,281C22.9568,282.185 24.6541,285.429 23.8756,288.945Z" fill="#242A37"/>
<path d="M24.864,289C27.3496,288.114 29.7339,286.192 30.1711,284.56C30.6082,282.928 29.1683,281.466 24.9343,281.881C24.9343,282.444 24.864,286.932 24.864,289Z" fill="#A3A8B1"/>
<path d="M55.864,289C58.4605,290.078 59.4299,287.666 59.3795,285.066C59.3291,282.467 58.2967,279.587 57.9018,279.906C57.7679,281.311 58.0311,283.791 57.965,285.635C57.8989,287.479 57.634,288.649 56.0322,287.868L55.864,289Z" fill="#8F959E"/>
<path d="M60.8745,288.948C61.8499,288.103 62.9037,285.551 63.5588,283.317C64.2138,281.082 64.5301,279.335 64.9345,280.119C62.1616,278.965 61.165,280.063 60.8946,282.095C60.6241,284.126 61.0199,286.919 60.8745,288.948Z" fill="#606771"/>
<path d="M66.9426,288.877C68.9265,289.322 69.3738,287.601 69.2548,285.572C69.1359,283.543 68.5656,281.452 69.0574,281.123C67.0735,280.678 66.6262,282.399 66.7452,284.428C66.8641,286.457 67.4344,288.548 66.9426,288.877Z" fill="#232B37"/>
<path d="M72.9315,288.883C74.9328,289.172 75.4898,287.158 75.2911,285.026C75.0924,282.894 74.1463,280.64 73.94,280.878C71.8794,280.648 72.0342,282.346 72.5373,284.173C73.0403,286.001 73.8833,287.962 72.9315,288.883Z" fill="#242A39"/>
<path d="M86.8689,288.964C88.9358,288.974 89.045,286.287 89.0744,283.922C89.1038,281.557 89.1504,279.682 91.9661,281.132L92.136,280C88.6262,278.72 87.1999,280.271 86.8745,282.501C86.5491,284.732 87.0575,287.605 86.8689,288.964Z" fill="#2B313F"/>
<path d="M92.8744,288.948C94.9464,288.649 95.5164,286.085 95.029,283.74C94.5417,281.395 93.0832,279.192 91.9607,279.87L91.864,281C92.8968,282.704 93.151,287.393 92.8744,288.948Z" fill="#252A3A"/>
<path d="M97.9416,288.877C102.018,287.377 97.6478,282.346 100.066,280.119C97.3828,279.762 97.1242,281.213 97.515,283.199C97.9059,285.186 98.8223,287.465 97.9416,288.877Z" fill="#212838"/>
<path d="M112.878,289.06L115.136,289C115.177,288.007 115.04,286.266 115.087,284.891C115.133,283.516 115.201,282.642 115.974,283.133C111.727,282.244 110.626,282.635 110.816,283.86C111.007,285.084 112.392,287.068 112.878,289.06Z" fill="#262C3A"/>
<path d="M114.864,288.991C116.721,289.411 118.24,287.237 119.025,288.134C119.025,286.697 118.864,282.889 118.864,283L116.136,283C115.363,282.508 114.861,283.507 114.815,284.882C114.768,286.256 114.905,287.998 114.864,288.991Z" fill="#F1F6F7"/>
<path d="M118.864,289C123.962,290.374 124.921,286.666 123.993,283.739C123.065,280.812 120.256,278.625 118.87,282.959C118.87,284.396 119.136,288.111 119.136,288L118.864,289Z" fill="#F1F6F7"/>
<path d="M137.957,288.871L139.136,289C138.998,287.493 138.989,285.568 139.144,283.975C139.3,282.382 139.514,281.255 140.031,281.133C138.047,280.688 137.626,282.399 137.745,284.428C137.864,286.457 138.449,288.542 137.957,288.871Z" fill="#858B95"/>
<path d="M138.949,289.126C139.338,288.196 140.246,285.353 140.636,283.215C141.026,281.077 140.851,279.421 139.904,280.904C139.387,281.026 139.029,282.356 138.874,283.949C138.718,285.541 138.811,287.62 138.949,289.126Z" fill="#242B38"/>
<path d="M287,289L288,289L289,287L289,286C284.541,286 278.094,285.864 275,285.864L275,287L275.136,288C275.187,287.505 276.955,287.139 279.015,287.012C281.075,286.885 283.213,287.107 283.921,288.111L287,289Z" fill="#4D4D4D"/>
<path d="M314.864,288.996L316.136,289C315.249,287.869 316.158,287.265 317.517,287.054C318.876,286.843 320.449,287.117 320.9,288.092L322.136,288C327.037,286.9 338.516,286.514 341.969,288.132L344.136,288C343.907,287.225 345.781,286.974 347.969,286.974C350.156,286.974 352.435,287.331 352.915,288.106L355.864,288C355.599,288.132 357.01,287.446 358.197,287.129C359.383,286.813 360.369,286.787 359.888,288.922C360.18,288.815 362.781,287.048 364.017,289.135C363.89,288.29 364.622,287.696 365.376,287.366C366.13,287.035 366.81,286.944 366.922,287.111C341.7,285.844 314.222,286.039 289,285.864L288.864,287C293.851,287.613 304.111,286.035 308.918,288.108C308.901,288.407 310.499,288.159 312.008,288.071C313.517,287.984 314.881,287.944 314.864,288.996Z" fill="#4B4B4B"/>
<path d="M55.9779,287.866C57.5797,288.647 58.1707,287.489 58.2368,285.645C58.3029,283.801 57.9921,281.456 58.126,280.051C57.1776,280.642 56.8778,282.64 56.846,284.519C56.8143,286.397 56.9024,287.97 55.9779,287.866Z" fill="#232A38"/>
<path d="M77.8949,288.086C80.7067,287.894 82.7393,285.811 83.4378,284.208C84.1363,282.606 83.5688,281.267 81.963,282.869C80.5453,282.413 78.8631,281.947 77.8891,282.449C76.9151,282.95 76.5812,284.636 77.8949,288.086Z" fill="#242B38"/>
<path d="M251,288L253.136,288C259.012,286.307 269.129,287.566 275.005,287.136L275,286C266.745,286 257.009,285.864 250,285.864L249,287L251,288Z" fill="#454545"/>
<path d="M252.981,287.865C258.935,287.865 267.776,288.136 275,288.136L274.864,287C268.988,287.431 258.856,286.173 252.981,287.865Z" fill="#999999"/>
<path d="M321.985,287.865C327.231,287.865 335.493,288.133 342.028,288.133C338.575,286.514 326.886,286.764 321.985,287.865Z" fill="#989898"/>
<path d="M368,288L369,288L370.136,287C376.865,285.963 389.65,285.54 394.98,287.135L397,287L398.136,287C349.799,284.457 298.335,284.98 249.999,285.864C257.008,285.864 266.745,286.136 275,286.136C278.094,286.136 284.54,286.136 289,286.136C314.222,286.311 341.775,285.868 366.997,287.136L368,288Z" fill="#A4A7A7"/>
<path d="M371,288L373.136,288C379.012,286.307 389.148,287.564 395.024,287.134C389.694,285.539 376.719,285.827 369.99,286.864L371,288Z" fill="#454545"/>
<path d="M372.981,287.865C379.287,287.865 388.432,288.136 396,288.136L397,287L394.864,287C388.988,287.431 378.856,286.173 372.981,287.865Z" fill="#999999"/>
<path d="M145.868,286.034C148.706,287.098 151.3,286.373 152.398,285.215C153.495,284.057 153.179,282.305 150.951,281.873C149.447,286.483 144.497,278.164 145.868,286.034Z" fill="#252D3A"/>
<path d="M-0.136,244C137.38,244 271.729,244.122 407.061,244.122C407.061,238.277 407.136,230.533 407.136,226L404.864,227C271.142,228.265 135.814,227.691 0.999913,227.864L1,227L-0.136,227C-0.136,232.498 -0.136,239.825 -0.136,244Z" fill="#939498"/>
<path d="M1.136,228C135.95,227.827 271.279,228.401 405.001,227.136C270.187,227.136 134.722,226.864 1,226.864L1.136,228Z" fill="#B7B8BC"/>
<path d="M-0.136,227L1,227C134.722,227 270.186,227.136 405,227.136L407.136,226C407.136,150.727 407.136,76.4286 407.136,0C271.804,0 137.455,-0.121642 -0.0608211,-0.121642C-0.0608211,75.4313 -0.136,149.135 -0.136,227ZM223.864,178C170.239,179.37 114.755,178.625 59.9997,178.864L61,178L61,177L60.136,177C59.5317,176.731 59.3315,175.459 59.1336,174.402C58.9357,173.346 58.5527,172.379 57.9484,172.874L57,174L57,173L56.136,173C56.7035,163.602 55.1896,150.847 57.131,144.037C56.831,141.337 59.7761,139.844 60.9855,140.135C113.605,138.76 168.234,139.378 221.986,139.135C225.09,139.798 227.424,143.105 227.867,145.03C227.867,154.313 227.864,164.943 227.864,173C227.507,173.677 227.047,174.739 226.522,175.635C225.997,176.531 225.574,177.129 225.032,176.868L223.864,178ZM164.016,121.865C130.019,123.407 95.9959,122.52 61.9993,122.864L62,122L61.136,122C59.0904,121.309 55.7586,119.701 57.1223,117.059C57.1223,107.777 57.136,97.0569 57.136,89C56.176,84.6182 60.9718,84.048 62.0534,83.1251C95.7057,83.1251 130.532,83.1353 162.986,83.1353C166.09,83.7984 168.424,87.1048 168.867,89.0301C168.867,98.3125 168.864,108.943 168.864,117C167.964,119.178 166.306,122.514 164.016,121.865ZM313.029,121.867C273.503,123.337 231.695,122.563 190.999,122.864L191,122L190.136,122C188.09,121.309 184.731,119.74 186.095,117.098L185.136,117C185.136,107.718 185.136,97.0569 185.136,89C185.799,85.8963 189.09,83.5781 191.016,83.1351C231.711,83.1351 273.448,83.1336 312.974,83.1336C315.153,84.0336 318.518,85.6733 317.869,87.9635C317.322,98.4047 318.765,112.076 316.868,119.968C317.061,121.034 316.264,121.485 315.268,121.743C314.272,122.002 313.239,121.968 313.029,121.867ZM309.021,65.8657C224.549,67.2726 144.183,66.6017 61.9998,66.864L62,66L61,66L59.136,66C58.5039,64.5639 56.6395,62.116 57.1011,61.091L56.136,61C56.7035,51.602 55.1893,38.848 57.1307,32.0375C56.7657,30.9543 57.2094,30.2284 57.7937,29.7283C58.3779,29.2282 58.9721,29.0525 59.0001,29.136C59.4369,27.8272 62.5297,26.9129 62.9667,27.1319C145.15,27.3941 225.549,26.7274 310.021,28.1344C313.699,26.8557 313.72,31.2534 313.866,32.0253C315.447,40.4103 314.498,52.6208 314.864,61.0061C313.979,63.5429 312.026,66.8662 309.021,65.8657Z" fill="#F5F9FA"/>
<path d="M60.136,179C114.891,178.761 170.377,179.506 224.002,178.136C169.764,178.136 116.37,177.864 61,177.864L60.136,179Z" fill="#BDBFBE"/>
<path d="M61,178C116.37,178 169.763,178.136 224,178.136L225,177C170.245,177 114.625,176.864 61,176.864L61,178Z" fill="#50565F"/>
<path d="M59.9705,177.133L61,177C114.625,177 170.216,177.133 224.971,177.133C225.514,177.394 226.231,176.668 226.756,175.772C227.282,174.876 227.737,173.776 228.094,173.099L227.136,173C227.71,163.95 226.174,151.487 228.13,145.039C227.687,143.114 225.116,139.528 222.013,138.865C169.394,140.24 114.768,139.622 61.0155,139.865C59.8061,139.574 56.5673,141.33 56.8672,144.03L56.864,145C58.4584,153.03 57.4936,165.004 57.8682,173.034C58.4725,172.538 58.6684,173.396 58.8663,174.452C59.0641,175.509 59.3662,176.864 59.9705,177.133Z" fill="#1C2536"/>
<path d="M57,174L58.136,173C57.7614,164.97 58.5877,152.894 56.9933,144.864C56.9933,154.147 56.864,164.943 56.864,173L57,174Z" fill="#464C59"/>
<path d="M55.865,172.984L57.136,173C57.136,164.943 57.136,154.282 57.136,145L56.864,144C54.9226,150.81 56.4325,163.586 55.865,172.984Z" fill="#B4B6B8"/>
<path d="M226.865,172.983L228.136,173C228.136,164.943 228.136,154.282 228.136,145C226.18,151.448 227.439,163.933 226.865,172.983Z" fill="#7F8081"/>
<path d="M93.9988,167.136C94.6059,167.025 95.196,166.13 95.5264,165.376C95.8568,164.622 95.8383,163.975 95.9096,164.102L94.136,164C94.136,161.932 94.136,157.563 94.136,157C93.2076,157.847 92.6782,160.302 92.7815,162.564C92.8848,164.826 93.4836,167.033 93.9988,167.136Z" fill="#515764"/>
<path d="M67.864,165C73.8274,164.812 72.9428,164.352 70.9014,162.849C68.8599,161.345 65.7828,158.934 67.9852,154.135C67.9852,157.557 67.864,162.996 67.864,165Z" fill="#535966"/>
<path d="M204.136,165C205.618,164.772 207.979,165.159 210.109,165.217C212.238,165.275 214.137,165.003 214.136,164C211.399,164 206.278,163.864 205,163.864L204.136,165Z" fill="#6A6E76"/>
<path d="M65.8669,164.028L67.136,164C67.5557,157.267 66.8245,154.809 66.3462,155.309C65.8679,155.81 65.3733,159.299 65.8669,164.028Z" fill="#444B58"/>
<path d="M68.0059,165.136C68.0059,163.131 68.136,157.422 68.136,154C66.1408,155.427 67.5832,162.709 68.0059,165.136Z" fill="#F1F6F9"/>
<path d="M93.864,164L96.136,164C96.1153,162.652 96.3359,160.489 96.2016,158.876C96.0674,157.262 95.3541,156.093 93.9119,156.896C93.9119,157.46 93.864,161.932 93.864,164Z" fill="#ECF1F6"/>
<path d="M103.92,163.89C105.927,163.841 106.37,161.604 106.232,159.071C106.094,156.539 105.535,153.931 106.08,153.11C104.073,153.159 103.63,155.396 103.768,157.929C103.906,160.461 104.465,163.069 103.92,163.89Z" fill="#E5E9F0"/>
<path d="M112.912,164.104C115.494,164.463 116.251,162.807 116.121,161.071C115.992,159.335 115.169,157.327 115.104,156.912C112.631,158.885 111.38,161.871 112.912,164.104Z" fill="#D9DFE4"/>
<path d="M161.943,163.876C163.938,162.45 162.48,155.551 163.057,154.124C161.062,155.55 162.52,162.449 161.943,163.876Z" fill="#F0F4F9"/>
<path d="M186.938,163.879C188.598,163.999 189.202,162.45 189.366,160.704C189.529,158.957 189.352,157.265 190.038,157.131C187.424,156.055 186.713,157.479 186.724,159.399C186.734,161.32 187.366,163.486 186.938,163.879Z" fill="#EEF4F8"/>
<path d="M205.014,164.135C206.293,164.135 211.263,164.136 214,164.136L215.136,163C215.136,159.922 215.136,154.641 215.136,153C211.714,153 205.957,152.873 203.952,152.873C202.971,153.985 202.507,157.007 202.689,159.545C202.872,162.084 203.762,164.403 205.014,164.135Z" fill="#FCFCFC"/>
<path d="M201.985,162.865C203.021,162.018 203.132,159.703 203.103,157.44C203.073,155.178 202.93,153.239 204.011,153.136C202.003,153.012 201.624,155.059 201.759,157.427C201.894,159.796 202.519,162.215 201.985,162.865Z" fill="#454A53"/>
<path d="M214.864,163C215.595,162.35 216.238,159.789 216.241,157.42C216.244,155.052 215.673,152.759 214.931,152.883C214.931,154.524 214.864,159.922 214.864,163Z" fill="#686D72"/>
<path d="M203.898,153.09C205.476,152.784 208.396,153.242 210.661,153.274C212.926,153.306 214.741,152.733 214.102,150.91C212.524,151.216 209.604,150.758 207.339,150.726C205.074,150.694 203.259,151.267 203.898,153.09Z" fill="#494E58"/>
<path d="M60.9985,139.864C114.751,139.621 169.382,140.512 222.001,139.136C168.249,139.379 113.618,138.488 60.9985,139.864Z" fill="#7D7F83"/>
<path d="M62.136,123C96.1326,122.656 130.006,123.678 164.003,122.136C130.006,122.136 95.9966,121.864 62,121.864L62.136,123Z" fill="#7D7F84"/>
<path d="M191.136,123C231.831,122.699 273.476,123.606 313.003,122.136C272.307,122.136 230.526,121.864 191,121.864L191.136,123Z" fill="#7D7F84"/>
<path d="M60.9773,122.134L62,122C95.9966,122 129.985,122.135 163.982,122.135C166.272,122.784 168.205,119.265 169.105,117.087L168.136,117C168.71,107.95 167.174,95.4875 169.13,89.0392C168.687,87.1138 166.115,83.5276 163.011,82.8645C130.557,84.4068 95.6518,83.5199 61.9993,83.864L61.864,83C60.7825,83.9229 55.9071,84.6471 56.8671,89.0289C57.8801,96.8464 58.4431,110.522 56.8682,116.966C55.5045,119.608 58.9317,121.443 60.9773,122.134ZM157.864,113C151.779,114.971 139.697,113.283 130.995,113.864L131,113L130.136,113C130.75,107.424 128.988,97.9021 131.084,95.1072C138.539,94.0871 151.909,93.5532 157.982,95.1349L158,96L158.864,96C160.052,99.4338 160.545,109.942 158.93,111.883L157.864,113Z" fill="#1C2536"/>
<path d="M189.977,122.134L191,122C230.526,122 272.276,122.133 312.971,122.133C313.181,122.234 314.341,122.265 315.336,122.007C316.332,121.748 317.327,121.042 317.134,119.976C317.681,109.535 316.235,95.9242 318.132,88.032C318.782,85.7417 315.203,83.7664 313.025,82.8663C273.499,84.3361 231.695,83.5635 190.999,83.864L190.864,83C188.939,83.443 185.53,85.8679 184.867,88.9716C186.461,97.0013 185.49,108.977 185.864,117.007C184.5,119.649 187.932,121.443 189.977,122.134ZM307.923,112.888C292.97,114.558 273.331,113.441 255.998,113.864L256,113L256,112L255,112L254.136,112C254.732,107.444 252.94,98.8318 255.051,97.1261L256,96L256.136,95C272.441,94.0481 292.932,93.714 307.994,95.1358L308,96L307.864,97C309.052,100.434 309.538,110.946 307.923,112.888Z" fill="#1C2536"/>
<path d="M316.967,119.868C318.864,111.976 317.486,98.5731 318.033,88.1319C316.136,96.0241 317.514,109.427 316.967,119.868Z" fill="#545961"/>
<path d="M56.864,117C58.4388,110.556 58.0087,96.6816 56.9956,88.8641C56.9956,96.9209 56.864,107.718 56.864,117Z" fill="#474C59"/>
<path d="M167.865,116.983L169.136,117C169.136,108.943 169.136,98.2824 169.136,89C167.18,95.4483 168.439,107.933 167.865,116.983Z" fill="#7D8081"/>
<path d="M184.864,117L186.136,117C185.761,108.97 186.588,96.8939 184.993,88.8642C184.993,96.921 184.864,107.718 184.864,117Z" fill="#7E807F"/>
<path d="M131.136,114C139.838,113.419 151.936,115.106 158.022,113.134C149.081,113.134 138.708,112.864 131,112.864L131.136,114Z" fill="#6D7077"/>
<path d="M256.136,114C273.468,113.577 293.054,114.805 308.008,113.136C290.589,113.136 272.284,112.864 256,112.864L256.136,114Z" fill="#6D7177"/>
<path d="M129.867,112.971L131.136,113C131.136,107.502 131.136,100.175 131.136,96L130.864,95C128.769,97.7949 130.481,107.395 129.867,112.971Z" fill="#777777"/>
<path d="M130.864,113C138.572,113 149.06,113.136 158,113.136L159.136,112C159.136,106.848 159.136,99.8161 159.136,96L158,96C149.06,96 138.648,95.8784 130.939,95.8784C130.939,100.054 130.864,107.502 130.864,113Z" fill="#FCFCFC"/>
<path d="M256,113C272.284,113 290.642,113.122 308.061,113.122C308.061,107.969 308.136,100.816 308.136,97L308,96C290.582,96 272.223,95.8784 255.939,95.8784C255.939,101.031 255.864,108.184 255.864,112L256,113Z" fill="#FBFBFB"/>
<path d="M307.864,113C309.479,111.058 309.177,100.298 307.989,96.8645C307.989,100.681 307.864,107.848 307.864,113Z" fill="#828383"/>
<path d="M158.864,112C160.479,110.058 160.177,99.2983 158.989,95.8645C158.989,99.6806 158.864,106.848 158.864,112Z" fill="#6F7379"/>
<path d="M253.868,111.966L255.136,112C255.136,107.194 255.136,100.456 255.136,97C253.026,98.7057 254.465,107.409 253.868,111.966Z" fill="#5B5E64"/>
<path d="M254.864,112L256.136,112C256.136,108.184 256.136,101.152 256.136,96L254.864,97C254.864,100.456 254.864,107.194 254.864,112Z" fill="#DADADA"/>
<path d="M73.0083,107.864C74.9781,107.978 76.2553,106.373 76.7145,104.459C77.1738,102.545 76.8805,100.342 76.0739,99.8858C75.3974,99.3312 74.9353,101.515 74.6026,103.698C74.2698,105.882 74.0008,108.044 73.0083,107.864Z" fill="#EDF2F6"/>
<path d="M91.085,108.106C91.5452,106.792 92.4857,104.453 92.8163,102.528C93.147,100.603 92.8293,98.8587 91.0465,98.8722C90.1068,97.8541 89.6296,100.393 89.7171,102.976C89.8046,105.559 90.4953,108.42 91.085,108.106Z" fill="#D9DEE4"/>
<path d="M99.9441,108.124C102.669,109.136 103.464,107.135 103.334,105.073C103.205,103.011 102.125,100.654 101.918,100.891C100.54,101.225 99.536,102.82 99.1536,104.37C98.7712,105.921 99.0364,107.66 99.9441,108.124Z" fill="#EBF1F6"/>
<path d="M196.067,108.118C199.072,105.55 196.99,98.6686 197.131,98.0348C195.304,96.3897 194.545,98.9622 194.631,101.925C194.717,104.888 195.584,108.325 196.067,108.118Z" fill="#ACB2B7"/>
<path d="M206.883,107.931C208.427,108.106 209.1,106.671 209.174,104.997C209.248,103.323 208.957,101.549 209.117,101.069C207.573,100.894 206.9,102.329 206.826,104.003C206.752,105.677 207.043,107.451 206.883,107.931Z" fill="#E1E7ED"/>
<path d="M244.006,107.864C244.453,106.536 245.21,104.619 245.538,102.787C245.865,100.956 245.786,99.2129 245.028,98.867C242.831,98.9325 242.465,101.231 242.787,103.412C243.109,105.594 244.098,107.655 244.006,107.864Z" fill="#E2E8ED"/>
<path d="M263.879,108.063C266.355,108.92 268.076,108.231 268.821,106.674C269.567,105.118 269.589,102.598 269.132,99.9676C268.597,99.7284 266.798,100.793 265.526,102.411C264.255,104.029 263.258,106.296 263.879,108.063Z" fill="#979797"/>
<path d="M66.9332,106.882C69.2222,107.34 68.942,105.628 68.381,103.743C67.82,101.858 67.0911,100.045 69.0459,100.128C67.3196,98.1174 66.7515,99.64 66.7399,101.843C66.7283,104.047 67.1607,106.684 66.9332,106.882Z" fill="#EEF5F8"/>
<path d="M131,96C138.708,96 149.06,96.136 158,96.136L158,95C149.06,95 138.708,94.864 131,94.864L131,96Z" fill="#E7E8E8"/>
<path d="M256,96C272.284,96 290.582,96.136 308,96.136L308,95C290.582,95 272.284,94.864 256,94.864L256,96Z" fill="#E8E9E9"/>
<path d="M130.991,94.8643C138.699,94.8643 149.077,95.1349 158.017,95.1349C151.943,93.5532 138.446,93.8441 130.991,94.8643Z" fill="#61656D"/>
<path d="M255.996,94.8641C272.28,94.8641 290.588,95.1359 308.006,95.1359C292.945,93.714 272.301,93.9121 255.996,94.8641Z" fill="#62666D"/>
<path d="M62.136,84C95.7885,83.6559 130.549,84.6783 163.003,83.136C130.549,83.136 95.6523,82.864 62,82.864L62.136,84Z" fill="#7B7F85"/>
<path d="M191.136,84C231.831,83.6995 273.476,84.6057 313.003,83.136C273.476,83.136 231.695,82.864 191,82.864L191.136,84Z" fill="#7B7F85"/>
<path d="M62.136,67C144.319,66.7377 224.529,67.5429 309.001,66.136C226.818,66.136 146.472,65.864 62,65.864L62.136,67Z" fill="#7C7F84"/>
<path d="M58.8979,66.0899L61.136,66C60.68,64.0562 58.2702,61.7287 58.1276,60.9531L56.864,61C56.4024,62.025 58.2658,64.6537 58.8979,66.0899Z" fill="#1D2636"/>
<path d="M60.8769,66.0578L62,66C146.472,66 226.796,66.1343 308.979,66.1343C311.984,67.1349 314.226,63.6146 315.112,61.0778L314.136,61C314.136,51.3759 314.136,40.4047 314.136,32C313.99,31.2281 313.655,26.5874 309.977,27.866C227.794,27.866 147.472,27.864 63,27.864L63.136,27C62.6989,26.781 59.3077,27.6486 58.8708,28.9574C56.7184,37.7929 58.4832,51.8198 57.8643,60.9908C58.0069,61.7664 60.4209,64.114 60.8769,66.0578ZM303.864,57C241.87,58.334 179.994,57.6472 118,57.864L118,57L118,56L117,56L116.136,56C116.741,51.1069 114.951,42.1886 117.06,40.1221L118.136,39C179.372,37.8844 243.878,38.0203 303.999,39.136L304.864,40C306.052,43.4338 306.545,53.9415 304.93,55.8834L303.864,57Z" fill="#1C2535"/>
<path d="M55.865,60.9837L57.136,61C57.136,51.3759 57.136,40.4047 57.136,32C55.1946,38.8105 56.4325,51.5857 55.865,60.9837Z" fill="#B4B6B8"/>
<path d="M56.864,61L58.136,61C58.7549,51.829 56.9729,37.8885 59.1253,29.0529C58.2801,28.926 57.4469,29.5128 57.1165,30.2667C56.7861,31.0206 56.7403,31.9881 56.9071,32.0994C56.9071,40.5041 56.864,51.3759 56.864,61Z" fill="#464C59"/>
<path d="M313.864,61L315.136,61C314.769,52.6147 315.574,40.2491 313.994,31.8641C313.994,40.2688 313.864,51.3759 313.864,61Z" fill="#7D8085"/>
<path d="M118.136,58C180.13,57.7832 242.008,58.47 304.001,57.136C242.008,57.136 179.994,56.864 118,56.864L118.136,58Z" fill="#5B616B"/>
<path d="M118,57C179.994,57 242.006,57.136 304,57.136L305.136,56C305.136,50.8478 305.136,43.8161 305.136,40L304,39C242.006,39 179.994,38.864 118,38.864L117,40L116.864,41C118.714,44.3021 117.357,52.7378 117.87,56.0404L118,57Z" fill="#FCFCFC"/>
<path d="M115.868,55.9673L117.136,56C117.136,51.1942 117.136,44.4557 117.136,41L116.864,40C114.755,42.0665 116.473,51.0742 115.868,55.9673Z" fill="#414751"/>
<path d="M116.864,56L118.136,56C117.622,52.6974 118.832,44.1672 116.982,40.8651C116.982,44.3209 116.864,51.1942 116.864,56Z" fill="#B1B3B6"/>
<path d="M304.864,56C306.479,54.0581 306.177,43.2983 304.989,39.8645C304.989,43.6806 304.864,50.8478 304.864,56Z" fill="#70747D"/>
<path d="M71.9477,51.8745C74.4796,52.3567 75.4397,50.4395 75.1932,48.5564C74.9466,46.6733 73.5025,44.821 71.9566,45.8711C70.2131,45.8623 71.1427,46.9645 72.0754,48.1616C73.008,49.3587 73.9347,50.654 71.9477,51.8745Z" fill="#EEF3F6"/>
<path d="M145.956,52.1286C148.946,52.7539 150.261,50.5593 150.205,48.4968C150.15,46.4342 148.714,44.2505 146.946,44.8753C145.032,45.9395 144.108,47.533 144.04,48.8798C143.972,50.2265 144.77,51.5798 145.956,52.1286Z" fill="#FBFBFB"/>
<path d="M96.8943,50.9145L99,49L98.136,49C98.136,46.6002 98.136,41.9182 98.136,41C96.1408,42.4266 97.4716,49.4873 96.8943,50.9145Z" fill="#C6CCD6"/>
<path d="M97.864,49L99.136,49C98.9771,47.7903 99.19,45.6486 99.2111,43.8794C99.2323,42.1102 98.8494,40.6008 97.9237,40.8874C97.9237,41.8056 97.864,46.6002 97.864,49Z" fill="#EAF0F4"/>
<path d="M117.999,38.864C179.993,38.864 242.007,39.136 304.001,39.136C243.88,38.0203 179.235,37.7484 117.999,38.864Z" fill="#70747B"/>
<path d="M63,28C147.472,28 227.818,28.136 310.001,28.136C225.529,26.729 145.183,27.1263 63.0002,26.864L63,28Z" fill="#7C8085"/>
</g>
</svg>
