<?xml version='1.0' encoding='utf-8'?>
<!-- Generator: imaengine 6.0   -->
<svg xmlns:xlink="http://www.w3.org/1999/xlink" xmlns="http://www.w3.org/2000/svg" viewBox="0,0,1341,1344" style="enable-background:new 0 0 1341 1344;" version="1.1">
<defs/>
<g id="layer0">
<path d="M-0.4475,1344C446.232,1344 893.492,1344.4 1341.2,1344.4C1341.2,896.169 1341.45,447.202 1341.45,0C894.768,0 447.508,-0.400256 -0.200128,-0.400256C-0.200128,447.831 -0.4475,896.798 -0.4475,1344ZM1286.55,1334C1023.86,1335.14 758.786,1334.46 494,1334.55L494,1334L493.448,1334C493.505,892.435 493.36,450.537 494.447,10.0022L497.447,9C585.13,7.61853 671.778,8.69372 764.001,8.4475C803.997,8.4475 844.004,8.4475 884,8.4475C976.375,8.4475 1066.23,8.4475 1162,8.4475C1202.3,8.4475 1241.37,8.42101 1282.85,8.42101C1283.83,9.44261 1289.57,8.43815 1287.58,13.8499C1287.52,453.806 1287.64,894.042 1286.55,1334ZM249.061,977.557C184.067,978.877 119.185,978.387 54.1919,978.596C45.5746,951.674 51.6571,913.1 49.4464,880.969C49.4464,872.217 49.4475,860.966 49.4475,851C49.4475,838.462 49.4475,823.703 49.4475,810C49.4475,801.943 49.4475,791.282 49.4475,782C49.4475,772.21 49.4475,759.988 49.4475,749C49.4475,737.147 49.4475,723.026 49.4475,710C49.4475,695.756 49.4475,679.394 49.4475,664C49.4475,646.699 49.4475,627.429 49.4475,609C49.4475,588.319 49.4475,565.792 49.4475,544C49.4475,519.613 49.4475,493.484 49.4475,468C49.4475,438.237 49.4475,406.844 49.4475,376C47.0401,367.666 50.7766,365.769 56.9537,365.306C63.1308,364.843 71.3329,366.26 77.0319,365.446C92.6364,365.446 110.256,365.447 127,365.447C148.356,365.447 171.454,365.44 193.917,365.44C202.592,368.959 218.841,365.45 232.245,364.812C245.649,364.175 255.848,365.901 253.558,380.933C253.558,401.952 253.553,424.872 253.553,447C253.553,471.051 253.553,496.852 253.553,522C253.553,551.428 253.553,582.491 253.553,613C253.553,647.997 253.553,683.003 253.553,718C253.553,759.475 253.552,798.698 253.552,839C253.552,881.552 253.552,926.289 253.552,970C253.706,971.519 253.933,973.819 253.374,975.654C252.815,977.489 251.977,978.417 249.061,977.557Z" fill="#A8A8A8"/>
<path d="M494.447,1335C759.233,1334.91 1024.51,1335.54 1287.2,1334.4C1287.26,894.444 1287.36,453.957 1288.45,14.0011C1290.44,8.5894 1284.18,8.62018 1283.2,7.59858C1243.97,9.0683 1201.22,8.25197 1162,8.5525C1069.62,8.5525 979.767,8.5525 884,8.5525C844.004,8.5525 803.996,8.5525 764,8.5525C675.183,8.5525 588.087,8.5525 497,8.5525L493.553,10C493.553,451.565 493.553,893.465 493.553,1334L494.447,1335ZM877.818,1329.41C843.341,1330.93 806.664,1329.22 770.998,1329.55L771,1329C769.564,1329 765.889,1329.45 766,1329.45L766,1328L765,1328L765,1327L764.448,1327C764.506,890.377 764.359,453.624 765.447,17.0012C764.613,15.2943 765.24,15.3647 766.483,15.3535C767.726,15.3423 769.443,14.9198 769.304,14.6715C804.791,13.4871 842.32,14.2627 878.992,15.4474C883.791,15.4605 884.001,19.492 883.75,24.7388C883.5,29.9857 882.38,36.1617 883.583,39.1612C883.583,60.6172 883.553,82.6562 883.553,103C883.428,511.292 883.741,919.705 881.553,1328C881.89,1329.05 881.201,1328.72 880.032,1328.63C878.864,1328.55 877.481,1329.13 877.818,1329.41ZM1271.55,1329C1236.56,1330.53 1201.99,1329.22 1167,1329.55L1167,1329L1166,1329L1165.55,1328C1164.64,1328.04 1164.23,1327.27 1163.42,1326.83C1162.61,1326.38 1162.15,1326.59 1162.29,1326.34L1161.45,1326C1161.51,889.494 1161.36,452.447 1162.45,18.0012C1161.93,16.4482 1162.44,16.0567 1163.47,15.6655C1164.5,15.2744 1165.54,15.3264 1165.94,15.4438C1201.43,14.2593 1239.4,14.257 1276.07,15.4417C1279.96,13.951 1280.33,17.4752 1280.58,18.1487C1281.61,453.625 1281.58,890.523 1280.55,1326C1280.16,1328.01 1277.68,1329.23 1276.09,1328.56L1271.55,1329ZM617.553,1328C578.556,1329.49 539.994,1328.24 500.998,1328.55L500,1326L499.447,1326C499.506,889.494 499.359,452.447 500.447,18.0012C500.747,17.3825 501.643,14.5516 504.933,15.4425C542.793,16.5788 584.588,13.5809 618.777,18.3879C618.718,456.041 618.641,892.405 617.553,1328ZM749.552,1328C715.556,1329.54 681.994,1328.21 647.998,1328.55C644.542,1328.55 637.806,1328.55 633,1328.55L633,1328L633,1326L632.448,1326C632.448,889.436 632.447,452.535 632.447,17C669.903,14.3612 713.341,15.5297 750.796,16.3984C751.826,451.992 751.582,888.345 750.553,1326L749.552,1328ZM1014.55,1328C975.556,1329.49 936.994,1328.24 897.998,1328.55L897.448,1326C897.448,889.436 897.447,452.535 897.447,17C934.903,14.6619 978.531,15.1089 1015.99,17.4473L1015.55,18C1016.58,453.476 1016.58,890.522 1015.55,1326L1016,1327L1014.55,1328ZM1147.55,1328C1144.76,1330.1 1135.55,1327.94 1129.98,1328.55C1105.59,1328.55 1079.48,1328.55 1054,1328.55C1047.34,1328.55 1037.91,1328.55 1030,1328.55L1030,1328L1030,1327L1029.45,1327C1029.51,890.318 1029.36,453.714 1030.45,16.0022C1068.66,14.8296 1109.78,15.2747 1147.99,16.4474L1147.55,17C1148.58,452.593 1148.58,889.345 1147.55,1327L1147.55,1328Z" fill="#020203"/>
<path d="M492.552,1334L494.447,1334C494.447,893.465 494.447,451.565 494.447,10C493.36,450.535 492.61,892.435 492.552,1334Z" fill="#3F454C"/>
<path d="M1286.99,1333.55C1288.08,893.597 1287.95,454.403 1288.01,14.4475C1286.92,454.403 1287.05,893.597 1286.99,1333.55Z" fill="#475746"/>
<path d="M771.447,1330C807.113,1329.67 843.533,1330.97 878.01,1329.45C842.344,1329.45 805.477,1328.55 771,1328.55L771.447,1330Z" fill="#0C180C"/>
<path d="M1167.45,1330C1202.44,1329.66 1237.01,1330.98 1272.01,1329.45C1237.01,1329.45 1202,1328.55 1167,1328.55L1167.45,1330Z" fill="#0C180C"/>
<path d="M501.447,1329C540.444,1328.69 579.21,1329.89 618.206,1328.4C619.295,892.804 619.389,455.653 619.447,18.0001L618.448,18C583.052,14.7109 540.467,16.6702 505.071,14.5582C501.78,13.6673 499.893,17.1948 499.593,17.8134C499.593,452.946 499.553,887.777 499.553,1326L501.447,1329Z" fill="#3B658D"/>
<path d="M633,1329C637.806,1329 644.65,1329.43 648.106,1329.43C644.804,1327.58 636.337,1328.07 633.035,1327.55L633,1329Z" fill="#753637"/>
<path d="M647.882,1329.43C681.878,1329.09 716.014,1329.99 750.01,1328.45L751.448,1326C751.448,889.377 751.447,452.623 751.447,16C712.064,16.3063 669.832,15.1241 632.793,16.603C632.793,453.167 632.553,890.465 632.553,1326L632.553,1328C635.855,1328.51 644.579,1327.58 647.882,1329.43Z" fill="#8E3D3D"/>
<path d="M766,1329C767.436,1329 771.111,1328.55 771,1328.55C805.477,1328.55 842.295,1329.45 877.961,1329.45C878.834,1329.6 880.22,1329.58 881.135,1329.41C882.05,1329.24 882.715,1328.07 882.183,1327.59C843.499,1327.59 803.508,1327.55 766,1327.55L766,1329Z" fill="#387439"/>
<path d="M898.447,1329C937.444,1328.69 976.012,1329.94 1015.01,1328.45L1015.55,1327C977.733,1328.49 939.171,1327.24 898.998,1327.55L897,1326L898.447,1329Z" fill="#385674"/>
<path d="M1030,1329C1037.91,1329 1047.4,1329.44 1054.05,1329.44C1047.46,1327.79 1036.61,1327.96 1030.01,1327.55L1030,1329Z" fill="#763737"/>
<path d="M1053.94,1329.44C1079.43,1329.44 1105.69,1329.44 1130.08,1329.44C1134.5,1327.66 1143.61,1328.92 1148.02,1328.45L1148.45,1327C1148.45,890.377 1148.45,453.623 1148.45,17L1147.55,16C1108.17,16.3063 1066.83,15.1241 1029.79,16.603C1029.79,453.226 1029.55,890.377 1029.55,1327L1029.55,1328C1036.15,1328.41 1047.35,1327.79 1053.94,1329.44Z" fill="#8F3D3D"/>
<path d="M1129.94,1328.56C1135.51,1327.94 1145.34,1330.52 1148.13,1328.43C1143.72,1328.9 1134.35,1326.78 1129.94,1328.56Z" fill="#7B3838"/>
<path d="M1166,1329L1167,1329C1202,1329 1237,1329.45 1272,1329.45L1276.45,1329C1240.96,1327.49 1202.67,1327.88 1166,1327.55L1166,1329Z" fill="#387439"/>
<path d="M1275.91,1329.44C1277.49,1330.11 1281.05,1328.09 1281.44,1326.08C1281.44,890.952 1281.45,456.223 1281.45,18C1281.2,17.3265 1279.81,13.0698 1275.92,14.5605C1239.24,14.5605 1201.55,14.5569 1166.06,14.5569C1165.66,14.4395 1164.18,14.4377 1163.15,14.8288C1162.12,15.22 1161.06,16.5854 1161.57,18.1384C1161.57,453.271 1161.55,887.777 1161.55,1326C1161.41,1326.26 1162.18,1327.17 1162.99,1327.61C1163.8,1328.06 1165.1,1328.48 1166.01,1328.45C1202.68,1328.77 1240.42,1327.93 1275.91,1329.44Z" fill="#3D8D3D"/>
<path d="M765,1328L766,1328C803.508,1328 843.516,1328.4 882.2,1328.4C884.389,920.108 884.323,511.293 884.447,103C884.447,82.6564 884.447,60.4561 884.447,39C883.245,36.0005 884.394,30.0284 884.644,24.7815C884.895,19.5346 883.8,14.5656 879.001,14.5525C842.329,14.5525 804.309,14.5898 768.821,14.5898C768.96,14.8381 767.718,14.4474 766.475,14.4586C765.232,14.4698 763.76,15.481 764.594,17.1879C764.594,453.811 764.552,890.377 764.552,1327L765,1328Z" fill="#3D8D3D"/>
<path d="M899.448,1328C939.62,1327.69 978.189,1328.94 1016.01,1327.45L1016.45,1326C1016.45,890.867 1016.45,456.223 1016.45,18L1016.45,17C977.93,15.8274 936.485,15.4294 896.795,16.6022C896.795,452.137 896.552,889.436 896.552,1326L899.448,1328Z" fill="#3C658D"/>
<path d="M763.552,1327L765.448,1327C765.448,890.377 765.447,453.623 765.447,17C764.359,453.623 763.611,890.377 763.552,1327Z" fill="#214021"/>
<path d="M1028.55,1327L1030.45,1327C1030.45,890.377 1030.45,453.623 1030.45,17L1029.55,16C1028.46,453.711 1028.61,890.318 1028.55,1327Z" fill="#59292A"/>
<path d="M1147.55,1327C1148.58,889.347 1149.03,452.146 1148,16.5525C1148,453.175 1147.55,890.377 1147.55,1327Z" fill="#502525"/>
<path d="M498.553,1326L500.447,1326C500.447,887.777 500.448,453.133 500.448,18C499.359,452.446 498.611,889.494 498.553,1326Z" fill="#1A222D"/>
<path d="M631.552,1326L633.447,1326C633.447,890.465 633.448,453.564 633.448,17L631.553,17C631.553,452.535 631.552,889.436 631.552,1326Z" fill="#6B3131"/>
<path d="M750.552,1326C751.582,888.347 752.03,451.146 751,15.5525C751,452.175 750.552,889.377 750.552,1326Z" fill="#401B1A"/>
<path d="M1015.55,1326C1016.58,890.524 1017.03,453.029 1016,17.5525C1016,455.775 1015.55,890.867 1015.55,1326Z" fill="#16202F"/>
<path d="M1160.55,1326L1162.45,1326C1162.45,887.777 1162.45,453.133 1162.45,18C1161.36,452.446 1160.61,889.494 1160.55,1326Z" fill="#132912"/>
<path d="M1280.55,1326C1281.58,890.524 1282.03,453.029 1281,17.5525C1281,455.775 1280.55,890.867 1280.55,1326Z" fill="#182617"/>
<path d="M53.6235,979.242C118.617,979.033 183.948,979.764 248.942,978.444C251.858,979.304 253.671,977.75 254.23,975.915C254.789,974.079 254.598,971.474 254.445,969.955C254.445,926.245 254.448,881.552 254.448,839C254.448,798.698 254.447,759.475 254.447,718C254.447,683.003 254.447,647.997 254.447,613C254.447,582.491 254.447,551.428 254.447,522C254.447,496.852 254.447,471.051 254.447,447C254.447,424.872 254.447,402.019 254.447,381C256.737,365.968 245.606,363.281 232.202,363.919C218.798,364.556 202.764,368.081 194.089,364.561C171.625,364.561 148.356,364.553 127,364.553C110.256,364.553 92.573,364.554 76.9684,364.554C71.2695,365.368 63.0639,363.951 56.8868,364.414C50.7097,364.877 46.1621,367.788 48.5694,376.122C48.5694,406.966 48.5525,438.237 48.5525,468C48.5525,493.484 48.5525,519.613 48.5525,544C48.5525,565.792 48.5525,588.319 48.5525,609C48.5525,627.429 48.5525,646.699 48.5525,664C48.5525,679.394 48.5525,695.756 48.5525,710C48.5525,723.026 48.5525,737.147 48.5525,749C48.5525,759.988 48.5525,772.21 48.5525,782C48.5525,791.282 48.5525,801.943 48.5525,810C48.5525,823.703 48.5525,838.462 48.5525,851C48.5525,860.966 48.5525,872.248 48.5525,881C50.7632,913.13 45.0062,952.32 53.6235,979.242ZM220,943L219,944C175.441,944 129.715,943.552 85,943.552L83,944L83.4475,941C83.6203,805.841 83.1829,671.259 84.4474,535.008L84,534L83.4475,534C83.4475,525.402 83.4475,515.359 83.4475,508C83.4475,501.465 83.4475,493.246 83.4475,488C83.4475,482.848 83.4475,475.816 83.4475,472C83.4475,467.887 83.4475,461.732 83.4475,459C83.4475,450.745 83.4475,441.009 83.4475,434C83.4475,426.088 83.4475,416.658 83.4475,410C83.0053,405.627 82.9766,404.246 83.4476,404.302C83.9187,404.357 83.9988,405.787 83.5568,408.938C83.5568,450.639 83.5525,493.465 83.5525,534L86,533L87,533L88,532L88,531L88,529L87.4475,529C87.4475,518.693 87.4475,507.098 87.4475,498C87.4475,474.529 87.4475,450.367 87.4475,428C88.0135,424.722 87.4904,418.796 87.3374,413.784C87.1844,408.772 86.9187,405.121 88.9646,405.446L89.4475,404C130.411,402.838 175.192,403.285 214.993,404.447L215,405L216.447,405C215.673,403.241 216.291,402.332 217.279,401.75C218.266,401.167 218.75,400.773 218.574,401.862L219.552,403C220.623,581.644 220.623,762.35 219.553,940.995L220,943Z" fill="#D0D0D0"/>
<path d="M83,944L85.4475,944C85.9575,942.764 87.473,940.09 87.3998,939.799L87.4475,939C84.1069,937.405 84.1701,941.372 83.1632,940.583L83,944Z" fill="#7A7A7A"/>
<path d="M84.6549,943.715C129.37,943.715 175.641,944.4 219.2,944.4C219.243,902.88 219.69,854.78 218.447,811.974L217,812C174.709,812 133.457,811.552 90,811.552L87.5525,813C87.2624,855.415 88.0051,899.892 86.5528,939.984C86.626,940.275 85.165,942.48 84.6549,943.715ZM106.873,898.571L105.447,900C99.6601,887.051 115.835,866.733 119.436,851.101C119.955,849.372 121.749,848.783 123.73,848.748C125.711,848.713 127.009,849.023 126.566,850.893C133.683,865.414 140.556,883.623 145.574,899.138C144.892,901.193 138.504,898.994 137.821,899.59L138.447,898C135.708,891.987 135.317,880.199 120.998,884.553C109.56,881.171 112.705,895.12 106.873,898.571ZM177.552,899C178.044,899.773 177.473,899.556 176.098,899.602C174.724,899.648 172.984,899.512 171.991,899.553L172,899L171,899L170.447,899C170.447,890.06 170.447,879.708 170.447,872C168.662,869.463 164.897,868.934 162.399,870.009C159.9,871.084 157.796,873.907 158.576,876.144C157.972,883.452 159.695,894.078 157.664,898.705L156,899C154.564,899 150.889,899.447 151,899.447L150,899L149.448,899C149.973,887.518 148.557,873.138 150.413,864.171L150.553,864C157.219,866.325 173.517,859.2 179.021,867.447C180.888,863.938 186.075,862.48 190.742,863.129C195.409,863.779 199.092,866.039 198.555,870.949C201.489,877.201 200.566,892.676 199.558,898.929C199.399,899.97 198.193,899.694 196.523,899.609C194.853,899.524 192.853,899.374 192.693,899.674L193,899L192,899L192,895L191.448,895C192.059,888.387 190.247,878.219 192.307,874.325L192.447,873C191.747,870.173 188.057,869.054 185.148,869.546C182.239,870.039 179.224,872.223 179.56,874.079C178.966,882.084 180.643,893.375 178.642,898.732L177.552,899Z" fill="#020102"/>
<path d="M218.553,943.999L220,943L220.447,941C220.447,762.279 220.447,584.933 220.447,403L219,402L218.553,403C218.272,447.435 218.989,493.861 217.553,535.985C217.708,536.858 217.703,538.057 217.533,538.972C217.364,539.887 217.394,540.092 216.918,539.56C220.758,578.123 217.413,627.28 218.553,672.011C218.553,673.757 218.553,677.782 218.553,678C218.553,720.996 218.553,764.004 218.553,807C219.341,809.534 217.571,811.761 217.554,811.962C218.797,854.768 218.595,902.479 218.553,943.999Z" fill="#555554"/>
<path d="M82.5525,940.999C83.5594,941.788 83.794,937.832 87.1346,939.427C87.4299,897.431 86.9856,855.027 88.4464,813.031L90.4475,812C131.701,810.258 175.756,812.19 217.009,810.447L217,809L216.447,809C175.194,807.258 130.263,808.295 89.0094,806.553L87,807L87,805L86.4475,805C88.19,764.037 86.7036,718.84 88.4458,679.039L88.4475,678C129.991,676.548 173.491,677.692 216.197,677.402C217.108,673.568 214.076,672.165 210.692,672.345C207.309,672.526 203.516,673.465 202.139,672.575C164.08,672.263 122.54,673.041 88.0096,671.553L88,671L87.4475,671C87.7326,627.575 87.0024,582.138 88.4465,541.03C127.672,539.561 169.776,540.748 209.002,540.447C211.07,540.447 215.463,540.447 216.026,540.447C175.143,535.61 124.698,538.276 83.814,534.593C82.5495,670.844 82.7253,805.84 82.5525,940.999Z" fill="#787777"/>
<path d="M219.553,941C220.623,762.356 221.069,581.197 219.999,402.553C219.999,584.485 219.553,762.279 219.553,941Z" fill="#B0B0B0"/>
<path d="M87.4475,940C88.8998,899.909 87.7289,855.863 88.019,813.447C86.5582,855.443 86.8479,896.998 86.5525,938.994L87.4475,940Z" fill="#3E3E3D"/>
<path d="M104.666,900.298L107.447,899C113.279,895.549 109.564,882.066 121.002,885.447C135.32,881.094 134.854,892.173 137.593,898.186C138.479,900.038 145.182,899.107 146.142,899.424C141.124,883.909 134.502,865.292 127.385,850.771C126.412,850.076 124.154,849.51 122.461,849.51C120.768,849.51 118.833,850.154 118.579,850.849C114.978,866.48 98.879,887.349 104.666,900.298ZM127.556,876.946C127.397,877.971 125.92,877.702 123.618,877.633C121.316,877.564 118.805,877.336 117.173,877.587C118.187,872.412 121.343,864.713 123.018,861.447C125.088,864.823 128.137,872.181 127.556,876.946Z" fill="#EFEFCF"/>
<path d="M138.448,900C139.13,899.405 145.718,901.255 146.4,899.2C145.44,898.883 139.209,899.542 138.323,897.691L138.448,900Z" fill="#767665"/>
<path d="M172.447,900C173.441,899.959 174.754,900.543 176.129,900.496C177.503,900.45 178.768,899.422 178.277,898.648L179.448,899C179.448,891.776 179.447,882.954 179.447,877C177.566,879.76 177.675,885.768 177.896,890.822C178.118,895.877 178.049,899.531 173.043,898.555L172,899L172.447,900Z" fill="#CDCCAF"/>
<path d="M193.447,900C193.607,899.7 194.807,900.418 196.477,900.503C198.148,900.588 200.269,900.172 200.428,899.131L199.447,899C199.447,889.718 199.448,879.057 199.448,871C199.984,866.09 195.533,862.893 190.865,862.243C186.198,861.593 180.844,863.045 178.976,866.553C173.472,858.306 157.517,865.904 150.85,863.578C150.85,875.246 150.552,888.521 150.552,899C151.989,899 156.296,898.592 156.185,898.592C158.801,892.953 155.673,880.737 158.288,876.343L159.447,876C158.667,873.763 160.253,871.906 162.752,870.831C165.251,869.756 167.955,869.828 169.741,872.365L171,873L171.552,876C173.227,882.238 172.135,892.812 172.555,899.05C177.561,900.027 179.012,895.837 178.79,890.783C178.569,885.729 177.384,880.121 179.265,877.361L180.447,874C180.112,872.144 182.389,870.921 185.297,870.429C188.206,869.936 190.865,870.28 191.566,873.107C193.19,880.424 192.163,891.731 192.555,899.048L193.447,900Z" fill="#EDEECD"/>
<path d="M148.554,898.959L150.447,899C150.447,887.332 150.448,874.479 150.448,864C148.591,872.967 149.08,887.477 148.554,898.959Z" fill="#403F35"/>
<path d="M149.553,899L151.448,899C151.448,888.521 151.447,875.668 151.447,864L149.552,864C149.552,874.479 149.553,887.332 149.553,899Z" fill="#797965"/>
<path d="M155.672,898.696L158.448,899C158.448,891.432 158.447,882.307 158.447,876C155.832,880.394 158.288,893.056 155.672,898.696Z" fill="#B7B8A0"/>
<path d="M157.553,899C159.584,894.373 158.838,883.381 159.442,876.073L157.553,876C157.553,882.307 157.553,891.432 157.553,899Z" fill="#45453C"/>
<path d="M169.553,899L171.447,899C171.447,890.402 171.448,880.359 171.448,873L169.552,872C169.552,879.708 169.553,890.06 169.553,899Z" fill="#3F3E34"/>
<path d="M170.553,899L172.448,899C172.448,891.432 172.447,882.307 172.447,876L170.552,873C170.552,880.359 170.553,890.402 170.553,899Z" fill="#92917A"/>
<path d="M171.552,899L173.447,899C173.027,892.762 173.645,881.791 171.971,875.553C171.971,881.86 171.552,891.432 171.552,899Z" fill="#CDCDAF"/>
<path d="M178.553,899C180.554,893.643 179.85,882.07 180.443,874.066L178.553,877C178.553,882.954 178.553,891.776 178.553,899Z" fill="#666758"/>
<path d="M192,899L193.447,899C193.056,891.683 194.033,880.135 192.409,872.818L191.552,874C191.552,880.88 191.552,889.4 191.552,895L192,899Z" fill="#969681"/>
<path d="M198.553,899L200.447,899C201.455,892.747 201.884,876.807 198.95,870.555C198.95,878.612 198.553,889.718 198.553,899Z" fill="#818170"/>
<path d="M190.56,894.919L192.448,895C192.448,889.4 192.447,880.88 192.447,874C190.387,877.894 191.172,888.306 190.56,894.919Z" fill="#20201B"/>
<path d="M116.594,877.812C118.226,877.56 121.289,878.458 123.591,878.528C125.894,878.597 128.283,878.094 128.442,877.068C129.024,872.304 125.054,863.929 122.984,860.553C121.308,863.819 117.607,872.637 116.594,877.812Z" fill="#050504"/>
<path d="M118.986,850.553C119.24,849.858 120.768,850.405 122.461,850.405C124.154,850.405 126.132,850.74 127.105,851.435C127.548,849.565 125.695,847.818 123.714,847.853C121.733,847.888 119.505,848.823 118.986,850.553Z" fill="#565648"/>
<path d="M89.9906,811.553C133.447,811.553 174.709,812.448 217,812.448L216.552,810C175.299,811.742 131.244,809.81 89.9906,811.553Z" fill="#4C4C4C"/>
<path d="M217,812L218.448,812C218.465,811.799 220.169,809.298 219.38,806.764L217,807L217,809L217,810L217,812Z" fill="#4A4A4A"/>
<path d="M215.991,809.447L217,809L217,807C174.294,807 130.534,806.553 88.9906,806.553C130.244,808.295 174.737,807.705 215.991,809.447Z" fill="#4C4C4C"/>
<path d="M87,807L89,807C130.543,807 174.294,807.447 217,807.447L219.448,807C219.448,764.004 219.448,720.996 219.448,678L218,678C174.714,678 132.448,677.553 88,677.553L87.5525,679C87.2572,720.996 88.0144,762.973 86.5536,804.969L87,807ZM158.553,764C158.703,764.971 157.581,764.675 155.628,764.632C153.676,764.59 151.308,764.355 149.967,764.554L150,764L150,763C148.564,763 144.98,763.438 145.091,763.438C137.301,759.9 131.326,753.164 130.439,743.916L129.447,744C128.674,743.393 128.287,740.847 128.287,738.476C128.287,736.104 128.199,734.355 128.973,734.447L130.447,731C132.665,720.531 139.74,714.509 149.159,712.418C150.016,711.886 152.952,711.323 155.657,711.284C158.363,711.246 160.318,711.049 159.64,712.734C167.969,713.446 174.293,722.31 173.559,727.924C165.196,732.979 165.615,720.039 159.98,720.553C156.213,720.553 150.368,720.552 148,720.552L147.553,720C139.915,722.744 136.253,731.636 136.707,739.884C137.16,748.132 142.13,756.18 150.955,756.445C154.682,757.094 158.848,755.824 160.101,755.436C162.19,755.125 165.676,753.657 166.283,753.346C166.283,750.609 166.447,745.278 166.447,744C163.026,744 157.004,743.552 155,743.552L155.447,743C154.514,742.948 154.232,741.122 154.325,739.459C154.418,737.796 154.267,736.711 154.829,737.413C158.996,736.275 170.189,735.812 172.886,737.433C174.529,737.328 174.581,738.608 174.613,740.486C174.645,742.364 174.363,744.593 174.592,745.185C175.323,745.834 175.655,748.212 175.657,750.581C175.66,752.949 175.593,754.702 174.851,754.578C172.053,759.349 165.843,762.107 159.983,762.553L158.553,764Z" fill="#010101"/>
<path d="M85.5541,804.962L87.4475,805C88.9083,763.004 87.7343,721.442 88.0296,679.447C86.2874,719.248 87.2966,763.999 85.5541,804.962Z" fill="#3D3D3D"/>
<path d="M150.447,765C151.788,764.802 153.656,765.485 155.609,765.527C157.561,765.569 159.578,764.838 159.427,763.867C156.69,763.867 151.278,763.552 150,763.552L150.447,765Z" fill="#4D4D40"/>
<path d="M150,764C151.278,764 156.263,764.447 159,764.447L160,763C156.922,763 151.641,762.553 150,762.553L150,764Z" fill="#8F907B"/>
<path d="M144.901,763.436C146.337,763.436 150.111,762.553 150,762.553C151.641,762.553 156.939,763.447 160.017,763.447C165.877,763.001 172.596,759.985 175.393,755.214C175.393,752.135 175.447,746.641 175.447,745C175.218,744.409 175.54,742.349 175.508,740.471C175.476,738.593 174.629,736.448 172.986,736.553C167.141,736.553 159.696,736.583 155.163,736.583C154.6,735.88 153.524,737.747 153.432,739.409C153.339,741.072 154.021,743.394 154.955,743.445C158.53,743.983 165.966,742.154 166.618,744.234C168.337,744.275 168.837,746.32 168.69,748.465C168.543,750.609 168.248,752.187 167.118,751.568L165.553,753C164.945,753.311 161.866,754.301 159.777,754.612C160.067,756.613 158.309,756.796 156.108,756.666C153.907,756.537 151.275,756.088 150.79,756.605L151.448,756C142.623,755.735 138.053,748.082 137.6,739.835C137.147,731.587 140.407,723.189 148.045,720.445C151.62,720.983 158.98,719.175 159.632,721.255C165.267,720.741 165.933,733.39 174.296,728.336C175.03,722.722 168.348,713.265 160.019,712.553L158,713C155.263,713 150.278,712.552 149,712.552L148.552,712C139.133,714.091 131.781,720.433 129.563,730.902C130.858,733.248 131.297,742.832 129.716,743.654C130.603,752.902 137.111,759.898 144.901,763.436Z" fill="#ECEDCE"/>
<path d="M151.447,757C151.933,756.483 153.854,757.43 156.055,757.56C158.256,757.689 160.703,756.83 160.414,754.829C159.161,755.217 154.766,756.203 151.039,755.554L151.447,757Z" fill="#91917C"/>
<path d="M174.553,755C175.295,755.124 176.555,752.948 176.552,750.58C176.55,748.211 175.633,745.213 174.902,744.563C174.902,746.204 174.553,751.922 174.553,755Z" fill="#535446"/>
<path d="M165.553,753L167.447,752C167.447,749.6 167.447,744.918 167.447,744L165.553,744C165.553,745.278 165.553,750.263 165.553,753Z" fill="#36362B"/>
<path d="M166.553,752C167.682,752.619 169.436,750.67 169.583,748.526C169.73,746.381 168.522,743.639 166.804,743.598C166.804,744.516 166.553,749.6 166.553,752Z" fill="#727360"/>
<path d="M128.837,744.417L130.447,744C130.219,742.518 130.47,740.029 130.528,737.9C130.586,735.77 130.029,733.552 129.026,733.553C128.252,733.461 127.392,736.104 127.392,738.476C127.392,740.847 128.063,743.81 128.837,744.417Z" fill="#5A5B4F"/>
<path d="M129.613,744.224C131.193,743.402 131.595,733.014 130.3,730.668L129.447,734C130.451,733.999 129.692,735.746 129.634,737.875C129.576,740.005 129.384,742.741 129.613,744.224Z" fill="#C4C5AB"/>
<path d="M155,744C157.004,744 162.578,744.447 166,744.447L167.447,744C166.795,741.92 158.609,743.091 155.034,742.554L155,744Z" fill="#8E8E7A"/>
<path d="M154.939,736.557C159.473,736.557 167.267,737.433 173.112,737.433C170.415,735.812 159.106,735.418 154.939,736.557Z" fill="#36362B"/>
<path d="M148,721C150.368,721 156.426,721.404 160.193,721.404C159.541,719.324 151.609,720.091 148.034,719.554L148,721Z" fill="#413F39"/>
<path d="M149,713C150.278,713 155.444,713.409 158.181,713.409C157.129,711.383 150.173,712.157 149.12,711.569L149,713Z" fill="#BDBDA9"/>
<path d="M157.69,713.322L160.447,713C161.126,711.314 158.35,710.351 155.644,710.389C152.939,710.428 149.627,711.084 148.77,711.616C149.824,712.203 156.637,711.297 157.69,713.322Z" fill="#53534A"/>
<path d="M87.9922,677.553C132.44,677.553 174.714,678.448 218,678.448L215.553,677C172.847,677.29 129.536,676.1 87.9922,677.553Z" fill="#292929"/>
<path d="M218,678L219.447,678C219.447,677.782 219.447,673.746 219.447,672C175.737,672 130.542,671.553 87.9904,671.553C122.521,673.041 163.821,673.119 201.881,673.431C203.258,674.321 207.356,673.42 210.74,673.239C214.124,673.058 216.507,672.974 215.596,676.808L218,678Z" fill="#2B2B2B"/>
<path d="M88,672C130.552,672 175.49,672.4 219.2,672.4C218.06,627.669 221.279,578.475 217.439,539.913L216,540C215.437,540 211.06,539.553 208.991,539.553C170.168,541.032 129.968,540.294 88.7988,540.6C87.3547,582.867 87.8374,628.727 87.5525,670.994L88,672ZM142.552,626C143.044,626.773 142.473,626.556 141.098,626.602C139.724,626.648 137.984,626.512 136.991,626.553L137,625L136.447,625C136.915,610.411 135.682,593.279 137.43,581.124L137.447,577C145.564,574.161 161.855,575.44 169.972,576.447L169.447,577C169.524,576.783 169.269,578.182 169.566,579.641C169.862,581.1 170.139,582.19 168.877,582.57C162.639,584.244 152.027,583.185 145.789,583.605C145.789,587.372 145.552,593.632 145.552,596C151.819,596.614 162.346,595.356 165.874,597.429L165.553,598C165.553,599.436 166.448,603.111 166.448,603C163.373,606.805 151.323,603.54 146.788,604.606C144.088,608.441 147.508,620.049 144.809,622.595L144,625L142.552,626Z" fill="#010101"/>
<path d="M86.5525,670.994L88.4475,671C88.7324,628.733 88.0023,583.297 89.4465,541.031L87.5525,541C86.1084,582.107 86.8376,627.569 86.5525,670.994Z" fill="#3D3D3D"/>
<path d="M137.447,627C138.441,626.959 139.754,627.543 141.129,627.496C142.503,627.45 143.768,626.422 143.277,625.648L144.447,625C145.061,618.734 143.217,608.868 145.29,605.341L148.447,604C152.492,602.201 160.982,603.935 165.027,603.447L166.447,603C166.447,601.564 165.553,597.889 165.553,598C159.363,598 151.89,597.552 147,597.552L147,597L145,597L145,596L144.447,596C145.166,591.945 142.183,589.566 144.292,588.339C144.137,587.466 144.297,585.943 144.467,585.028C144.636,584.113 144.366,583.887 144.843,584.419C151.441,582.762 162.479,583.851 169.077,583.441C170.339,583.061 170.739,580.922 170.443,579.463C170.146,578.004 168.712,576.524 168.635,576.741C158.328,576.741 147.098,576.553 138,576.553L137,577L136.552,581C136.552,595.718 136.553,611.438 136.553,625L137.447,627Z" fill="#EEEECD"/>
<path d="M135.553,624.971L137.447,625C137.447,611.438 137.448,595.718 137.448,581C135.7,593.155 136.021,610.383 135.553,624.971Z" fill="#706F60"/>
<path d="M143.561,624.914L145.447,623C145.447,617.156 145.447,609.533 145.447,605C143.374,608.527 144.175,618.648 143.561,624.914Z" fill="#707060"/>
<path d="M144.552,623C147.252,620.454 144.559,609.2 147.259,605.365L144.552,605C144.552,609.533 144.552,617.156 144.552,623Z" fill="#272721"/>
<path d="M145,605L147.447,605C151.982,603.934 163.161,607.186 166.235,603.381L164.553,603C160.508,604.799 152.018,603.065 147.973,603.553L145,605Z" fill="#707061"/>
<path d="M147.931,603.558C151.976,603.07 161.024,605.242 165.069,603.442C161.024,603.93 151.976,601.758 147.931,603.558Z" fill="#D3D3B8"/>
<path d="M147,598C151.89,598 159.81,598.448 166,598.448L166,597C159.81,597 151.89,596.552 147,596.552L147,598Z" fill="#B4B59E"/>
<path d="M145,597L147,597C151.89,597 159.92,597.434 166.11,597.434C162.583,595.361 152.288,596.167 146.022,595.553L145,596L145,597Z" fill="#706F62"/>
<path d="M143.578,595.85L145.447,596C145.289,594.79 145.501,592.652 145.523,590.883C145.544,589.114 144.753,587.3 143.827,587.587C141.719,588.814 144.297,591.796 143.578,595.85Z" fill="#706F61"/>
<path d="M144.567,596.114L146.448,596C146.448,593.632 146.447,587.767 146.447,584L145.447,584C144.392,583.663 143.389,584.863 143.473,586.032C143.557,587.201 144.567,587.993 144.286,587.656C145.211,587.369 144.649,589.103 144.628,590.872C144.607,592.642 144.408,594.904 144.567,596.114Z" fill="#2A2922"/>
<path d="M144.944,583.556L146.447,584C152.686,583.58 162.808,585.119 169.045,583.445C162.447,583.856 151.543,581.899 144.944,583.556Z" fill="#6E6E61"/>
<path d="M136.923,576.559L138.447,577C147.893,575.458 160.59,576.79 170.036,576.446C161.918,575.439 145.04,573.72 136.923,576.559Z" fill="#49473D"/>
<path d="M137.964,576.554C147.062,576.554 158.693,577.448 169,577.448L169.553,576C160.107,576.344 147.409,575.012 137.964,576.554Z" fill="#898875"/>
<path d="M87.9916,540.553L89.4475,541C130.616,540.694 170.183,541.926 209.007,540.447C169.781,540.748 127.217,539.083 87.9916,540.553Z" fill="#434241"/>
<path d="M215.974,540.447L216.553,540C217.608,540.337 218.611,539.137 218.527,537.968C218.443,536.799 217.489,536.047 217.77,536.384C173.775,536.384 129.996,535.552 86,535.552L86,533L84,534L83.5525,535C124.437,538.683 175.09,535.61 215.974,540.447Z" fill="#5C5B56"/>
<path d="M86,536C129.996,536 174.204,536.4 218.2,536.4C219.636,494.277 218.828,447.869 219.108,403.434C215.913,443.525 217.587,487.541 215.555,529.957L214.553,532C173.009,533.452 129.704,532.263 86.9985,532.553L86,533L86,536Z" fill="#222119"/>
<path d="M82.5525,534L84.4475,534C84.4475,493.465 84.4475,450.701 84.4475,409C84.8895,405.849 84.0231,403.468 83.5521,403.413C83.081,403.357 82.1126,405.672 82.5548,410.045C82.5548,416.703 82.5525,426.088 82.5525,434C82.5525,441.009 82.5525,450.745 82.5525,459C82.5525,461.732 82.5525,467.887 82.5525,472C82.5525,475.816 82.5525,482.848 82.5525,488C82.5525,493.246 82.5525,501.465 82.5525,508C82.5525,515.359 82.5525,525.402 82.5525,534Z" fill="#A09F98"/>
<path d="M87.4475,533C130.153,532.71 173.464,533.9 215.008,532.447C172.717,532.447 131.457,531.552 88,531.552L87.4475,533Z" fill="#5C5B56"/>
<path d="M88,532C131.457,532 172.709,532.448 215,532.448L214,531C172.004,531 129.996,530.553 88,530.553L88,532Z" fill="#C6C5AF"/>
<path d="M215,532L216.447,530C216.447,488.299 216.447,445.535 216.447,405L214.553,405C214.257,446.996 215.014,488.973 213.554,530.969L215,532Z" fill="#9D9D88"/>
<path d="M88,531C129.996,531 172.204,531.4 214.2,531.4C215.661,489.405 215.152,447.002 215.447,405.006L215,404C175.004,404 134.796,403.6 94.7999,403.6C94.8173,404.651 93.5348,404.705 92.0262,404.618C90.5175,404.53 88.5361,404.727 88.5532,405.026C87.0923,445.265 87.8477,488.754 87.5525,528.993L88,531ZM158.795,488.602C158.796,489.605 157.254,489.692 155.125,489.634C152.995,489.576 150.448,489.325 148.966,489.554L149,489C147.564,489 143.957,489.442 144.068,489.442C135.019,486.532 130.877,474.139 131.379,462.757C131.881,451.374 137.166,440.956 148.208,440.396C148.297,438.819 150.796,438.3 153.502,438.284C156.207,438.269 158.475,438.463 158.565,439.104C165.757,440.387 173.229,446.72 171.572,452.869C168.543,456.12 167.203,454.569 165.402,452.304C163.6,450.04 161.789,446.746 160.024,446.553C156.257,446.553 150.368,446.552 148,446.552L147.553,446C144.535,448.827 139.823,451.707 139.553,455.971C138.072,459.451 138.138,471.054 139.62,473.236C141.013,481.651 148.611,484.344 155.59,483.358C162.569,482.373 169.701,477.689 170.391,472.217C174.733,475.008 172.928,478.697 169.932,482.223C166.935,485.749 162.15,488.495 158.795,488.602Z" fill="#F8F8D2"/>
<path d="M215.553,530C217.585,487.584 216.247,443.161 219.442,403.07L219.447,402C219.624,400.911 217.812,400.396 216.824,400.979C215.837,401.561 214.813,403.415 215.588,405.174C215.588,445.708 215.553,488.299 215.553,530Z" fill="#39382E"/>
<path d="M86.5525,529L88.4475,529C88.7426,488.76 87.9857,445.268 89.4466,405.028C87.4007,404.703 86.2898,408.8 86.4428,413.811C86.5958,418.823 87.125,424.646 86.5589,427.924C86.5589,450.292 86.5525,474.529 86.5525,498C86.5525,507.098 86.5525,518.693 86.5525,529Z" fill="#AFAEA3"/>
<path d="M149.448,490C150.93,489.772 152.971,490.47 155.1,490.528C157.23,490.586 159.448,490.002 159.447,488.999C156.369,488.999 150.641,488.553 149,488.553L149.448,490Z" fill="#6B6B5D"/>
<path d="M143.929,489.442C145.365,489.442 149.111,488.553 149,488.553C150.641,488.553 155.929,489.447 159.007,489.447C162.362,489.34 167.617,486.328 170.614,482.803C173.61,479.277 174.226,474.358 169.884,471.568C169.193,477.04 162.444,481.486 155.465,482.472C148.486,483.458 141.834,481.336 140.44,472.921C138.959,470.739 138.933,459.65 140.414,456.169C140.684,451.905 145.269,449.17 148.287,446.344C149.676,445.466 152.308,445.182 154.933,445.333C157.558,445.484 159.447,445.795 159.558,447.069C161.323,447.262 162.9,450.597 164.701,452.861C166.503,455.126 169.319,456.531 172.349,453.28C174.006,447.132 166.064,439.854 158.871,438.571C157.155,440.622 149.795,439.056 147.929,439.558C136.887,440.118 130.987,451.335 130.485,462.717C129.983,474.1 134.88,486.532 143.929,489.442Z" fill="#0E0D09"/>
<path d="M148,447C150.368,447 156.433,447.401 160.2,447.401C160.089,446.126 157.61,444.59 154.985,444.44C152.36,444.289 149.254,444.696 147.865,445.573L148,447Z" fill="#AFAE94"/>
<path d="M147.558,439.933C149.424,439.431 157.645,441.314 159.361,439.264C159.272,438.624 156.202,437.374 153.497,437.389C150.791,437.405 147.646,438.355 147.558,439.933Z" fill="#B0B095"/>
<path d="M89.4475,405C89.4304,404.701 90.4657,405.424 91.9743,405.511C93.4829,405.599 95.4647,405.037 95.4473,403.985C93.7016,403.985 89.2181,403.553 89,403.553L89.4475,405Z" fill="#D3D2D2"/>
<path d="M88.9937,403.553C89.2117,403.553 93.2544,404.448 95,404.448C134.996,404.448 175.011,404.447 215.007,404.447C175.205,403.285 129.957,402.39 88.9937,403.553Z" fill="#A9A99D"/>
<path d="M617.979,18.447L619.447,18C585.258,13.193 542.853,15.6889 504.993,14.5525C540.389,16.6646 582.584,15.158 617.979,18.447Z" fill="#3A5069"/>
<path d="M631.984,16.5528L633.447,17C670.486,15.5211 711.624,16.7537 751.007,16.4474C713.551,15.5788 669.439,13.914 631.984,16.5528Z" fill="#703736"/>
<path d="M896.993,16.5526C936.683,15.3798 977.49,16.2748 1016.01,17.4474C978.552,15.1091 934.448,14.2144 896.993,16.5526Z" fill="#3A506A"/>
<path d="M1030.45,17C1067.49,15.5211 1108.63,16.7537 1148.01,16.4474C1109.8,15.2747 1068.2,14.3799 1029.99,15.5526L1030.45,17Z" fill="#703737"/>
<path d="M768.993,14.5526C804.48,14.5526 842.335,15.4474 879.007,15.4474C842.335,14.2627 804.48,13.3681 768.993,14.5526Z" fill="#0E1C0E"/>
<path d="M1165.99,14.5526C1201.48,14.5526 1239.34,15.4474 1276.01,15.4474C1239.33,14.2627 1201.48,13.3681 1165.99,14.5526Z" fill="#0E1C0E"/>
<path d="M496.996,8.55251C588.084,8.55251 675.183,9.4475 764,9.4475L763.553,8C671.33,8.24622 584.679,7.17104 496.996,8.55251Z" fill="#57555B"/>
<path d="M764,9C803.996,9 844.004,9.4475 884,9.4475L884,8C844.004,8 803.996,7.5525 764,7.5525L764,9Z" fill="#506350"/>
<path d="M884,9C979.767,9 1069.62,9.4475 1162,9.4475L1162,8C1066.23,8 976.375,7.5525 884,7.5525L884,9Z" fill="#57555B"/>
<path d="M1162.45,9C1201.67,8.69946 1243.78,9.91715 1283.01,8.44742C1241.53,8.44742 1202.3,7.5525 1162,7.5525L1162.45,9Z" fill="#516351"/>
</g>
<g id="layer1">
<path d="M494,1335C516.32,1335 539.878,1335 561,1335C582.998,1335 605.002,1335 627,1335C649.32,1335 672.878,1335 694,1335C715.998,1335 738.002,1335 760,1335C782.32,1335 805.878,1335 827,1335C848.998,1335 871.002,1335 893,1335C914.998,1335 937.002,1335 959,1335C980.998,1335 1003,1335 1025,1335C1047.32,1335 1070.88,1335 1092,1335C1114,1335 1136,1335 1158,1335C1180,1335 1202,1335 1224,1335C1245.09,1334.09 1269.47,1336.47 1288,1333C1288,1310.68 1288,1287.12 1288,1266C1288,1244 1288,1222 1288,1200C1288,1178 1288,1156 1288,1134C1288,1112 1288,1090 1288,1068C1288,1045.68 1288,1022.12 1288,1001C1288,979.002 1288,956.998 1288,935C1288,913.002 1288,890.998 1288,869C1288,847.002 1288,824.998 1288,803C1288,780.68 1288,757.122 1288,736C1288,714.002 1288,691.998 1288,670C1288,648.002 1288,625.998 1288,604C1288,582.002 1288,559.998 1288,538C1288,515.68 1288,492.122 1288,471C1288,449.002 1288,426.998 1288,405C1288,383.002 1288,360.998 1288,339C1288,317.002 1288,294.998 1288,273C1288,250.68 1288,227.122 1288,206C1288,184.002 1288,161.998 1288,140C1288,118.002 1288,95.9978 1288,74C1287.45,52.5559 1288.91,29.0858 1287,9C1264.68,9 1241.12,9 1220,9C1198,9 1176,9 1154,9C1131.68,9 1108.12,9 1087,9C1065,9 1043,9 1021,9C998.68,9 975.122,9 954,9C932.002,9 909.998,9 888,9C866.002,9 843.998,9 822,9C800.002,9 777.998,9 756,9C733.68,9 710.122,9 689,9C667.002,9 644.998,9 623,9C601.002,9 578.998,9 557,9C535.907,9.90515 511.531,7.53357 493,11C493,33.3201 493,56.8779 493,78C493,99.9978 493,122.002 493,144C493,165.998 493,188.002 493,210C493,231.998 493,254.002 493,276C493,298.32 493,321.878 493,343C493,364.998 493,387.002 493,409C493,430.998 493,453.002 493,475C493,496.998 493,519.002 493,541C493,563.32 493,586.878 493,608C493,629.998 493,652.002 493,674C493,695.998 493,718.002 493,740C493,761.998 493,784.002 493,806C493,828.32 493,851.878 493,873C493,894.998 493,917.002 493,939C493,960.998 493,983.002 493,1005C493,1027 493,1049 493,1071C493,1093.32 493,1116.88 493,1138C493,1160 493,1182 493,1204C493,1226 493,1248 493,1270C493.352,1291.65 492.446,1314.56 494,1335ZM49,981C66.3316,981 83.6684,981 101,981C118.332,981 135.668,981 153,981C170.332,981 187.668,981 205,981C221.322,979.991 241.342,982.674 255,979C258.508,965.176 256.29,945.621 257,929C257,911.668 257,894.332 257,877C257,859.668 257,842.332 257,825C257,808.079 257,789.675 257,774C257,756.668 257,739.332 257,722C257,704.668 257,687.332 257,670C257,652.668 257,635.332 257,618C257,601.079 257,582.675 257,567C257,549.668 257,532.332 257,515C257,497.668 257,480.332 257,463C257,445.668 257,428.332 257,411C256.27,394.809 258.901,373.773 254,363C236.668,363 219.332,363 202,363C184.668,363 167.332,363 150,363C132.668,363 115.332,363 98,363C81.6778,364.009 61.6581,361.326 48,365C47.2137,381.545 45.4136,397.082 46,415C46,432.332 46,449.668 46,467C46,484.332 46,501.668 46,519C46,535.921 46,554.325 46,570C46,587.332 46,604.668 46,622C46,639.332 46,656.668 46,674C46,691.332 46,708.668 46,726C46,742.921 46,761.325 46,777C46,794.332 46,811.668 46,829C46,846.332 46,863.668 46,881C46,898.332 46,915.668 46,933C46.8274,949.093 45.8505,968.475 49,981ZM83,944C95.856,944 110.444,944 122,944C134.856,944 149.444,944 161,944C173.856,944 188.444,944 200,944C217.558,948.702 224.229,940.785 220,925C220,912.144 220,897.556 220,886C220,873.144 220,858.556 220,847C220,834.144 220,819.556 220,808C220,795.144 220,780.556 220,769C220,756.144 220,741.556 220,730C220,717.144 220,702.556 220,691C220,678.144 220,663.556 220,652C220,639.144 220,624.556 220,613C220,600.144 220,585.556 220,574C220,561.144 220,546.556 220,535C220,522.144 220,507.556 220,496C220,483.335 220,470.665 220,458C220,445.144 220,430.556 220,419C223.716,401.037 217.406,395.447 202,400C189.144,400 174.556,400 163,400C150.144,400 135.556,400 124,400C111.144,400 96.5561,400 85,400C81.1538,409.01 83.9887,426.433 83,437C83,449.856 83,464.444 83,476C83,488.856 83,503.444 83,515C83.5663,528.681 84.2595,539.887 83,552C83,564.856 83,579.444 83,591C83,603.856 83,618.444 83,630C83,642.856 83,657.444 83,669C82.7057,678.01 83.0374,695.433 83,706C83,718.856 83,733.444 83,745C83,757.856 83,772.444 83,784C82.8658,798.354 84.0907,806.603 83,820C83,832.856 83,847.444 83,859C83,871.856 83,886.444 83,898C83.476,910.38 82.2241,926.22 84,936C86.0702,944.84 84.4869,913.66 85,908C85,895.144 85,880.556 85,869C85,856.144 85,841.556 85,830C84.5217,815.172 86.9294,805.942 85,795C85,782.144 85,767.556 85,756C85,743.144 85,728.556 85,717C85,704.144 85,689.556 85,678C88.0183,668.162 109.922,675.478 119,673C131.856,673 146.444,673 158,673C170.856,673 185.444,673 197,673C214.229,682.026 221.154,655.311 216,675C206.696,678.552 189.605,676.049 179,677C166.335,677 153.665,677 141,677C128.144,677 113.556,677 102,677C81.8036,669.66 89.1936,691.637 88,702C88,714.856 88,729.444 88,741C88,753.856 88,768.444 88,780C91.473,790.073 78.1968,812.558 95,808C107.856,808 122.444,808 134,808C146.856,808 161.444,808 173,808C185.856,808 200.444,808 212,808C218.97,786.473 221.069,819.324 205,812C192.144,812 177.556,812 166,812C153.144,812 138.556,812 127,812C114.62,812.476 98.7803,811.224 89,813C87.224,824.08 88.4757,839.92 88,851C88,863.856 88,878.444 88,890C88,902.856 88,917.444 88,929C91.7051,947.95 98.1232,936.756 83,944ZM145,897C137.077,901.42 128.782,870.821 112,889C100.336,913.444 99.2696,886.124 109,876C111.028,867.06 120.8,835.047 130,858C135.173,870.825 141.828,882.173 145,897ZM116,878C138.417,881.582 125.71,873.43 125,861C120.246,845.289 121.434,876.512 116,878ZM199,872C199.465,878.845 204.112,906.028 193,897C189.888,888.911 197.186,865.081 184,871C172.811,871.988 184.966,898.1 175,899C165.475,896.348 176.735,871.131 167,870C153.27,868.447 160.078,889.212 157,897C144.62,902.484 152.818,879.689 150,873C146.953,859.716 169.741,862.927 175,865C181.196,864.036 200.808,858.436 199,872ZM149,756C167.453,762.387 176.682,738.849 155,743C153.464,732.077 186.598,733.576 175,753C171.669,763.565 155.281,765.04 144,762C134.828,757.412 126.784,748.417 130,734C130.503,719.613 140.371,712.991 153,712C164.701,708.847 181.263,724.354 169,728C167.257,718.275 142.897,716.284 140,727C133.215,737.613 138.707,753.819 149,756ZM144,619C133.155,639.532 137.295,595.561 137,587C129.567,569.051 176.008,575.052 169,582C149.805,574.52 130.079,596.849 157,597C186.799,609.138 129.038,596.912 144,619ZM215,538C201.357,543.593 171.925,539.491 153,541C131.354,541.352 108.443,540.446 88,542C88,563.998 88,586.002 88,608C87.7113,628.303 89.0105,655.231 86,668C84.1022,647.578 85.5463,622.576 85,602C85.6323,580.635 83.8985,556.896 86,537C105.896,534.898 129.634,536.632 151,536C172.035,536.963 196.706,534.296 215,538ZM145,489C157.755,489.756 169.248,489.247 172,480C173.445,462.083 162.39,481.926 157,483C143.345,484.657 139.04,476.959 139,465C137.306,451.808 143.875,445.05 155,446C160.306,448.112 176.771,462.055 169,446C166.554,438.545 148.246,438.531 141,442C134.61,447.609 129.966,454.967 131,468C131.834,478.663 137.289,486.536 145,489ZM215,409C216.555,429.092 215.649,452.908 216,473C213.596,491.927 220.233,519.901 211,532C189.354,532 166.443,532 146,532C127.141,529.528 99.2341,536.097 87,527C87,505.354 87,482.443 87,462C89.149,442.818 82.8932,415.224 93,404C114.646,404 137.557,404 158,404C176.134,406.952 206.547,399.393 215,409ZM252,366C255.313,380.018 253.179,399.489 254,416C254,432.921 254,451.325 254,467C254,483.921 254,502.325 254,518C254,534.921 254,553.325 254,569C254,586.332 254,603.668 254,621C254,637.921 254,656.325 254,672C254,688.921 254,707.325 254,723C254,739.921 254,758.325 254,774C254,791.332 254,808.668 254,826C254,842.921 254,861.325 254,877C254,893.921 254,912.325 254,928C253.401,944.322 255.017,964.342 253,978C237.736,979.657 218.265,978.59 203,979C186.079,979 167.675,979 152,979C135.079,979 116.675,979 101,979C84.4898,978.589 65.0183,979.657 51,978C47.6865,963.982 49.8208,944.511 49,928C49,911.079 49,892.675 49,877C49,860.079 49,841.675 49,826C49,809.079 49,790.675 49,775C49,757.668 49,740.332 49,723C49,706.079 49,687.675 49,672C49,655.079 49,636.675 49,621C49,604.079 49,585.675 49,570C49,552.668 49,535.332 49,518C49,501.079 49,482.675 49,467C49,450.079 49,431.675 49,416C49.4107,399.49 48.3433,380.018 50,366C65.2642,364.343 84.7355,365.41 100,365C116.921,365 135.325,365 151,365C167.921,365 186.325,365 202,365C218.51,365.411 237.982,364.343 252,366ZM618,17C619.712,30.1783 618.559,47.8213 619,61C619,75.8903 619,92.38 619,106C619,120.89 619,137.38 619,151C619,165.89 619,182.38 619,196C619,210.89 619,227.38 619,241C619,255.89 619,272.38 619,286C619,300.89 619,317.38 619,331C619,345.665 619,360.335 619,375C619,389.89 619,406.38 619,420C619,434.89 619,451.38 619,465C619,479.89 619,496.38 619,510C619,524.665 619,539.335 619,554C619,568.89 619,585.38 619,599C619,613.89 619,630.38 619,644C619,658.89 619,675.38 619,689C619,703.665 619,718.335 619,733C619,747.89 619,764.38 619,778C619,792.89 619,809.38 619,823C619,837.89 619,854.38 619,868C619,882.665 619,897.335 619,912C619,926.89 619,943.38 619,957C619,971.89 619,988.38 619,1002C619,1016.89 619,1033.38 619,1047C619,1061.67 619,1076.33 619,1091C619,1105.89 619,1122.38 619,1136C619,1150.89 619,1167.38 619,1181C619,1195.89 619,1212.38 619,1226C619,1240.67 619,1255.33 619,1270C619,1284.89 619,1301.38 619,1315C626.805,1337.7 598.714,1326.09 588,1329C573.11,1329 556.62,1329 543,1329C529.401,1327.93 511.86,1330.81 501,1327C499.288,1313.82 500.441,1296.18 500,1283C500,1268.11 500,1251.62 500,1238C500,1223.11 500,1206.62 500,1193C500,1178.11 500,1161.62 500,1148C500,1133.11 500,1116.62 500,1103C500,1088.11 500,1071.62 500,1058C500,1043.11 500,1026.62 500,1013C500,998.335 500,983.665 500,969C500,954.11 500,937.62 500,924C500,909.11 500,892.62 500,879C500,864.11 500,847.62 500,834C500,819.335 500,804.665 500,790C500,775.11 500,758.62 500,745C500,730.11 500,713.62 500,700C500,685.11 500,668.62 500,655C500,640.335 500,625.665 500,611C500,596.11 500,579.62 500,566C500,551.11 500,534.62 500,521C500,506.11 500,489.62 500,476C500,461.335 500,446.665 500,432C500,417.11 500,400.62 500,387C500,372.11 500,355.62 500,342C500,327.11 500,310.62 500,297C500,282.335 500,267.665 500,253C500,238.11 500,221.62 500,208C500,193.11 500,176.62 500,163C500,148.11 500,131.62 500,118C500,103.335 500,88.6652 500,74C500,59.1097 500,42.62 500,29C492.195,6.30444 520.286,17.9064 531,15C545.89,15 562.38,15 576,15C589.599,16.0665 607.14,13.1947 618,17ZM883,17C884.712,30.1783 883.559,47.8213 884,61C884,75.8903 884,92.38 884,106C884,120.89 884,137.38 884,151C884,165.89 884,182.38 884,196C884,210.89 884,227.38 884,241C884,255.89 884,272.38 884,286C884,300.89 884,317.38 884,331C884,345.665 884,360.335 884,375C884,389.89 884,406.38 884,420C884,434.89 884,451.38 884,465C884,479.89 884,496.38 884,510C884,524.665 884,539.335 884,554C884,568.89 884,585.38 884,599C884,613.89 884,630.38 884,644C884,658.89 884,675.38 884,689C884,703.665 884,718.335 884,733C884,747.89 884,764.38 884,778C884,792.89 884,809.38 884,823C884,837.89 884,854.38 884,868C884,882.89 884,899.38 884,913C884,927.89 884,944.38 884,958C884,972.89 884,989.38 884,1003C884,1017.89 884,1034.38 884,1048C884,1062.67 884,1077.33 884,1092C884,1106.89 884,1123.38 884,1137C884,1151.89 884,1168.38 884,1182C884,1196.89 884,1213.38 884,1227C884,1241.67 884,1256.33 884,1271C884,1285.89 884,1302.38 884,1316C890.551,1337.44 862.561,1325.94 852,1329C837.11,1329 820.62,1329 807,1329C793.401,1327.93 775.86,1330.81 765,1327C764.907,1316.14 765.206,1296.6 765,1284C765,1269.11 765,1252.62 765,1239C765,1224.11 765,1207.62 765,1194C765,1179.11 765,1162.62 765,1149C765,1134.11 765,1117.62 765,1104C765,1089.11 765,1072.62 765,1059C765,1044.11 765,1027.62 765,1014C765,999.335 765,984.665 765,970C765,955.11 765,938.62 765,925C765,910.11 765,893.62 765,880C765,865.11 765,848.62 765,835C765,820.335 765,805.665 765,791C765,776.11 765,759.62 765,746C765,731.11 765,714.62 765,701C765,686.11 765,669.62 765,656C765,641.335 765,626.665 765,612C765,597.11 765,580.62 765,567C765,552.11 765,535.62 765,522C765,507.11 765,490.62 765,477C765,462.11 765,445.62 765,432C765,417.11 765,400.62 765,387C765,372.11 765,355.62 765,342C765,327.11 765,310.62 765,297C765,282.335 765,267.665 765,253C765,238.11 765,221.62 765,208C765,193.11 765,176.62 765,163C765,148.11 765,131.62 765,118C765,103.335 765,88.6652 765,74C765,59.1097 765,42.62 765,29C757.195,6.30444 785.286,17.9064 796,15C810.89,15 827.38,15 841,15C854.599,16.0665 872.14,13.1947 883,17ZM1015,17C1016.71,30.1783 1015.56,47.8213 1016,61C1016,75.8903 1016,92.38 1016,106C1016,120.89 1016,137.38 1016,151C1016,165.89 1016,182.38 1016,196C1016,210.89 1016,227.38 1016,241C1016,255.89 1016,272.38 1016,286C1016,300.89 1016,317.38 1016,331C1016,345.665 1016,360.335 1016,375C1016,389.89 1016,406.38 1016,420C1016,434.89 1016,451.38 1016,465C1016,479.89 1016,496.38 1016,510C1016,524.665 1016,539.335 1016,554C1016,568.89 1016,585.38 1016,599C1016,613.89 1016,630.38 1016,644C1016,658.89 1016,675.38 1016,689C1016,703.665 1016,718.335 1016,733C1016,747.89 1016,764.38 1016,778C1016,792.89 1016,809.38 1016,823C1016,837.89 1016,854.38 1016,868C1016,882.665 1016,897.335 1016,912C1016,926.89 1016,943.38 1016,957C1016,971.89 1016,988.38 1016,1002C1016,1016.89 1016,1033.38 1016,1047C1016,1061.67 1016,1076.33 1016,1091C1016,1105.89 1016,1122.38 1016,1136C1016,1150.89 1016,1167.38 1016,1181C1016,1195.89 1016,1212.38 1016,1226C1016,1240.67 1016,1255.33 1016,1270C1016,1284.89 1016,1301.38 1016,1315C1023.81,1337.7 995.714,1326.09 985,1329C970.11,1329 953.62,1329 940,1329C926.401,1327.93 908.86,1330.81 898,1327C896.288,1313.82 897.441,1296.18 897,1283C897,1268.11 897,1251.62 897,1238C897,1223.11 897,1206.62 897,1193C897,1178.11 897,1161.62 897,1148C897,1133.11 897,1116.62 897,1103C897,1088.11 897,1071.62 897,1058C897,1043.11 897,1026.62 897,1013C897,998.335 897,983.665 897,969C897,954.11 897,937.62 897,924C897,909.11 897,892.62 897,879C897,864.11 897,847.62 897,834C897,819.335 897,804.665 897,790C897,775.11 897,758.62 897,745C897,730.11 897,713.62 897,700C897,685.11 897,668.62 897,655C897,640.335 897,625.665 897,611C897,596.11 897,579.62 897,566C897,551.11 897,534.62 897,521C897,506.11 897,489.62 897,476C897,461.335 897,446.665 897,432C897,417.11 897,400.62 897,387C897,372.11 897,355.62 897,342C897,327.11 897,310.62 897,297C897,282.335 897,267.665 897,253C897,238.11 897,221.62 897,208C897,193.11 897,176.62 897,163C897,148.11 897,131.62 897,118C897,103.335 897,88.6652 897,74C897,59.1097 897,42.62 897,29C889.195,6.30444 917.286,17.9064 928,15C942.89,15 959.38,15 973,15C986.599,16.0665 1004.14,13.1947 1015,17ZM1148,17C1149.71,30.1783 1148.56,47.8213 1149,61C1149,75.8903 1149,92.38 1149,106C1149,120.89 1149,137.38 1149,151C1149,165.89 1149,182.38 1149,196C1149,210.89 1149,227.38 1149,241C1149,255.89 1149,272.38 1149,286C1149,300.89 1149,317.38 1149,331C1149,345.665 1149,360.335 1149,375C1149,389.89 1149,406.38 1149,420C1149,434.89 1149,451.38 1149,465C1149,479.89 1149,496.38 1149,510C1149,524.665 1149,539.335 1149,554C1149,568.89 1149,585.38 1149,599C1149,613.89 1149,630.38 1149,644C1149,658.89 1149,675.38 1149,689C1149,703.665 1149,718.335 1149,733C1149,747.89 1149,764.38 1149,778C1149,792.89 1149,809.38 1149,823C1149,837.89 1149,854.38 1149,868C1149,882.89 1149,899.38 1149,913C1149,927.89 1149,944.38 1149,958C1149,972.89 1149,989.38 1149,1003C1149,1017.89 1149,1034.38 1149,1048C1149,1062.67 1149,1077.33 1149,1092C1149,1106.89 1149,1123.38 1149,1137C1149,1151.89 1149,1168.38 1149,1182C1149,1196.89 1149,1213.38 1149,1227C1149,1241.67 1149,1256.33 1149,1271C1149,1285.89 1149,1302.38 1149,1316C1155.55,1337.44 1127.56,1325.94 1117,1329C1102.11,1329 1085.62,1329 1072,1329C1058.4,1327.93 1040.86,1330.81 1030,1327C1027.94,1314.17 1029.61,1296.01 1029,1283C1029,1268.11 1029,1251.62 1029,1238C1029,1223.11 1029,1206.62 1029,1193C1029,1178.11 1029,1161.62 1029,1148C1029,1133.11 1029,1116.62 1029,1103C1029,1088.11 1029,1071.62 1029,1058C1029,1043.11 1029,1026.62 1029,1013C1029,998.335 1029,983.665 1029,969C1029,954.11 1029,937.62 1029,924C1029,909.11 1029,892.62 1029,879C1029,864.11 1029,847.62 1029,834C1029,819.335 1029,804.665 1029,790C1029,775.11 1029,758.62 1029,745C1029,730.11 1029,713.62 1029,700C1029,685.11 1029,668.62 1029,655C1029,640.335 1029,625.665 1029,611C1029,596.11 1029,579.62 1029,566C1029,551.11 1029,534.62 1029,521C1029,506.11 1029,489.62 1029,476C1029,461.11 1029,444.62 1029,431C1029,416.11 1029,399.62 1029,386C1029,371.11 1029,354.62 1029,341C1029,326.11 1029,309.62 1029,296C1029,281.335 1029,266.665 1029,252C1029,237.11 1029,220.62 1029,207C1029,192.11 1029,175.62 1029,162C1029,147.11 1029,130.62 1029,117C1029,102.335 1029,87.6652 1029,73C1029,58.1097 1029,41.62 1029,28C1022.85,6.96362 1050.14,17.7609 1061,15C1075.89,15 1092.38,15 1106,15C1119.6,16.0665 1137.14,13.1947 1148,17ZM748,16C753.484,25.4061 749.506,45.8735 751,58C751,72.8903 751,89.38 751,103C751,117.89 751,134.38 751,148C751,162.89 751,179.38 751,193C751,207.89 751,224.38 751,238C751,252.89 751,269.38 751,283C751,297.89 751,314.38 751,328C751,342.665 751,357.335 751,372C751,386.89 751,403.38 751,417C751,431.89 751,448.38 751,462C751,476.89 751,493.38 751,507C751,521.665 751,536.335 751,551C751,565.89 751,582.38 751,596C751,610.89 751,627.38 751,641C751,655.89 751,672.38 751,686C751,700.665 751,715.335 751,730C751,744.89 751,761.38 751,775C751,789.89 751,806.38 751,820C751,834.89 751,851.38 751,865C751,879.665 751,894.335 751,909C751,923.89 751,940.38 751,954C751,968.89 751,985.38 751,999C751,1013.89 751,1030.38 751,1044C751,1058.67 751,1073.33 751,1088C751,1102.89 751,1119.38 751,1133C751,1147.89 751,1164.38 751,1178C751,1192.89 751,1209.38 751,1223C751,1237.67 751,1252.33 751,1267C751,1281.89 751,1298.38 751,1312C759.501,1335.39 735.874,1328.25 723,1329C708.11,1329 691.62,1329 678,1329C663.787,1328.55 647.933,1329.73 635,1328C629.516,1318.59 633.494,1298.13 632,1286C632,1271.11 632,1254.62 632,1241C632,1226.11 632,1209.62 632,1196C632,1181.11 632,1164.62 632,1151C632,1136.11 632,1119.62 632,1106C632,1091.11 632,1074.62 632,1061C632,1046.11 632,1029.62 632,1016C632,1001.33 632,986.665 632,972C632,957.11 632,940.62 632,927C632,912.11 632,895.62 632,882C632,867.11 632,850.62 632,837C632,822.335 632,807.665 632,793C632,778.11 632,761.62 632,748C632,733.11 632,716.62 632,703C632,688.11 632,671.62 632,658C632,643.335 632,628.665 632,614C632,599.11 632,582.62 632,569C632,554.11 632,537.62 632,524C632,509.11 632,492.62 632,479C632,464.335 632,449.665 632,435C632,420.11 632,403.62 632,390C632,375.11 632,358.62 632,345C632,330.11 632,313.62 632,300C632,285.335 632,270.665 632,256C632,241.11 632,224.62 632,211C632,196.11 632,179.62 632,166C632,151.11 632,134.62 632,121C632,106.335 632,91.6652 632,77C632,62.1097 632,45.62 632,32C623.927,9.03625 646.932,15.5515 660,15C674.89,15 691.38,15 705,15C719.213,15.4526 735.067,14.2678 748,16ZM1280,16C1281.71,29.1783 1280.56,46.8213 1281,60C1281,74.8903 1281,91.38 1281,105C1281,119.89 1281,136.38 1281,150C1281,164.89 1281,181.38 1281,195C1281,209.89 1281,226.38 1281,240C1281,254.89 1281,271.38 1281,285C1281,299.89 1281,316.38 1281,330C1281,344.665 1281,359.335 1281,374C1281,388.89 1281,405.38 1281,419C1281,433.89 1281,450.38 1281,464C1281,478.89 1281,495.38 1281,509C1281,523.665 1281,538.335 1281,553C1281,567.89 1281,584.38 1281,598C1281,612.89 1281,629.38 1281,643C1281,657.89 1281,674.38 1281,688C1281,702.665 1281,717.335 1281,732C1281,746.89 1281,763.38 1281,777C1281,791.89 1281,808.38 1281,822C1281,836.89 1281,853.38 1281,867C1281,881.665 1281,896.335 1281,911C1281,925.89 1281,942.38 1281,956C1281,970.89 1281,987.38 1281,1001C1281,1015.89 1281,1032.38 1281,1046C1281,1060.67 1281,1075.33 1281,1090C1281,1104.89 1281,1121.38 1281,1135C1281,1149.89 1281,1166.38 1281,1180C1281,1194.89 1281,1211.38 1281,1225C1281,1239.67 1281,1254.33 1281,1269C1281,1283.89 1281,1300.38 1281,1314C1289.61,1337.5 1262.16,1326.54 1251,1329C1236.11,1329 1219.62,1329 1206,1329C1191.79,1328.55 1175.93,1329.73 1163,1328C1161.29,1314.82 1162.44,1297.18 1162,1284C1162,1269.11 1162,1252.62 1162,1239C1162,1224.11 1162,1207.62 1162,1194C1162,1179.11 1162,1162.62 1162,1149C1162,1134.11 1162,1117.62 1162,1104C1162,1089.11 1162,1072.62 1162,1059C1162,1044.11 1162,1027.62 1162,1014C1162,999.335 1162,984.665 1162,970C1162,955.11 1162,938.62 1162,925C1162,910.11 1162,893.62 1162,880C1162,865.11 1162,848.62 1162,835C1162,820.335 1162,805.665 1162,791C1162,776.11 1162,759.62 1162,746C1162,731.11 1162,714.62 1162,701C1162,686.11 1162,669.62 1162,656C1162,641.335 1162,626.665 1162,612C1162,597.11 1162,580.62 1162,567C1162,552.11 1162,535.62 1162,522C1162,507.11 1162,490.62 1162,477C1162,462.335 1162,447.665 1162,433C1162,418.11 1162,401.62 1162,388C1162,373.11 1162,356.62 1162,343C1162,328.11 1162,311.62 1162,298C1162,283.335 1162,268.665 1162,254C1162,239.11 1162,222.62 1162,209C1162,194.11 1162,177.62 1162,164C1162,149.11 1162,132.62 1162,119C1162,104.335 1162,89.6652 1162,75C1162,60.1097 1162,43.62 1162,30C1153.39,6.50244 1180.84,17.4595 1192,15C1206.89,15 1223.38,15 1237,15C1251.21,15.4526 1267.07,14.2678 1280,16Z" fill="#250000" fill-opacity="0.379767"/>
</g>
</svg>
