<?xml version='1.0' encoding='utf-8'?>
<!-- Generator: imaengine 6.0   -->
<svg xmlns:xlink="http://www.w3.org/1999/xlink" xmlns="http://www.w3.org/2000/svg" viewBox="0,0,1598,1600" style="enable-background:new 0 0 1598 1600;" version="1.1">
<defs/>
<g id="layer0">
<path d="M-0.533,1600C531.226,1600 1063.41,1600.48 1598.24,1600.48C1598.24,1067.2 1598.53,533.28 1598.53,0C1066.77,0 534.594,-0.47673 -0.238365,-0.47673C-0.238365,532.803 -0.533,1066.72 -0.533,1600ZM1482.47,1493.99C1025.85,1495.07 569.859,1494.47 113.238,1494.52C112.155,1028.49 112.588,564.009 112.533,98.9999C111.143,93.4078 114.501,93.0056 119.678,93.1861C124.855,93.3667 131.399,94.657 135.081,93.5268C153.735,93.5268 174.225,93.533 194,93.533C233.996,93.533 274.004,93.533 314,93.533C365.613,93.533 419.252,93.533 472,93.533C530.353,93.533 586.773,93.533 644,93.533C695.395,93.533 744.747,93.533 795,93.533C845.607,93.533 898.255,93.533 950,93.533C1016.66,93.533 1083.34,93.533 1150,93.533C1237.78,93.533 1321.5,93.533 1407,93.533C1423.62,93.533 1442.27,93.5326 1460.02,93.5326C1467.04,92.9582 1474.75,91.9961 1479.95,93.925C1485.16,95.8539 1487.33,99.9683 1483.5,110.827C1483.5,113.921 1483.47,120.541 1483.47,125C1483.47,128.094 1483.47,134.541 1483.47,139C1483.47,144.954 1483.47,153.776 1483.47,161C1483.47,171.135 1483.47,183.672 1483.47,195C1483.47,202.359 1483.47,212.402 1483.47,221C1483.47,229.752 1483.47,241.035 1483.47,251C1483.47,259.752 1483.47,271.035 1483.47,281C1483.47,290.098 1483.47,301.693 1483.47,312C1483.47,426.989 1483.47,542.011 1483.47,657C1483.47,798.242 1483.47,937.847 1483.47,1078C1483.3,1218.67 1483.73,1356.59 1482.47,1493.99Z" fill="#634C4F"/>
<path d="M112.467,1495C569.088,1494.95 1026.62,1495.56 1483.24,1494.48C1484.5,1357.08 1484.36,1218.67 1484.53,1078C1484.53,937.847 1484.53,798.242 1484.53,657C1484.53,542.011 1484.53,426.989 1484.53,312C1484.53,301.693 1484.53,290.098 1484.53,281C1484.53,271.035 1484.53,259.752 1484.53,251C1484.53,241.035 1484.53,229.752 1484.53,221C1484.53,212.402 1484.53,202.359 1484.53,195C1484.53,183.672 1484.53,171.135 1484.53,161C1484.53,153.776 1484.53,144.954 1484.53,139C1484.53,134.541 1484.53,128.094 1484.53,125C1484.53,120.541 1484.53,114.094 1484.53,111C1488.37,100.141 1485.53,94.8543 1480.32,92.9254C1475.12,90.9965 1466.99,91.8931 1459.98,92.4674C1442.22,92.4674 1423.62,92.467 1407,92.467C1321.5,92.467 1237.78,92.467 1150,92.467C1083.34,92.467 1016.66,92.467 950,92.467C898.255,92.467 845.607,92.467 795,92.467C744.747,92.467 695.395,92.467 644,92.467C586.773,92.467 530.353,92.467 472,92.467C419.252,92.467 365.613,92.467 314,92.467C274.004,92.467 233.996,92.467 194,92.467C174.225,92.467 153.577,92.4726 134.923,92.4726C131.241,93.6028 124.892,92.3014 119.715,92.1208C114.538,91.9402 110.092,93.5346 111.482,99.1267C111.537,564.135 111.384,1028.97 112.467,1495ZM1462.47,1473.99C1019.18,1475.08 576.527,1474.47 133.238,1474.52C132.153,1020.73 132.59,569.735 132.533,118C131.748,113.186 135.159,113.007 140.214,113.23C145.269,113.452 151.515,114.604 155.08,113.527C173.396,113.527 193.561,113.533 213,113.533C250.508,113.533 290.316,113.533 329,113.533C381.389,113.533 431.751,113.533 483,113.533C537.63,113.533 594.241,113.533 650,113.533C697.588,113.533 747.267,113.533 796,113.533C845.995,113.533 896.005,113.533 946,113.533C1009.67,113.533 1075.21,113.533 1140,113.533C1223.32,113.533 1306.68,113.533 1390,113.533C1405.94,113.533 1423.95,113.532 1441.03,113.532C1448.08,112.752 1455.41,111.967 1460.31,114.041C1465.2,116.114 1467.13,120.343 1463.49,130.83C1463.49,133.924 1463.47,140.541 1463.47,145C1463.47,147.732 1463.47,153.887 1463.47,158C1463.47,163.954 1463.47,172.776 1463.47,180C1463.47,190.135 1463.47,202.672 1463.47,214C1463.47,221.359 1463.47,231.402 1463.47,240C1463.47,248.405 1463.47,259.376 1463.47,269C1463.47,277.057 1463.47,287.718 1463.47,297C1463.47,305.752 1463.47,317.035 1463.47,327C1463.47,438.656 1463.47,550.344 1463.47,662C1463.47,800.78 1463.47,934.495 1463.47,1070C1463.29,1204.81 1463.73,1340.27 1462.47,1473.99Z" fill="#160002"/>
<path d="M132.467,1475C575.756,1474.94 1019.95,1475.56 1463.24,1474.48C1464.5,1340.75 1464.36,1204.81 1464.53,1070C1464.53,934.496 1464.53,800.78 1464.53,662C1464.53,550.344 1464.53,438.656 1464.53,327C1464.53,317.035 1464.53,305.752 1464.53,297C1464.53,287.718 1464.53,277.057 1464.53,269C1464.53,259.376 1464.53,248.405 1464.53,240C1464.53,231.402 1464.53,221.359 1464.53,214C1464.53,202.672 1464.53,190.135 1464.53,180C1464.53,172.776 1464.53,163.954 1464.53,158C1464.53,153.887 1464.53,147.732 1464.53,145C1464.53,140.541 1464.53,134.094 1464.53,131C1468.17,120.513 1465.62,115.132 1460.72,113.059C1455.82,110.986 1448.02,111.688 1440.97,112.468C1423.89,112.468 1405.94,112.467 1390,112.467C1306.68,112.467 1223.32,112.467 1140,112.467C1075.21,112.467 1009.67,112.467 946,112.467C896.005,112.467 845.995,112.467 796,112.467C747.267,112.467 697.588,112.467 650,112.467C594.241,112.467 537.63,112.467 483,112.467C431.751,112.467 381.389,112.467 329,112.467C290.316,112.467 250.508,112.467 213,112.467C193.561,112.467 173.24,112.472 154.924,112.472C151.359,113.549 145.316,112.387 140.261,112.165C135.206,111.942 130.689,113.271 131.474,118.085C131.531,569.82 131.381,1021.21 132.467,1475ZM235.467,1153.01C205.107,1154.43 171.58,1153.2 138.998,1153.47L139,1153L138.533,1153C138.961,1136.01 137.842,1116.72 139.52,1102.11C170.141,1100.89 202.167,1101.64 232.788,1101.49C239.394,1113.18 235.29,1138.48 235.467,1153.01ZM344.467,1153C314.785,1154.42 281.906,1153.19 249.998,1153.47L250,1153L249.533,1153C249.961,1136.01 248.842,1116.72 250.52,1102.12C281.204,1101.16 314.561,1101.25 344.096,1102.52C346.262,1101.56 346.815,1101.91 347.337,1102.97C347.859,1104.04 347.75,1105.11 347.496,1105.83C347.046,1121.45 348.201,1139.66 346.484,1152.87L344.467,1153ZM1234.48,1152.9C1205.13,1154.33 1172.57,1153.19 1141,1153.47L1141,1153L1138.53,1153C1142.51,1137.54 1131.07,1106.82 1145.09,1102.53C1174.42,1101.58 1206.58,1101.19 1234.75,1102.47C1235.71,1118.43 1235.9,1138.19 1234.48,1152.9ZM409.467,1125.99L407.533,1127C406.327,948.685 406.668,770.315 406.533,592C407.662,589.119 406.602,582.731 406.29,577.272C405.978,571.813 405.609,567.742 409.728,568.458C410.795,753.779 410.535,940.673 409.467,1125.99ZM631.467,1125.99L629.533,1127C628.253,999.066 628.716,872.836 628.533,745.999C630.029,740.837 625.081,727.671 630.826,725.504C633.182,857.616 632.386,993.88 631.467,1125.99ZM854.467,1126L852.533,1127C849.733,1046.48 851.049,961.803 850.533,878.994C834.966,876.421 819.063,880.009 803.173,878.496C798.991,875.453 802.707,863.637 801.518,858.873C801.518,851.993 801.533,843.6 801.533,838C796.386,823.975 801.212,820.731 809.533,820.099C817.854,819.468 829.009,821.966 835.871,820.517C832.014,824.234 806.335,817.162 801.554,823.709C802.506,839.665 802.9,860.207 801.473,874.918C814.905,878.23 835.196,876.717 849.985,877.533C851.422,877.533 855.111,876.467 855,876.467C869.718,876.467 885.416,877.533 898.979,877.533C908.493,878.296 904.618,877.988 897.683,878.425C890.748,878.862 880.823,878.982 878.049,878.469L877.467,878C870.16,878.605 859.194,876.447 854.67,878.582C854.67,963.054 854.467,1043.82 854.467,1126ZM1238.47,1126.06L1238.53,1127C1236.92,1121.25 1237.64,1110.48 1237.53,1101.99C1223.56,1098.33 1200.76,1100.49 1183.02,1099.47C1177.77,1099.47 1169.54,1099.47 1163,1099.47C1156.69,1099.47 1147.61,1099.47 1140.04,1099.47C1136.27,1098.85 1135.09,1102.65 1135.23,1106.8C1135.36,1110.96 1136.27,1115.87 1135.48,1118.87C1136.03,1125.86 1135.84,1126.21 1134.73,1123.93C1133.62,1121.66 1132.64,1117.01 1133.52,1113.12C1134,1108.74 1133.06,1104.22 1133.71,1101.18C1134.37,1098.14 1136.05,1097 1142.94,1098.53C1147.47,1098.53 1155.16,1098.53 1161,1098.53C1165.89,1098.53 1173.73,1098.53 1179.92,1098.53C1183.26,1099.63 1184.82,1095.97 1184.84,1092.13C1184.85,1088.28 1183.92,1083.61 1183.52,1081.88C1183.64,875.354 1183.35,668.469 1184.53,463.003C1184.35,461.793 1184.84,462.209 1185.84,462.463C1186.84,462.717 1187.53,462.355 1186.71,462.55C1187.89,668.016 1187.35,875.472 1187.47,1082C1181.39,1095.21 1187.97,1098.92 1197.4,1099.2C1206.83,1099.48 1219.67,1096.88 1227.04,1098.53C1237.08,1094.64 1239.36,1098.51 1239.78,1105.16C1240.19,1111.82 1238.17,1120.79 1238.47,1126.06ZM1297.66,1125.59C1297.99,1126.65 1297.21,1126.63 1296.04,1126.55C1294.87,1126.46 1293.46,1127.21 1293.79,1127.49L1294,1126L1293.53,1126C1283.03,1124.49 1268.54,1124.79 1258.04,1124.47C1268.89,1122.97 1283.39,1124.79 1294.24,1124.48C1294.21,1124.36 1295.96,1124.29 1297.5,1124.51C1299.03,1124.73 1299.78,1124.35 1297.66,1125.59ZM1346.47,1121.06C1315.77,1122.48 1281.92,1121.2 1249,1121.47L1249,1121L1248.53,1121C1248.97,1104.35 1247.84,1085.35 1249.52,1071.1C1255.97,1069.14 1267.99,1071.11 1277.04,1070.53C1288.79,1069.56 1305.51,1069.03 1315.96,1070.53C1324.37,1070.53 1335.15,1070.48 1344.77,1070.48C1348.48,1083.39 1345.43,1104.35 1346.47,1121.06ZM1127.54,1118.73C1128.08,1119.38 1127.7,1119.39 1126.55,1119.49C1125.39,1119.59 1124.12,1119.55 1123.2,1119.51C1129.9,1111.58 1124.49,1083.79 1126.42,1067.33C1132.23,1073.03 1126.97,1090.89 1128.47,1102.07C1127.86,1105.99 1129.65,1114.99 1127.54,1118.73ZM1123.47,1115.98C1093.11,1117.39 1059.82,1116.25 1027.24,1116.52C1026.14,1101.87 1025.8,1079.84 1028.5,1065.18C1059.52,1064.23 1092.88,1064.2 1122.76,1065.48C1126.22,1078.5 1123.8,1100.29 1123.47,1115.98ZM188.467,1099C189.007,1099.65 188.704,1099.39 187.548,1099.49C186.393,1099.59 184.931,1099.51 184.013,1099.47L184.533,1099C184.533,1066.48 184.533,1033.44 184.533,1002C184.533,974.17 184.533,945.741 184.533,919C184.533,895.529 184.533,871.367 184.533,849C185.069,719.37 183.176,588.973 186.997,461.533C189.345,672.496 188.237,885.918 188.467,1099ZM742.467,1087.99C742.804,1089.05 742.207,1088.63 741.039,1088.55C739.87,1088.46 738.784,1089.24 739.121,1089.52C739.121,1083.56 739.533,1074.22 739.533,1067C739.533,980.092 739.533,894.045 739.533,806L738.533,806C735.231,804.15 726.344,804.982 723.041,804.469C712.394,804.469 700.682,804.523 691.238,804.523C690.008,787.111 690.3,765.346 691.53,749.056C703.437,743.545 726.126,748.575 739.285,745.45C739.285,731.07 739.533,715.221 739.533,702C739.533,689.992 739.533,676.823 739.533,666C739.533,656.034 739.533,644.752 739.533,636C739.533,621.62 739.533,606.221 739.533,593C739.533,582.353 739.533,570.444 739.533,561C739.533,553.088 739.533,543.658 739.533,537C739.533,518.571 739.533,499.301 739.533,482C740.265,479.203 739.368,473.285 739.236,468.657C739.105,464.03 738.852,461.092 742.646,463.398C744.01,556.065 743.231,647.821 743.467,745.002C750.401,748.292 763.497,746.707 774.405,746.076C785.314,745.446 794.034,745.794 794.468,755.025C794.468,760.177 794.467,767.184 794.467,771C794.467,781.307 794.467,792.902 794.467,802C781.618,807.58 757.885,802.414 743.718,805.548C743.306,902.552 744.119,995.612 742.467,1087.99ZM963.718,1087.55L963.533,1089C959.31,1085.86 962.672,1072.37 961.527,1064.92C961.527,1039.77 961.533,1014.05 961.533,990L960.533,990C953.217,988.376 941.353,988.86 934.037,988.468C927.062,987.875 916.514,989.717 912.337,987.587C912.337,981.397 912.533,973.89 912.533,969C912.533,956.313 912.533,942.51 912.533,931C927.37,928.755 947.67,931.8 961.272,929.458C961.272,898.28 961.533,866.099 961.533,836C961.533,811.523 961.533,786.378 961.533,763C961.533,743.898 961.533,723.978 961.533,706C961.533,689.593 961.533,672.265 961.533,657C961.533,638.908 961.533,619.962 961.533,603C961.533,583.898 961.533,563.978 961.533,546C961.533,531.282 961.533,515.562 961.533,502C961.533,491.012 961.533,478.79 961.533,469C961.53,460.713 962.831,460.841 964.598,463.583C966.365,466.324 967.602,471.415 965.537,474.736C965.537,626.231 965.467,778.587 965.467,929C979.852,932.316 1007.94,927.129 1015.61,933.368C1016.56,950.367 1016.88,971.161 1015.47,986.924C1001.31,990.517 979.794,986.988 965.726,989.543C965.726,1014.69 965.467,1040.95 965.467,1065C964.458,1071 967.392,1082.97 963.718,1087.55ZM1408.49,1085.85C1408.83,1086.91 1408.21,1086.63 1407.04,1086.55C1405.87,1086.46 1404.78,1087.24 1405.12,1087.52C1405.12,1081.21 1405.53,1071.57 1405.53,1064C1405.53,1028.67 1405.53,994.527 1405.53,958L1404.53,958C1390.22,956.586 1372.35,956.734 1358.03,956.468C1372.69,955.061 1390.34,956.795 1405,956.533L1409,956C1423.72,956 1439.35,956.526 1452.91,956.526C1458.19,958.362 1459.85,955.018 1459.8,951.279C1459.75,947.54 1458.56,943.103 1459.48,941.224C1459.48,927.521 1459.53,912.538 1459.53,900C1442.79,900 1424.6,899.467 1409,899.467L1406,900C1402.23,900 1396.55,899.5 1394.18,899.5C1396.16,897.365 1405.06,900.375 1405.52,898.105C1405.52,868.936 1405.53,839.085 1405.53,811C1405.53,788.201 1405.53,764.693 1405.53,743C1405.53,725.245 1405.53,706.623 1405.53,690C1405.53,674.944 1405.53,658.903 1405.53,645C1405.53,627.919 1405.53,609.944 1405.53,594C1405.53,576.245 1405.53,557.623 1405.53,541C1405.53,526.958 1405.53,511.88 1405.53,499C1405.53,488.693 1405.53,477.098 1405.53,468C1406.13,460.237 1407.27,460.84 1408.82,463.835C1410.37,466.83 1411.34,471.946 1409.54,474.729C1409.54,615.218 1409.47,754.246 1409.47,898C1424.43,900.121 1444.92,898.344 1458.74,900.465C1462.02,910.555 1459.67,926.641 1460.47,938.037C1459.83,941.866 1461.02,947.811 1460.77,952.235C1460.53,956.659 1459.47,958.999 1453.09,956.475C1438.96,957.066 1421.31,955.561 1409.73,957.541C1409.73,992.875 1409.47,1027.47 1409.47,1064C1409.04,1069.88 1410.18,1079.98 1408.49,1085.85ZM299.467,1076L299.533,1077C299.533,1075 299.533,1069.42 299.533,1066L295.533,1066C295.533,1035.49 295.533,1004.43 295.533,975C295.533,948.846 295.533,922.06 295.533,897C295.533,874.536 295.533,851.356 295.533,830C295.533,811.234 295.533,791.639 295.533,774C295.533,758.268 295.533,741.585 295.533,727C295.533,713.635 295.533,699.196 295.533,687C295.533,675.672 295.533,663.135 295.533,653C295.533,637.268 295.533,620.585 295.533,606C295.533,593.992 295.533,580.823 295.533,570C295.533,561.402 295.533,551.359 295.533,544C295.533,523.888 295.533,502.993 295.533,484C296.387,480.971 295.422,474.669 295.226,469.661C295.03,464.653 294.731,461.349 298.66,463.411C299.841,666.028 299.348,871.259 299.467,1076ZM520.467,1070C520.804,1071.06 520.207,1070.63 519.039,1070.55C517.87,1070.46 516.784,1071.24 517.121,1071.52C517.121,924.444 517.533,775.159 517.533,627L516.533,627C502.183,624.605 480.821,627.344 469.087,623.474L468.533,624C469.464,605.829 467.002,583.697 470.491,569.208C484.931,567.241 504.193,569.646 517.271,567.459C517.271,559.204 517.533,549.009 517.533,542C517.533,522.561 517.533,502.316 517.533,484C516.458,480.362 516.82,471.813 517.774,466.525C518.728,461.238 519.213,459.28 520.471,469.068C521.69,501.035 521.324,535.037 521.467,567.005L521.467,569C521.652,570.058 520.877,569.629 519.535,569.541C518.193,569.453 516.484,570.124 516.668,570.417L517,569C501.268,569 484.348,568.523 469.763,568.523C467.745,585.27 469.079,606.937 468.468,623.966C483.168,625.673 502.171,625.089 516.992,625.533L520.533,625C525.483,624.837 528.77,625.517 529.786,625.897C530.801,626.278 528.757,625.893 521.744,626.533C521.744,627.451 521.467,632.6 521.467,635C521.305,779.661 521.715,925.501 520.467,1067.99L520.467,1070ZM1298.47,1067L1297,1068L1295,1068L1295,1067L1294.53,1067C1294.65,865.233 1294.35,663.836 1295.53,461.006L1297.47,461C1298.65,663.83 1298.35,865.233 1298.47,1067ZM1076.47,1062L1076,1063L1074,1063L1073,1062L1072.53,1062C1072.65,861.898 1072.35,662.171 1073.53,461.006L1075.47,461C1076.65,662.165 1076.35,861.899 1076.47,1062ZM1456.56,952.695C1426.2,954.11 1392.82,953.253 1360.24,953.522C1358.77,938.858 1359.41,917.963 1360.53,902.074C1374.43,902.074 1389.94,902.533 1405,902.533C1411.31,902.533 1420.38,902.531 1427.95,902.531C1436.22,904.052 1452.13,899.805 1457.59,905.338C1457.59,913.743 1457.47,924.376 1457.47,934C1457,938.782 1458.32,947.913 1456.56,952.695ZM870.833,874.494C861.153,876.324 846.163,874.955 833.989,875.467L834,875C824.376,875 813.636,874.52 805.231,874.52C803.244,867.566 805.118,856.078 804.531,848.956C804.531,841.388 804.533,832.307 804.533,826C810.659,820.458 827.058,825.025 836.044,823.531C843.613,823.531 852.693,823.533 859,823.533C865.19,823.533 873.11,823.533 878,823.533C883.844,823.533 891.404,823.529 895.938,823.529C909.409,826.803 898.829,854.211 902.49,866.154C904.142,874.658 898.83,875.238 891.493,874.871C884.156,874.503 875.135,872.528 870.833,874.494ZM905.467,869L905.533,870C905.791,854.993 904.587,837.539 905.988,822.533C905.988,837.117 905.467,853.268 905.467,869ZM864.764,820.478C864.605,821.503 862.923,820.617 860.621,820.548C858.319,820.478 855.591,820.217 853.959,820.469L851,821C848.996,821 843.66,820.523 840.238,820.523C840.146,819.247 842.073,820.394 844.445,820.532C846.816,820.671 849.879,820.496 850.486,819.219C850.486,700.317 850.533,586.583 850.533,471C848.646,468.436 849.669,464.387 851.332,462.216C852.995,460.046 854.233,459.774 854.467,466.02C854.467,473.379 854.467,483.402 854.467,492C854.467,502.135 854.467,514.672 854.467,526C854.467,539.562 854.467,555.282 854.467,570C854.467,582.538 854.467,597.297 854.467,611C854.467,622.167 854.467,635.653 854.467,648C854.467,661.221 854.467,676.62 854.467,691C854.467,708.639 854.467,728.234 854.467,747C854.467,770.041 854.467,794.858 854.467,819C855.025,820.446 861.341,820.479 864.764,820.478ZM682.467,724.978C672.077,726.783 656.905,724.969 644.039,725.468C653.719,723.638 669.072,725.985 681.246,725.473C682.476,709.183 682.757,686.338 681.528,668.925C668.841,668.925 654.576,668.471 643.066,668.471C653.274,665.837 671.639,667.241 681.742,668.466C684.961,683.8 682.903,707.108 682.467,724.978ZM579.467,723L579.533,724C580.738,706.213 577.491,682.492 582.428,667.317C592.187,668.445 609.996,665.632 615.832,669.506C611.657,669.506 604.399,668.476 598.901,668.476C596.664,669.393 592.028,668.484 587.833,668.305C583.638,668.126 579.451,669.202 579.467,673.002C579.467,678.248 579.467,686.465 579.467,693C579.467,701.752 579.467,713.034 579.467,723ZM679.476,721.904C649.116,723.32 615.812,722.249 583.229,722.519C585.545,714.522 581.716,698.682 581.696,686.02C581.675,673.359 585.157,664.885 603.923,671.527C620.575,670.576 641.474,670.104 656.886,671.521C659.838,672.598 665.614,671.652 670.694,671.404C675.775,671.156 679.749,671.182 680.476,675.096C680.214,689.759 680.883,707.241 679.476,721.904ZM632.467,668.005C633.007,668.655 632.704,668.391 631.548,668.49C630.393,668.589 629.166,668.573 628.248,668.528C629.133,597.96 626.612,527.439 630.995,461.533C633.917,528.309 631.877,600.063 632.467,668.005ZM571.537,624.736C561.147,626.541 545.905,624.969 533.039,625.468C542.719,623.638 558.071,625.985 570.246,625.473C571.691,609.399 571.636,586.246 570.531,568.958C573.302,566.832 572.722,569.212 572.646,572.668C572.57,576.125 571.948,580.818 572.48,583.119C572.48,589.073 572.467,597.776 572.467,605C572.015,610.148 573.269,619.588 571.537,624.736ZM568.563,621.695C538.203,623.11 504.818,622.253 472.236,622.522C470.773,607.858 471.409,586.963 472.528,571.074C486.431,571.074 501.944,571.533 517,571.533C523.307,571.533 532.384,571.531 539.952,571.531C548.233,573.04 564.19,568.742 569.585,574.335C569.585,582.74 569.467,593.376 569.467,603C569.003,607.782 570.317,616.913 568.563,621.695ZM358.467,567L357.533,568C357.762,550.251 357.178,529.793 358.531,512.045C361.144,508.468 370.666,511.239 374.819,510.501C372.814,514.341 362.272,510.585 358.708,511.554C358.708,528.855 358.467,548.571 358.467,567ZM457.563,563.695C427.203,565.11 393.818,564.253 361.236,564.522C359.773,549.858 360.409,528.963 361.528,513.074C375.431,513.074 390.944,513.533 406,513.533C412.307,513.533 421.384,513.531 428.952,513.531C437.233,515.04 453.19,510.742 458.585,516.335C458.585,524.74 458.467,535.376 458.467,545C458.003,549.782 459.317,558.913 457.563,563.695ZM409.467,510.997L409,512L409,511L406.533,511C408.125,494.836 403.356,472.552 408.958,461.531C412.447,474.046 409.507,498.561 409.467,510.997Z" fill="#897375"/>
<path d="M1237.89,1154.48C1239.52,1147.16 1238.72,1136.84 1239.11,1129.52C1237.48,1136.84 1238.28,1147.16 1237.89,1154.48Z" fill="#665052"/>
<path d="M139.533,1154C172.116,1153.73 205.652,1154.95 236.012,1153.53C203.495,1153.53 170.441,1152.47 139,1152.47L139.533,1154Z" fill="#C4AEB0"/>
<path d="M250.533,1154C282.442,1153.73 315.33,1154.96 345.013,1153.53C313.165,1153.53 280.77,1152.47 250,1152.47L250.533,1154Z" fill="#C3ADB0"/>
<path d="M1141.53,1154C1173.1,1153.72 1205.67,1154.96 1235.01,1153.53C1203.5,1153.53 1171.43,1152.47 1141,1152.47L1141.53,1154Z" fill="#C3ADB0"/>
<path d="M137.468,1152.97L139,1153C170.441,1153 203.721,1153.48 236.238,1153.48C236.062,1138.95 239.95,1112.28 233.344,1100.59C202.723,1101.82 169.383,1101.37 138.762,1101.52C137.083,1116.13 137.896,1135.98 137.468,1152.97Z" fill="#FBE5E7"/>
<path d="M248.468,1152.97L250,1153C280.77,1153 313.152,1153.53 345,1153.53L347.533,1153C347.983,1137.38 346.812,1119.28 348.528,1106.07C348.783,1105.36 348.816,1103.57 348.294,1102.51C347.772,1101.44 346.05,1100.51 343.884,1101.48C312.371,1101.48 280.197,1101.52 249.763,1101.52C248.084,1116.13 248.896,1135.98 248.468,1152.97Z" fill="#FBE5E7"/>
<path d="M346.927,1152.47C348.644,1139.26 347.623,1122.15 348.073,1106.53C346.356,1119.74 347.377,1136.85 346.927,1152.47Z" fill="#DFC9CB"/>
<path d="M349.871,1152.48C351.564,1146.61 350.698,1137.39 351.129,1131.52C349.436,1137.39 350.302,1146.61 349.871,1152.48Z" fill="#6A5456"/>
<path d="M1137.53,1152.76L1141,1153C1171.43,1153 1203.72,1153.48 1235.24,1153.48C1236.66,1138.77 1236.48,1117.89 1235.53,1101.94C1205.35,1101.94 1174.01,1101.47 1144.92,1101.47C1130.9,1105.77 1141.51,1137.3 1137.53,1152.76Z" fill="#FBE5E7"/>
<path d="M1133.7,1149.56C1137.44,1145.73 1135.26,1134.71 1136.3,1129.44C1132.56,1133.27 1134.74,1144.29 1133.7,1149.56Z" fill="#6F595B"/>
<path d="M406.467,1127.01L410.533,1126C410.533,940.626 410.533,756.578 410.533,568C406.415,567.284 404.914,571.874 405.226,577.333C405.538,582.792 406.63,588.931 405.501,591.812C405.636,770.127 405.261,948.692 406.467,1127.01Z" fill="#200C0D"/>
<path d="M628.467,1127.01L632.533,1126C632.358,992.505 632.8,859.572 631.533,724.984C625.788,727.152 628.983,740.692 627.487,745.854C627.67,872.691 627.187,999.077 628.467,1127.01Z" fill="#1F0A0C"/>
<path d="M851.468,1127.04L855.533,1126C855.533,1043.82 855.533,963.472 855.533,879L855,877C853.564,877 849.889,877.533 850,877.533L849.467,879C849.983,961.809 848.668,1046.51 851.468,1127.04Z" fill="#291416"/>
<path d="M1072.69,1126.57C1075.42,1127.58 1076.75,1126.24 1076.69,1124.11C1076.63,1121.98 1075.79,1119.92 1076.31,1119.43C1073.58,1118.42 1072.25,1119.76 1072.31,1121.89C1072.37,1124.02 1073.21,1126.08 1072.69,1126.57Z" fill="#281215"/>
<path d="M1237.54,1127.26L1239.53,1126C1239.24,1120.73 1241.26,1111.75 1240.84,1105.09C1240.42,1098.44 1237,1093.58 1226.96,1097.47C1219.59,1095.81 1206.86,1098.42 1197.43,1098.13C1188.01,1097.85 1182.41,1095.43 1188.49,1082.21C1188.27,1077.06 1186.36,1074.78 1185.19,1075.28C1184.01,1075.78 1182.54,1078.84 1182.47,1081.99C1182.87,1083.72 1183.79,1088.28 1183.77,1092.12C1183.76,1095.96 1183.43,1098.58 1180.09,1097.47C1173.9,1097.47 1165.89,1097.47 1161,1097.47C1155.16,1097.47 1147.59,1097.47 1143.06,1097.47C1136.17,1095.94 1133.33,1097.92 1132.67,1100.95C1132.01,1103.99 1132.95,1108.56 1132.47,1112.94C1131.59,1116.84 1132.66,1122.12 1133.77,1124.4C1134.88,1126.67 1137.08,1125.95 1136.53,1118.96C1137.31,1115.96 1136.43,1110.92 1136.29,1106.77C1136.15,1102.61 1136.19,1099.91 1139.96,1100.53C1147.52,1100.53 1156.69,1100.53 1163,1100.53C1169.54,1100.53 1177.74,1100.53 1182.98,1100.53C1200.73,1101.55 1222.73,1098.79 1236.71,1102.45C1236.82,1110.94 1235.92,1121.51 1237.54,1127.26Z" fill="#6B5557"/>
<path d="M1293.47,1127C1294.34,1127.15 1296.24,1127.67 1297.15,1127.5C1298.07,1127.33 1298.86,1126.06 1298.33,1125.58C1300.45,1124.34 1299.18,1123.68 1297.65,1123.46C1296.11,1123.24 1293.49,1124.11 1293.52,1124.22L1294,1126L1293.47,1127Z" fill="#2E181A"/>
<path d="M409.467,1126C410.535,940.679 411.067,752.788 409.999,567.467C409.999,756.045 409.467,940.626 409.467,1126Z" fill="#483234"/>
<path d="M631.995,1126.53C632.914,994.421 633.355,856.579 630.998,724.467C632.266,859.054 631.821,993.038 631.995,1126.53Z" fill="#4D3739"/>
<path d="M1292.96,1126.53L1294,1126L1293.47,1124C1282.62,1124.32 1268.8,1122.97 1257.96,1124.47C1268.45,1124.79 1282.46,1125.02 1292.96,1126.53Z" fill="#604A4C"/>
<path d="M1249.53,1122C1282.45,1121.73 1316.55,1122.88 1347.25,1121.47C1346.2,1104.76 1349.17,1082.64 1345.46,1069.73C1335.84,1069.73 1324.4,1069.47 1316,1069.47C1302.97,1069.47 1288.84,1069.47 1276.98,1069.47C1267.93,1070.04 1255.15,1068.6 1248.7,1070.56C1248.7,1087.3 1248.47,1105.4 1248.47,1121L1249.53,1122Z" fill="#FBE5E7"/>
<path d="M1247.47,1120.97L1249.53,1121C1249.53,1105.4 1249.53,1087.74 1249.53,1071C1247.85,1085.26 1247.9,1104.32 1247.47,1120.97Z" fill="#D9C3C5"/>
<path d="M1122.72,1119.55C1123.63,1119.59 1125.48,1120.65 1126.64,1120.55C1127.79,1120.45 1128.96,1119.32 1128.42,1118.67C1130.52,1114.93 1128.92,1106 1129.53,1102.08C1128.03,1090.9 1131.71,1072.17 1125.89,1066.48C1123.96,1082.94 1129.42,1111.62 1122.72,1119.55Z" fill="#6E585A"/>
<path d="M1026.47,1117.08C1059.06,1116.81 1093.89,1117.89 1124.25,1116.47C1124.58,1100.79 1126.93,1077.78 1123.47,1064.75C1091.62,1064.75 1058.53,1064.52 1027.76,1064.52C1025.07,1079.18 1025.37,1102.42 1026.47,1117.08Z" fill="#FAE4E6"/>
<path d="M138.991,1101.47C169.612,1101.32 202.389,1102.76 233.009,1101.53C202.388,1101.68 169.611,1100.24 138.991,1101.47Z" fill="#CEB8BA"/>
<path d="M249.992,1101.47C280.426,1101.47 312.498,1102.53 344.011,1102.53C314.477,1101.26 280.675,1100.52 249.992,1101.47Z" fill="#CDB7B9"/>
<path d="M1144.99,1101.47C1174.08,1101.47 1204.84,1102.53 1235.01,1102.53C1206.84,1101.25 1174.32,1100.52 1144.99,1101.47Z" fill="#CFB9BB"/>
<path d="M183.467,1100C184.385,1100.05 186.484,1100.65 187.639,1100.55C188.795,1100.45 189.972,1099.34 189.432,1098.69C189.202,885.605 189.384,671.431 187.035,460.468C188.507,487.161 187.163,517.233 187.467,544.006C187.467,572.506 187.467,601.587 187.467,629C187.467,653.142 187.467,677.959 187.467,701C187.467,721.112 187.467,742.007 187.467,761C187.467,778.081 187.467,796.056 187.467,812C187.467,826.38 187.467,841.779 187.467,855C186.418,936.396 189.1,1018.67 183.472,1098.93L183.467,1100Z" fill="#4A3436"/>
<path d="M183.467,1099C189.095,1018.75 187.484,936.403 188.533,855.007C188.533,841.786 188.533,826.38 188.533,812C188.533,796.056 188.533,778.081 188.533,761C188.533,742.007 188.533,721.112 188.533,701C188.533,677.959 188.533,653.142 188.533,629C188.533,601.587 188.533,572.5 188.533,544C188.229,517.227 188.467,487.16 186.995,460.467C183.174,587.907 184.003,719.368 183.467,848.998C183.467,871.365 183.467,895.529 183.467,919C183.467,945.741 183.467,974.17 183.467,1002C183.467,1033.44 183.467,1066.48 183.467,1099Z" fill="#220D0E"/>
<path d="M518.918,1089.53C520.26,1088.76 521.65,1084.23 521.702,1080.43C521.754,1076.62 520.401,1072.48 518.851,1072.49C514.94,1075.26 517.391,1087.96 518.918,1089.53Z" fill="#60494B"/>
<path d="M738.467,1089C739.34,1089.15 741.236,1089.67 742.151,1089.5C743.065,1089.33 743.929,1088.12 743.397,1087.64C745.05,995.266 744.12,903.009 744.533,806.005L742.467,805C742.467,818.026 742.467,832.147 742.467,844C742.467,854.988 742.467,867.21 742.467,877C742.467,892.732 742.467,909.415 742.467,924C742.467,935.668 742.467,948.521 742.467,959C742.467,967.94 742.467,978.292 742.467,986C742.467,1005.78 742.467,1026.35 742.467,1045C741.427,1048.26 742.459,1053.98 742.734,1058.76C743.01,1063.54 742.841,1066.9 738.779,1066.51C738.779,1073.74 738.467,1083.05 738.467,1089Z" fill="#5E484A"/>
<path d="M962.814,1089.5L964.533,1088C968.207,1083.42 965.497,1071.17 966.505,1065.17C965.069,1065.17 960.653,1065.48 960.764,1065.48C961.909,1072.93 958.592,1086.36 962.814,1089.5Z" fill="#644E50"/>
<path d="M1404.47,1087C1405.34,1087.15 1407.24,1087.67 1408.15,1087.5C1409.07,1087.33 1409.92,1086.12 1409.39,1085.64C1411.09,1079.76 1410.1,1069.95 1410.53,1064.08C1409.09,1064.08 1404.65,1064.48 1404.76,1064.48C1404.76,1072.05 1404.47,1080.69 1404.47,1087Z" fill="#624C4E"/>
<path d="M1182.87,1081.48C1182.94,1078.33 1184.43,1076.76 1185.6,1076.26C1186.78,1075.76 1187.79,1077.38 1188.01,1082.53C1187.89,876.005 1188.18,667.933 1187,462.467C1187,493.311 1186.47,525.237 1186.47,555C1186.05,726.649 1187.64,897.818 1184,1069.47C1184,867.579 1184.53,667.014 1184.53,463C1183.35,668.466 1182.99,874.956 1182.87,1081.48Z" fill="#5B4547"/>
<path d="M298.467,1077L300.533,1076C300.414,871.259 300.18,665.085 298.999,462.467C298.999,662.812 298.467,862.465 298.467,1066C298.467,1069.42 298.467,1075 298.467,1077Z" fill="#5F494B"/>
<path d="M516.467,1071C517.34,1071.15 519.236,1071.67 520.151,1071.5C521.065,1071.33 521.75,1069.99 521.218,1069.51L521.533,1068C521.695,923.339 521.285,777.494 522.533,635.005C522.533,632.605 522.533,627.918 522.533,627L520,625L517,625L516.467,627C516.467,775.159 516.467,923.925 516.467,1071Z" fill="#432D2F"/>
<path d="M1183.47,1070C1187.11,898.351 1187.11,726.651 1187.53,555.001C1187.53,525.238 1187.53,493.844 1187.53,463C1187.72,461.79 1185.89,461.176 1184.9,461.43C1183.9,461.684 1182.9,463.255 1183.71,463.45C1183.71,667.464 1183.47,868.112 1183.47,1070Z" fill="#402A2C"/>
<path d="M1276.98,1069.47C1288.83,1069.47 1303.01,1070.53 1316.04,1070.53C1305.59,1069.03 1288.73,1068.5 1276.98,1069.47Z" fill="#A18B8D"/>
<path d="M520.991,1067.47C522.239,924.978 521.847,780.194 522.009,635.533C520.761,778.022 521.153,922.806 520.991,1067.47Z" fill="#6D5759"/>
<path d="M1295,1068L1297.53,1068C1298.72,867.175 1298.41,666.078 1298.53,461.001L1294.47,461C1294.47,662.767 1294.47,864.17 1294.47,1067L1295,1068Z" fill="#1D0709"/>
<path d="M1296.47,1067.99L1299.53,1067C1299.41,865.233 1299.18,663.297 1298,460.467C1297.88,665.544 1297.65,867.168 1296.47,1067.99Z" fill="#3E282A"/>
<path d="M738.467,1067C742.529,1067.38 744.074,1063.48 743.799,1058.7C743.523,1053.92 742.469,1048.42 743.509,1045.16C743.509,1026.5 743.533,1005.78 743.533,986C743.533,978.292 743.533,967.94 743.533,959C743.533,948.521 743.533,935.668 743.533,924C743.533,909.415 743.533,892.732 743.533,877C743.533,867.21 743.533,854.988 743.533,844C743.533,832.147 743.533,818.026 743.533,805L743,803L739,803L738.467,806C738.467,894.045 738.467,980.092 738.467,1067Z" fill="#432D2F"/>
<path d="M1293.47,1067L1295.53,1067C1295.53,864.17 1295.53,662.767 1295.53,461C1294.35,663.83 1293.59,865.232 1293.47,1067Z" fill="#3E282A"/>
<path d="M294.467,1066L299.533,1066C299.533,862.465 299.533,663.345 299.533,463C295.604,460.939 293.965,464.695 294.161,469.703C294.356,474.711 295.34,480.829 294.486,483.858C294.486,502.851 294.467,523.888 294.467,544C294.467,551.359 294.467,561.402 294.467,570C294.467,580.823 294.467,593.992 294.467,606C294.467,620.585 294.467,637.268 294.467,653C294.467,663.135 294.467,675.672 294.467,687C294.467,699.196 294.467,713.635 294.467,727C294.467,741.585 294.467,758.268 294.467,774C294.467,791.639 294.467,811.234 294.467,830C294.467,851.356 294.467,874.536 294.467,897C294.467,922.06 294.467,948.846 294.467,975C294.467,1004.43 294.467,1035.49 294.467,1066Z" fill="#442E30"/>
<path d="M960.467,1065C961.903,1065 966.349,1064.52 966.238,1064.52C966.238,1040.47 966.533,1015.15 966.533,990L966,987C964.564,987 960.889,987.533 961,987.533L960.467,990C960.467,1014.05 960.467,1039.85 960.467,1065Z" fill="#493335"/>
<path d="M1027.99,1064.47C1058.76,1064.47 1091.16,1065.53 1123.01,1065.53C1093.14,1064.26 1059.01,1063.52 1027.99,1064.47Z" fill="#B7A1A3"/>
<path d="M1404.47,1064C1405.9,1064 1410.35,1063.52 1410.24,1063.52C1410.24,1027 1410.53,993.334 1410.53,958L1409,956L1405,956L1404.47,958C1404.47,994.527 1404.47,1028.67 1404.47,1064Z" fill="#493335"/>
<path d="M1074,1063L1076.53,1063C1076.53,862.776 1076.53,663.35 1076.53,461L1072.47,461C1072.47,661.102 1072.47,860.835 1072.47,1062L1074,1063Z" fill="#1D0709"/>
<path d="M1075.47,1063L1077.53,1062C1077.41,861.898 1077.18,661.632 1076,460.467C1076,662.817 1075.47,862.776 1075.47,1063Z" fill="#3D2729"/>
<path d="M1071.47,1062L1073.53,1062C1073.53,860.835 1073.53,661.102 1073.53,461C1072.35,662.165 1071.59,861.898 1071.47,1062Z" fill="#3D2729"/>
<path d="M959.941,990.53L961,990L961,987C945.606,987 929.461,986.513 915.217,986.513C913.121,982.418 915.141,973.201 914.528,968.925C913.907,957.198 915.548,941.914 913.494,932.801C928.194,931.094 946.187,932.977 961.008,932.533L960.467,929C946.865,931.342 926.569,928.294 911.732,930.539C911.732,942.049 911.467,956.313 911.467,969C911.467,973.89 911.467,981.81 911.467,988C915.644,990.13 926.988,988.938 933.963,989.532C941.28,989.924 952.625,988.906 959.941,990.53Z" fill="#6B5557"/>
<path d="M966.533,990C980.601,987.445 1001.89,991.122 1016.06,987.53C1001.92,988.048 981.48,986.162 965.995,986.467L966.533,990Z" fill="#6D5759"/>
<path d="M914.628,987.381C928.872,987.381 945.606,987.533 961,987.533C962.436,987.533 966.116,986.467 966.005,986.467C981.491,986.162 1002.11,987.991 1016.24,987.474C1017.66,971.71 1017.48,949.94 1016.53,932.941L1015.53,933C1000.18,931.606 981.355,931.721 966.004,931.467C964.568,931.467 960.881,932.533 960.992,932.533C946.171,932.977 927.443,930.826 912.743,932.533C914.797,941.646 912.847,957.301 913.468,969.028C914.081,973.305 912.532,983.287 914.628,987.381ZM1011.52,984.77C981.498,986.189 948.243,985.195 915.998,985.467L916,985L915.533,985C915.961,968.01 914.842,948.721 916.52,934.116C948.221,933.164 982.198,933.204 1012.75,934.473C1013.16,950.235 1014.82,971.589 1011.52,984.77Z" fill="#8A7476"/>
<path d="M916.533,986C948.779,985.728 981.991,986.952 1012.01,985.533C979.83,985.533 947.105,984.467 916,984.467L916.533,986Z" fill="#C7B1B3"/>
<path d="M914.468,984.973L916,985C947.105,985 980.05,985.48 1012.23,985.48C1015.53,972.298 1013.94,949.735 1013.53,933.972C981.015,933.972 947.203,933.523 915.763,933.523C914.084,948.128 914.896,967.983 914.468,984.973Z" fill="#FBE5E7"/>
<path d="M1403.97,958.532L1405,958L1404.47,956C1389.8,956.262 1372.63,955.061 1357.97,956.468C1372.29,956.734 1389.66,957.118 1403.97,958.532Z" fill="#644E50"/>
<path d="M1410.53,958C1422.12,956.02 1438.88,958.124 1453.01,957.533L1453,956C1439.44,956 1423.72,955.467 1409,955.467L1410.53,958Z" fill="#634D4F"/>
<path d="M1452.47,957C1458.85,959.524 1461.59,956.718 1461.83,952.294C1462.08,947.87 1460.88,941.916 1461.53,938.088C1460.73,926.691 1462.23,909.558 1458.96,899.469C1458.96,912.006 1458.47,927.297 1458.47,941C1457.55,942.879 1458.68,947.554 1458.73,951.293C1458.78,955.032 1458.37,957.311 1453.09,955.475L1452.47,957Z" fill="#695355"/>
<path d="M1359.48,954.105C1392.06,953.836 1426.88,954.894 1457.24,953.478C1458.99,948.696 1458.07,938.833 1458.53,934.051C1458.53,924.427 1458.53,913.405 1458.53,905C1453.08,899.467 1436.32,902.99 1428.05,901.469C1420.48,901.469 1411.31,901.467 1405,901.467C1389.94,901.467 1373.67,901.523 1359.76,901.523C1358.64,917.412 1358.01,939.441 1359.48,954.105Z" fill="#FBE5E7"/>
<path d="M915.992,933.467C947.432,933.467 980.494,934.533 1013.01,934.533C982.455,933.264 947.692,932.515 915.992,933.467Z" fill="#D8C2C4"/>
<path d="M1014.98,933.532L1016.53,933C1008.86,926.761 980.446,931.786 966.061,928.471L965.467,932C980.818,932.254 999.625,932.139 1014.98,933.532Z" fill="#695355"/>
<path d="M961,932C962.436,932 966.111,931.467 966,931.467L966.533,929C966.533,778.587 966.533,626.495 966.533,475C968.598,471.679 967.261,465.747 965.494,463.005C963.727,460.264 960.464,460.713 960.467,469C960.467,478.79 960.467,491.012 960.467,502C960.467,515.562 960.467,531.282 960.467,546C960.467,563.978 960.467,583.898 960.467,603C960.467,619.962 960.467,638.908 960.467,657C960.467,672.265 960.467,689.593 960.467,706C960.467,723.978 960.467,743.898 960.467,763C960.467,786.378 960.467,811.523 960.467,836C960.467,866.099 960.467,897.821 960.467,929L961,932Z" fill="#483234"/>
<path d="M1358.96,899.469C1370.09,898.936 1384.44,901.401 1393.04,899.531C1381.91,900.064 1367.56,897.599 1358.96,899.469Z" fill="#614B4D"/>
<path d="M1393.75,899.531C1396.12,899.531 1402.23,900.533 1406,900.533L1404.47,898C1404,900.269 1395.72,897.396 1393.75,899.531Z" fill="#604A4C"/>
<path d="M1406,900L1409,900L1410.53,898C1410.53,754.246 1410.53,615.488 1410.53,475C1412.33,472.216 1411.32,466.339 1409.77,463.345C1408.21,460.35 1405.06,460.196 1404.47,467.959C1404.47,477.058 1404.47,488.693 1404.47,499C1404.47,511.88 1404.47,526.958 1404.47,541C1404.47,557.623 1404.47,576.245 1404.47,594C1404.47,609.944 1404.47,627.919 1404.47,645C1404.47,658.903 1404.47,674.944 1404.47,690C1404.47,706.623 1404.47,725.245 1404.47,743C1404.47,764.693 1404.47,788.201 1404.47,811C1404.47,839.085 1404.47,868.83 1404.47,898L1406,900Z" fill="#483234"/>
<path d="M1409,900C1424.6,900 1442.3,900.531 1459.04,900.531C1445.22,898.411 1425,899.59 1410.04,897.468L1409,900Z" fill="#614B4D"/>
<path d="M802.793,879.491C818.682,881.004 834.39,876.958 849.956,879.531L850.533,877C835.744,876.185 815.718,877.863 802.287,874.551C802.287,857.469 802.533,839.944 802.533,824C807.314,817.453 832.314,824.222 836.171,820.505C829.308,821.954 817.773,818.405 809.452,819.036C801.131,819.668 795.35,824.153 800.498,838.179C800.498,843.779 800.467,852.12 800.467,859C801.657,863.764 798.611,876.449 802.793,879.491Z" fill="#5B4547"/>
<path d="M855.533,879C860.057,876.866 870.739,879.136 878.046,878.531C884.659,877.919 895.242,879.575 899.136,877.515C885.574,877.515 869.718,876.467 855,876.467L855.533,879Z" fill="#5A4446"/>
<path d="M877.467,879C880.241,879.513 890.815,879.926 897.75,879.489C904.685,879.052 908.413,877.24 898.898,876.477C895.004,878.537 884.588,876.856 877.975,877.468L877.467,879Z" fill="#6E585A"/>
<path d="M834.533,876C846.707,875.488 861.37,877.361 871.05,875.531C858.703,875.531 845.167,874.467 834,874.467L834.533,876Z" fill="#A38D8F"/>
<path d="M801.467,875C802.894,860.289 802.945,839.424 801.992,823.467C801.992,839.411 801.467,857.919 801.467,875Z" fill="#745E60"/>
<path d="M804.537,875.264C812.942,875.264 824.376,875.533 834,875.533C845.167,875.533 858.761,875.522 871.108,875.522C875.411,873.556 884.102,875.568 891.44,875.936C898.777,876.303 905.175,874.401 903.523,865.897C899.862,853.953 909.535,825.744 896.064,822.471C891.531,822.471 883.844,822.467 878,822.467C873.11,822.467 865.19,822.467 859,822.467C852.693,822.467 843.525,822.469 835.956,822.469C826.971,823.962 809.727,820.104 803.601,825.646C803.601,831.953 803.467,841.432 803.467,849C804.054,856.122 802.55,868.311 804.537,875.264Z" fill="#FBE5E7"/>
<path d="M904.467,869.982L906.533,869C906.533,853.268 906.533,836.585 906.533,822C905.133,837.007 904.725,854.975 904.467,869.982Z" fill="#5E484A"/>
<path d="M839.472,821.076C842.894,821.076 848.996,821.533 851,821.533L849.467,819C848.86,820.277 846.878,819.606 844.507,819.468C842.135,819.33 839.38,819.8 839.472,821.076Z" fill="#574143"/>
<path d="M851,821L854,821L855.533,819C855.533,794.858 855.533,770.041 855.533,747C855.533,728.234 855.533,708.639 855.533,691C855.533,676.62 855.533,661.221 855.533,648C855.533,635.653 855.533,622.167 855.533,611C855.533,597.297 855.533,582.538 855.533,570C855.533,555.282 855.533,539.562 855.533,526C855.533,514.672 855.533,502.135 855.533,492C855.533,483.402 855.533,473.359 855.533,466C855.299,459.754 852.149,459.397 850.486,461.568C848.822,463.738 847.667,468.728 849.554,471.293C849.554,586.876 849.467,700.098 849.467,819L851,821Z" fill="#291315"/>
<path d="M854.533,821C856.165,820.749 858.286,821.544 860.589,821.613C862.891,821.682 865.35,821.183 865.509,820.158C862.086,820.159 855.98,820.121 855.422,818.674L854.533,821Z" fill="#574143"/>
<path d="M737.856,806.513L739,806L739,803C722.931,803 706.163,802.523 691.238,802.523C691.238,784.431 691.533,765.962 691.533,749C690.303,765.29 689.243,787.662 690.472,805.075C699.917,805.075 712.312,805.531 722.959,805.531C726.262,806.045 734.554,804.663 737.856,806.513Z" fill="#665052"/>
<path d="M744.533,806C758.7,802.867 782.474,808.004 795.323,802.424C795.323,793.325 795.533,781.307 795.533,771C795.533,767.184 795.533,760.152 795.533,755L793.467,755C793.467,770.732 793.467,787.415 793.467,802C777.43,803.381 759.033,802.221 742.996,802.467L743,805L744.533,806Z" fill="#644E50"/>
<path d="M690.467,803C705.392,803 722.931,803.533 739,803.533L743.533,803C759.57,802.754 778.218,803.849 794.255,802.468C794.255,787.883 794.533,770.732 794.533,755C788.366,741.729 757.698,751.156 743.067,747.471L738.467,748C722.627,748.567 704.069,746.61 690.733,748.538C690.733,765.5 690.467,784.908 690.467,803ZM790.47,800.94C760.11,802.355 726.818,801.253 694.236,801.522C692.594,786.679 693.703,766.233 694.53,750.053C726.231,749.101 760.199,749.204 790.755,750.473C792.182,765.184 791.423,784.983 790.47,800.94Z" fill="#8E7779"/>
<path d="M693.48,802.116C726.062,801.847 760.887,802.888 791.247,801.472C792.2,785.515 792.95,764.609 791.523,749.898C759.006,749.898 725.202,749.523 693.762,749.523C692.934,765.703 691.839,787.274 693.48,802.116Z" fill="#FBE5E7"/>
<path d="M793.61,755.363L795.533,755C795.099,745.769 785.252,744.382 774.344,745.012C763.436,745.643 751.057,747.772 744.123,744.481L743,746L742.467,748C757.099,751.685 787.442,742.091 793.61,755.363Z" fill="#675153"/>
<path d="M693.992,749.467C725.432,749.467 758.494,750.533 791.011,750.533C760.455,749.264 725.692,748.515 693.992,749.467Z" fill="#BDA7A9"/>
<path d="M690.92,748.473C704.256,746.544 723.169,749.1 739.01,748.533L738.467,745C725.308,748.125 702.827,742.962 690.92,748.473Z" fill="#685254"/>
<path d="M739,748L743,748L743.533,746C743.533,651.969 743.533,560.417 743.533,463C739.739,460.694 738.039,464.06 738.171,468.688C738.302,473.315 739.216,479.07 738.484,481.867C738.484,499.168 738.467,518.571 738.467,537C738.467,543.658 738.467,553.088 738.467,561C738.467,570.444 738.467,582.353 738.467,593C738.467,606.221 738.467,621.62 738.467,636C738.467,644.752 738.467,656.034 738.467,666C738.467,676.823 738.467,689.992 738.467,702C738.467,715.221 738.467,730.62 738.467,745L739,748Z" fill="#432D2F"/>
<path d="M742.467,746L744.533,745C744.297,647.819 744.362,555.134 742.998,462.467C742.998,559.884 742.467,651.969 742.467,746Z" fill="#5D4749"/>
<path d="M617.499,726.183C618.84,725.984 621.655,726.57 623.607,726.612C625.56,726.655 627.652,725.789 627.501,724.817C626.16,725.016 623.345,724.43 621.393,724.388C619.44,724.345 617.348,725.211 617.499,726.183Z" fill="#584244"/>
<path d="M633.499,726.183C634.84,725.984 637.655,726.57 639.607,726.612C641.56,726.655 643.652,725.789 643.501,724.817C642.16,725.016 639.345,724.43 637.393,724.388C635.44,724.345 633.348,725.211 633.499,726.183Z" fill="#584244"/>
<path d="M643.96,725.468C656.826,724.97 672.882,727.263 683.272,725.458C683.708,707.589 685.711,683.128 682.491,667.794L680.467,669C681.696,686.412 681.702,708.634 680.473,724.924C668.298,725.436 653.64,723.638 643.96,725.468Z" fill="#614B4D"/>
<path d="M578.472,723.928L580.533,723C580.533,713.034 580.533,701.752 580.533,693C580.533,686.465 580.533,678.246 580.533,673C580.517,669.2 583.593,669.191 587.788,669.37C591.983,669.549 596.87,670.439 599.107,669.522C604.605,669.522 611.967,669.514 616.142,669.514C610.306,665.64 591.552,667.637 581.793,666.509C576.856,681.683 579.677,706.141 578.472,723.928Z" fill="#664F51"/>
<path d="M582.54,722.731C615.122,722.462 649.886,723.888 680.246,722.473C681.653,707.81 681.271,689.672 681.533,675.01C680.806,671.095 675.723,670.092 670.643,670.34C665.562,670.588 660.047,671.553 657.096,670.476C639.34,670.476 620.71,670.474 604.088,670.474C585.322,663.832 580.609,673.361 580.63,686.022C580.65,698.684 584.856,714.735 582.54,722.731Z" fill="#FBE5E7"/>
<path d="M603.985,670.467C620.608,670.467 639.269,671.532 657.024,671.532C641.612,670.116 620.637,669.516 603.985,670.467Z" fill="#A48E90"/>
<path d="M627.467,668.987C628.385,669.032 630.483,669.651 631.639,669.552C632.795,669.453 633.815,668.193 633.275,667.543L632.533,668C632.232,599.072 632.495,531.733 631.026,460.468C626.643,526.373 628.353,598.419 627.467,668.987Z" fill="#1F090B"/>
<path d="M642.932,668.471C654.442,668.471 668.313,669.533 681,669.533L682.533,668C672.43,666.774 653.139,665.838 642.932,668.471Z" fill="#685254"/>
<path d="M631.467,668.005L633.533,668C632.943,600.058 633.917,527.243 630.995,460.467C632.465,531.733 631.166,599.077 631.467,668.005Z" fill="#4C3638"/>
<path d="M515.956,627.531L517,627L517.533,625C502.712,624.556 483.647,625.177 468.947,623.47C480.682,627.34 501.606,625.137 515.956,627.531Z" fill="#675153"/>
<path d="M522.533,627C529.547,626.36 531.176,625.28 530.16,624.899C529.144,624.518 524.941,624.304 519.991,624.467L522.533,627Z" fill="#675153"/>
<path d="M532.96,625.468C545.826,624.97 561.873,627.269 572.263,625.463C573.995,620.316 573.079,610.195 573.531,605.047C573.531,597.822 573.533,588.954 573.533,583C573.001,580.699 573.636,576.148 573.712,572.692C573.787,569.235 572.391,566.5 569.621,568.625C570.726,585.913 570.92,608.835 569.475,624.909C557.3,625.422 542.64,623.638 532.96,625.468Z" fill="#6C5658"/>
<path d="M467.47,623.946L469.533,624C470.144,606.972 468.028,586.279 470.046,569.531C466.557,584.02 468.401,605.774 467.47,623.946Z" fill="#685254"/>
<path d="M471.477,623.105C504.06,622.836 538.876,623.894 569.236,622.478C570.989,617.696 570.067,607.833 570.531,603.051C570.531,593.427 570.533,582.405 570.533,574C565.138,568.407 548.329,571.978 540.048,570.469C532.48,570.469 523.307,570.467 517,570.467C501.944,570.467 485.665,570.523 471.762,570.523C470.643,586.412 470.015,608.441 471.477,623.105Z" fill="#FBE4E6"/>
<path d="M517.533,570C517.349,569.707 518.123,570.517 519.465,570.605C520.808,570.693 522.688,569.882 522.503,568.824C521.067,568.824 516.889,569.533 517,569.533L517.533,570Z" fill="#705A5C"/>
<path d="M469.964,568.468C484.548,568.468 501.268,569.533 517,569.533L516.467,567C503.389,569.187 484.404,566.501 469.964,568.468Z" fill="#644E50"/>
<path d="M517,569C518.436,569 522.111,568.467 522,568.467L522,567L521.533,567C521.533,534.148 521.533,500.776 521.533,469C520.274,459.213 517.679,461.049 516.725,466.336C515.771,471.623 515.413,480.51 516.488,484.148C516.488,502.464 516.467,522.561 516.467,542C516.467,549.009 516.467,558.745 516.467,567L517,569Z" fill="#432D2F"/>
<path d="M356.467,567.986L359.533,567C359.533,548.571 359.533,529.301 359.533,512L357.467,512C356.113,529.749 356.696,550.237 356.467,567.986Z" fill="#6B5557"/>
<path d="M520.467,567L522.533,567C522.39,535.032 522.214,500.435 520.995,468.467C520.995,500.243 520.467,534.148 520.467,567Z" fill="#6E585A"/>
<path d="M360.477,565.105C393.06,564.836 427.876,565.894 458.236,564.478C459.989,559.696 459.067,549.833 459.531,545.051C459.531,535.427 459.533,524.405 459.533,516C454.138,510.407 437.329,513.978 429.048,512.469C421.48,512.469 412.307,512.467 406,512.467C390.944,512.467 374.665,512.523 360.762,512.523C359.643,528.412 359.015,550.441 360.477,565.105Z" fill="#FAE4E6"/>
<path d="M357.699,511.56L359.533,512C363.097,511.031 373.32,514.262 375.325,510.423C371.172,511.16 360.312,507.983 357.699,511.56Z" fill="#725C5E"/>
<path d="M409,512L410.533,511C410.573,498.564 412.456,472.983 408.966,460.468C410.093,475.656 409.95,496.934 408.478,510.89L409,512Z" fill="#483234"/>
<path d="M446.951,512.531C455.58,513.194 458.729,511.28 457.809,510.362C456.889,509.443 451.905,508.458 445.956,509.469C436.467,509.415 434.404,510.727 435.916,511.123C437.428,511.519 442.509,512.061 446.951,512.531Z" fill="#6D5759"/>
<path d="M405.477,510.897L409.533,511C411.004,497.044 410.437,475.754 409.31,460.566C403.708,471.587 407.069,494.733 405.477,510.897Z" fill="#200C0E"/>
</g>
<g id="layer1">
<path d="M113,1495C127.665,1495 142.335,1495 157,1495C171.213,1495 187.067,1495 200,1495C214.665,1495 229.335,1495 244,1495C258.213,1495 274.067,1495 287,1495C301.665,1495 316.335,1495 331,1495C345.213,1495 361.067,1495 374,1495C388.213,1495 404.067,1495 417,1495C431.213,1495 447.067,1495 460,1495C474.665,1495 489.335,1495 504,1495C518.213,1495 534.067,1495 547,1495C561.665,1495 576.335,1495 591,1495C605.213,1495 621.067,1495 634,1495C648.665,1495 663.335,1495 678,1495C692.213,1495 708.067,1495 721,1495C735.213,1495 751.067,1495 764,1495C778.213,1495 794.067,1495 807,1495C821.665,1495 836.335,1495 851,1495C865.213,1495 881.067,1495 894,1495C908.665,1495 923.335,1495 938,1495C952.213,1495 968.067,1495 981,1495C995.665,1495 1010.33,1495 1025,1495C1039.21,1495 1055.07,1495 1068,1495C1082.21,1495 1098.07,1495 1111,1495C1125.21,1495 1141.07,1495 1154,1495C1168.67,1495 1183.33,1495 1198,1495C1212.21,1495 1228.07,1495 1241,1495C1255.21,1495 1271.07,1495 1284,1495C1298.21,1495 1314.07,1495 1327,1495C1341.67,1495 1356.33,1495 1371,1495C1385.21,1495 1401.07,1495 1414,1495C1428.21,1495 1444.07,1495 1457,1495C1471.54,1495.32 1491.92,1499.85 1484,1479C1484,1464.33 1484,1449.67 1484,1435C1484,1420.79 1484,1404.93 1484,1392C1484,1377.33 1484,1362.67 1484,1348C1484,1333.79 1484,1317.93 1484,1305C1484,1290.33 1484,1275.67 1484,1261C1484,1246.79 1484,1230.93 1484,1218C1484,1203.79 1484,1187.93 1484,1175C1484,1160.79 1484,1144.93 1484,1132C1484,1117.33 1484,1102.67 1484,1088C1484,1073.79 1484,1057.93 1484,1045C1484,1030.33 1484,1015.67 1484,1001C1484,986.787 1484,970.933 1484,958C1484,943.335 1484,928.665 1484,914C1484,899.787 1484,883.933 1484,871C1484,856.787 1484,840.933 1484,828C1484,813.787 1484,797.933 1484,785C1484,770.335 1484,755.665 1484,741C1484,726.787 1484,710.933 1484,698C1484,683.335 1484,668.665 1484,654C1484,639.787 1484,623.933 1484,611C1484,596.335 1484,581.665 1484,567C1484,552.787 1484,536.933 1484,524C1484,509.787 1484,493.933 1484,481C1484,466.787 1484,450.933 1484,438C1484,423.335 1484,408.665 1484,394C1484,379.787 1484,363.933 1484,351C1484,336.787 1484,320.933 1484,308C1484,293.787 1484,277.933 1484,265C1484,250.335 1484,235.665 1484,221C1484,206.787 1484,190.933 1484,178C1484,163.787 1484,147.933 1484,135C1483.39,121.401 1485.07,103.86 1483,93C1468.33,93 1453.67,93 1439,93C1424.79,93 1408.93,93 1396,93C1381.33,93 1366.67,93 1352,93C1337.79,93 1321.93,93 1309,93C1294.33,93 1279.67,93 1265,93C1250.79,93 1234.93,93 1222,93C1207.79,93 1191.93,93 1179,93C1164.79,93 1148.93,93 1136,93C1121.33,93 1106.67,93 1092,93C1077.79,93 1061.93,93 1049,93C1034.33,93 1019.67,93 1005,93C990.787,93 974.933,93 962,93C947.335,93 932.665,93 918,93C903.787,93 887.933,93 875,93C860.787,93 844.933,93 832,93C817.787,93 801.933,93 789,93C774.335,93 759.665,93 745,93C730.787,93 714.933,93 702,93C687.335,93 672.665,93 658,93C643.787,93 627.933,93 615,93C600.335,93 585.665,93 571,93C556.787,93 540.933,93 528,93C513.787,93 497.933,93 485,93C470.787,93 454.933,93 442,93C427.335,93 412.665,93 398,93C383.787,93 367.933,93 355,93C340.787,93 324.933,93 312,93C297.787,93 281.933,93 269,93C254.335,93 239.665,93 225,93C210.787,93 194.933,93 182,93C167.787,93 151.933,93 139,93C124.464,92.6764 104.08,88.1472 112,109C112,123.665 112,138.335 112,153C112,167.213 112,183.067 112,196C112,210.665 112,225.335 112,240C112,254.213 112,270.067 112,283C112,297.665 112,312.335 112,327C112,341.213 112,357.067 112,370C112,384.213 112,400.067 112,413C112,427.213 112,443.067 112,456C112,470.665 112,485.335 112,500C112,514.213 112,530.067 112,543C112,557.665 112,572.335 112,587C112,601.213 112,617.067 112,630C112,644.665 112,659.335 112,674C112,688.213 112,704.067 112,717C112,731.213 112,747.067 112,760C112,774.213 112,790.067 112,803C112,817.665 112,832.335 112,847C112,861.213 112,877.067 112,890C112,904.665 112,919.335 112,934C112,948.213 112,964.067 112,977C112,991.665 112,1006.33 112,1021C112,1035.21 112,1051.07 112,1064C112,1078.21 112,1094.07 112,1107C112,1121.21 112,1137.07 112,1150C112,1164.67 112,1179.33 112,1194C112,1208.21 112,1224.07 112,1237C112,1251.21 112,1267.07 112,1280C112,1294.21 112,1310.07 112,1323C112,1337.67 112,1352.33 112,1367C112,1381.21 112,1397.07 112,1410C112,1424.21 112,1440.07 112,1453C112.614,1466.6 110.927,1484.14 113,1495ZM137,1157C148.999,1157 161.001,1157 173,1157C184.999,1157 197.001,1157 209,1157C218.342,1154.34 237.869,1161.87 240,1152C238.333,1141.94 242.127,1119.77 245,1138C242.567,1152.43 245.795,1161.21 262,1157C273.498,1157 286.825,1157 297,1157C308.999,1157 321.001,1157 333,1157C348.934,1161.44 354.938,1154.11 351,1140C353.198,1125.62 355.576,1132.49 352,1115C355.39,1099.61 348.348,1094.65 333,1098C323.214,1095.79 305.133,1101.87 301,1094C297.258,1101.74 299.734,1075.2 299,1069C298.537,1056.54 300.991,1046.99 300,1034C300,1022.5 300,1009.17 300,999C300,987.001 300,974.999 300,963C300,951.502 300,938.175 300,928C300,916.001 300,903.999 300,892C300,880.001 300,867.999 300,856C300,844.001 300,831.999 300,820C300,808.502 300,795.175 300,785C300,773.001 300,760.999 300,749C300,737.502 300,724.175 300,714C300,702.001 300,689.999 300,678C300,666.502 300,653.175 300,643C300,631.001 300,618.999 300,607C300,595.502 300,582.175 300,572C300,560.001 300,547.999 300,536C300,524.502 300,511.175 300,501C300.975,488.026 298.204,478.794 299,466C292.248,455.013 295.775,484.022 295,489C295,500.999 295,513.001 295,525C295,536.498 295,549.825 295,560C295,571.999 295,584.001 295,596C295,607.999 295,620.001 295,632C295,643.999 295,656.001 295,668C295,679.498 295,692.825 295,703C295,714.999 295,727.001 295,739C295,750.498 295,763.825 295,774C295,785.999 295,798.001 295,810C295,821.498 295,834.825 295,845C295,856.999 295,869.001 295,881C295,892.498 295,905.825 295,916C295,927.999 295,940.001 295,952C295,963.498 295,976.825 295,987C295,998.999 295,1011 295,1023C295,1034.5 295,1047.83 295,1058C295,1070 295,1082 295,1094C294.01,1101.24 274.237,1096.32 266,1098C252.869,1096.87 239.469,1095.47 245,1113C247.236,1133.16 237.386,1128.85 241,1111C246.909,1093.09 229.419,1098.58 218,1098C205.636,1102.37 190.393,1092.02 199,1092C200.186,1067.28 195.846,1086.48 196,1095C183.397,1103.4 191.115,1077.06 189,1071C186.891,1061.11 188.605,1047.39 188,1036C188,1024.5 188,1011.17 188,1001C188,989.001 188,976.999 188,965C188,953.502 188,940.175 188,930C188,918.001 188,905.999 188,894C188,882.502 188,869.175 188,859C188,847.001 188,834.999 188,823C188,811.502 188,798.175 188,788C188,776.001 188,763.999 188,752C188,740.502 188,727.175 188,717C188,705.001 188,692.999 188,681C188,669.001 188,656.999 188,645C188,633.001 188,620.999 188,609C188,597.502 188,584.175 188,574C188,562.001 188,549.999 188,538C188,526.502 188,513.175 188,503C188,491.001 188,478.999 188,467C182.705,450.201 183.744,481.136 184,486C184,497.999 184,510.001 184,522C184,533.999 184,546.001 184,558C184,569.999 184,582.001 184,594C184,605.498 184,618.825 184,629C184,640.999 184,653.001 184,665C184,676.498 184,689.825 184,700C184,711.999 184,724.001 184,736C184,747.498 184,760.825 184,771C184,782.999 184,795.001 184,807C184,818.999 184,831.001 184,843C184,854.999 184,867.001 184,879C184,890.498 184,903.825 184,914C184,925.999 184,938.001 184,950C184,961.498 184,974.825 184,985C184,996.999 184,1009 184,1021C184,1032.5 184,1045.83 184,1056C184,1068 184,1080 184,1092C178.924,1108.37 171.172,1086.76 175,1078C175,1066 175,1054 175,1042C175,1030.5 175,1017.17 175,1007C175,995.001 175,982.999 175,971C175,959.502 175,946.175 175,936C175,924.001 175,911.999 175,900C175,888.502 175,875.175 175,865C175,853.001 175,840.999 175,829C175,817.001 175,804.999 175,793C175,781.001 175,768.999 175,757C175,745.502 175,732.175 175,722C175,710.001 175,697.999 175,686C175,674.502 175,661.175 175,651C175,639.001 175,626.999 175,615C175,603.502 175,590.175 175,580C175,568.001 175,555.999 175,544C175,532.502 175,519.175 175,509C175,497.001 175,484.999 175,473C172.769,451.995 172.519,486.057 173,490C173,501.999 173,514.001 173,526C173,537.498 173,550.825 173,561C173,572.999 173,585.001 173,597C173,608.498 173,621.825 173,632C173,643.999 173,656.001 173,668C173,679.999 173,692.001 173,704C173,715.999 173,728.001 173,740C173,751.498 173,764.825 173,775C173,786.999 173,799.001 173,811C173,822.498 173,835.825 173,846C173,857.999 173,870.001 173,882C173,893.498 173,906.825 173,917C173,928.999 173,941.001 173,953C173,964.498 173,977.825 173,988C173,999.999 173,1012 173,1024C173,1035.5 173,1048.83 173,1059C172.554,1070.56 175.855,1082.15 173,1093C171.37,1102.87 150.521,1095.35 143,1098C129.339,1096.34 137.217,1116.22 134,1125C136.873,1133.62 132.389,1151.44 137,1157ZM1135,1157C1152.33,1157 1169.67,1157 1187,1157C1203.92,1157 1222.33,1157 1238,1157C1234.03,1138.85 1251.2,1126.22 1240,1124C1246.03,1101.04 1236.3,1092.37 1215,1098C1194.18,1101.49 1180.71,1097.62 1187,1074C1189.14,1059.22 1187.39,1039.06 1188,1024C1188,1007.08 1188,988.675 1188,973C1188,956.079 1188,937.675 1188,922C1188,904.668 1188,887.332 1188,870C1188,853.079 1188,834.675 1188,819C1188,802.079 1188,783.675 1188,768C1188,751.079 1188,732.675 1188,717C1188,700.079 1188,681.675 1188,666C1188,649.079 1188,630.675 1188,615C1188,598.079 1188,579.675 1188,564C1188,547.079 1188,528.675 1188,513C1187.95,495.717 1188.54,477.796 1187,462C1179.6,471.525 1184.92,495.244 1183,509C1183,525.921 1183,544.325 1183,560C1183,576.921 1183,595.325 1183,611C1183,628.332 1183,645.668 1183,663C1183,679.921 1183,698.325 1183,714C1183,730.921 1183,749.325 1183,765C1183,781.921 1183,800.325 1183,816C1183,833.332 1183,850.668 1183,868C1183,884.921 1183,903.325 1183,919C1183,935.921 1183,954.325 1183,970C1183,986.921 1183,1005.33 1183,1021C1183.61,1037.31 1181.86,1057.46 1184,1071C1189.03,1092.95 1181.69,1104.01 1160,1098C1137.94,1092.86 1127.33,1100.65 1133,1122C1124.35,1128.06 1139.49,1137.58 1135,1157ZM733,1138C737.878,1137.4 749.499,1139.05 750,1137C745.709,1135.26 735.983,1135.51 733,1138ZM955,1138C961.156,1136.82 971.719,1140.05 975,1136C967.607,1135.94 959.919,1135.59 955,1138ZM507,1135C511.023,1128.06 527.448,1133.98 530,1132C536.713,1128.86 501.591,1125.11 507,1135ZM734,1133C740.647,1128.68 747.866,1134.85 753,1130C747.873,1128.89 717.342,1126.92 734,1133ZM1416,1133C1427.42,1126.15 1397.42,1129.13 1394,1131C1397.46,1132.51 1412.01,1129.93 1416,1133ZM962,1132C967.239,1132.49 986.265,1130.14 967,1129C953.882,1127.67 944.917,1131.54 962,1132ZM1294,1128C1304.63,1123.97 1322.26,1126.92 1336,1126C1357.73,1133.51 1349.57,1109.5 1351,1098C1348.17,1086.16 1358.72,1060.94 1339,1066C1323.22,1067.38 1308.77,1063.76 1302,1066C1296.46,1056.87 1300.52,1038.15 1299,1025C1299,1010.79 1299,994.933 1299,982C1299,967.787 1299,951.933 1299,939C1299,924.787 1299,908.933 1299,896C1299,881.335 1299,866.665 1299,852C1299,837.787 1299,821.933 1299,809C1299,794.787 1299,778.933 1299,766C1299,751.787 1299,735.933 1299,723C1299,708.335 1299,693.665 1299,679C1299,664.787 1299,648.933 1299,636C1299,621.787 1299,605.933 1299,593C1299,578.787 1299,562.933 1299,550C1299,535.335 1299,520.665 1299,506C1299,491.787 1299,475.933 1299,463C1289.4,460 1296.27,488.468 1294,497C1294,511.213 1294,527.067 1294,540C1294,554.665 1294,569.335 1294,584C1294,598.213 1294,614.067 1294,627C1294,641.213 1294,657.067 1294,670C1294,684.213 1294,700.067 1294,713C1294,727.665 1294,742.335 1294,757C1294,771.213 1294,787.067 1294,800C1294,814.213 1294,830.067 1294,843C1294,857.213 1294,873.067 1294,886C1294,900.665 1294,915.335 1294,930C1294,944.213 1294,960.067 1294,973C1294,987.213 1294,1003.07 1294,1016C1294,1030.21 1294,1046.07 1294,1059C1285.22,1076.77 1282.29,1059.06 1286,1045C1286,1030.79 1286,1014.93 1286,1002C1286,987.335 1286,972.665 1286,958C1286,943.787 1286,927.933 1286,915C1286,900.335 1286,885.665 1286,871C1286,856.787 1286,840.933 1286,828C1286,813.787 1286,797.933 1286,785C1286,770.787 1286,754.933 1286,742C1286,727.335 1286,712.665 1286,698C1286,683.787 1286,667.933 1286,655C1286,640.787 1286,624.933 1286,612C1286,597.787 1286,581.933 1286,569C1286,554.335 1286,539.665 1286,525C1286,510.787 1286,494.933 1286,482C1285.7,455.821 1282.78,465.568 1284,485C1284,499.213 1284,515.067 1284,528C1284,542.665 1284,557.335 1284,572C1284,586.213 1284,602.067 1284,615C1284,629.213 1284,645.067 1284,658C1284,672.213 1284,688.067 1284,701C1284,715.665 1284,730.335 1284,745C1284,759.213 1284,775.067 1284,788C1284,802.213 1284,818.067 1284,831C1284,845.213 1284,861.067 1284,874C1284,888.665 1284,903.335 1284,918C1284,932.213 1284,948.067 1284,961C1284,975.213 1284,991.067 1284,1004C1284,1018.21 1284,1034.07 1284,1047C1290.5,1068.16 1275.55,1067.89 1259,1066C1237.75,1058.96 1245.13,1082.2 1244,1094C1246.1,1106.12 1237.36,1130.71 1255,1126C1267.22,1127.26 1288.9,1124.01 1294,1128ZM407,1127C412.38,1116.14 408.556,1094.55 410,1081C410,1064.76 410,1046.99 410,1032C410,1015.76 410,997.991 410,983C410,967.002 410,950.998 410,935C410,918.756 410,900.991 410,886C410,869.756 410,851.991 410,837C410,820.756 410,802.991 410,788C410,772.002 410,755.998 410,740C410,723.756 410,705.991 410,691C410,674.756 410,656.991 410,642C410,625.756 410,607.991 410,593C404.604,570.87 415.382,566.519 432,569C448.639,569.395 471.028,574.019 463,551C460.037,536.163 467.132,514.45 457,510C441.487,509.268 421.236,511.755 411,507C408.877,493.125 411.123,474.875 409,461C403.62,471.864 407.444,493.453 406,507C397.911,511.565 375.666,509.183 362,510C350.415,514.66 359.124,541.133 356,553C348.082,576.916 373.973,567.029 388,569C401.951,568.755 409.588,567.764 406,592C406,608.244 406,626.009 406,641C406,657.244 406,675.009 406,690C406,705.998 406,722.002 406,738C406,754.244 406,772.009 406,787C406,803.244 406,821.009 406,836C406,852.244 406,870.009 406,885C406,900.998 406,917.002 406,933C406,949.244 406,967.009 406,982C406,998.244 406,1016.01 406,1031C406,1047.24 406,1065.01 406,1080C406.608,1095.39 404.954,1113.05 407,1127ZM629,1127C634.235,1113.57 630.63,1091.29 632,1074C632,1055.73 632,1036.04 632,1019C632,1000.34 632,981.665 632,963C632,944.727 632,925.041 632,908C632,889.335 632,870.665 632,852C632,833.727 632,814.041 632,797C632,778.727 632,759.041 632,742C632.587,737.921 630.885,731.551 633,729C650.55,718.921 637.668,744.955 641,754C641,772.665 641,791.335 641,810C641,828.273 641,847.959 641,865C641,883.665 641,902.335 641,921C641,939.273 641,958.959 641,976C641,994.665 641,1013.34 641,1032C639.82,1051.14 643.121,1069.19 641,1085C642.559,1123.12 643.869,1077.04 643,1066C643,1047.73 643,1028.04 643,1011C643,992.335 643,973.665 643,955C643,936.727 643,917.041 643,900C643,881.335 643,862.665 643,844C643,825.727 643,806.041 643,789C643,770.335 643,751.665 643,733C641.498,719.059 677.968,733.938 684,723C683.608,705.119 684.624,684.417 683,669C672.274,661.453 635.954,678.087 643,654C643,635.335 643,616.665 643,598C643,579.727 643,560.041 643,543C643,524.727 643,505.041 643,488C643,483.334 643,478.666 643,474C643.41,445.756 639.466,478.529 641,487C641,505.665 641,524.335 641,543C641,561.273 641,580.959 641,598C641,616.273 641,635.959 641,653C643.64,683.62 623.976,657.241 632,639C632,620.335 632,601.665 632,583C632,564.727 632,545.041 632,528C632,509.335 632,490.665 632,472C627.039,442.792 627.397,493.776 628,501C628,519.665 628,538.335 628,557C628,575.273 628,594.959 628,612C627.413,629.686 628.987,650.946 627,666C616.901,666.934 592.189,666.219 579,669C577.768,685.649 577.768,706.351 579,723C586.801,734.713 623.848,715.894 617,736C617,754.665 617,773.335 617,792C617,810.273 617,829.959 617,847C617,865.665 617,884.335 617,903C617,921.273 617,940.959 617,958C617,976.273 617,995.959 617,1013C617.587,1030.69 616.013,1051.95 618,1067C616.629,1085.04 618.912,1103.75 617,1118C621.266,1127.93 616.444,1084.76 621,1079C619.507,1069.7 618.72,1050.14 619,1031C619,1012.73 619,993.041 619,976C619,957.335 619,938.665 619,920C619,901.727 619,882.041 619,865C619,846.727 619,827.041 619,810C619,791.727 619,772.041 619,755C611.337,735.448 628.301,708.575 628,742C628,760.273 628,779.959 628,797C628,815.273 628,834.959 628,852C628,870.273 628,889.959 628,907C628,925.665 628,944.335 628,963C628,981.273 628,1000.96 628,1018C628,1036.27 628,1055.96 628,1073C628.587,1090.69 627.013,1111.95 629,1127ZM852,1127C857.942,1119.61 853.398,1101.73 855,1090C855,1077.14 855,1062.56 855,1051C855,1038.14 855,1023.56 855,1012C855,999.144 855,984.556 855,973C855,960.144 855,945.556 855,934C855,921.144 855,906.556 855,895C847.336,874.533 871.481,874.492 863,892C863,904.856 863,919.444 863,931C863,943.856 863,958.444 863,970C863,982.856 863,997.444 863,1009C863,1021.86 863,1036.44 863,1048C862.207,1062.51 865.305,1072.43 863,1083C863.652,1088.51 863.813,1118.05 865,1106C865,1093.14 865,1078.56 865,1067C865,1054.14 865,1039.56 865,1028C865,1015.14 865,1000.56 865,989C865,976.144 865,961.556 865,950C865,937.144 865,922.556 865,911C867.93,901.074 858.717,877.273 872,879C882.739,876.883 903.455,883.012 907,875C907,862.144 907,847.556 907,836C912.773,817.371 897.409,818.147 885,819C866.227,822.661 867.97,814.562 856,819C854.224,807.92 855.476,792.08 855,781C855,768.144 855,753.556 855,742C855,729.144 855,714.556 855,703C855,690.144 855,675.556 855,664C855,651.144 855,636.556 855,625C855,612.144 855,597.556 855,586C855,573.144 855,558.556 855,547C855,534.144 855,519.556 855,508C855,495.144 855,480.556 855,469C850.757,447.922 848.406,479.451 850,488C850,500.856 850,515.444 850,527C850,539.856 850,554.444 850,566C850,578.856 850,593.444 850,605C850,617.856 850,632.444 850,644C850,656.856 850,671.444 850,683C850,695.856 850,710.444 850,722C850,734.856 850,749.444 850,761C850,773.856 850,788.444 850,800C856.233,817.861 843.496,823.13 832,819C820.877,820.733 800.447,814.891 800,826C800,838.856 800,853.444 800,865C793.179,884.677 814.343,878.101 825,879C844.768,872.088 838.723,892.721 840,903C840,915.856 840,930.444 840,942C840,954.856 840,969.444 840,981C840,993.856 840,1008.44 840,1020C840,1032.86 840,1047.44 840,1059C840,1071.86 840,1086.44 840,1098C841.122,1102.15 843.545,1075.39 842,1073C838.576,1065.1 843.281,1048.38 842,1038C842,1025.14 842,1010.56 842,999C842,986.144 842,971.556 842,960C842,947.144 842,932.556 842,921C842.94,908.956 840.479,891.285 843,885C836.822,874.564 855.294,877.758 850,895C850,907.856 850,922.444 850,934C850,946.856 850,961.444 850,973C850,985.856 850,1000.44 850,1012C850,1024.86 850,1039.44 850,1051C850,1063.86 850,1078.44 850,1090C851.128,1101.73 847.835,1119.61 852,1127ZM1074,1127C1077.38,1116.17 1098.68,1121.61 1110,1120C1131.42,1127.2 1130.92,1110.85 1129,1096C1125.7,1085.09 1136.08,1058.85 1121,1061C1106.92,1061.59 1089.87,1060.22 1080,1061C1074.43,1052.36 1078.47,1032.47 1077,1021C1077,1006.79 1077,990.933 1077,978C1077,963.787 1077,947.933 1077,935C1077,921.001 1077,906.999 1077,893C1077,878.787 1077,862.933 1077,850C1077,835.787 1077,819.933 1077,807C1077,792.787 1077,776.933 1077,764C1077,749.787 1077,733.933 1077,721C1077,706.787 1077,690.933 1077,678C1077,663.787 1077,647.933 1077,635C1077,620.787 1077,604.933 1077,592C1077,578.001 1077,563.999 1077,550C1077,535.787 1077,519.933 1077,507C1077,492.787 1077,476.933 1077,464C1067.55,457.006 1074.02,488.445 1072,496C1072,510.213 1072,526.067 1072,539C1072,553.213 1072,569.067 1072,582C1072,596.213 1072,612.067 1072,625C1072,639.213 1072,655.067 1072,668C1072,681.999 1072,696.001 1072,710C1072,724.213 1072,740.067 1072,753C1072,767.213 1072,783.067 1072,796C1072,810.213 1072,826.067 1072,839C1072,852.999 1072,867.001 1072,881C1072,895.213 1072,911.067 1072,924C1072,938.213 1072,954.067 1072,967C1072,981.213 1072,997.067 1072,1010C1072,1024 1072,1038 1072,1052C1066.72,1072.44 1059.77,1045.88 1064,1035C1064,1020.79 1064,1004.93 1064,992C1064,977.787 1064,961.933 1064,949C1064,934.787 1064,918.933 1064,906C1064,891.787 1064,875.933 1064,863C1064,848.787 1064,832.933 1064,820C1064,805.787 1064,789.933 1064,777C1064,763.001 1064,748.999 1064,735C1064,720.787 1064,704.933 1064,692C1064,677.787 1064,661.933 1064,649C1064,634.787 1064,618.933 1064,606C1064,591.787 1064,575.933 1064,563C1064,548.787 1064,532.933 1064,520C1064,505.787 1064,489.933 1064,477C1063.14,446.825 1060.69,484.074 1062,492C1062,505.999 1062,520.001 1062,534C1062,548.213 1062,564.067 1062,577C1062,591.213 1062,607.067 1062,620C1062,634.213 1062,650.067 1062,663C1062,677.213 1062,693.067 1062,706C1062,720.213 1062,736.067 1062,749C1062,763.213 1062,779.067 1062,792C1062,806.213 1062,822.067 1062,835C1062,848.999 1062,863.001 1062,877C1062,891.213 1062,907.067 1062,920C1062,934.213 1062,950.067 1062,963C1062,977.213 1062,993.067 1062,1006C1062,1020 1062,1034 1062,1048C1069.08,1069.29 1042.08,1058.14 1032,1061C1015.19,1058.4 1026.75,1085.82 1023,1095C1020.11,1108.95 1019.07,1127.16 1039,1120C1051.53,1121.47 1070.67,1116.33 1074,1127ZM472,1126C489.998,1126 508.002,1126 526,1126C538.008,1124.88 572.556,1128.09 569,1124C553.734,1123.12 528.132,1125.41 520,1123C509.462,1126.26 483.029,1121.35 472,1126ZM693,1126C710.597,1126 729.642,1126 746,1126C758.68,1125.39 788.498,1127.14 789,1125C774.781,1122.86 749.733,1125.35 740,1123C729.488,1125.55 705.036,1121.93 693,1126ZM912,1126C930.665,1126 949.335,1126 968,1126C977.163,1125.46 1023.61,1127.62 1005,1124C989.107,1123.64 959.356,1125.52 962,1123C950.45,1125.46 923.826,1122.04 912,1126ZM1360,1126C1376.24,1126 1394.01,1126 1409,1126C1419.66,1124.81 1450.22,1128.26 1447,1124C1432.81,1124.09 1407.9,1124.17 1405,1125C1391.99,1123.73 1372.02,1123.21 1360,1126ZM420,1125C421.531,1103.2 420.663,1078.99 421,1056C421,1033.01 421,1008.8 421,987C421,963.669 421,940.331 421,917C421,894.006 421,869.8 421,848C421,824.669 421,801.331 421,778C421,755.006 421,730.8 421,709C421,686.006 421,661.8 421,640C420.663,617.344 421.531,592.27 420,572C418.469,593.8 419.337,618.006 419,641C419,663.994 419,688.2 419,710C419,733.331 419,756.669 419,780C419,802.994 419,827.2 419,849C419,872.331 419,895.669 419,919C419,941.994 419,966.2 419,988C419,1010.99 419,1035.2 419,1057C419.54,1079.45 418.116,1105.08 420,1125ZM684,1124C685.674,1109.01 684.58,1091.24 685,1075C685,1058.34 685,1041.66 685,1025C685,1008.34 685,991.665 685,975C685,958.756 685,940.991 685,926C685,909.335 685,892.665 685,876C685,859.756 685,841.991 685,827C683.973,809.308 686.765,795.43 686,778C686.778,760.978 685.205,744.786 685,730C683.326,741.642 684.42,761.596 684,777C684,793.665 684,810.335 684,827C684,843.665 684,860.335 684,877C684,893.244 684,911.009 684,926C684,942.665 684,959.335 684,976C684,992.244 684,1010.01 684,1025C684,1041.66 684,1058.34 684,1075C684,1091.24 684,1109.01 684,1124ZM906,1124C907.594,1105.6 906.625,1084.62 907,1065C907,1045 907,1025 907,1005C909.124,987.126 907.369,965.367 908,946C908.722,925.655 905.948,907.455 907,888C905.406,906.404 906.375,927.377 906,947C906,966.998 906,987.002 906,1007C906,1027 906,1047 906,1067C906.226,1086.35 905.712,1108.89 906,1124ZM356,1123C357.799,1112.62 356.512,1097.38 357,1087C355.201,1097.38 356.488,1112.62 356,1123ZM1408,1111C1411.05,1098.05 1409.65,1080.65 1410,1065C1410,1049 1410,1033 1410,1017C1410,1001 1410,984.998 1410,969C1405.43,948.429 1435.47,962.469 1447,958C1467.65,963.63 1461.08,943.335 1462,927C1463.18,909.825 1465.36,891.634 1443,898C1418.89,903.396 1420.12,886.046 1411,898C1409.31,883.694 1410.43,866.568 1410,851C1410,835.002 1410,818.998 1410,803C1410,787.002 1410,770.998 1410,755C1410,739.002 1410,722.998 1410,707C1410,691.002 1410,674.998 1410,659C1410,643.002 1410,626.998 1410,611C1410,595.002 1410,578.998 1410,563C1410,547.002 1410,530.998 1410,515C1410,499.432 1410,482.306 1410,468C1401.55,452.158 1406.09,490.278 1405,499C1405,514.998 1405,531.002 1405,547C1405,562.998 1405,579.002 1405,595C1405,610.998 1405,627.002 1405,643C1405,658.998 1405,675.002 1405,691C1405,706.998 1405,723.002 1405,739C1405,754.998 1405,771.002 1405,787C1405,802.998 1405,819.002 1405,835C1405,850.998 1405,867.002 1405,883C1408.95,907.08 1390.74,894.238 1376,898C1352.91,890.906 1352.71,906.707 1355,925C1356.98,939.014 1347.39,964.612 1370,958C1382.26,961.738 1411.43,948.568 1405,971C1405,986.998 1405,1003 1405,1019C1405,1035 1405,1051 1405,1067C1404.78,1082.79 1404.85,1099.85 1408,1111ZM741,1110C745.347,1098.35 740.916,1077.91 744,1065C744,1049.43 744,1032.31 744,1018C744,1002.43 744,985.306 744,971C744,955.432 744,938.306 744,924C744,908.002 744,891.998 744,876C744,860.432 744,843.306 744,829C738.048,807.48 748.875,801.18 767,805C783.454,805.887 803.889,809.195 796,787C792.684,774.317 802.345,748.654 789,746C773.495,745.937 755.683,746.623 744,744C744,728.432 744,711.306 744,697C744,681.432 744,664.306 744,650C744,634.002 744,617.998 744,602C744,586.432 744,569.306 744,555C744,539.432 744,522.306 744,508C742.961,493.471 745.739,473.567 742,463C736.255,469.868 740.479,492.342 739,506C739,521.568 739,538.694 739,553C739,568.568 739,585.694 739,600C739,615.568 739,632.694 739,647C739,662.998 739,679.002 739,695C739,710.568 739,727.694 739,742C729.352,747.919 709.467,745.162 696,746C682.531,748.098 692.464,775.158 689,786C680.801,810.197 701.593,805.408 718,805C736.381,801.211 743.085,809.349 739,829C739,844.568 739,861.694 739,876C739,891.568 739,908.694 739,923C739,938.998 739,955.002 739,971C739,986.568 739,1003.69 739,1018C739,1033.57 739,1050.69 739,1065C740.201,1079.37 736.824,1099.87 741,1110ZM520,1108C521.693,1093.69 520.569,1076.57 521,1061C521,1045 521,1029 521,1013C521,997.002 521,980.998 521,965C521,949.432 521,932.306 521,918C521,902.002 521,885.998 521,870C521,854.432 521,837.306 521,823C521,807.002 521,790.998 521,775C521,759.432 521,742.306 521,728C521,712.002 521,695.998 521,680C521,664.002 521,647.998 521,632C533.075,624.559 528.146,630.559 552,627C574.6,634.032 576.909,619.215 574,602C571.408,588.594 580.998,563.001 561,567C548.628,563.804 521.897,573.408 521,560C521,544.002 521,527.998 521,512C521,496.432 521,479.306 521,465C512.962,462.098 518.995,491.935 517,503C517,518.998 517,535.002 517,551C525.342,575.341 498.817,564.818 485,567C462.846,560.414 466.336,581.03 467,596C467.945,611.053 460.416,634.586 484,627C501.223,631.462 513.721,619.755 517,635C517,650.998 517,667.002 517,683C517,698.568 517,715.694 517,730C517,745.998 517,762.002 517,778C517,793.998 517,810.002 517,826C517,841.998 517,858.002 517,874C517,889.568 517,906.694 517,921C517,936.998 517,953.002 517,969C517,984.568 517,1001.69 517,1016C517,1032 517,1048 517,1064C518.98,1077.59 516.316,1097.38 520,1108ZM962,1108C967.684,1108.38 965.677,1086.33 966,1070C966,1053.76 966,1035.99 966,1021C962.203,1008.28 967.85,973.517 976,997C976.487,981.242 1006.21,993.201 1017,989C1019.03,974.367 1017.4,956.062 1018,940C1020.76,920.996 989.55,934.441 979,930C977.925,906.04 967.257,949.565 966,915C966,898.756 966,880.991 966,866C966,849.335 966,832.665 966,816C966,799.756 966,781.991 966,767C966,750.335 966,733.665 966,717C966,700.756 966,682.991 966,668C966,651.335 966,634.665 966,618C966,601.756 966,583.991 966,569C966,552.756 966,534.991 966,520C966,503.756 966,485.991 966,471C959.388,446.433 960.598,489.403 961,498C961,514.244 961,532.009 961,547C961,563.665 961,580.335 961,597C961,613.244 961,631.009 961,646C961,662.665 961,679.335 961,696C961,712.244 961,730.009 961,745C961,761.665 961,778.335 961,795C961,811.244 961,829.009 961,844C961,860.665 961,877.335 961,894C960.802,904.635 964.968,941.798 952,924C954.071,904.04 951.851,946.602 928,930C903.005,921.25 912.823,948.832 911,962C907.563,982.102 910.568,995.767 934,989C952.958,986.287 967.929,989.08 961,1011C961,1027.24 961,1045.01 961,1060C961.254,1075.99 960.205,1094.8 962,1108ZM233,1102C240.806,1106.86 234.803,1125.53 237,1136C241.692,1153.36 232.538,1156.87 217,1154C204.335,1154 191.665,1154 179,1154C166.335,1154 153.665,1154 141,1154C135.297,1147.04 139.587,1130.08 138,1119C133.212,1101.55 142.22,1097.89 158,1101C170.665,1101 183.335,1101 196,1101C208.177,1101.49 222.134,1100.2 233,1102ZM344,1102C351.806,1106.86 345.803,1125.53 348,1136C352.692,1153.36 343.538,1156.87 328,1154C315.335,1154 302.665,1154 290,1154C277.335,1154 264.665,1154 252,1154C246.297,1147.04 250.587,1130.08 249,1119C244.212,1101.55 253.22,1097.89 269,1101C281.665,1101 294.335,1101 307,1101C319.177,1101.49 333.134,1100.2 344,1102ZM396,1102C398.542,1079.13 395.976,1061.76 398,1041C398,1018.68 398,995.122 398,974C398,951.68 398,928.122 398,907C398,884.68 398,861.122 398,840C398,817.68 398,794.122 398,773C398,750.68 398,727.122 398,706C398,683.68 398,660.122 398,639C397.648,617.354 398.554,594.443 397,574C395.162,584.008 396.558,616.05 396,634C396,656.32 396,679.878 396,701C396,723.32 396,746.878 396,768C396,790.32 396,813.878 396,835C396,857.32 396,880.878 396,902C396,924.32 396,947.878 396,969C396,991.32 396,1014.88 396,1036C396,1058 396,1080 396,1102ZM1235,1102C1236.8,1112.87 1235.51,1126.82 1236,1139C1242.67,1158.33 1225.9,1154.24 1213,1154C1200.33,1154 1187.67,1154 1175,1154C1162.82,1153.51 1148.87,1154.8 1138,1153C1136.2,1142.13 1137.49,1128.18 1137,1116C1130.81,1097.14 1146.92,1100.58 1160,1101C1172.67,1101 1185.33,1101 1198,1101C1210.18,1101.49 1224.13,1100.2 1235,1102ZM240,1095C241.776,1083.44 240.524,1068.86 241,1056C241,1042.67 241,1029.33 241,1016C241,1002.67 241,989.332 241,976C241,963.144 241,948.556 241,937C241,923.668 241,910.332 241,897C241,883.668 241,870.332 241,857C241,843.668 241,830.332 241,817C241,804.144 241,789.556 241,778C241,764.668 241,751.332 241,738C241,724.668 241,711.332 241,698C241,684.668 241,671.332 241,658C241,645.144 241,630.556 241,619C241,605.668 241,592.332 241,579C241,565.668 241,552.332 241,539C241,525.668 241,512.332 241,499C240.386,488.938 242.095,466.719 240,465C240,478.332 240,491.668 240,505C240,518.332 240,531.668 240,545C240,558.332 240,571.668 240,585C240,597.856 240,612.444 240,624C240,637.332 240,650.668 240,664C240,677.332 240,690.668 240,704C240,717.332 240,730.668 240,744C240,756.856 240,771.444 240,783C240,796.332 240,809.668 240,823C240,836.332 240,849.668 240,863C240,876.332 240,889.668 240,903C240,915.856 240,930.444 240,942C240,955.332 240,968.668 240,982C240,995.332 240,1008.67 240,1022C240,1035.33 240,1048.67 240,1062C240.736,1072.3 238.711,1089.1 240,1095ZM462,1094C463.555,1073.56 462.649,1050.65 463,1029C463,1007 463,984.998 463,963C463,941.002 463,918.998 463,897C463,875.354 463,852.443 463,832C463,810.002 463,787.998 463,766C463,744.002 463,721.998 463,700C463,678.002 463,655.998 463,634C462.095,613.259 464.466,587.977 461,571C460.204,589.969 463.233,611.876 462,634C462,655.998 462,678.002 462,700C462,721.998 462,744.002 462,766C462,787.646 462,810.557 462,831C462,852.998 462,875.002 462,897C462,918.998 462,941.002 462,963C462,984.998 462,1007 462,1029C462,1050.65 462,1073.56 462,1094ZM800,1094C801.657,1078.33 800.59,1059.92 801,1043C801,1026.08 801,1007.67 801,992C801,974.668 801,957.332 801,940C801,923.079 801,904.675 801,889C799.343,904.675 800.41,923.079 800,940C800,956.921 800,975.325 800,991C800,1008.33 800,1025.67 800,1043C800,1059.92 800,1078.33 800,1094ZM1346,1071C1347.8,1081.87 1346.51,1095.82 1347,1108C1353.49,1127.15 1335.13,1121.46 1323,1122C1310.33,1122 1297.67,1122 1285,1122C1272.82,1121.51 1258.87,1122.8 1248,1121C1248,1108.33 1248,1095.67 1248,1083C1241.22,1063.55 1261.83,1071.5 1273,1070C1284.46,1069.77 1297.64,1067.71 1309,1070C1321.18,1070.49 1335.13,1069.2 1346,1071ZM578,1070C579.754,1057.75 578.536,1042.53 579,1029C579,1015.47 579,1000.25 579,988C579,974.001 579,959.999 579,946C579,932.466 579,917.245 579,905C579,891.001 579,876.999 579,863C579,849.466 579,834.245 579,822C579,808.001 579,793.999 579,780C579,766.466 579,751.245 579,739C577.246,751.245 578.464,766.465 578,780C578,793.534 578,808.755 578,821C578,834.999 578,849.001 578,863C578,876.534 578,891.755 578,904C578,917.999 578,932.001 578,946C578,959.534 578,974.755 578,987C578,1001 578,1015 578,1029C578,1042.53 578,1057.75 578,1070ZM198,1066C199.799,1055.13 198.512,1041.18 199,1029C199,1016.33 199,1003.67 199,991C199,978.335 199,965.665 199,953C199,940.823 199,926.866 199,916C199,903.335 199,890.665 199,878C199,865.335 199,852.665 199,840C199,827.335 199,814.665 199,802C199,789.823 199,775.866 199,765C199,752.335 199,739.665 199,727C199,714.335 199,701.665 199,689C199,676.335 199,663.665 199,651C199,638.823 199,624.866 199,614C199,601.335 199,588.665 199,576C199,563.335 199,550.665 199,538C199,525.335 199,512.665 199,500C198.512,488.311 199.799,473.067 198,464C196.201,474.866 197.488,488.823 197,501C197,513.665 197,526.335 197,539C197,551.665 197,564.335 197,577C197,589.177 197,603.134 197,614C197,626.665 197,639.335 197,652C197,664.665 197,677.335 197,690C197,702.665 197,715.335 197,728C197,740.177 197,754.134 197,765C197,777.665 197,790.335 197,803C197,815.665 197,828.335 197,841C197,853.665 197,866.335 197,879C197,891.177 197,905.134 197,916C197,928.665 197,941.335 197,954C197,966.665 197,979.335 197,992C197,1004.67 197,1017.33 197,1030C197.2,1041.98 196.276,1056.86 198,1066ZM1117,1065C1132.33,1062.33 1121.44,1085.89 1125,1095C1126.24,1108.91 1127.66,1123 1109,1117C1096.33,1117 1083.67,1117 1071,1117C1058.33,1117 1045.67,1117 1033,1117C1019.39,1117.95 1029.36,1095.31 1026,1086C1024.29,1071.63 1024.35,1059.01 1042,1064C1054.67,1064 1067.33,1064 1080,1064C1092.18,1064.49 1106.13,1063.2 1117,1065ZM1244,1063C1245.8,1052.13 1244.51,1038.18 1245,1026C1245,1013.33 1245,1000.67 1245,988C1245,975.335 1245,962.665 1245,950C1245,937.823 1245,923.866 1245,913C1245,900.335 1245,887.665 1245,875C1245,862.823 1245,848.866 1245,838C1245,825.335 1245,812.665 1245,800C1245,787.823 1245,773.866 1245,763C1245,750.335 1245,737.665 1245,725C1245,712.823 1245,698.866 1245,688C1245,675.335 1245,662.665 1245,650C1245,637.823 1245,623.866 1245,613C1245,600.335 1245,587.665 1245,575C1245,562.823 1245,548.866 1245,538C1245,525.335 1245,512.665 1245,500C1245,487.823 1245,473.866 1245,463C1243.2,473.866 1244.49,487.823 1244,500C1244,512.665 1244,525.335 1244,538C1244,550.665 1244,563.335 1244,576C1244,588.177 1244,602.134 1244,613C1244,625.665 1244,638.335 1244,651C1244,663.177 1244,677.134 1244,688C1244,700.665 1244,713.335 1244,726C1244,738.177 1244,752.134 1244,763C1244,775.665 1244,788.335 1244,801C1244,813.177 1244,827.134 1244,838C1244,850.665 1244,863.335 1244,876C1244,888.177 1244,902.134 1244,913C1244,925.665 1244,938.335 1244,951C1244,963.177 1244,977.134 1244,988C1244,1000.67 1244,1013.33 1244,1026C1244,1038.18 1244,1052.13 1244,1063ZM1307,1063C1310.9,1054.24 1307.9,1038.57 1309,1027C1309,1014.33 1309,1001.67 1309,989C1309,976.335 1309,963.665 1309,951C1309,938.823 1309,924.866 1309,914C1309,901.335 1309,888.665 1309,876C1309,863.823 1309,849.866 1309,839C1309,826.335 1309,813.665 1309,801C1309,788.823 1309,774.866 1309,764C1309,751.335 1309,738.665 1309,726C1309,713.335 1309,700.665 1309,688C1309,675.335 1309,662.665 1309,650C1309,637.823 1309,623.866 1309,613C1309,600.335 1309,587.665 1309,575C1309,562.823 1309,548.866 1309,538C1309,525.335 1309,512.665 1309,500C1309,487.823 1309,473.866 1309,463C1305.4,472.066 1307.98,487.311 1307,499C1307,511.665 1307,524.335 1307,537C1307,549.665 1307,562.335 1307,575C1307,587.177 1307,601.134 1307,612C1307,624.665 1307,637.335 1307,650C1307,662.177 1307,676.134 1307,687C1307,699.665 1307,712.335 1307,725C1307,737.177 1307,751.134 1307,762C1307,774.665 1307,787.335 1307,800C1307,812.665 1307,825.335 1307,838C1307,850.665 1307,863.335 1307,876C1307,888.177 1307,902.134 1307,913C1307,925.665 1307,938.335 1307,951C1307,963.177 1307,977.134 1307,988C1307,1000.67 1307,1013.33 1307,1026C1307,1038.18 1307,1052.13 1307,1063ZM1350,1063C1351.64,1046.64 1350.6,1027.6 1351,1010C1350.75,992.937 1351.1,972.097 1351,958C1349.36,971.078 1350.4,992.205 1350,1009C1350,1027 1350,1045 1350,1063ZM795,1061C796.581,1041.92 795.633,1020.3 796,1000C796,979.335 796,958.665 796,938C796,917.335 796,896.665 796,876C796,855.702 796,834.084 796,815C794.419,834.084 795.367,855.702 795,876C795,896.665 795,917.335 795,938C795,958.665 795,979.335 795,1000C795,1020.3 795,1041.92 795,1061ZM1022,1059C1024.3,1052.57 1022.02,1036.76 1023,1026C1023,1014.5 1023,1001.17 1023,991C1021.18,997.526 1022.5,1013.5 1022,1024C1022,1035.5 1022,1048.83 1022,1059ZM1086,1056C1087.8,1045.62 1086.51,1030.38 1087,1020C1087,1007.82 1087,993.866 1087,983C1087,970.823 1087,956.866 1087,946C1087,933.823 1087,919.866 1087,909C1087,896.823 1087,882.866 1087,872C1087,859.823 1087,845.866 1087,835C1087,822.823 1087,808.866 1087,798C1087,786.001 1087,773.999 1087,762C1087,749.823 1087,735.866 1087,725C1087,712.823 1087,698.866 1087,688C1087,675.823 1087,661.866 1087,651C1087,638.823 1087,624.866 1087,614C1087,601.823 1087,587.866 1087,577C1087,564.823 1087,550.866 1087,540C1087,527.823 1087,513.866 1087,503C1087,491.001 1087,478.999 1087,467C1085.2,477.378 1086.49,492.622 1086,503C1086,515.177 1086,529.134 1086,540C1086,552.177 1086,566.134 1086,577C1086,589.177 1086,603.134 1086,614C1086,626.177 1086,640.134 1086,651C1086,663.177 1086,677.134 1086,688C1086,700.177 1086,714.134 1086,725C1086,736.999 1086,749.001 1086,761C1086,773.177 1086,787.134 1086,798C1086,810.177 1086,824.134 1086,835C1086,847.177 1086,861.134 1086,872C1086,884.177 1086,898.134 1086,909C1086,921.177 1086,935.134 1086,946C1086,958.177 1086,972.134 1086,983C1086,995.177 1086,1009.13 1086,1020C1086,1032 1086,1044 1086,1056ZM531,1053C532.567,1033.24 531.641,1010.97 532,990C532,968.669 532,947.331 532,926C532,904.669 532,883.331 532,862C532,841.028 532,818.764 532,799C530.433,818.764 531.359,841.028 531,862C531,883.331 531,904.669 531,926C531,947.331 531,968.669 531,990C531,1010.97 531,1033.24 531,1053ZM753,1053C754.594,1034.97 753.625,1013.03 754,995C754,975.377 754,954.404 754,936C754,916.377 754,895.404 754,877C754,857.669 754,838.331 754,819C752.406,837.029 753.375,858.971 753,877C753,896.623 753,917.596 753,936C753,955.623 753,976.596 753,995C753,1014.33 753,1033.67 753,1053ZM1022,987C1023.55,966.557 1022.65,943.647 1023,922C1023,900.002 1023,877.998 1023,856C1023,834.002 1023,811.998 1023,790C1023,768.354 1023,745.443 1023,725C1023,703.002 1023,680.998 1023,659C1023,637.002 1023,614.998 1023,593C1023,571.002 1023,548.998 1023,527C1023,505.354 1023,482.443 1023,462C1021.45,482.443 1022.35,505.354 1022,527C1022,548.998 1022,571.002 1022,593C1022,614.998 1022,637.002 1022,659C1022,680.646 1022,703.557 1022,724C1022,745.998 1022,768.002 1022,790C1022,811.998 1022,834.002 1022,856C1022,877.998 1022,900.002 1022,922C1022,943.646 1022,966.557 1022,987ZM1350,956C1353.58,940.249 1351.04,918.368 1352,900C1348.42,915.751 1350.96,937.632 1350,956ZM1011,934C1016.7,940.963 1012.41,957.921 1014,969C1019.7,987.365 1007.87,988.203 993,986C980.335,986 967.665,986 955,986C942.335,986 929.665,986 917,986C913.097,977.238 916.099,961.567 915,950C909.673,932.008 921.082,930.748 936,933C948.665,933 961.335,933 974,933C986.177,933.488 1000.13,932.201 1011,934ZM1457,903C1458.8,913.866 1457.51,927.823 1458,940C1464.49,959.153 1446.13,953.46 1434,954C1421.33,954 1408.67,954 1396,954C1384.31,953.512 1369.07,954.799 1360,953C1358.2,942.134 1359.49,928.177 1359,916C1352.51,896.847 1370.87,902.54 1383,902C1395.67,902 1408.33,902 1421,902C1432.69,902.488 1447.93,901.201 1457,903ZM1350,895C1351.64,878.642 1350.6,859.597 1351,842C1351,824.002 1351,805.998 1351,788C1351,770.002 1351,751.998 1351,734C1351,716.002 1351,697.998 1351,680C1351,662.002 1351,643.998 1351,626C1351,608.002 1351,589.998 1351,572C1351,554.002 1351,535.998 1351,518C1351,500.403 1351,481.358 1351,465C1349.36,481.358 1350.4,500.403 1350,518C1350,535.998 1350,554.002 1350,572C1350,589.998 1350,608.002 1350,626C1350,643.998 1350,662.002 1350,680C1350,697.998 1350,716.002 1350,734C1350,751.998 1350,770.002 1350,788C1350,805.998 1350,824.002 1350,842C1350,859.597 1350,878.642 1350,895ZM902,824C903.799,834.866 902.512,848.823 903,861C908.994,879.66 891.41,874.745 880,876C867.335,876 854.665,876 842,876C828.841,876.493 816.95,875.715 805,875C803.201,864.134 804.488,850.177 804,838C797.333,818.668 814.097,822.763 827,823C839.665,823 852.335,823 865,823C877.177,823.488 891.134,822.201 902,824ZM840,817C843.772,805.882 840.948,786.568 842,774C842,759.335 842,744.665 842,730C842,715.11 842,698.62 842,685C842,670.335 842,655.665 842,641C842,626.11 842,609.62 842,596C842,581.335 842,566.665 842,552C842,537.11 842,520.62 842,507C842,492.335 842,477.665 842,463C838.576,474.466 840.882,493.262 840,506C840,520.665 840,535.335 840,550C840,564.89 840,581.38 840,595C840,609.665 840,624.335 840,639C840,653.89 840,670.38 840,684C840,698.665 840,713.335 840,728C840,742.89 840,759.38 840,773C840,787.665 840,802.335 840,817ZM906,816C907.732,803.067 906.548,787.213 907,773C907,758.787 907,742.933 907,730C907,715.335 907,700.665 907,686C907,671.787 907,655.933 907,643C907,628.335 907,613.665 907,599C907,584.787 907,568.933 907,556C907,541.787 907,525.933 907,513C907,498.787 907,482.933 907,470C905.268,482.933 906.452,498.787 906,513C906,527.213 906,543.067 906,556C906,570.665 906,585.335 906,600C906,614.213 906,630.067 906,643C906,657.665 906,672.335 906,687C906,701.213 906,717.067 906,730C906,744.213 906,760.067 906,773C906,787.213 906,803.067 906,816ZM800,815C801.712,801.822 800.559,784.179 801,771C801,756.335 801,741.665 801,727C801,712.335 801,697.665 801,683C801,668.335 801,653.665 801,639C801,624.335 801,609.665 801,595C801,580.335 801,565.665 801,551C801,536.335 801,521.665 801,507C800.547,493.693 801.732,475.469 800,466C800,480.89 800,497.38 800,511C800,525.665 800,540.335 800,555C800,569.665 800,584.335 800,599C800,613.665 800,628.335 800,643C800,657.665 800,672.335 800,687C799.386,701.051 801.073,717.408 799,730C799,744.665 799,759.335 799,774C799.365,789.357 798.396,803.265 800,815ZM864,815C865.712,801.822 864.559,784.179 865,771C865,756.335 865,741.665 865,727C865,712.335 865,697.665 865,683C865,668.335 865,653.665 865,639C865,624.11 865,607.62 865,594C865,579.335 865,564.665 865,550C865,535.335 865,520.665 865,506C864.547,491.787 865.732,475.933 864,463C862.288,476.178 863.441,493.821 863,507C863,521.665 863,536.335 863,551C863,565.665 863,580.335 863,595C863,609.665 863,624.335 863,639C863,653.89 863,670.38 863,684C863,698.665 863,713.335 863,728C863,742.665 863,757.335 863,772C863.614,786.051 861.927,802.408 864,815ZM531,776C532.542,755.222 531.656,730.778 532,710C532,688.002 532,665.998 532,644C530.458,664.778 531.344,689.222 531,710C531,731.998 531,754.002 531,776ZM791,751C792.799,761.866 791.512,775.823 792,788C798.487,807.153 780.125,801.46 768,802C755.335,802 742.665,802 730,802C717.823,801.512 703.866,802.799 693,801C693,788.335 693,775.665 693,763C686.513,743.847 704.875,749.54 717,749C729.665,749 742.335,749 755,749C766.689,749.977 781.933,747.401 791,751ZM795,743C796.531,721.2 795.663,696.994 796,674C796,650.669 796,627.331 796,604C796,580.669 796,557.331 796,534C796,511.006 796,486.8 796,465C794.469,486.8 795.337,511.006 795,534C795,557.331 795,580.669 795,604C795,627.331 795,650.669 795,674C795,696.994 795,721.2 795,743ZM669,671C688.271,664.395 678.724,686.61 681,697C679.004,707.669 687.735,729.07 669,723C656.335,723 643.665,723 631,723C618.335,723 605.665,723 593,723C574.444,728.89 584.769,705.896 582,696C583.015,684.349 576.349,665.014 594,670C606.665,670 619.335,670 632,670C644.177,670.488 658.134,669.201 669,671ZM618,665C619.657,649.736 618.59,630.265 619,615C619,598.079 619,579.675 619,564C619,547.079 619,528.675 619,513C618.589,496.49 619.657,477.018 618,463C615.983,477.904 617.598,497.923 617,513C617,529.921 617,548.325 617,564C617,580.921 617,599.325 617,615C617.599,631.322 615.983,651.342 618,665ZM684,663C685.674,648.009 684.58,630.245 685,614C685,597.335 685,580.665 685,564C685,547.335 685,530.665 685,514C685,497.756 685,479.991 685,465C683.326,479.991 684.42,497.755 684,514C684,530.665 684,547.335 684,564C684,580.665 684,597.335 684,614C684,630.244 684,648.009 684,663ZM578,661C579.674,646.43 578.58,627.571 579,613C579,597.002 579,580.998 579,565C579,548.756 579,530.991 579,516C578.569,500.432 579.693,483.306 578,469C578,485.244 578,503.009 578,518C578,533.998 578,550.002 578,566C575.866,580.11 577.604,599.613 577,614C577.93,629.068 578.368,644.633 578,661ZM569,573C570.799,583.866 569.512,597.823 570,610C576.784,629.45 556.167,621.502 545,623C532.335,623 519.665,623 507,623C495.311,622.512 480.067,623.799 471,622C471,609.335 471,596.665 471,584C464.216,564.55 484.833,572.498 496,571C508.665,571 521.335,571 534,571C545.078,572.099 562.037,569.097 569,573ZM531,554C532.754,542.219 531.536,525.781 532,514C532,500.668 532,487.332 532,474C530.246,485.781 531.464,502.219 531,514C531,527.332 531,540.668 531,554ZM458,515C459.799,525.866 458.512,539.823 459,552C464.873,570.538 447.078,565.413 435,566C422.335,566 409.665,566 397,566C384.946,565.389 370.562,567.104 360,565C360,552.335 360,539.665 360,527C353.513,507.847 371.875,513.54 384,513C396.665,513 409.335,513 422,513C433.689,513.977 448.933,511.401 458,515ZM420,508C421.262,494.556 421.262,475.183 420,463C418.749,476.433 418.425,496.131 420,508ZM396,507C399.834,495.502 396.98,477.312 398,463C394.576,474.908 396.882,492.551 396,507ZM462,505C463.85,496.032 462.486,481.969 463,473C461.15,481.968 462.514,496.031 462,505ZM286,459C293.533,459.385 322.339,459.662 304,456C303.707,457.943 282.413,454.367 286,459ZM509,459C519.556,460.49 541.291,457.56 525,456C520.67,456.927 505.208,454.22 509,459ZM541,459C549.502,458.417 566.073,460.107 569,458C558.902,458.933 545.726,456.506 541,459ZM728,459C737.437,460.836 762.543,458.009 751,456C744.011,456.389 735.48,454.591 728,459ZM916,459C923.672,458.447 937.471,459.934 941,458C934.308,457.208 923.867,457.935 916,459ZM955,459C961.84,459.486 987.515,459.186 970,457C967.877,454.85 946.144,457.265 955,459ZM1173,459C1179.71,457.873 1198.82,461.195 1197,457C1188.38,456.996 1181.43,455.185 1173,459ZM1208,459C1215.81,458.437 1231.81,460.098 1234,458C1224.08,459.259 1212.98,455.79 1208,459ZM1394,459C1403.7,461.241 1428.47,456.62 1416,457C1408.09,455.59 1401.27,452.13 1394,459ZM750,453C759.624,448.452 740.218,450.329 738,450C728.966,453.791 750.128,450.708 750,453ZM1176,452C1179.65,451.365 1195.26,453.703 1190,450C1186.07,450.914 1170.95,448.094 1176,452ZM1398,452C1403.75,451.086 1413.24,453.906 1416,450C1410.25,450.914 1400.76,448.094 1398,452ZM1463,114C1464.73,126.48 1463.55,143.519 1464,156C1464,169.999 1464,184.001 1464,198C1464,211.999 1464,226.001 1464,240C1464,253.999 1464,268.001 1464,282C1464,295.999 1464,310.001 1464,324C1464,337.999 1464,352.001 1464,366C1464,379.999 1464,394.001 1464,408C1464,421.999 1464,436.001 1464,450C1464,464.213 1464,480.067 1464,493C1464,506.999 1464,521.001 1464,535C1464,548.999 1464,563.001 1464,577C1464,590.999 1464,605.001 1464,619C1464,632.999 1464,647.001 1464,661C1464,674.999 1464,689.001 1464,703C1464,716.999 1464,731.001 1464,745C1464,758.999 1464,773.001 1464,787C1464,801.213 1464,817.067 1464,830C1464,843.999 1464,858.001 1464,872C1464,885.999 1464,900.001 1464,914C1464,927.999 1464,942.001 1464,956C1464,969.999 1464,984.001 1464,998C1464,1012 1464,1026 1464,1040C1464,1054 1464,1068 1464,1082C1464,1096 1464,1110 1464,1124C1464,1138 1464,1152 1464,1166C1464,1180 1464,1194 1464,1208C1464,1222 1464,1236 1464,1250C1464,1264 1464,1278 1464,1292C1464,1306 1464,1320 1464,1334C1464,1348 1464,1362 1464,1376C1464,1390 1464,1404 1464,1418C1464,1432 1464,1446 1464,1460C1472.41,1482.62 1447.08,1473.15 1436,1475C1422,1475 1408,1475 1394,1475C1380,1475 1366,1475 1352,1475C1338,1475 1324,1475 1310,1475C1296,1475 1282,1475 1268,1475C1254,1475 1240,1475 1226,1475C1212,1475 1198,1475 1184,1475C1170,1475 1156,1475 1142,1475C1127.79,1475 1111.93,1475 1099,1475C1085,1475 1071,1475 1057,1475C1043,1475 1029,1475 1015,1475C1001,1475 986.999,1475 973,1475C959.001,1475 944.999,1475 931,1475C917.001,1475 902.999,1475 889,1475C875.001,1475 860.999,1475 847,1475C833.001,1475 818.999,1475 805,1475C790.787,1475 774.933,1475 762,1475C748.001,1475 733.999,1475 720,1475C706.001,1475 691.999,1475 678,1475C664.001,1475 649.999,1475 636,1475C622.001,1475 607.999,1475 594,1475C580.001,1475 565.999,1475 552,1475C538.001,1475 523.999,1475 510,1475C496.001,1475 481.999,1475 468,1475C454.001,1475 439.999,1475 426,1475C412.001,1475 397.999,1475 384,1475C370.001,1475 355.999,1475 342,1475C328.001,1475 313.999,1475 300,1475C286.001,1475 271.999,1475 258,1475C244.001,1475 229.999,1475 216,1475C202.001,1475 187.999,1475 174,1475C160.466,1474.54 145.245,1475.75 133,1474C131.268,1461.52 132.452,1444.48 132,1432C132,1418 132,1404 132,1390C132,1376 132,1362 132,1348C132,1334 132,1320 132,1306C132,1292 132,1278 132,1264C132,1250 132,1236 132,1222C132,1208 132,1194 132,1180C132,1166 132,1152 132,1138C132,1123.79 132,1107.93 132,1095C132,1081 132,1067 132,1053C132,1039 132,1025 132,1011C132,997.001 132,982.999 132,969C132,955.001 132,940.999 132,927C132,913.001 132,898.999 132,885C132,871.001 132,856.999 132,843C132,829.001 132,814.999 132,801C132,786.787 132,770.933 132,758C132,744.001 132,729.999 132,716C132,702.001 132,687.999 132,674C132,660.001 132,645.999 132,632C132,618.001 132,603.999 132,590C132,576.001 132,561.999 132,548C132,534.001 132,519.999 132,506C132,492.001 132,477.999 132,464C132,450.001 132,435.999 132,422C132,408.001 132,393.999 132,380C132,366.001 132,351.999 132,338C132,324.001 132,309.999 132,296C132,282.001 132,267.999 132,254C132,240.001 132,225.999 132,212C132,198.001 132,183.999 132,170C132,156.001 132,141.999 132,128C123.591,105.378 148.917,114.85 160,113C173.999,113 188.001,113 202,113C215.999,113 230.001,113 244,113C257.999,113 272.001,113 286,113C299.999,113 314.001,113 328,113C341.999,113 356.001,113 370,113C383.999,113 398.001,113 412,113C425.999,113 440.001,113 454,113C468.213,113 484.067,113 497,113C510.999,113 525.001,113 539,113C552.999,113 567.001,113 581,113C594.999,113 609.001,113 623,113C636.999,113 651.001,113 665,113C678.999,113 693.001,113 707,113C720.999,113 735.001,113 749,113C762.999,113 777.001,113 791,113C805.213,113 821.067,113 834,113C847.999,113 862.001,113 876,113C889.999,113 904.001,113 918,113C931.999,113 946.001,113 960,113C973.999,113 988.001,113 1002,113C1016,113 1030,113 1044,113C1058,113 1072,113 1086,113C1100,113 1114,113 1128,113C1142,113 1156,113 1170,113C1184,113 1198,113 1212,113C1226,113 1240,113 1254,113C1268,113 1282,113 1296,113C1310,113 1324,113 1338,113C1352,113 1366,113 1380,113C1394,113 1408,113 1422,113C1435.53,113.464 1450.75,112.247 1463,114Z" fill="#250000" fill-opacity="0.379767"/>
</g>
</svg>
