<?xml version="1.0" encoding="UTF-8"?>
<svg width="1200pt" height="1200pt" version="1.1" viewBox="0 0 1200 1200" xmlns="http://www.w3.org/2000/svg">
 <g>
  <path d="m1087.5 93.75h-975c-10.352 0-18.75 8.3984-18.75 18.75v975c0 10.367 8.3984 18.75 18.75 18.75h975c10.367 0 18.75-8.3828 18.75-18.75v-975c0-10.352-8.3828-18.75-18.75-18.75zm-18.75 975h-937.5v-937.5h937.5z"/>
  <path d="m337.5 431.25c10.352 0 18.75-8.3984 18.75-18.75v-187.5c0-10.352-8.3984-18.75-18.75-18.75s-18.75 8.3984-18.75 18.75v187.5c0 10.352 8.3984 18.75 18.75 18.75z"/>
  <path d="m262.5 506.25c0 10.352 8.3984 18.75 18.75 18.75h112.5c10.352 0 18.75-8.3984 18.75-18.75s-8.3984-18.75-18.75-18.75c10.352 0 18.75-8.3984 18.75-18.75s-8.3984-18.75-18.75-18.75h-112.5c-10.352 0-18.75 8.3984-18.75 18.75s8.3984 18.75 18.75 18.75c-10.352 0-18.75 8.3984-18.75 18.75z"/>
  <path d="m337.5 543.75c-10.352 0-18.75 8.3984-18.75 18.75v412.5c0 10.367 8.3984 18.75 18.75 18.75s18.75-8.3828 18.75-18.75v-412.5c0-10.352-8.3984-18.75-18.75-18.75z"/>
  <path d="m600 768.75c-10.352 0-18.75 8.3828-18.75 18.75v187.5c0 10.367 8.3984 18.75 18.75 18.75s18.75-8.3828 18.75-18.75v-187.5c0-10.367-8.3984-18.75-18.75-18.75z"/>
  <path d="m525 731.25c0 10.367 8.3984 18.75 18.75 18.75h112.5c10.367 0 18.75-8.3828 18.75-18.75s-8.3828-18.75-18.75-18.75c10.367 0 18.75-8.3828 18.75-18.75s-8.3828-18.75-18.75-18.75h-112.5c-10.352 0-18.75 8.3828-18.75 18.75s8.3984 18.75 18.75 18.75c-10.352 0-18.75 8.3828-18.75 18.75z"/>
  <path d="m600 656.25c10.352 0 18.75-8.3828 18.75-18.75v-412.5c0-10.352-8.3984-18.75-18.75-18.75s-18.75 8.3984-18.75 18.75v412.5c0 10.367 8.3984 18.75 18.75 18.75z"/>
  <path d="m862.5 506.25c10.367 0 18.75-8.3984 18.75-18.75v-262.5c0-10.352-8.3828-18.75-18.75-18.75s-18.75 8.3984-18.75 18.75v262.5c0 10.352 8.3828 18.75 18.75 18.75z"/>
  <path d="m787.5 581.25c0 10.352 8.3828 18.75 18.75 18.75h112.5c10.367 0 18.75-8.3984 18.75-18.75s-8.3828-18.75-18.75-18.75c10.367 0 18.75-8.3984 18.75-18.75s-8.3828-18.75-18.75-18.75h-112.5c-10.367 0-18.75 8.3984-18.75 18.75s8.3828 18.75 18.75 18.75c-10.367 0-18.75 8.3984-18.75 18.75z"/>
  <path d="m862.5 618.75c-10.367 0-18.75 8.3828-18.75 18.75v337.5c0 10.367 8.3828 18.75 18.75 18.75s18.75-8.3828 18.75-18.75v-337.5c0-10.367-8.3828-18.75-18.75-18.75z"/>
 </g>
</svg>
