<?xml version="1.0" encoding="UTF-8"?>
<svg width="1200pt" height="1200pt" version="1.1" viewBox="0 0 1200 1200" xmlns="http://www.w3.org/2000/svg">
 <path d="m960 120h-720c-66.145 0-120 53.809-120 120v720c0 66.191 53.855 120 120 120h720c66.145 0 120-53.809 120-120v-720c0-66.191-53.855-120-120-120zm-480 768c13.246 0 24 10.754 24 24s-10.754 24-24 24h-192c-3.1211 0-6.2383-0.67188-9.168-1.8242-5.9023-2.4492-10.559-7.1055-13.008-13.008-1.1992-2.9297-1.8242-6.0469-1.8242-9.168v-192c0-13.246 10.754-24 24-24s24 10.754 24 24v134.06l151.01-151.01c9.3594-9.3594 24.574-9.3594 33.938 0 9.3594 9.3594 9.3594 24.574 0 33.938l-151.01 151.01zm16.992-424.99c9.3594 9.3594 9.3594 24.574 0 33.938-4.7031 4.7031-10.848 7.0547-16.992 7.0547s-12.289-2.3516-16.992-7.0078l-151.01-151.05v134.06c0 13.246-10.754 24-24 24s-24-10.754-24-24v-192c0-3.1211 0.625-6.2383 1.8711-9.168 2.3984-5.8555 7.1055-10.559 13.008-13.008 2.8828-1.1523 6-1.8242 9.1211-1.8242h192c13.246 0 24 10.754 24 24s-10.754 24-24 24h-134.06zm439.01 448.99c0 3.1211-0.625 6.2383-1.8711 9.168-2.3984 5.8555-7.1055 10.559-13.008 13.008-2.8828 1.1523-6 1.8242-9.1211 1.8242h-192c-13.246 0-24-10.754-24-24s10.754-24 24-24h134.06l-151.01-151.01c-9.3594-9.3594-9.3594-24.574 0-33.938 9.3594-9.3594 24.574-9.3594 33.938 0l151.01 151.01v-134.06c0-13.246 10.754-24 24-24s24 10.754 24 24zm0-432c0 13.246-10.754 24-24 24s-24-10.754-24-24v-134.06l-151.01 151.01c-4.7031 4.7031-10.848 7.0547-16.992 7.0547s-12.289-2.3516-16.992-7.0078c-9.3594-9.3594-9.3594-24.574 0-33.938l151.05-151.05h-134.06c-13.246 0-24-10.754-24-24s10.754-24 24-24h192c3.1211 0 6.2383 0.67188 9.168 1.8242 5.9023 2.4492 10.559 7.1055 13.008 13.008 1.1992 2.9297 1.8242 6.0469 1.8242 9.168z" fill="#fff"/>
</svg>
