<?xml version="1.0" encoding="UTF-8"?>
<svg width="1200pt" height="1200pt" version="1.1" viewBox="0 0 1200 1200" xmlns="http://www.w3.org/2000/svg">
 <path d="m282.3 176.47h635.39c35.426 0 69.254 25.859 78.602 60.125l183.85 674.13c16.395 60.109-23.832 112.81-86.094 112.81h-988.11c-62.328 0-102.52-52.605-86.094-112.81l183.85-674.13c9.3242-34.191 43.168-60.125 78.602-60.125zm352.99 776.47h206.62l-24.062-176.47h-182.56zm-277.21 0h206.62v-176.47h-182.56zm-71.242 0 24.062-176.47h-181.27l-41.68 152.83c-4.1719 15.297 2.2031 23.645 17.992 23.645zm626.32 0h180.89c15.707 0 22.145-8.4297 17.992-23.645l-41.68-152.83h-181.27zm-124.18-388.23h-153.68v141.18h172.94zm-377.95 0-19.254 141.18h172.94v-141.18zm-71.242 0h-152.39l-38.504 141.18h171.64zm520.44 0 19.254 141.18h171.64l-38.504-141.18zm-80.867-70.59-14.438-105.88h-129.62v105.88zm-358.7 0h144.06v-105.88h-129.62zm-71.242 0 14.438-105.88h-128.33l-28.875 105.88zm501.19 0h142.77l-28.875-105.88h-128.33zm-104.93-247.06h-110.37v70.59h120zm-291.33 0-9.625 70.59h120v-70.59zm-71.238 0h-100.79c-3.5586 0-9.5391 4.582-10.5 8.1055l-17.039 62.484h118.7zm433.8 0 9.6289 70.59h118.7l-17.039-62.484c-0.97266-3.5625-6.9141-8.1055-10.5-8.1055z" fill-rule="evenodd"/>
</svg>
