<?xml version="1.0" encoding="UTF-8"?>
<svg width="1200pt" height="1200pt" version="1.1" viewBox="0 0 1200 1200" xmlns="http://www.w3.org/2000/svg">
 <g>
  <path d="m727.1 924.26h-452.1v-451.7c0-7.5-6.0625-13.562-13.562-13.562-7.4883 0-13.551 6.0625-13.551 13.562v465.27c0 7.4883 6.0742 13.562 13.551 13.562h465.66c7.4883 0 13.562-6.0742 13.562-13.562 0-7.4844-6.0781-13.574-13.562-13.574z"/>
  <path d="m938.56 738.94c7.4883 0 13.562-6.0742 13.562-13.562v-463.19c0-7.5-6.0742-13.562-13.562-13.562h-462.19c-7.4883 0-13.562 6.0625-13.562 13.562s6.0859 13.562 13.562 13.562h448.62v449.62c0 7.4883 6.0742 13.562 13.562 13.562z"/>
  <path d="m1099.2 862.77c-9.125 0.77344-17.887 1.8008-27.512 3.0234-5.0859-9.4141-11.137-18.227-18.051-26.324 4.1992-8.3242 8.4258-16.648 12.648-25.012 2.7617-5.4492 1.5234-12.062-2.9883-16.148-12.688-11.523-27.426-21.289-46.352-30.727-5.6016-2.7734-12.375-1.3867-16.414 3.375-6.0742 7.1758-11.75 14.398-17.648 22.074-11.051-3.3984-22.363-5.5234-33.789-6.3242-2.6016-8.125-5.2266-16.262-7.8516-24.387-3.2266-9.9609-10.676-11.461-14.836-11.461-0.44922 0-0.97656 0.011719-1.6016 0.039063-8.9258 0.46094-16.75 1.5391-23.961 3.3359l-0.77344 0.19922c-0.89844 0.22656-1.7617 0.4375-2.3984 0.53906-8.1016 1.3633-16.164 3.75-23.988 7.0859-7.7891 3.3359-11.074 9.0391-10.051 17.438l3.0625 24.863c-9.8125 5.2734-18.988 11.562-27.363 18.789-8.3008-4.375-16.789-8.7891-25.414-12.938-5.6484-2.7383-12.438-1.2266-16.387 3.6484l-3.1367 3.8125c-2.1484 2.6133-4.2617 5.1875-6.3359 7.8008-1.875 2.3516-3.6992 4.7109-5.3008 7.5234-3.6484 6.3867-7.0117 12.664-9.8359 17.949-1.25 2.3359-2.3516 4.6484-3.3867 6.8633-0.4375 0.92578-0.875 1.8359-1.3359 2.7734-2.75 5.6758-1.2266 12.5 3.6758 16.461l21.336 17.289c-3.3633 11.176-5.4258 22.625-6.1484 34.148-9.0117 2.8633-17.664 5.6992-26.238 8.6016-5.8242 1.9883-9.6016 7.6367-9.1758 13.789 1.2109 17.477 5.0859 35.211 11.836 54.227 2.1133 5.9609 8.0742 9.6367 14.352 8.9375l27.625-3.25c5.2734 9.6484 11.562 18.648 18.762 26.887l-12.289 24.398c-2.1992 4.375-1.8867 9.5742 0.83594 13.637 0.36328 0.60156 1.2383 2 2.875 3.4375l1.1484 1.0117c1.125 1.0234 2.3984 2.1641 3.875 3.3125 10.137 7.8633 21.5 15.137 33.762 21.625 1.2617 0.66406 2.5 1.3516 3.7383 2.0508l2.1133 1.1641c0.71094 0.38672 1.4766 0.72656 2.25 0.97656l0.61328 0.21094c5.7891 2.0117 12.227-0.11328 15.676-5.1992 0.21094-0.30078 0.41406-0.61328 0.61328-0.92578l0.039063-0.074219c6.125-7.3008 11.414-13.801 16.25-19.938 10.926 3.2266 22.113 5.1758 33.363 5.875l7.75 24.699c0.21094 0.64844 0.47656 1.3125 0.76172 2.0625 1.9883 5.3359 7.0742 8.8242 12.711 8.8242 0.32422 0 0.64844 0 0.97656-0.039063 20.551-1.4609 38.676-5.6875 55.387-12.875 5.5-2.375 8.7891-8.0742 8.1016-14.023l-3.1484-27.273c9.2891-5.125 17.961-11.176 25.949-18.086l24.461 12.625c5.6758 2.9375 12.648 1.5117 16.711-3.4375 9.6367-11.75 21.789-27.773 30.188-47.449 2.3867-5.6133 0.76172-12.137-4.0234-15.938l-21.324-16.988c3.2109-10.789 5.2383-21.824 6.0117-32.949l24.164-8.0391c0.67578-0.22656 1.3359-0.47656 2.0117-0.72656l0.6875-0.25c5.6992-2.0625 9.3242-7.6641 8.9141-13.688-1.375-19.562-5.4492-37.398-12.5-54.523-2.2383-5.5156-7.7656-8.8906-13.676-8.3906zm-27.062 62.812c-5.5234 1.8359-9.2617 6.9883-9.2891 12.801-0.050781 12.801-2.0859 25.539-6.0859 37.852-0.53906 1.6992-1.1367 3.3867-1.75 5.0508-2.0391 5.4883-0.32422 11.664 4.25 15.324l20.336 16.188c-4.5508 8.6016-9.8867 16.387-15 23.113l-22.977-11.863c-5.2109-2.6992-11.574-1.7266-15.762 2.3984-9.0859 8.9492-19.461 16.449-30.863 22.273-1.2266 0.625-2.4492 1.2109-3.6875 1.8008-5.25 2.4883-8.3359 8.0508-7.6758 13.812l3.0391 26.199c-8.3633 2.8359-17.238 4.8633-26.789 6.1133l-7.7969-24.773c-1.7734-5.6641-7.0234-9.5-12.938-9.5h-0.085938-0.76172c-12.938 0-25.801-2.0508-38.289-6.0859-1.5391-0.5-3.0391-1.0234-4.5391-1.5742-5.5742-2.0117-11.812-0.1875-15.398 4.5391-4.7891 6.3008-9.9766 12.812-16.051 20.199-8.3359-4.5859-15.949-9.4258-23.074-14.676l11.762-23.352c2.6133-5.2109 1.6133-11.523-2.5117-15.676-9.1133-9.1367-16.738-19.664-22.664-31.25-0.67578-1.3359-1.3242-2.6875-1.9609-4.0508-2.4766-5.3008-8.0625-8.4141-13.875-7.7383l-26.023 3.0625c-2.75-9.1133-4.6992-17.875-5.8984-26.449 7.9492-2.625 16.062-5.2109 24.574-7.875 5.6875-1.7617 9.5625-7.0508 9.5391-13.023-0.074219-13.113 1.9766-26.199 6.0742-38.863 0.5625-1.7266 1.1641-3.4492 1.8008-5.1641 2.0234-5.4375 0.33594-11.574-4.1875-15.238l-20.238-16.414c2.625-4.9258 5.7109-10.613 8.9609-16.352 0.66406-1.1484 1.6875-2.4609 2.9492-4.0742 0.80078-1 1.6016-2 2.4141-2.9883 7.4883 3.7891 14.914 7.7109 22.164 11.562l1.2891 0.67578c5.2383 2.7617 11.648 1.8242 15.863-2.3359 9.0391-8.8984 19.387-16.363 30.773-22.176 1.7109-0.875 3.4492-1.7109 5.1992-2.5117 5.3984-2.4609 8.5742-8.1367 7.8359-14.012l-3.2383-26.262c3.5117-1.125 7.0391-1.9883 10.574-2.5742 1.7383-0.28906 3.2617-0.6875 4.6016-1.0117l0.66406-0.16406c3.2734-0.82422 6.7891-1.4492 10.602-1.8867 2.7266 8.4492 5.4492 16.914 8.1758 25.363 1.8008 5.5859 6.9766 9.3867 12.836 9.3984 12.738 0.074218 25.414 2.1133 37.676 6.0859 2.0742 0.67578 4.1484 1.3984 6.1484 2.1641 5.6367 2.1641 12 0.36328 15.648-4.4375 5.5-7.2109 10.637-13.926 15.852-20.398 8.6367 4.7734 16.164 9.6758 22.887 14.938-4 7.9492-8.0234 15.863-12.023 23.773-2.6016 5.1641-1.6484 11.426 2.3867 15.586 8.6367 8.8867 15.926 19.039 21.602 30.176 0.8125 1.6133 1.5859 3.2383 2.3359 4.8633 2.5 5.3984 8.1992 8.5508 14.102 7.7617 9.3125-1.2109 17.562-2.2891 25.625-3.1484 2.8008 8.4766 4.8008 17.227 6.0117 26.426z"/>
  <path d="m963.48 860.59c-8.1484-2.625-16.586-3.9766-25.074-3.9766-35.324 0-66.398 22.613-77.301 56.25-6.6875 20.648-4.9375 42.676 4.9375 62 9.875 19.352 26.688 33.664 47.336 40.363 8.1367 2.625 16.574 3.9609 25.051 3.9609 35.352 0 66.414-22.602 77.312-56.238 6.6875-20.648 4.9258-42.676-4.9492-62.012-9.875-19.332-26.664-33.66-47.312-40.348zm26.449 94.016c-7.2617 22.414-27.949 37.477-51.5 37.477-5.6367 0-11.262-0.875-16.688-2.6367-13.762-4.4609-24.961-14-31.523-26.887-6.5859-12.875-7.75-27.551-3.3008-41.312 7.2734-22.426 27.949-37.488 51.488-37.488 5.6641 0 11.262 0.89844 16.699 2.6484 13.762 4.4492 24.961 14 31.523 26.875 6.5859 12.887 7.7617 27.547 3.3008 41.324z"/>
  <path d="m338.61 287.3c6.6992-20.648 4.9375-42.688-4.9375-62.012-9.875-19.324-26.676-33.664-47.336-40.363-8.1484-2.6367-16.574-3.9609-25.062-3.9609-35.336 0-66.414 22.602-77.301 56.25-13.812 42.625 9.6367 88.551 52.262 102.36 8.1484 2.625 16.574 3.9766 25.062 3.9766 35.336-0.003907 66.41-22.605 77.312-56.254zm-128.82-41.727c7.2617-22.426 27.949-37.488 51.488-37.488 5.6484 0 11.262 0.88672 16.699 2.6484 13.762 4.4492 24.949 14 31.523 26.875 6.5859 12.875 7.75 27.551 3.2891 41.312-7.25 22.426-27.949 37.488-51.488 37.488-5.6484 0-11.262-0.88672-16.699-2.6484-28.391-9.1875-44.016-39.785-34.812-68.188z"/>
  <path d="m259.77 438.26c0.22656 0.67578 0.47656 1.3242 0.77344 2.0742 1.9766 5.3359 7.0625 8.8516 12.711 8.8516 0.3125 0 0.64844 0 0.97656-0.039062 20.562-1.4766 38.676-5.6875 55.387-12.887 5.4883-2.3633 8.8008-8.0625 8.1016-14.012l-3.1367-27.289c9.2734-5.125 17.977-11.176 25.949-18.074l24.449 12.613c5.6875 2.9375 12.648 1.5 16.699-3.4375 9.6484-11.75 21.801-27.773 30.199-47.438 2.3984-5.6133 0.75-12.125-4.0234-15.926l-21.336-17c3.2266-10.789 5.2383-21.824 6.0117-32.949l24.199-8.0508c0.6875-0.23828 1.3516-0.47656 2.0508-0.75l0.66406-0.23828c5.6758-2.0742 9.2891-7.6484 8.8633-13.676-1.3359-19.551-5.4375-37.398-12.488-54.539-2.25-5.4766-7.8125-8.8516-13.688-8.3516-9.3984 0.80078-18.926 1.9258-27.512 3.0391-5.1016-9.4258-11.148-18.238-18.051-26.336 4.1992-8.3125 8.4258-16.637 12.648-25.012 2.75-5.4492 1.5234-12.051-2.9883-16.148-12.699-11.523-27.438-21.301-46.363-30.727-5.5859-2.7734-12.363-1.375-16.398 3.3867-6.0859 7.1758-11.762 14.398-17.648 22.062-11.051-3.3867-22.363-5.5-33.773-6.3242-2.6133-8.125-5.2266-16.25-7.8633-24.375-3.2109-9.9766-10.676-11.477-14.836-11.477-0.44922 0-0.97656 0.023437-1.5859 0.0625-8.9375 0.4375-16.762 1.5234-23.961 3.3242l-0.76172 0.1875c-0.92969 0.19141-1.793 0.40234-2.4297 0.51562-8.0859 1.3516-16.148 3.7383-23.977 7.0742-7.8008 3.3359-11.074 9.0234-10.062 17.438l3.0625 24.863c-9.8242 5.2617-18.988 11.551-27.363 18.773-8.2891-4.3633-16.773-8.7617-25.398-12.926-5.6484-2.7266-12.438-1.2266-16.398 3.6367l-3.1484 3.8516c-2.1484 2.6016-4.2617 5.1758-6.3359 7.7891-1.5117 1.8984-3.5625 4.5-5.2891 7.5391-3.6016 6.3008-6.9883 12.613-9.8359 17.961-1.25 2.3242-2.3242 4.6133-3.375 6.8242-0.4375 0.92578-0.875 1.8516-1.3359 2.8008-2.75 5.6758-1.2383 12.5 3.6641 16.477l21.336 17.262c-3.3633 11.188-5.4258 22.625-6.1367 34.148-9.0625 2.875-17.711 5.7109-26.238 8.6133-5.8359 1.9766-9.6016 7.625-9.1758 13.773 1.2109 17.477 5.0742 35.211 11.824 54.227 2.125 5.9609 8.0742 9.6367 14.363 8.9141l3.6992-0.42578c8.0117-0.9375 15.961-1.8633 23.926-2.8125 5.2891 9.6641 11.574 18.664 18.75 26.898l-12.289 24.398c-2.1875 4.3633-1.875 9.5625 0.83594 13.625 0.36328 0.58594 1.2109 1.9492 2.875 3.4492l1.1133 1c1.1367 1.0117 2.4258 2.1484 3.9141 3.3242 10.137 7.8633 21.488 15.148 33.762 21.637 1.2617 0.66406 2.5 1.3633 3.75 2.0508l2.1016 1.1484c0.71094 0.39844 1.4609 0.73828 2.2383 0.98828l0.80078 0.25c5.7266 1.9258 12.062-0.19922 15.477-5.2109 0.22656-0.32422 0.4375-0.64844 0.64844-0.98828l0.023438-0.039062c6.1133-7.2891 11.398-13.773 16.238-19.938 10.926 3.1992 22.102 5.1758 33.363 5.8633zm-41.375-59.211c-5.5742-2-11.824-0.16406-15.414 4.5508-4.8008 6.3242-9.9883 12.852-16.039 20.188-8.3516-4.5625-15.961-9.4141-23.074-14.664l11.75-23.324c2.625-5.2266 1.6133-11.539-2.5-15.676-9.1133-9.1367-16.738-19.664-22.648-31.262-0.6875-1.3359-1.3242-2.6758-1.9609-4.0234-2.4766-5.3125-8.0742-8.4258-13.875-7.75-8.6758 1.0234-17.324 2.0508-26.023 3.0625-2.75-9.1133-4.6992-17.863-5.8984-26.449 7.9141-2.6016 16.039-5.2109 24.586-7.875 5.6992-1.7734 9.5625-7.0508 9.5234-13.023-0.0625-13.125 1.9883-26.211 6.0859-38.863 0.5625-1.7383 1.1641-3.4609 1.8008-5.1484 2.0234-5.4609 0.33594-11.602-4.1758-15.262l-20.25-16.398c2.6484-4.9492 5.7383-10.676 8.9766-16.336 0.69922-1.2383 1.9141-2.75 2.9492-4.0742 0.80078-1 1.6133-1.9883 2.4258-3 7.3359 3.7109 14.613 7.5742 21.738 11.324l1.7109 0.91406c5.2266 2.7617 11.648 1.8125 15.863-2.3359 9.0234-8.8984 19.375-16.363 30.762-22.176 1.7109-0.875 3.4492-1.7109 5.1875-2.5 5.3984-2.4609 8.5859-8.1367 7.8633-14.023l-3.2617-26.262c3.5234-1.125 7.0508-1.9883 10.574-2.5742 1.7383-0.30078 3.2617-0.67578 4.6016-1.0234l0.66406-0.17578c3.2617-0.8125 6.7734-1.4375 10.613-1.8867 2.7266 8.4492 5.4492 16.914 8.1641 25.375 1.8008 5.5742 6.9883 9.375 12.852 9.3984 12.738 0.074218 25.414 2.125 37.688 6.0859 2.0391 0.64844 4.1016 1.3867 6.1484 2.1641 5.6367 2.1641 12 0.35156 15.648-4.4375 5.5-7.2266 10.637-13.938 15.836-20.398 8.6367 4.7617 16.148 9.6758 22.887 14.938-4.0117 7.9375-8.0117 15.863-12.023 23.75-2.6133 5.1758-1.6641 11.438 2.375 15.586 8.6641 8.8984 15.926 19.051 21.613 30.188 0.82422 1.6016 1.6016 3.2383 2.3516 4.8633 2.4883 5.3867 8.1992 8.5508 14.074 7.75 9.3242-1.2266 17.562-2.2891 25.648-3.1367 2.7891 8.4766 4.8008 17.227 6.0117 26.414l-25.176 8.375c-5.5117 1.8242-9.25 7-9.2734 12.812-0.050782 12.789-2.1016 25.523-6.0859 37.836-0.55078 1.7109-1.1367 3.3984-1.7617 5.0625-2.0391 5.4883-0.30078 11.664 4.2617 15.301l20.324 16.188c-4.5625 8.6016-9.8984 16.375-15.012 23.113l-22.977-11.863c-5.2109-2.6992-11.574-1.7266-15.75 2.3984-9.0742 8.9609-19.461 16.449-30.863 22.273-1.2109 0.625-2.4375 1.2266-3.6758 1.8008-5.2617 2.4883-8.3516 8.0508-7.6875 13.824l3.0234 26.211c-8.3516 2.8242-17.227 4.8359-26.789 6.1016l-7.7852-24.75c-1.7734-5.6641-7.0117-9.5-12.938-9.5h-0.074219-0.72656c-12.949 0-25.836-2.0508-38.324-6.0859-1.5234-0.50391-3.0391-1.0391-4.5391-1.5898z"/>
  <path d="m787.71 396.79h-119.21c-4.6016-33.914-33.727-60.148-68.898-60.148-35.148 0-64.289 26.238-68.887 60.148h-112.5c-5.1758 0-9.375 4.2109-9.375 9.3867 0 5.1875 4.1992 9.375 9.375 9.375h112.5c4.6016 33.926 33.738 60.164 68.887 60.164 35.164 0 64.301-26.238 68.898-60.164h119.21c5.1875 0 9.3867-4.1875 9.3867-9.375 0.015625-5.1758-4.1992-9.3867-9.3867-9.3867zm-188.1 51.797c-23.387 0-42.426-19.012-42.426-42.414 0-23.398 19.023-42.414 42.426-42.414 23.398 0 42.426 19.012 42.426 42.414 0 23.391-19.039 42.414-42.426 42.414z"/>
  <path d="m787.71 578.18h-63.227c-4.6016-33.926-33.727-60.164-68.887-60.164-35.164 0-64.289 26.25-68.898 60.164h-168.47c-5.1758 0-9.375 4.1992-9.375 9.3867 0 5.1758 4.1992 9.3867 9.375 9.3867h168.48c4.6133 33.914 33.738 60.137 68.898 60.137 35.164 0 64.301-26.227 68.887-60.137h63.227c5.1875 0 9.3867-4.2109 9.3867-9.3867 0.011719-5.1875-4.2031-9.3867-9.3906-9.3867zm-132.11 51.801c-23.387 0-42.426-19.023-42.426-42.414 0-23.387 19.023-42.426 42.426-42.426 23.387 0 42.426 19.023 42.426 42.426-0.003906 23.398-19.051 42.414-42.426 42.414z"/>
  <path d="m787.71 759.55h-185.34c-4.5859-33.914-33.727-60.148-68.887-60.148-35.164 0-64.301 26.238-68.898 60.148h-46.363c-5.1758 0-9.375 4.1992-9.375 9.3984 0 5.1875 4.1992 9.375 9.375 9.375h46.363c4.6016 33.926 33.738 60.164 68.898 60.164 35.164 0 64.301-26.238 68.887-60.164h185.34c5.1875 0 9.3867-4.1875 9.3867-9.375 0.015625-5.1992-4.1992-9.3984-9.3867-9.3984zm-254.22 51.812c-23.387 0-42.426-19.023-42.426-42.426 0-23.398 19.023-42.426 42.426-42.426 23.398 0 42.426 19.039 42.426 42.426s-19.039 42.426-42.426 42.426z"/>
 </g>
</svg>
