<?xml version="1.0" encoding="UTF-8"?>
<svg width="1200pt" height="1200pt" version="1.1" viewBox="0 0 1200 1200" xmlns="http://www.w3.org/2000/svg">
 <path d="m587.21 186.37h-409.26c-6.3242 0-11.027 0.80469-11.027 9.5156l0.73047 27.371v1.1406l7.7266 153.28c0 8.3633 3.6836 9.9258 7.332 9.875 37.078 0 204.88 0.37109 204.88 0.37109s160.8 0.78125 193.12-0.37109c9.5625 0.76953 11.027-8.375 11.027-8.375l6.2422-154.78v-0.40625l0.73047-26.219c-0.011719-8.7031-5.1719-11.402-11.496-11.402zm-26.566 158.54h-355.23l-9.4219-110.24h370.41zm351.86 578.18c0 1.9336-1.5352 3.4922-3.4336 3.4922h-98.293c-1.8828 0-3.4062-1.5586-3.4062-3.4922v-100.14c0-1.9219 1.5234-3.4805 3.4062-3.4805h98.293c1.8945 0 3.4336 1.5586 3.4336 3.4805zm-143.07 0c0 1.9336-1.5469 3.4922-3.4336 3.4922h-98.27c-1.8945 0-3.4453-1.5586-3.4453-3.4922v-100.14c0-1.9219 1.5469-3.4805 3.4453-3.4805h98.27c1.8828 0 3.4336 1.5586 3.4336 3.4805zm286.15 0c0 1.9336-1.5469 3.4922-3.4336 3.4922h-98.281c-1.8828 0-3.4453-1.5586-3.4453-3.4922v-100.14c0-1.9219 1.5586-3.4805 3.4453-3.4805h98.281c1.8828 0 3.4336 1.5586 3.4336 3.4805zm-143.07-138.61c0 1.9336-1.5352 3.5156-3.4336 3.5156h-98.293c-1.8828 0-3.4062-1.5859-3.4062-3.5156v-100.12c0-1.9219 1.5234-3.4922 3.4062-3.4922h98.293c1.8945 0 3.4336 1.5703 3.4336 3.4922zm-143.07 0c0 1.9336-1.5469 3.5156-3.4336 3.5156h-98.27c-1.8945 0-3.4453-1.5859-3.4453-3.5156l0.003906-100.12c0-1.9219 1.5469-3.4922 3.4453-3.4922h98.27c1.8828 0 3.4336 1.5703 3.4336 3.4922zm286.15 0c0 1.9336-1.5469 3.5156-3.4336 3.5156h-98.281c-1.8828 0-3.4453-1.5859-3.4453-3.5156l0.007812-100.12c0-1.9219 1.5586-3.4922 3.4453-3.4922h98.281c1.8828 0 3.4336 1.5703 3.4336 3.4922zm-143.07-138.59c0 1.9219-1.5352 3.5039-3.4336 3.5039h-98.293c-1.8828 0-3.4062-1.5859-3.4062-3.5039v-100.12c0-1.9453 1.5234-3.5039 3.4062-3.5039h98.293c1.8945 0 3.4336 1.5586 3.4336 3.5039zm-143.07 0c0 1.9219-1.5469 3.5039-3.4336 3.5039h-98.27c-1.8945 0-3.4453-1.5859-3.4453-3.5039v-100.12c0-1.9453 1.5469-3.5039 3.4453-3.5039h98.27c1.8828 0 3.4336 1.5586 3.4336 3.5039zm286.15 0c0 1.9219-1.5469 3.5039-3.4336 3.5039h-98.281c-1.8828 0-3.4453-1.5859-3.4453-3.5039v-100.12c0-1.9453 1.5586-3.5039 3.4453-3.5039h98.281c1.8828 0 3.4336 1.5586 3.4336 3.5039zm60.602-408.52h-490.15l-6.3945 159.73s-1.6562 10.32-12.434 9.4453c-36.422 1.2734-217.67 0.40625-217.67 0.40625s-189.14-0.40625-230.95-0.40625c-4.1289 0.058594-8.2695-1.7031-8.2695-11.148l-7.9688-158.03h-58.52c-13.152 0-23.82 10.68-23.82 23.844v728.59c0 13.164 10.668 23.82 23.82 23.82h1032.3c13.164 0 23.82-10.668 23.82-23.82v-728.59c0.011719-13.164-10.656-23.844-23.809-23.844zm-969.23 253.72c0-4.8008 4.5234-8.7461 10.141-8.7461 5.5781 0 10.094 3.9492 10.094 8.7461v195.45h-20.23zm20.23 447.46c0 4.8242-4.5 8.7344-10.094 8.7344-5.6172 0-10.141-3.8984-10.141-8.7344l0.003906-181.95h20.23zm41.879-214.15c0 6.4922-5.8086 11.723-12.973 11.723l-78.023 0.003906c-7.1875 0-13.02-5.2305-13.02-11.723v-11.148c0-6.4453 5.832-11.773 13.02-11.773h78.035c7.1641 0 12.973 5.3281 12.973 11.773v11.145zm116.86 226.72c0 2.2422-1.7539 4.0312-3.875 4.0312h-85.547c-2.125 0-3.875-1.7891-3.875-4.0312v-43.164c0-2.2305 1.7539-4.0195 3.875-4.0195h85.547c2.125 0 3.875 1.7891 3.875 4.0195zm100.18-455.99c48.742 0 88.246 39.492 88.246 88.246 0 48.742-39.516 88.234-88.246 88.234-48.73 0-88.246-39.48-88.246-88.234-0.003906-48.754 39.5-88.246 88.246-88.246zm-88.25 316.19v-79.078c0-4.0547 3.2891-7.332 7.3555-7.332l161.8-0.003906c4.0547 0 7.3555 3.2773 7.3555 7.332v79.078c0 4.0547-3.3008 7.3438-7.3555 7.3438l-161.8 0.003906c-4.0664 0.011719-7.3555-3.2891-7.3555-7.3438zm117.53 139.8c0 2.2422-1.7383 4.0312-3.8867 4.0312h-85.512c-2.1602 0-3.8867-1.7891-3.8867-4.0312v-43.164c0-2.2305 1.7383-4.0195 3.8867-4.0195h85.512c2.1602 0 3.8867 1.7891 3.8867 4.0195zm132.43 0c0 2.2422-1.7383 4.0312-3.875 4.0312h-85.535c-2.1484 0-3.9102-1.7891-3.9102-4.0312v-43.164c0-2.2305 1.7539-4.0195 3.9102-4.0195h85.535c2.1367 0 3.875 1.7891 3.875 4.0195zm412.93-593.61c24.203 0 43.777 19.609 43.777 43.801 0 24.18-19.586 43.789-43.777 43.789-24.191 0-43.789-19.621-43.789-43.789-0.007813-24.191 19.586-43.801 43.789-43.801zm-141.21 0c24.191 0 43.777 19.609 43.777 43.801 0 24.18-19.598 43.789-43.777 43.789-24.203 0-43.789-19.621-43.789-43.789 0-24.191 19.586-43.801 43.789-43.801zm227.91 583.24c0 7.9453-6.6602 14.387-14.867 14.387h-425.28c-8.207 0-14.844-6.4453-14.844-14.387v-411.83c0-7.9336 6.6484-14.387 14.844-14.387l425.28-0.003906c8.2188 0 14.867 6.457 14.867 14.387zm-616.32-357.38c0 24.863-20.16 45.035-45.012 45.035-24.875 0-45.035-20.172-45.035-45.035 0-24.863 20.16-45.035 45.035-45.035 24.852 0 45.012 20.172 45.012 45.035z"/>
</svg>
