<?xml version="1.0" encoding="UTF-8"?>
<svg width="1200pt" height="1200pt" version="1.1" viewBox="0 0 1200 1200" xmlns="http://www.w3.org/2000/svg">
 <path d="m1098.4 472.8c0-36.398-25.602-66.801-60-74v-322.8h-876.8v830.8c-34.398 7.1992-60 37.602-60 74 0 36.398 25.602 66.801 60 74v69.199h876.8v-286l-0.007812-222v-68.801c34.402-7.5977 60-37.598 60-74.398zm-341.6-364.8h249.6v222h-249.6zm-281.6 0h249.6v222h-249.6zm249.6 290.8c-34.398 7.1992-60 37.602-60 74 0 36.398 25.602 66.801 60 74v36.801h-249.6v-221.6h249.6zm0 439.2h-249.6v-36.801c34.398-7.1992 60-37.602 60-74 0-36.398-25.602-66.801-60-74v-37.199h249.6zm-531.2-730h249.6v222h-249.6zm0 254h249.6l-0.003906 222h-249.6zm0 254h249.6v36.801c-34.398 7.1992-60 37.602-60 74 0 36.398 25.602 66.801 60 74v36.801h-249.6zm249.6 476h-249.6v-36.801c34.398-7.1992 60-37.602 60-74 0-36.398-25.602-66.801-60-74v-36.801h249.6zm281.6 0h-249.6v-222h249.6zm281.6 0h-249.6v-222h249.6zm0-254h-249.6l0.003906-222h249.6zm-249.6-254v-36.801c34.398-7.1992 60-37.602 60-74 0-36.398-25.602-66.801-60-74v-36.801h249.6v36.801c-34.398 7.1992-60 37.602-60 74 0 36.398 25.602 66.801 60 74v36.801z"/>
</svg>
