<?xml version="1.0" encoding="UTF-8"?>
<svg width="1200pt" height="1200pt" version="1.1" viewBox="0 0 1200 1200" xmlns="http://www.w3.org/2000/svg">
 <g>
  <path d="m1097.6 787.68v-0.23828l-59.641-310.92v-178.32c0-9.9609-8.0391-18-18-18h-840c-9.9609 0-18 8.0391-18 18v178.32l-59.641 310.92v0.23828 0.96094c0 0.83984-0.23828 1.6797-0.23828 2.5195v107.16c0 9.9609 8.0391 18 18 18h959.88c9.9609 0 18-8.0391 18-18v-107.16c0-0.83984-0.12109-1.6797-0.23828-2.5195v-0.96094zm-35.641 92.52h-924v-71.16h924zm-867.12-384h810.24l53.039 276.84h-916.44l53.039-276.84zm3.1211-180h804v144h-804z"/>
  <path d="m568.56 339.24h-297.12c-9.9609 0-18 8.0391-18 18v61.922c0 9.9609 8.0391 18 18 18h297c9.9609 0 18-8.0391 18-18v-61.922c0-9.9609-8.0391-18-18-18zm-18 61.922h-261.12v-25.922h261v25.922z"/>
  <path d="m685.68 341.04c-26.039 0-47.16 21.121-47.16 47.16 0 26.039 21.121 47.16 47.16 47.16 26.039 0 47.16-21.121 47.16-47.16 0-26.039-21.121-47.16-47.16-47.16zm0 58.32c-6.1211 0-11.16-5.0391-11.16-11.16 0-6.1211 5.0391-11.16 11.16-11.16 6.1211 0 11.16 5.0391 11.16 11.16 0 6.1211-5.0391 11.16-11.16 11.16z"/>
  <path d="m809.16 341.04c-26.039 0-47.16 21.121-47.16 47.16 0 26.039 21.121 47.16 47.16 47.16 26.039 0 47.16-21.121 47.16-47.16 0-26.039-21.121-47.16-47.16-47.16zm0 58.32c-6.1211 0-11.16-5.0391-11.16-11.16 0-6.1211 5.0391-11.16 11.16-11.16s11.16 5.0391 11.16 11.16c0 6.1211-5.0391 11.16-11.16 11.16z"/>
  <path d="m226.8 700.92-4.5586 29.16c-1.5586 9.8398 5.1602 19.078 15 20.52 0.96094 0.12109 1.9219 0.23828 2.7617 0.23828 8.7617 0 16.32-6.3594 17.762-15.238l4.5586-29.039c22.199-4.9219 39-24.719 39-48.48 0-18.238-10.078-34.078-24.719-42.719l11.879-76.32c1.5586-9.8398-5.1602-19.078-15-20.52-9.7188-1.5586-18.961 5.1602-20.52 15l-11.879 76.199c-22.199 4.9219-39 24.719-39 48.359 0 18.238 10.078 34.078 24.719 42.719zm24.84-56.398c7.5586 0 13.68 6.1211 13.68 13.68s-6.1211 13.68-13.68 13.68-13.68-6.1211-13.68-13.68 6.1211-13.68 13.68-13.68z"/>
  <path d="m352.08 634.92-9.9609 96.121c-1.0781 9.8398 6.1211 18.719 16.078 19.801h1.9219c9.1211 0 16.922-6.8398 17.879-16.078l9.9609-95.52c21.238-5.6406 37.078-24.84 37.078-47.879 0-19.441-11.281-36-27.602-44.16l0.96094-8.8789c1.0781-9.8398-6.1211-18.719-16.078-19.801-9.9609-0.96094-18.719 6.1211-19.801 16.078l-0.96094 9.3594c-20.641 6-35.879 24.84-35.879 47.398 0 18.961 10.801 35.281 26.398 43.559zm23.281-57.238c7.5586 0 13.68 6.1211 13.68 13.68 0 7.5586-6.1211 13.68-13.68 13.68s-13.68-6.1211-13.68-13.68c0-7.5586 6.1211-13.68 13.68-13.68z"/>
  <path d="m462.84 715.08-0.83984 16.801c-0.48047 9.9609 7.0781 18.359 17.039 18.961h0.96094c9.4805 0 17.52-7.4414 18-17.039l0.96094-18c19.078-6.9609 32.762-25.078 32.762-46.441 0-19.559-11.52-36.359-28.078-44.52l4.5586-87.602c0.48047-9.9609-7.0781-18.359-17.039-18.961-9.8398-0.60156-18.359 7.0781-18.961 17.039l-4.5586 86.641c-20.398 6.2383-35.281 24.961-35.281 47.281 0 20.641 12.602 38.281 30.48 45.84zm19.078-59.398c7.5586 0 13.68 6.1211 13.68 13.68s-6.1211 13.68-13.68 13.68c-7.5586 0-13.68-6.1211-13.68-13.68s6.1211-13.68 13.68-13.68z"/>
  <path d="m582 644.28v88.559c0 9.9609 8.0391 18 18 18s18-8.0391 18-18v-88.559c18.48-7.1992 31.68-25.078 31.68-46.078s-13.199-38.879-31.68-46.078v-15.719c0-9.9609-8.0391-18-18-18s-18 8.0391-18 18v15.719c-18.48 7.1992-31.68 25.078-31.68 46.078s13.199 38.879 31.68 46.078zm18-59.762c7.5586 0 13.68 6.1211 13.68 13.68 0 7.5586-6.1211 13.68-13.68 13.68s-13.68-6.1211-13.68-13.68c0-7.5586 6.1211-13.68 13.68-13.68z"/>
  <path d="m700.68 708.84 1.3203 24.961c0.48047 9.6016 8.3984 17.039 18 17.039h0.96094c9.9609-0.48047 17.52-9 17.039-18.961l-1.3203-26.039c16.441-8.0391 27.961-24.84 27.961-44.398 0-21.359-13.68-39.48-32.641-46.441l-4.0781-79.559c-0.48047-9.9609-9.1211-17.641-18.961-17.039-9.9609 0.48047-17.52 9-17.039 18.961l4.0781 78.359c-18 7.4414-30.602 25.199-30.602 45.84 0 22.441 15 41.16 35.52 47.281zm14.16-60.961c7.5586 0 13.68 6.1211 13.68 13.68s-6.1211 13.68-13.68 13.68-13.68-6.1211-13.68-13.68 6.1211-13.68 13.68-13.68z"/>
  <path d="m804.12 600.48c1.3203 8.7617 8.8789 15.238 17.762 15.238h117.36c5.2812 0 10.199-2.2812 13.68-6.2383 3.4805-3.9609 4.9219-9.2383 4.0781-14.52l-9.6016-61.32c-1.3203-8.7617-8.8789-15.238-17.762-15.238h-117.36c-5.2812 0-10.199 2.2812-13.68 6.2383-3.4805 3.9609-4.9219 9.2383-4.0781 14.52zm33.238-20.762-3.9609-25.32h81l3.9609 25.32z"/>
  <path d="m836.04 644.4c-5.2812 0-10.199 2.2812-13.68 6.2383-3.4805 3.9609-4.9219 9.2383-4.0781 14.52l9.6016 61.32c1.3203 8.7617 8.8789 15.238 17.762 15.238h117.36c5.2812 0 10.199-2.2812 13.68-6.2383 3.4805-3.9609 4.9219-9.2383 4.0781-14.52l-9.6016-61.32c-1.3203-8.7617-8.8789-15.238-17.762-15.238zm25.078 61.32-3.9609-25.32h81l3.9609 25.32z"/>
 </g>
</svg>
