<?xml version="1.0" encoding="UTF-8"?>
<svg width="1200pt" height="1200pt" version="1.1" viewBox="0 0 1200 1200" xmlns="http://www.w3.org/2000/svg">
 <path d="m791.76 695.27c15.148-24.809 24.762-52.594 28.188-81.457 3.3906-29.371 0.10156-59.129-9.6211-87.055-9.7227-27.922-25.629-53.285-46.531-74.199-20.613-20.492-45.406-36.293-72.684-46.328-5.6523-2.0625-11.348-3.7656-17.047-5.375 48.922-18.559 90.312-52.809 117.7-97.398 15.148-24.805 24.762-52.59 28.188-81.449 3.3906-29.375 0.10156-59.133-9.6211-87.059-9.7227-27.922-25.629-53.285-46.531-74.199-20.613-20.492-45.406-36.293-72.684-46.328-51.27-18.812-107.47-19.277-159.04-1.3164-51.574 17.957-95.332 53.23-123.83 99.816-15.145 24.809-24.758 52.594-28.184 81.453-3.3906 29.375-0.10156 59.133 9.6211 87.055 9.7227 27.926 25.629 53.289 46.531 74.203 20.613 20.492 45.406 36.293 72.684 46.328 5.6562 2.0625 11.348 3.7656 17.051 5.375-48.926 18.559-90.316 52.809-117.7 97.395-15.145 24.809-24.758 52.594-28.184 81.457-3.3906 29.371-0.10156 59.129 9.6211 87.051 9.7227 27.926 25.629 53.289 46.531 74.203 20.613 20.492 45.406 36.293 72.684 46.328 5.6562 2.0625 11.348 3.7656 17.051 5.375-48.926 18.559-90.316 52.809-117.7 97.395-15.145 24.809-24.758 52.594-28.184 81.453-3.3906 29.375-0.10156 59.133 9.6211 87.055 9.7227 27.926 25.629 53.289 46.531 74.203 20.613 20.492 45.406 36.293 72.684 46.328 51.27 18.812 107.47 19.277 159.04 1.3164 51.574-17.957 95.328-53.23 123.82-99.816 15.148-24.809 24.762-52.594 28.188-81.453 3.3906-29.375 0.10156-59.133-9.6211-87.055-9.7227-27.926-25.629-53.289-46.531-74.203-20.613-20.492-45.406-36.293-72.684-46.328-5.6562-2.0625-11.348-3.7656-17.051-5.375 48.926-18.559 90.316-52.809 117.7-97.395zm-287.52-394.44c-18.449-32.793-30.922-68.605-36.828-105.77-3.3359-19.598-3.7617-39.586-1.2617-59.309 2.6992-21.07 10.645-41.125 23.105-58.328 13.07-17.66 31.16-30.973 51.91-38.199 20.75-7.2227 43.195-8.0273 64.406-2.3047 20.453 5.7383 39.137 16.523 54.34 31.359 14.211 13.906 26.289 29.832 35.852 47.266 18.449 32.793 30.922 68.605 36.828 105.76 3.3359 19.602 3.7617 39.586 1.2617 59.312-2.6992 21.07-10.645 41.125-23.105 58.328-13.07 17.66-31.16 30.973-51.91 38.195-20.75 7.2266-43.195 8.0312-64.406 2.3086-20.453-5.7422-39.137-16.523-54.34-31.359-14.211-13.906-26.289-29.832-35.852-47.266zm191.52 598.34c18.449 32.793 30.922 68.605 36.828 105.77 3.3359 19.598 3.7617 39.582 1.2617 59.309-2.6992 21.07-10.645 41.125-23.105 58.328-13.07 17.66-31.16 30.973-51.91 38.199-20.75 7.2227-43.195 8.0273-64.406 2.3047-20.453-5.7383-39.137-16.523-54.34-31.359-14.211-13.906-26.289-29.832-35.852-47.266-18.449-32.793-30.922-68.605-36.828-105.76-3.3359-19.602-3.7617-39.586-1.2617-59.312 2.6992-21.07 10.645-41.125 23.105-58.328 13.07-17.66 31.16-30.973 51.91-38.195 20.75-7.2266 43.195-8.0312 64.406-2.3086 20.453 5.7383 39.137 16.523 54.34 31.359 14.211 13.906 26.289 29.832 35.852 47.266zm38.09-226.73c-2.6992 21.07-10.645 41.125-23.105 58.328-13.07 17.66-31.16 30.973-51.91 38.199-20.75 7.2227-43.195 8.0273-64.406 2.3047-20.453-5.7383-39.137-16.523-54.34-31.359-14.211-13.906-26.289-29.832-35.852-47.266-18.449-32.793-30.922-68.605-36.828-105.77-3.3359-19.598-3.7617-39.582-1.2617-59.309 2.6992-21.07 10.645-41.125 23.105-58.328 13.07-17.66 31.16-30.973 51.91-38.199 20.75-7.2227 43.195-8.0273 64.406-2.3047 20.453 5.7383 39.137 16.523 54.34 31.359 14.211 13.906 26.289 29.832 35.852 47.266 18.449 32.793 30.922 68.605 36.828 105.77 3.3359 19.598 3.7617 39.582 1.2617 59.309z"/>
</svg>
