<?xml version="1.0" encoding="UTF-8"?>
<svg width="1200pt" height="1200pt" version="1.1" viewBox="0 0 1200 1200" xmlns="http://www.w3.org/2000/svg">
 <path d="m118.92 28.828h832.43c21.621 0 43.242 21.621 43.242 46.848v46.848h18.02c14.414 0 25.227 10.812 25.227 21.621v46.848h129.73v291.89l-21.621 7.207-518.92 118.92v136.94h57.656v425.23h-165.77v-425.23h54.055v-176.58l21.621-7.207 518.92-118.92v-198.2h-75.676v43.242c0 14.414-10.812 21.621-25.227 21.621h-18.02v50.449c0 21.621-21.621 43.242-43.242 43.242h-536.94v270.27c0 10.812-7.207 18.02-18.02 18.02s-18.02-7.207-18.02-18.02v-115.32c-3.6055 3.6055-10.812 7.207-18.02 7.207-14.414 0-25.227-10.812-25.227-25.227v-136.94h-90.09v349.55c0 10.812-10.812 21.621-21.621 21.621-10.812 0-21.621-10.812-21.621-21.621v-230.63h-3.6055c-18.02 0-32.434-14.414-32.434-32.434v-86.488h-50.453v64.863c0 10.812-7.207 18.02-14.414 18.02-10.812 0-18.02-7.207-18.02-18.02v-86.488c-7.207-7.207-7.207-14.414-7.207-21.621v-50.449h-21.621c-10.812 0-21.621-7.207-21.621-21.621v-144.14c0-10.812 10.812-21.621 21.621-21.621h21.621v-46.848c0-25.227 18.02-46.848 43.242-46.848z" fill-rule="evenodd"/>
</svg>
