<?xml version="1.0" encoding="UTF-8"?>
<svg width="1200pt" height="1200pt" version="1.1" viewBox="0 0 1200 1200" xmlns="http://www.w3.org/2000/svg">
 <path d="m1145.5 436.37h-218.18c-54.539 0-54.539 0-54.539 54.539v218.18c0 54.539 0 54.539 54.539 54.539h218.18c54.539 0 54.539 0 54.539-54.539v-218.18c0-54.539 0-54.539-54.539-54.539zm-436.37-436.37h-218.19c-54.539 0-54.539 0-54.539 54.539v218.18c0 54.539 0 54.539 54.539 54.539h218.18c54.539 0 54.539 0 54.539-54.539l0.003906-218.18c0-54.539 0-54.539-54.539-54.539zm436.37 872.72h-218.18c-54.539 0-54.539 0-54.539 54.539v218.18c0 54.539 0 54.539 54.539 54.539h218.18c54.539 0.015625 54.539 0.015625 54.539-54.523v-218.18c0-54.555 0-54.555-54.539-54.555zm-436.37-436.36h-218.19c-54.539 0-54.539 0-54.539 54.539v218.18c0 54.539 0 54.539 54.539 54.539h218.18c54.539 0 54.539 0 54.539-54.539l0.003906-218.18c0-54.539 0-54.539-54.539-54.539zm-436.37-436.37h-218.18c-54.539 0-54.539 0-54.539 54.539v218.18c0 54.539 0 54.539 54.539 54.539h218.18c54.539 0 54.539 0 54.539-54.539l0.003906-218.18c0.011719-54.539 0.011719-54.539-54.543-54.539zm436.37 872.72h-218.19c-54.539 0-54.539 0-54.539 54.539v218.18c0 54.539 0 54.539 54.539 54.539h218.18c54.539 0 54.539 0 54.539-54.539l0.003906-218.17c0-54.555 0-54.555-54.539-54.555zm-436.37-436.36h-218.18c-54.539 0-54.539 0-54.539 54.539v218.18c0 54.539 0 54.539 54.539 54.539h218.18c54.539 0 54.539 0 54.539-54.539l0.003906-218.18c0.011719-54.539 0.011719-54.539-54.543-54.539zm0 436.36h-218.18c-54.539 0-54.539 0-54.539 54.555v218.18c0 54.539 0 54.539 54.539 54.539h218.18c54.539 0 54.539 0 54.539-54.539l0.003906-218.18c0.011719-54.555 0.011719-54.555-54.543-54.555zm872.74-872.72h-218.18c-54.539 0-54.539 0-54.539 54.539v218.18c0 54.539 0 54.539 54.539 54.539h218.18c54.539 0 54.539 0 54.539-54.539v-218.18c0-54.539 0-54.539-54.539-54.539z"/>
</svg>
