<?xml version="1.0" encoding="UTF-8"?>
<svg width="1200pt" height="1200pt" version="1.1" viewBox="0 0 1200 1200" xmlns="http://www.w3.org/2000/svg">
 <path d="m462.55 350.65c-3.6133 0.69141-6.207 3.8789-6.1406 7.5586v83.121h-83.125c-0.47266-0.042969-0.94531-0.042969-1.418 0-3.6133 0.69141-6.2031 3.8789-6.1406 7.5586v83.121h-83.125c-0.47266-0.042968-0.94531-0.042968-1.418 0-3.6133 0.69141-6.2031 3.8789-6.1406 7.5586v202.85c-0.027344 0.39063-0.027344 0.78906 0 1.1797v37.785c-0.019531 0.3125-0.019531 0.62891 0 0.94531v59.508c0.003906 4.1719 3.3867 7.5547 7.5586 7.5547h453.41c4.1719 0 7.5547-3.3828 7.5547-7.5547v-13.695c0.042969-0.47266 0.042969-0.94922 0-1.418v-30.227c0.042969-0.47266 0.042969-0.94531 0-1.418v-36.367h83.125c4.1758 0 7.5586-3.3828 7.5586-7.5547v-83.125h83.125c4.1719 0 7.5547-3.3828 7.5586-7.5547v-302.27c-0.003906-4.1758-3.3867-7.5586-7.5586-7.5586h-453.41c-0.46875-0.042969-0.94531-0.042969-1.4141 0zm8.9727 15.113h438.3v287.15h-75.57v-204.03h0.003906c0.011719-0.23828 0.011719-0.47266 0-0.70703-0.36719-3.8945-3.6445-6.8672-7.5586-6.8516h-355.17zm-90.684 90.68h438.3v204.03h0.003906c-0.019531 0.3125-0.019531 0.62891 0 0.94531v82.18h-75.57v-204.03c0.011719-0.23828 0.011719-0.47266 0-0.70703-0.36719-3.8945-3.6445-6.8672-7.5547-6.8516h-355.17v-75.566zm-90.684 90.68h438.3v204.03h0.003906c-0.019531 0.3125-0.019531 0.62891 0 0.94531v26.922l-100.6-93.984v-0.003906c-1.7188-1.582-4.0742-2.2773-6.375-1.8906-1.4961 0.21484-2.8945 0.875-4.0156 1.8906l-97.766 88.789-118.79-103.9c-1.7188-1.582-4.0742-2.2773-6.375-1.8906-0.83594 0.17969-1.6367 0.5-2.3633 0.94531l-102.02 61.16zm234.26 45.34c-24.953 0-45.34 20.387-45.34 45.34 0 24.949 20.391 45.34 45.34 45.34 24.953 0 45.34-20.391 45.34-45.34 0-24.953-20.391-45.34-45.34-45.34zm0 15.113c16.785 0 30.227 13.445 30.227 30.227s-13.445 30.227-30.227 30.227c-16.785 0-30.227-13.445-30.227-30.227 0-16.785 13.445-30.227 30.227-30.227zm-129.41 77.219 113.59 99.18-55.258 50.301h-163.18v-51.48 0.003906c0.042969-0.47266 0.042969-0.94922 0-1.418v-33.77l104.85-62.812zm227.65 16.059 105.8 98.945v26.922c-0.019531 0.3125-0.019531 0.62891 0 0.94531v6.6133h-252.68l146.89-133.42z"/>
</svg>
