<?xml version="1.0" encoding="UTF-8"?>
<svg width="1200pt" height="1200pt" version="1.1" viewBox="0 0 1200 1200" xmlns="http://www.w3.org/2000/svg">
 <path d="m70.41 122.24h1059.2c38.684 0 70.41 31.727 70.41 70.41v814.7c0 38.684-31.727 70.41-70.41 70.41h-1059.2c-38.684 0-70.41-31.727-70.41-70.41v-814.7c0-38.684 31.727-70.41 70.41-70.41zm674.5 477.39-216.09-136.93v273.87zm45.609-16.023c11.59 7.3672 11.863 24.527 0 32.047l-270.01 171.09c-12.379 8.4766-29.66-0.32031-29.66-15.688v-342.85c0.0625-14.703 16.387-24.117 29.145-16.023l270.53 171.43zm211.93-423.39v109.91h159.58v-77.473c0-17.891-14.551-32.441-32.441-32.441zm-37.969 109.91v-109.91h-228.82v109.91zm37.969 659.75v109.91h127.14c17.891 0 32.441-14.551 32.441-32.441v-77.473zm-37.969 109.91v-109.91h-228.82v109.91zm-266.79-769.66v-109.91h-228.8v109.91zm0 769.66v-109.91h-228.8v109.91zm-266.78-769.66v-109.91h-228.8v109.91zm0 769.66v-109.91h-228.8v109.91zm-266.78-769.66v-109.91h-93.727c-17.891 0-32.441 14.551-32.441 32.441v77.473zm0 769.66v-109.91h-126.17v77.473c0 17.891 14.551 32.441 32.441 32.441zm997.89-731.7h-1124.1v583.81h1124.1z"/>
</svg>
