<?xml version="1.0" encoding="UTF-8"?>
<svg width="1200pt" height="1200pt" version="1.1" viewBox="0 0 1200 1200" xmlns="http://www.w3.org/2000/svg">
 <g fill="#fff">
  <path d="m1050 375h-600c-19.891 0-38.969 7.9023-53.031 21.969-14.066 14.062-21.969 33.141-21.969 53.031v600c0 19.891 7.9023 38.969 21.969 53.031 14.062 14.066 33.141 21.969 53.031 21.969h600c19.891 0 38.969-7.9023 53.031-21.969 14.066-14.062 21.969-33.141 21.969-53.031v-600c0-19.891-7.9023-38.969-21.969-53.031-14.062-14.066-33.141-21.969-53.031-21.969zm-600 675v-600h600v600z"/>
  <path d="m262.5 750h-112.5v-600h600v112.5c0 13.398 7.1484 25.777 18.75 32.477 11.602 6.6992 25.898 6.6992 37.5 0 11.602-6.6992 18.75-19.078 18.75-32.477v-112.5c0-19.891-7.9023-38.969-21.969-53.031-14.062-14.066-33.141-21.969-53.031-21.969h-600c-19.891 0-38.969 7.9023-53.031 21.969-14.066 14.062-21.969 33.141-21.969 53.031v600c0 19.891 7.9023 38.969 21.969 53.031 14.062 14.066 33.141 21.969 53.031 21.969h112.5c13.398 0 25.777-7.1484 32.477-18.75 6.6992-11.602 6.6992-25.898 0-37.5-6.6992-11.602-19.078-18.75-32.477-18.75z"/>
 </g>
</svg>
