<svg id="Layer_1" data-name="Layer 1" xmlns="http://www.w3.org/2000/svg" viewBox="0 0 351.14 149.29">
  <g id="pALrsk.tif">
    <g>
      <path d="M331.92,105.63h23.65v41.91L347,148.62c1.64,6.15-2.07,9-6.26,11.86-32.77,22.28-65.43,44.72-98.27,66.91-4.36,3-6.35,6.32-6.08,11.49.26,4.93,0,9.88,0,14.83l-1.54.93c-1-1.21-2.89-2.37-3-3.63a175,175,0,0,1-.27-20.35c.11-1.94,2.21-4.27,4-5.53Q286.22,190.21,337,155.52a18.42,18.42,0,0,0,3.22-2.31c.7-.75,1.48-2.08,1.24-2.86a3.2,3.2,0,0,0-2.55-1.77c-7.33.67-7.15-3.89-7-9.1C332.09,128.24,331.92,117,331.92,105.63Z" transform="translate(-4.43 -105.36)"/>
      <path d="M4.43,147.83V105.74H27.58v41.89l-7.36.33c-1.65,3.74,1.21,5,3.43,6.59,31,21.38,62,42.6,92.87,64.15,17,11.91,13.68,5.39,14,26.43,0,2.77,0,5.54,0,8.6-3.34,1.18-5.3.44-5.1-3.62a9.26,9.26,0,0,1,0-1.49c2.71-13.23-3.72-20.59-14.61-27.65-30.45-19.74-60-40.81-89.95-61.38-3.36-2.31-7.25-4.21-6.74-9.45.07-.67-1.9-2-3.08-2.21C9.17,147.56,7.14,147.83,4.43,147.83Z" transform="translate(-4.43 -105.36)"/>
      <path d="M283.13,149.58a29.78,29.78,0,0,0-3.15-.92c-8-1.07-8-1.06-8-9.34V105.5h24.93c0,13.7.1,26.9-.18,40.09,0,1-2.56,2.64-4,2.77-2.89.25-4.31.93-5,4.1-.53,2.29-2.49,4.63-4.44,6.15-19.74,15.42-39.5,30.81-59.51,45.87-4.78,3.6-6.66,7.52-6.48,13.41.37,11.89.11,23.81.11,35.76-3.49,1.26-4.88.17-4.84-3.18.14-14.08.1-28.16.49-42.24,0-1.87,1.75-4.18,3.36-5.44,20.69-16.11,41.51-32,62.24-48.11C280.18,153.45,281.32,151.65,283.13,149.58Z" transform="translate(-4.43 -105.36)"/>
      <path d="M302,105.57h24V147.5a31,31,0,0,0-5.82,1.07c-1.15.44-2.78,1.83-2.75,2.74.14,4.48-3.07,6.41-6,8.5-26,18.65-52,37.33-78.14,55.77-4.37,3.08-6.52,6.34-6.32,11.82.27,7.77-.39,15.56-.49,23.34,0,2.72-.68,4.21-4.43,2.92,0-11.61-.14-23.48.17-35.34,0-1.43,2.22-3.07,3.74-4.16q41-29.53,82.07-58.94a10.43,10.43,0,0,0,2.73-2.12c.66-1,1.29-2.52,1-3.49s-1.88-1.59-3-1.72c-6.71-.77-6.72-.71-6.72-7.33Z" transform="translate(-4.43 -105.36)"/>
      <path d="M140.25,253.81c-3.57,1-5.1.07-5-3.68.19-7.95-.16-15.92.21-23.85.2-4.28-1.16-6.9-4.68-9.4Q90.27,188,50,158.7c-3-2.21-7.42-3.71-6.21-9,.09-.37-1.84-1.57-2.92-1.73a42.39,42.39,0,0,0-6.12-.09V105.66H57.46v40.86l-7.77,3.59c1.7,2,3.07,4.48,5.15,6Q95,185,135.4,213.62c3,2.1,4.77,4.55,4.81,8C140.31,232.37,140.25,243.08,140.25,253.81Z" transform="translate(-4.43 -105.36)"/>
      <path d="M150.1,253.52c-4.67,1.46-4.83-.79-4.86-3.35-.12-11.76-.4-23.52-.36-35.28a10.71,10.71,0,0,0-4.76-9.56c-19.88-15-39.56-30.18-59.32-45.3-3.71-2.83-8-5.26-6-11.2-1.69-.3-2.8-.58-3.92-.68-7.16-.64-7.16-.62-7.16-8.05V105.82h23.6V147l-8,2.93c1.82,2.14,3.33,4.68,5.51,6.34Q115,179.4,145.56,202.15c3.22,2.4,4.71,4.91,4.64,9.06C150,225.4,150.1,239.61,150.1,253.52Z" transform="translate(-4.43 -105.36)"/>
      <path d="M93.48,105.49h24.36v41.67a13.94,13.94,0,0,1-1.28.58c-2.34.69-4.68,1.35-7,2,1.41,2.23,2.4,4.95,4.31,6.62q20.16,17.75,40.7,35.07a11.89,11.89,0,0,1,4.74,9.75c0,17.37,0,34.75,0,52.46-3.88,1.58-4.91-.2-4.88-4.07.13-15.4,0-30.8.19-46.2a9.5,9.5,0,0,0-3.61-8.11c-14.12-12.07-28.07-24.34-42.1-36.51-2.53-2.19-5-4.19-4.71-8.19,0-.82-2.58-2.49-4.09-2.64-6.58-.64-6.6-.49-6.6-7.18Z" transform="translate(-4.43 -105.36)"/>
      <path d="M212.92,105.36H237.4v42.23h-9c1.29,9.41-5.26,14.27-10.53,19.88-5.45,5.81-11.1,11.46-16.08,17.65a17.34,17.34,0,0,0-3.82,9.66c-.44,17.55-.33,35.12-.4,52.68,0,2.12,0,4.24,0,6.21-3.86,1.25-5.13,0-5.13-3.33.05-20.54,0-41.09.14-61.64,0-1.85,1.31-4,2.62-5.49,7.93-8.94,16-17.71,24.07-26.54a18.84,18.84,0,0,0,2.56-3c2-3.47.74-6-3.22-5.7-5,.42-5.79-1.82-5.72-6.09C213.06,129.76,212.92,117.68,212.92,105.36Z" transform="translate(-4.43 -105.36)"/>
      <path d="M243.2,147.6V105.66h22.72v42.27l-7.44.49c.76,6-3.23,9-7,12.25-13,11.11-25.8,22.4-38.91,33.34-3.79,3.17-5.38,6.45-5.28,11.44.31,16,.11,32.07.11,48.06-4.09,1.68-5.23.17-5.16-3.6.3-17,.34-34.11.81-51.16.05-2.08,1.65-4.61,3.29-6.08,13.87-12.37,27.91-24.53,41.9-36.76a10.85,10.85,0,0,0,2.2-2c.73-1.18,1.79-2.76,1.48-3.8s-2.16-1.62-3.45-2A33.76,33.76,0,0,0,243.2,147.6Z" transform="translate(-4.43 -105.36)"/>
      <path d="M183.21,105.71h23.57v42c-1.42.13-2.92-.13-3.94.45-1.59.91-3.4,2.12-4.14,3.66-1.48,3.08-1.7,6.86-3.5,9.67-6.1,9.52-7.47,20-7.46,30.91q0,28.08-.11,56.16c0,1.79-.2,3.57-.31,5.28-4.58,1.23-4.12-1.72-4.12-4.16,0-19.22.54-38.46-.13-57.65-.44-12.65,1.44-24.27,8.52-34.87a14.72,14.72,0,0,0,1.13-2.2c2.22-4.88,1.08-7-4.17-6.8-4.13.16-5.5-1.16-5.42-5.33C183.36,130.38,183.21,118,183.21,105.71Z" transform="translate(-4.43 -105.36)"/>
      <path d="M168.6,253.72c-4,1.51-4.42-.76-4.42-3.88,0-18.39-.15-36.79,0-55.18a15.72,15.72,0,0,0-4.5-11.58c-7.55-8.15-14.88-16.52-22-25-2.23-2.66-3.58-6.05-5.76-9.85l-7.43-.45V106.11h22.72V147.7l-8.83.81c1.45,2.9,2.15,5.38,3.69,7.16,7.79,9.05,15.89,17.84,23.67,26.9,1.5,1.76,2.89,4.31,2.92,6.52.3,21,.3,42.09.37,63.13A6.41,6.41,0,0,1,168.6,253.72Z" transform="translate(-4.43 -105.36)"/>
      <path d="M161.71,148.3c-8.46-1-8.46-1-8.46-10.56v-32h23.81v41.79c-10.55,1.38-11,1.64-5.53,11.07a58.8,58.8,0,0,1,8,34c-1,18.83-.6,37.72-.8,56.59,0,1.59-.14,3.17-.21,4.76l-1.85.32a26.67,26.67,0,0,1-1.09-5.19c-.14-20-.55-40.06-.08-60.07A47.05,47.05,0,0,0,168,161.84C165.5,157.9,164,153.34,161.71,148.3Z" transform="translate(-4.43 -105.36)"/>
    </g>
  </g>
</svg>
