<?xml version="1.0" encoding="utf-8"?>
<!-- Generator: Adobe Illustrator 23.0.3, SVG Export Plug-In . SVG Version: 6.00 Build 0)  -->
<svg version="1.1" id="Layer_1" width="792" height="612" xmlns="http://www.w3.org/2000/svg" xmlns:xlink="http://www.w3.org/1999/xlink" x="0px" y="0px"
	 viewBox="0 0 792 612" style="enable-background:new 0 0 792 612;" xml:space="preserve">
<style type="text/css">
	.st0{fill:#FFFFFF;}
</style>
<g>
	<g>
		<g>
			<path class="st0" d="M488.8,297.5c-1.4,1.6-3.9,3.3-8.2,3.3c-6.5,0-11.5-4.6-11.5-11.6c0-7,5-11.6,11.5-11.6c4.2,0,6.7,1.8,8,3
				l-1.3,2.5c-0.9-1.1-3.4-2.7-6.5-2.7c-4.8,0-8.4,3.5-8.4,8.7c0,5.3,3.5,8.7,8.4,8.7c3,0,5.2-1.1,6.7-2.7L488.8,297.5z"/>
			<path class="st0" d="M503.7,300.5h-3l0-2c-0.6,0.6-2.1,2.3-4.9,2.3c-2.9,0-5.3-1.8-5.3-4.8c0-3,2.5-4.6,6-4.7l4.1-0.2v-0.6
				c0-2.3-1.6-3.5-3.8-3.5c-2.2,0-4.1,1-4.6,1.3l-0.9-2.1c1.1-0.7,3.2-1.6,5.8-1.6c2.6,0,4.1,0.7,5.1,1.8c1,1.1,1.7,2.4,1.7,5V300.5
				z M500.6,293l-3.6,0.2c-2.5,0.1-3.5,1.2-3.5,2.7c0,1.5,1.1,2.7,3.2,2.7c2,0,3.3-1.4,3.9-2.2V293z"/>
			<path class="st0" d="M521.2,300.5H518v-8.6c0-2.6-0.5-4.6-3.2-4.6c-2.9,0-4,2.4-4,5.4v7.8h-3.1V285h3.1l0,2.4h0.1
				c0.8-1.5,2.5-2.7,4.7-2.7c4.4,0,5.5,2.9,5.5,6.6V300.5z"/>
			<path class="st0" d="M537.3,300.5h-3l0-2c-0.6,0.6-2.1,2.3-4.9,2.3c-2.9,0-5.3-1.8-5.3-4.8c0-3,2.5-4.6,6-4.7l4.1-0.2v-0.6
				c0-2.3-1.6-3.5-3.8-3.5c-2.2,0-4.1,1-4.6,1.3l-0.9-2.1c1.1-0.7,3.2-1.6,5.8-1.6c2.6,0,4.1,0.7,5.1,1.8c1,1.1,1.7,2.4,1.7,5V300.5
				z M534.2,293l-3.6,0.2c-2.5,0.1-3.5,1.2-3.5,2.7c0,1.5,1.1,2.7,3.2,2.7c2,0,3.3-1.4,3.9-2.2V293z"/>
			<path class="st0" d="M556.3,300.5h-3V298h-0.1c-1.3,1.9-3.2,2.8-5.4,2.8c-4.6,0-7.5-3.5-7.5-8.1c0-4.6,2.9-8,7.4-8
				c2.5,0,4.3,1.1,5.4,2.7h0.1V278h3.1V300.5z M548.4,287.3c-3.1,0-4.9,2.3-4.9,5.4c0,3.1,1.8,5.5,4.9,5.5c3.1,0,4.9-2.4,4.9-5.5
				C553.3,289.6,551.5,287.3,548.4,287.3z"/>
			<path class="st0" d="M572.7,300.5h-3l0-2c-0.6,0.6-2.1,2.3-4.9,2.3c-2.9,0-5.3-1.8-5.3-4.8c0-3,2.5-4.6,6-4.7l4.1-0.2v-0.6
				c0-2.3-1.6-3.5-3.8-3.5c-2.2,0-4.1,1-4.7,1.3l-0.9-2.1c1.1-0.7,3.2-1.6,5.8-1.6c2.6,0,4.1,0.7,5.1,1.8c1,1.1,1.7,2.4,1.7,5V300.5
				z M569.6,293l-3.6,0.2c-2.5,0.1-3.5,1.2-3.5,2.7c0,1.5,1.1,2.7,3.2,2.7c2,0,3.4-1.4,3.9-2.2V293z"/>
			<path class="st0" d="M601.9,297.5c-1.4,1.6-3.9,3.3-8.2,3.3c-6.5,0-11.5-4.6-11.5-11.6c0-7,5-11.6,11.5-11.6c4.2,0,6.7,1.8,8,3
				l-1.3,2.5c-0.9-1.1-3.4-2.7-6.5-2.7c-4.8,0-8.4,3.5-8.4,8.7c0,5.3,3.5,8.7,8.4,8.7c3,0,5.2-1.1,6.7-2.7L601.9,297.5z"/>
			<path class="st0" d="M611.6,300.8c-4.6,0-8.2-3.2-8.2-8c0-4.8,3.6-8.1,8.2-8.1c4.6,0,8.2,3.3,8.2,8.1
				C619.8,297.6,616.2,300.8,611.6,300.8z M611.6,287.3c-3.1,0-5,2.4-5,5.4c0,3.1,1.9,5.5,5,5.5c3.1,0,5-2.4,5-5.5
				C616.6,289.7,614.7,287.3,611.6,287.3z"/>
			<path class="st0" d="M636.2,300.5h-3l0-2.2c-0.8,1.5-2.6,2.6-4.8,2.6c-2.2,0-3.5-0.7-4.3-1.8c-0.8-1-1.1-2.6-1.1-4.8V285h3.1v9.1
				c0,2.1,0.5,4.1,3.2,4.1c2.7,0,3.8-2.3,3.8-4.9V285h3.1V300.5z"/>
			<path class="st0" d="M653.9,300.5h-3.1v-8.6c0-2.6-0.5-4.6-3.2-4.6c-2.9,0-4,2.4-4,5.4v7.8h-3.1V285h3.1l0,2.4h0.1
				c0.8-1.5,2.5-2.7,4.7-2.7c4.4,0,5.5,2.9,5.5,6.6V300.5z"/>
			<path class="st0" d="M671,298.5c-0.5,0.5-2,2.3-6.2,2.3c-4.2,0-7.8-3.1-7.8-8.1c0-5,3.8-8,7.9-8c4.1,0,5.8,2,6,2.2l-1.1,2.3
				c-0.5-0.5-1.9-1.9-4.6-1.9c-2.7,0-5,2.1-5,5.3c0,3.2,2,5.5,5,5.5c3,0,4.7-1.9,4.7-1.9L671,298.5z"/>
			<path class="st0" d="M675.2,281.9c-1.2,0-2-0.8-2-1.9c0-1.1,0.8-1.9,2-1.9c1.2,0,2,0.8,2,1.9C677.2,281,676.4,281.9,675.2,281.9z
				 M676.8,300.5h-3.1V285h3.1V300.5z"/>
			<path class="st0" d="M684.4,300.5h-3.1V278h3.1V300.5z"/>
			<path class="st0" d="M477.9,316.9c0,0-0.9-0.3-1.8-0.3c-2,0-2.4,1.5-2.4,3.3v1.7h3.7v2.5h-3.7V337h-3.1v-12.9h-2.2v-2.5h2.2v-1.6
				c0-2,0.4-3.3,1-4.1c0.7-0.8,1.9-1.7,3.7-1.7c1.8,0,2.7,0.4,2.7,0.4L477.9,316.9z"/>
			<path class="st0" d="M486.1,337.4c-4.6,0-8.2-3.2-8.2-8c0-4.8,3.6-8.1,8.2-8.1c4.6,0,8.2,3.3,8.2,8.1
				C494.3,334.2,490.7,337.4,486.1,337.4z M486.1,323.8c-3.1,0-5,2.4-5,5.4c0,3.1,1.9,5.5,5,5.5c3.1,0,5-2.4,5-5.5
				C491.1,326.2,489.2,323.8,486.1,323.8z"/>
			<path class="st0" d="M505.9,324.4h-0.1c-0.3-0.1-0.8-0.3-1.7-0.3c-1.4,0-2.2,0.9-2.5,1.3c-0.3,0.4-0.9,1.6-0.9,3.9v7.7h-3.1
				v-15.4h3.1l0,2.4h0.1c0.7-1.8,2.1-2.7,3.8-2.7c1,0,1.6,0.3,1.6,0.3L505.9,324.4z"/>
			<path class="st0" d="M522.4,336.9c0,0-1.2,0.5-2.8,0.5c-1.6,0-2.6-0.6-3.3-1.6c-0.6-1-0.8-2.2-0.8-4.6v-7.1h-2.3v-2.5h2.3V317
				h3.1v4.6h3.7v2.5h-3.7v7c0,1.3,0,2.2,0.4,2.8c0.3,0.5,0.7,0.8,1.6,0.8c0.9,0,1.6-0.4,1.6-0.4L522.4,336.9z"/>
			<path class="st0" d="M538.6,337h-3.1v-8.7c0-2.2-0.4-4.4-3.2-4.4c-2.8,0-4,2.4-4,5.5v7.6h-3.1v-22.4h3.1v9.4h0.1
				c0.8-1.5,2.5-2.7,4.7-2.7c4.5,0,5.5,2.9,5.5,6.5V337z"/>
			<path class="st0" d="M556.8,330h-11.9c0.2,3.1,2.1,4.9,5,4.9c2.9,0,4.7-1.6,5.1-1.8l1.3,1.8c-0.2,0.2-2.2,2.4-6.8,2.4
				c-4.6,0-7.7-3.2-7.7-8.1c0-4.9,3.5-8,7.8-8c4.3,0,7.3,3.1,7.3,7.4C556.9,329.3,556.8,330,556.8,330z M554,328
				c0-1.7-1.3-4.4-4.5-4.4c-3.1,0-4.5,2.6-4.6,4.4H554z"/>
			<path class="st0" d="M585.4,337h-3.5l-2.3-5.9H570l-2.3,5.9h-3.3l9.1-22.5h2.8L585.4,337z M578.7,328.5l-3.9-10.1l-3.9,10.1
				H578.7z"/>
			<path class="st0" d="M596,324.4h-0.1c-0.3-0.1-0.8-0.3-1.7-0.3c-1.4,0-2.2,0.9-2.5,1.3c-0.3,0.4-0.9,1.6-0.9,3.9v7.7h-3.1v-15.4
				h3.1l0,2.4h0.1c0.7-1.8,2.1-2.7,3.8-2.7c1,0,1.6,0.3,1.6,0.3L596,324.4z"/>
			<path class="st0" d="M606,336.9c0,0-1.2,0.5-2.8,0.5c-1.6,0-2.6-0.6-3.3-1.6c-0.7-1-0.8-2.2-0.8-4.6v-7.1h-2.3v-2.5h2.3V317h3.1
				v4.6h3.7v2.5h-3.7v7c0,1.3,0,2.2,0.4,2.8c0.3,0.5,0.7,0.8,1.6,0.8c0.9,0,1.6-0.4,1.6-0.4L606,336.9z"/>
			<path class="st0" d="M617.4,336c-1.1,0.9-2.5,1.4-4.3,1.4c-2.6,0-4.7-1.1-6-2.8l1.5-1.8c1.2,1.4,3.1,2.2,4.6,2.2
				c1.4,0,3-0.5,3-2.2c0-1.7-2.4-2.2-3.5-2.6c-1-0.4-1.4-0.4-2.1-0.8c-1-0.5-2.4-1.5-2.4-3.7c0-2.9,2.5-4.4,5.2-4.4
				c2.7,0,4.3,1,5.3,2l-1.3,1.9c-0.9-0.9-2.4-1.7-3.9-1.7c-1.5,0-2.5,0.7-2.5,1.9c0,1.3,1.5,1.8,3,2.3c0.8,0.3,1.4,0.5,2.1,0.7
				c0.6,0.3,1.3,0.6,1.8,1.1c0.6,0.6,1.2,1.5,1.2,2.9C619,334,618.4,335.2,617.4,336z"/>
		</g>
	</g>
	<g>
		<path class="st0" d="M246.7,297.5c-1.4,1.6-3.9,3.3-8.2,3.3c-6.5,0-11.5-4.6-11.5-11.6c0-7,5-11.6,11.5-11.6c4.2,0,6.7,1.8,8,3
			l-1.3,2.5c-0.9-1.1-3.4-2.7-6.5-2.7c-4.8,0-8.4,3.5-8.4,8.7c0,5.3,3.5,8.7,8.4,8.7c3,0,5.2-1.1,6.7-2.7L246.7,297.5z"/>
		<path class="st0" d="M256.5,300.8c-4.6,0-8.2-3.2-8.2-8c0-4.8,3.6-8.1,8.2-8.1c4.6,0,8.2,3.3,8.2,8.1
			C264.6,297.6,261,300.8,256.5,300.8z M256.5,287.3c-3.1,0-5,2.4-5,5.4c0,3.1,1.9,5.5,5,5.5c3.1,0,5-2.4,5-5.5
			C261.5,289.7,259.5,287.3,256.5,287.3z"/>
		<path class="st0" d="M281.3,300.5h-3.1v-8.6c0-2.6-0.5-4.6-3.2-4.6c-2.9,0-4,2.4-4,5.4v7.8h-3.1V285h3.1l0,2.4h0.1
			c0.8-1.5,2.5-2.7,4.7-2.7c4.4,0,5.5,2.9,5.5,6.6V300.5z"/>
		<path class="st0" d="M294.3,299.4c-1.1,0.9-2.5,1.4-4.3,1.4c-2.6,0-4.7-1.1-6-2.8l1.5-1.8c1.2,1.4,3.1,2.2,4.6,2.2
			c1.4,0,3-0.5,3-2.2c0-1.7-2.4-2.2-3.5-2.6c-1-0.4-1.4-0.4-2.1-0.8c-1-0.5-2.4-1.5-2.4-3.7c0-2.9,2.5-4.4,5.2-4.4
			c2.7,0,4.3,1,5.3,2l-1.3,1.9c-0.9-0.9-2.4-1.7-3.9-1.7c-1.5,0-2.5,0.6-2.5,1.9c0,1.3,1.5,1.8,3,2.3c0.8,0.3,1.4,0.5,2.1,0.7
			c0.6,0.3,1.3,0.6,1.8,1.1c0.6,0.5,1.2,1.5,1.2,2.9C295.9,297.4,295.3,298.6,294.3,299.4z"/>
		<path class="st0" d="M312.9,293.5H301c0.2,3.1,2.1,4.9,5,4.9c2.9,0,4.7-1.6,5.1-1.8l1.3,1.8c-0.2,0.2-2.2,2.4-6.8,2.4
			c-4.6,0-7.7-3.2-7.7-8.1c0-4.9,3.5-8,7.8-8c4.3,0,7.3,3.1,7.3,7.4C313,292.7,312.9,293.5,312.9,293.5z M310.1,291.4
			c0-1.7-1.3-4.4-4.5-4.4c-3.1,0-4.5,2.6-4.6,4.4H310.1z"/>
		<path class="st0" d="M317.8,281.9c-1.2,0-2-0.8-2-1.9c0-1.1,0.8-1.9,2-1.9c1.2,0,2,0.8,2,1.9C319.8,281,319,281.9,317.8,281.9z
			 M319.4,300.5h-3.1V285h3.1V300.5z"/>
		<path class="st0" d="M327,300.5h-3.1V278h3.1V300.5z"/>
		<path class="st0" d="M352.9,300.5h-3V298h-0.1c-1.3,1.9-3.2,2.8-5.4,2.8c-4.6,0-7.5-3.5-7.5-8.1c0-4.6,2.9-8,7.4-8
			c2.5,0,4.3,1.1,5.4,2.7h0.1V278h3.1V300.5z M345,287.3c-3.1,0-4.9,2.3-4.9,5.4c0,3.1,1.8,5.5,4.9,5.5c3.1,0,4.9-2.4,4.9-5.5
			C349.9,289.6,348.1,287.3,345,287.3z"/>
		<path class="st0" d="M371.4,293.5h-11.9c0.2,3.1,2.1,4.9,5,4.9c2.9,0,4.7-1.6,5.1-1.8l1.3,1.8c-0.2,0.2-2.2,2.4-6.8,2.4
			c-4.6,0-7.7-3.2-7.7-8.1c0-4.9,3.5-8,7.8-8c4.3,0,7.3,3.1,7.3,7.4C371.5,292.7,371.4,293.5,371.4,293.5z M368.5,291.4
			c0-1.7-1.3-4.4-4.5-4.4c-3.1,0-4.5,2.6-4.6,4.4H368.5z"/>
		<path class="st0" d="M383.4,299.4c-1.1,0.9-2.5,1.4-4.3,1.4c-2.6,0-4.7-1.1-6-2.8l1.5-1.8c1.2,1.4,3.1,2.2,4.6,2.2
			c1.4,0,3-0.5,3-2.2c0-1.7-2.4-2.2-3.5-2.6c-1-0.4-1.4-0.4-2.1-0.8c-1-0.5-2.4-1.5-2.4-3.7c0-2.9,2.5-4.4,5.2-4.4
			c2.7,0,4.3,1,5.3,2l-1.3,1.9c-0.9-0.9-2.4-1.7-3.9-1.7c-1.5,0-2.5,0.6-2.5,1.9c0,1.3,1.5,1.8,3,2.3c0.8,0.3,1.4,0.5,2.1,0.7
			c0.6,0.3,1.3,0.6,1.8,1.1c0.6,0.5,1.2,1.5,1.2,2.9C385,297.4,384.4,298.6,383.4,299.4z"/>
		<path class="st0" d="M406.5,300.5h-3l0-2c-0.6,0.6-2.1,2.3-4.9,2.3c-2.9,0-5.3-1.8-5.3-4.8c0-3,2.5-4.6,6-4.7l4.1-0.2v-0.6
			c0-2.3-1.6-3.5-3.8-3.5c-2.2,0-4.1,1-4.6,1.3l-0.9-2.1c1.1-0.7,3.2-1.6,5.8-1.6c2.6,0,4.1,0.7,5.1,1.8c1,1.1,1.7,2.4,1.7,5V300.5z
			 M403.4,293l-3.6,0.2c-2.5,0.1-3.5,1.2-3.5,2.7c0,1.5,1.1,2.7,3.2,2.7c2,0,3.3-1.4,3.9-2.2V293z"/>
		<path class="st0" d="M418.9,287.9h-0.1c-0.3-0.1-0.8-0.3-1.7-0.3c-1.4,0-2.2,0.9-2.5,1.3c-0.3,0.4-0.9,1.6-0.9,3.9v7.7h-3.1V285
			h3.1l0,2.4h0.1c0.7-1.8,2.1-2.7,3.8-2.7c1,0,1.6,0.3,1.6,0.3L418.9,287.9z"/>
		<path class="st0" d="M428.9,300.3c0,0-1.2,0.5-2.8,0.5c-1.6,0-2.6-0.6-3.3-1.6c-0.6-1-0.8-2.2-0.8-4.6v-7.1h-2.3V285h2.3v-4.6h3.1
			v4.6h3.7v2.5h-3.7v7c0,1.3,0,2.2,0.4,2.8c0.3,0.5,0.7,0.8,1.6,0.8c0.9,0,1.6-0.4,1.6-0.4L428.9,300.3z"/>
		<path class="st0" d="M440.3,299.4c-1.1,0.9-2.5,1.4-4.3,1.4c-2.6,0-4.7-1.1-6-2.8l1.5-1.8c1.2,1.4,3.1,2.2,4.6,2.2
			c1.4,0,3-0.5,3-2.2c0-1.7-2.4-2.2-3.5-2.6c-1-0.4-1.4-0.4-2.1-0.8c-1-0.5-2.4-1.5-2.4-3.7c0-2.9,2.5-4.4,5.2-4.4
			c2.7,0,4.3,1,5.3,2l-1.3,1.9c-0.9-0.9-2.4-1.7-3.9-1.7c-1.5,0-2.5,0.6-2.5,1.9c0,1.3,1.5,1.8,3,2.3c0.8,0.3,1.4,0.5,2.1,0.7
			c0.6,0.3,1.3,0.6,1.8,1.1c0.6,0.5,1.2,1.5,1.2,2.9C441.9,297.4,441.3,298.6,440.3,299.4z"/>
		<path class="st0" d="M243,337h-3v-2.5h-0.1c-1.3,1.9-3.2,2.8-5.4,2.8c-4.6,0-7.5-3.5-7.5-8.1c0-4.6,2.9-8,7.4-8
			c2.5,0,4.3,1.1,5.4,2.7h0.1v-9.4h3.1V337z M235.1,323.8c-3.1,0-4.9,2.3-4.9,5.4c0,3.1,1.8,5.5,4.9,5.5c3.1,0,4.9-2.4,4.9-5.5
			C240,326.2,238.2,323.8,235.1,323.8z"/>
		<path class="st0" d="M260.6,337h-3l0-2.2c-0.8,1.5-2.6,2.6-4.8,2.6c-2.2,0-3.5-0.8-4.3-1.8c-0.8-1-1.1-2.6-1.1-4.8v-9.3h3.1v9.1
			c0,2.1,0.5,4.1,3.2,4.1c2.7,0,3.8-2.3,3.8-4.9v-8.3h3.1V337z"/>
		<path class="st0" d="M290,334.1c-1.4,1.6-3.9,3.3-8.2,3.3c-6.5,0-11.5-4.6-11.5-11.6c0-7,5-11.6,11.5-11.6c4.2,0,6.7,1.8,8,3
			l-1.3,2.5c-0.9-1.1-3.4-2.7-6.5-2.7c-4.8,0-8.4,3.5-8.4,8.7c0,5.3,3.5,8.7,8.4,8.7c3,0,5.2-1.1,6.7-2.7L290,334.1z"/>
		<path class="st0" d="M304.9,337h-3l0-2c-0.6,0.7-2.1,2.3-4.9,2.3c-2.9,0-5.3-1.8-5.3-4.8c0-3,2.5-4.5,6-4.7l4.1-0.2v-0.6
			c0-2.3-1.6-3.5-3.8-3.5c-2.2,0-4.1,1-4.6,1.3l-0.9-2.1c1.1-0.6,3.2-1.6,5.8-1.6c2.6,0,4.1,0.7,5.1,1.8c1,1.1,1.7,2.4,1.7,5V337z
			 M301.8,329.6l-3.6,0.2c-2.5,0.1-3.5,1.2-3.5,2.7c0,1.5,1.1,2.7,3.2,2.7c2,0,3.3-1.4,3.9-2.2V329.6z"/>
		<path class="st0" d="M322.4,337h-3.1v-8.6c0-2.6-0.5-4.6-3.2-4.6c-2.9,0-4,2.4-4,5.4v7.8h-3.1v-15.4h3.1l0,2.4h0.1
			c0.8-1.5,2.5-2.7,4.7-2.7c4.4,0,5.5,2.9,5.5,6.6V337z"/>
		<path class="st0" d="M338.5,337h-3l0-2c-0.6,0.7-2.1,2.3-4.9,2.3c-2.9,0-5.3-1.8-5.3-4.8c0-3,2.5-4.5,6-4.7l4.1-0.2v-0.6
			c0-2.3-1.6-3.5-3.8-3.5c-2.2,0-4.1,1-4.7,1.3l-0.9-2.1c1.1-0.6,3.2-1.6,5.8-1.6c2.6,0,4.1,0.7,5.1,1.8c1,1.1,1.7,2.4,1.7,5V337z
			 M335.4,329.6l-3.6,0.2c-2.5,0.1-3.5,1.2-3.5,2.7c0,1.5,1.1,2.7,3.2,2.7c2,0,3.3-1.4,3.9-2.2V329.6z"/>
		<path class="st0" d="M357.5,337h-3v-2.5h-0.1c-1.3,1.9-3.2,2.8-5.4,2.8c-4.6,0-7.5-3.5-7.5-8.1c0-4.6,2.9-8,7.4-8
			c2.5,0,4.3,1.1,5.4,2.7h0.1v-9.4h3.1V337z M349.6,323.8c-3.1,0-4.9,2.3-4.9,5.4c0,3.1,1.8,5.5,4.9,5.5c3.1,0,4.9-2.4,4.9-5.5
			C354.5,326.2,352.7,323.8,349.6,323.8z"/>
		<path class="st0" d="M373.9,337h-3l0-2c-0.6,0.7-2.1,2.3-4.9,2.3c-2.9,0-5.3-1.8-5.3-4.8c0-3,2.5-4.5,6-4.7l4.1-0.2v-0.6
			c0-2.3-1.6-3.5-3.8-3.5c-2.2,0-4.1,1-4.6,1.3l-0.9-2.1c1.1-0.6,3.2-1.6,5.8-1.6c2.6,0,4.1,0.7,5.1,1.8c1,1.1,1.7,2.4,1.7,5V337z
			 M370.8,329.6l-3.6,0.2c-2.5,0.1-3.5,1.2-3.5,2.7c0,1.5,1.1,2.7,3.2,2.7c2,0,3.3-1.4,3.9-2.2V329.6z"/>
	</g>
</g>
<g>
	<path class="st0" d="M201.4,337.9c-5-4.9-19.5-9.1-34.4-10c-1.1,0.8-1.8,1.7-2.2,2.6c12.5,0.6,24.6,4.1,29,8.1
		c4,3.2,3.4,7.6-1.3,10.6c-6.8,4.8-20.9,7-36.2,6.9c-15.3,0.1-29.4-2.1-36.2-6.9c-4.7-3-5.3-7.4-1.3-10.6c4.5-4,16.5-7.6,29-8.1
		c-0.4-0.9-1.2-1.7-2.2-2.6c-14.9,0.9-29.3,5.1-34.4,10c-6.8,6.1-1.4,13.2,13.5,17.6c8.3,2.5,20,3.9,31.5,3.9
		c11.5,0,23.2-1.4,31.5-3.9C202.8,351.1,208.3,344,201.4,337.9z"/>
	<path class="st0" d="M193.5,287.3c-0.3-4.1-3.6-7.3-7.6-8.8c1.6-2.3,1.9-4.8,0.7-7.6c-1.9-4.4-7-5.8-10.1-5.6
		c-4.3,0.3-6.9,2.1-11.5,5.6c-1.1-0.8-3.2-2.4-4.2-3.2h0c0,0,3.1-2.6,6.4-4.3c3.1-1.7,5.2-1.9,5.2-1.9s-5.5-7.5-16.1-7.6
		c0,0,0,0,0,0c0,0,0,0,0,0s0,0,0,0c0,0,0,0,0,0c-10.6,0.1-16.1,7.6-16.1,7.6s2.1,0.2,5.2,1.9c3.3,1.7,6.4,4.3,6.4,4.3
		c-0.9,0.7-3.1,2.3-4.2,3.2c-4.6-3.5-7.2-5.3-11.5-5.6c-3-0.2-8.2,1.2-10.1,5.6c-1.2,2.8-0.9,5.3,0.7,7.6c-4,1.5-7.3,4.6-7.6,8.8
		c-0.3,4.1,2.1,7.9,6.4,9.7c-1.2,1.5-1.8,3.3-1.8,4.8c0,4,3.6,9.4,11.2,9.2c5.7-0.2,7.9-1.9,12.4-5.4c0.3,0.4,3.7,5.9,3.7,15.4
		c0,0,0.5,7.3-3.1,25.1h0c0,0.9,3.7,1.7,8.3,1.7c4.6,0,8.3-0.8,8.3-1.7h0c-3.6-17.8-3.1-25.1-3.1-25.1c0-9.5,3.5-15,3.7-15.4
		c4.5,3.4,6.7,5.2,12.4,5.4c7.6,0.2,11.2-5.2,11.2-9.2c0-1.5-0.6-3.2-1.8-4.8C191.3,295.2,193.8,291.4,193.5,287.3z M176.4,271.1
		c4-0.2,5.5,2.2,5.2,3.8c-0.4,2-2.9,3.5-5.2,3.2c-2.3-0.2-4-1.4-6.7-3.6C171.5,273,173.8,271.2,176.4,271.1z M165.2,277.9
		c1.3,1,2.5,1.9,3.5,2.6c0.5,0.4,1,0.8,1.5,1.1c-0.7,0.5-1.2,0.9-2,1.5c-0.6,0.4-1.4,1.1-2.3,1.7c-1.4-1-3-2.3-4.9-3.7
		C162.3,280.1,163.6,279,165.2,277.9z M160.6,274.4c-1.3,1-2.5,1.9-4.1,3.2l0,0l0,0c-1.6-1.2-2.8-2.2-4.1-3.2c1-0.8,2.3-1.8,4-3.1
		l0.1-0.1l0.1,0.1C158.3,272.6,159.5,273.6,160.6,274.4z M150.7,260.6c0,0,1.4-1.6,5.6-1.6c4.2,0,5.6,1.6,5.6,1.6s-1.1,0.6-2.6,1.7
		c-2,1.4-2.9,2.1-3,2.2c-0.1-0.1-1-0.9-3-2.2C151.8,261.2,150.7,260.6,150.7,260.6z M156.2,284.7l0.2-0.2l0.2,0.2
		c1.5,1.2,3.1,2.3,4.8,3.6c-1,0.7-1.8,1.3-2.5,1.9c-0.7,0.5-1.5,1.1-2.3,1.7l-0.1,0.1l-0.1-0.1c-0.8-0.6-1.6-1.2-2.3-1.7
		c-0.7-0.5-1.5-1.2-2.5-1.9C153.1,287,154.7,285.9,156.2,284.7z M147.6,277.9c1.5,1.1,2.9,2.2,4.2,3.2c-1.9,1.5-3.6,2.7-4.9,3.7
		c-0.8-0.6-1.7-1.3-2.3-1.7c-0.8-0.6-1.3-1-1.9-1.5c0.5-0.3,1-0.7,1.5-1.1C145.1,279.8,146.4,278.9,147.6,277.9z M136.4,271.1
		c2.6,0.1,4.9,2,6.7,3.4c-2.8,2.2-4.5,3.4-6.7,3.6c-2.3,0.3-4.8-1.2-5.2-3.2C130.9,273.3,132.5,270.9,136.4,271.1z M124.9,288.5
		c-0.1-2.1,1.4-5.1,7-5.4c3.8-0.2,6.4,2,10.6,5.1c-3.3,2.5-5.9,4.7-10.7,5C127.9,293.5,125,290.6,124.9,288.5z M135.5,305.7
		c-4,0.2-6.4-1.8-6.2-4c0.1-1.7,3.9-5.7,11.8-2.2c1.1,0.5,2,1.1,2.9,1.8C140.1,304.3,138.6,305.6,135.5,305.7z M148.3,298.1
		c-1.5-1.4-3.1-2.6-5.2-3.6c1.3-0.8,2.5-1.8,3.8-2.8c0.1-0.1,0.1-0.1,0.1-0.1c1.8,1.3,3.5,2.6,4.9,3.7
		C150.7,296.4,149.5,297.2,148.3,298.1z M156.5,313.1l-0.1,0.5l-0.1-0.5c-1-4.1-2.2-7.7-4-10.4c1.4-1.1,2.7-2.1,4.1-3.1
		c1.3,1,2.6,2,4.1,3.1C158.8,305.4,157.5,309,156.5,313.1z M164.5,298.1c-1.2-0.9-2.4-1.8-3.7-2.8c1.5-1.1,3.2-2.4,4.9-3.7
		c0.1,0,0.1,0,0.1,0.1c1.3,1.1,2.5,2,3.8,2.8C167.6,295.5,166,296.7,164.5,298.1z M177.3,305.7c-3.1-0.2-4.5-1.4-8.5-4.3
		c0.9-0.8,1.8-1.3,2.9-1.8c7.9-3.6,11.7,0.5,11.8,2.2C183.6,303.9,181.3,305.9,177.3,305.7z M181,293.2c-4.7-0.3-7.3-2.5-10.7-5
		c4.1-3.1,6.8-5.3,10.6-5.1c5.6,0.3,7.1,3.3,7,5.4C187.8,290.6,184.9,293.5,181,293.2z"/>
</g>
</svg>
