<?xml version='1.0' encoding='utf-8'?>
<!-- Generator: imaengine 6.0   -->
<svg xmlns:xlink="http://www.w3.org/1999/xlink" xmlns="http://www.w3.org/2000/svg" viewBox="0,0,934,934" style="enable-background:new 0 0 934 934;" version="1.1">
<defs/>
<g id="layer0">
<path d="M-0.311333,934C311.243,934 623.626,934.278 934.139,934.278C934.139,804.113 934.311,674.26 934.311,543C900.963,543 868.551,542.689 834,542.689C765.373,542.689 697.796,542.689 628,542.689L623.689,543C621.886,544.965 614.637,543.171 612.835,543.736C605.662,558.356 595.576,570.915 586.77,582.79C588.13,583.587 589.061,585.353 589.349,586.776C589.637,588.199 589.459,589.182 587.948,589.693L586.689,593C586.689,596.078 586.689,601.359 586.689,603C586.821,618.526 583.748,631.633 578.725,640.854C543.063,728.7 438.234,746.449 331.887,764.71C329.333,766.615 321.522,765.151 318.967,765.69L315.689,766C301.026,767.407 283.66,766.427 268.997,766.689L269,766L268,766C264.233,766 258.368,765.689 256,765.689L256.311,765C246.306,762.658 234.537,760.429 226.095,757.704C215.957,754.477 205.423,750.705 199.184,744.749C190.561,741.363 185.262,733.553 179.216,728.776C175.938,722.429 171.055,716.565 169.3,709.915C166.14,705.163 164.892,696.971 163.297,691.908C146.216,611.92 169.678,541.103 238.039,530.309C248.724,529.333 264.591,528.79 273.959,530.309C280.83,531.006 289.362,531.561 293.927,533.303C297.567,533.653 299.854,531.346 301.03,533.31C296.003,516.88 291.191,499.431 289.31,480.969C289.31,472.028 289.311,461.708 289.311,454C304.082,363.353 354.581,310.516 448.024,296.31C455.936,296.31 465.324,296.311 471.982,296.311C541.163,304.34 582.453,338.03 611.779,388.219C613.411,388.471 616.312,388.3 618.614,388.231C620.916,388.162 622.544,388.067 622.703,389.092L624,389C727.323,389 830.816,389.278 934.139,389.278C934.139,259.47 934.311,128.714 934.311,0C622.757,0 310.374,-0.278465 -0.139232,-0.278465C-0.139232,311.276 -0.311333,623.487 -0.311333,934ZM141.009,650.689C127.801,652.406 109.615,651.239 93.9955,651.689L94,651C90.9217,651 85.78,650.722 84.1392,650.722C84.1392,647.3 84.3113,642.004 84.3113,640C84.3113,632.088 84.3113,622.658 84.3113,616C77.4791,581.836 58.1968,560.161 62.3063,515.056L61.3113,515C61.3113,511.233 61.3113,505.368 61.3113,503C61.3113,499.578 61.3113,494.004 61.3113,492C61.3113,483.402 61.3113,473.359 61.3113,466C61.3113,462.922 61.3113,457.641 61.3113,456C61.9254,450.424 60.0775,441.054 62.1727,438.259L62.3113,436C62.5398,434.518 62.2881,432.009 62.2302,429.879C62.1724,427.749 62.1352,426.278 63.1383,426.279C55.9581,367.104 89.2688,347.936 86.3109,292.983C86.3727,291.162 86.1394,288.555 86.2573,286.439C86.3752,284.324 86.5037,283.028 87.9702,283.31C94.8502,283.31 103.4,283.311 109,283.311C112.422,283.311 117.989,283.311 119.994,283.311C120.987,283.352 122.728,283.215 124.103,283.262C125.478,283.308 126.299,282.982 125.808,283.755C127.876,283.755 132.413,284.31 132.976,284.31C134.459,284.539 136.991,284.288 139.121,284.23C141.251,284.172 142.69,283.997 142.689,285C142.504,286.057 144.178,286.471 145.52,286.384C146.862,286.296 147.916,285.549 147.731,285.843C148.85,290.377 149.342,301.787 147.721,304.862C147.721,315.85 147.689,328.21 147.689,338C148.943,340.706 149.377,350.587 147.78,351.78C147.78,371.555 147.689,392.346 147.689,411C147.093,415.556 148.887,424.078 146.777,425.783C145.846,429.792 148.073,432.923 147.694,434.943C147.089,439.836 148.871,448.733 146.762,450.8C146.153,470.639 147.861,493.799 145.691,510.96C146.88,514.394 147.363,524.876 145.748,526.818C145.748,530.239 145.689,535.996 145.689,538C146.639,567.666 146.972,600.473 145.689,628.986C144.666,632.433 145.794,638.411 145.989,643.275C146.184,648.138 145.766,651.591 141.009,650.689Z" fill="#DDC89C"/>
<path d="M269.311,767C283.974,766.738 301.353,767.718 316.015,766.311C300.283,766.311 283.585,765.689 269,765.689L269.311,767Z" fill="#A79275"/>
<path d="M256,766C258.368,766 264.331,766.295 268.098,766.295C265.92,764.361 258.218,765.244 256.039,764.691L256,766Z" fill="#A79275"/>
<path d="M267.874,766.285L269,766C283.585,766 300.268,766.311 316,766.311L319.311,766C321.865,764.095 329.504,765.846 332.059,765.306C438.405,747.045 543.625,728.965 579.287,641.12C584.31,631.899 587.443,618.521 587.311,602.995L586.311,603C586.54,601.518 586.288,599.009 586.23,596.879C586.172,594.749 585.997,593.31 587,593.311L588.311,590C588.169,587.743 585.462,585.151 585.005,584.689C551.693,616.162 511.339,641.327 444.029,637.69C371.524,628.011 329.772,589.694 301.217,533.776C299.488,533.793 297.12,535.499 296.114,534.71L294.311,533C289.746,531.258 280.887,530.387 274.016,529.689C262.008,529.689 248.799,529.69 237.976,529.69C169.616,540.484 145.615,612.078 162.696,692.066C164.29,697.13 165.575,705.411 168.735,710.163C170.49,716.813 175.456,722.816 178.734,729.162C184.78,733.939 190.224,741.885 198.846,745.271C205.086,751.227 215.767,755.07 225.905,758.296C234.347,761.022 245.921,762.961 255.926,765.303C258.105,765.855 265.695,764.35 267.874,766.285Z" fill="#201F20"/>
<path d="M318.926,765.698C321.481,765.158 329.52,767.208 332.074,765.302C329.519,765.842 321.48,763.792 318.926,765.698Z" fill="#A79275"/>
<path d="M94.3113,652C109.931,651.55 127.812,653.027 141.02,651.311C125.288,651.311 108.585,650.689 94,650.689L94.3113,652Z" fill="#7F6240"/>
<path d="M83.6887,651C85.3294,651 90.9217,651.311 94,651.311C108.585,651.311 125.239,651.31 140.971,651.31C145.728,652.212 146.806,648.113 146.611,643.25C146.416,638.386 145.276,632.534 146.299,629.087C146.299,598.578 146.311,567.428 146.311,538C146.311,535.996 146.311,530.422 146.311,527C146.311,521.848 146.311,514.816 146.311,511C148.481,493.839 146.703,470.849 147.311,451.01C147.916,446.116 146.129,437.268 148.237,435.201C148.616,433.182 146.373,430.079 147.303,426.07C147.9,421.514 146.115,412.921 148.225,411.215C148.225,392.561 148.311,371.775 148.311,352C148.311,347.541 148.311,341.094 148.311,338C148.311,328.21 148.311,315.988 148.311,305C148.311,298.81 148.311,290.89 148.311,286C148.496,285.707 146.822,285.675 145.479,285.762C144.137,285.85 143.109,286.16 143.294,285.103C140.216,285.103 134.641,284.689 133,284.689C129.922,284.689 124.641,284.689 123,284.689L123,284L120,284C116.578,284 111.004,283.689 109,283.689L109,283C103.4,283 94.7875,282.703 87.9075,282.703C86.8581,283.537 86.6788,286.286 86.7108,288.551C86.7429,290.816 86.9288,292.622 85.8499,292.727C88.8078,347.68 55.5107,366.862 62.6909,426.037C62.6909,429.116 62.6887,434.359 62.6887,436C62.4602,437.482 62.7119,439.991 62.7698,442.121C62.8276,444.251 62.8639,445.722 61.8609,445.721C61.8609,448.8 61.6887,454.359 61.6887,456C61.6887,459.078 61.6887,464.359 61.6887,466C61.6887,474.598 61.6887,484.641 61.6887,492C61.6887,495.422 61.6887,500.996 61.6887,503C61.6887,506.767 61.6887,512.632 61.6887,515C57.5792,560.105 76.8625,581.897 83.6947,616.061C84.7416,622.426 85.3039,634.95 83.703,639.906C83.703,641.911 83.6887,647.578 83.6887,651ZM134.689,559C135.229,559.649 134.723,559.612 133.567,559.711C132.411,559.81 130.925,559.734 130.008,559.689L130,558L129.311,558C127.369,556.864 128.659,550.078 128.263,548.833L127,549L127,547L126.311,547C126.311,544.263 126.311,539.278 126.311,538C125.835,537.758 125.503,536.751 125.333,535.836C125.163,534.922 125.055,534.33 125.21,534.23C125.815,529.337 124.127,520.27 126.236,518.203C127.925,512.395 121.507,509.58 125.129,506.283L124.311,506C126.318,504.584 124.812,497.706 125.268,496.158L124.311,496C124.708,494.085 124.457,491.197 124.233,488.872C124.01,486.547 123.489,485.096 123.987,485.311C122.441,484.789 123.385,479.411 123.303,478.929C125.154,478.043 123.943,472.132 124.26,471.172L124,470L123,470L122.311,470C122.311,466.233 122.311,460.368 122.311,458C119.819,454.261 125.225,449.808 123.244,444.807L122.311,445C122.311,440.887 122.311,434.732 122.311,432C116.69,428.367 126.1,419.365 121.132,414.718L120.311,415C120.311,411.578 120.311,406.004 120.311,404C117.65,401.075 121.779,395.308 120.234,391.794L119.311,392C119.894,387.777 117.988,379.645 120.095,378.297L121.311,377C128.786,373.703 129.204,380.053 129.106,388.054C129.007,396.055 127.833,405.895 130.752,409.188C130.752,412.61 130.689,417.996 130.689,420C129.821,424.634 132.566,427.686 131.699,430.921C131.699,433.999 131.689,439.359 131.689,441C131.689,444.078 131.689,449.359 131.689,451C133.413,451.676 132.487,457.386 132.702,458.089C132.702,461.167 132.689,466.359 132.689,468C132.392,474.141 134.651,479.455 133.693,484.947C133.693,489.406 133.689,495.906 133.689,499C132.921,504.573 135.662,508.511 134.696,512.933C134.173,514.598 134.56,516.897 134.885,518.567C135.21,520.237 135.845,521.041 135.067,520.696L134.689,522C136.684,523.427 135.181,530.769 135.758,532.196L135.689,533C137.714,534.053 136.136,541.091 136.724,542.144C136.724,545.565 136.689,550.996 136.689,553C136.894,555.274 134.52,557.378 134.725,558.147L134.689,559ZM105.689,516C106.229,516.649 105.723,516.612 104.567,516.711C103.411,516.81 101.851,516.741 100.933,516.696C101.181,516.835 101.206,515.725 101.217,514.482C101.229,513.238 101.219,512.468 102.926,513.302L104.311,512C107.313,509.805 103.595,505.071 103.109,504.708L102.311,505C98.1682,503.129 98.6701,501.44 100.546,500.547C102.421,499.655 105.083,499.704 105.724,502.145L106.689,504C107.458,504.485 107.815,506.878 107.801,509.079C107.788,511.28 107.776,512.984 107.062,512.695L107,515L105.689,516ZM104.689,490C105.229,490.649 104.723,490.612 103.567,490.711C102.411,490.81 100.925,490.734 100.008,490.689L102.311,489C102.841,488.33 103.146,486.981 103.549,485.8C103.953,484.618 104.236,483.9 105.093,484.297C105.724,480.587 103.427,476.931 102.027,476.69L99.3113,477C96.6712,474.606 98.4671,473.551 101.036,473.217C103.604,472.884 106.363,473.119 105.729,474.848C108.894,475.802 108.239,485.685 106.89,486.709L105,489L104.689,490ZM103.689,463C104.229,463.649 103.723,463.612 102.567,463.711C101.411,463.81 99.8527,463.741 98.9349,463.696C98.7441,463.799 98.3697,462.655 98.2923,461.414C98.2148,460.174 98.4532,459.45 100.954,460.308C101.644,460.28 102.522,459.492 103.022,458.908C103.522,458.324 103.59,457.93 103.899,458.295C105.446,457.773 105.213,452.582 105.295,452.1L104.311,452C104.438,451.155 103.558,450.286 102.804,449.956C102.05,449.625 100.925,449.584 100.813,449.751L100.311,450C97.6715,448.03 99.136,447.401 101.419,447.173C103.701,446.946 106.282,446.89 105.792,447.768L106.689,451C107.687,451.714 107.905,453.948 107.764,456.022C107.623,458.095 107.438,459.698 107.003,459.689L106,462L103.689,463ZM104.929,408.697C105.421,409.47 104.478,409.692 103.103,409.738C101.728,409.785 100.116,409.673 99.1231,409.714C99.0223,409.504 99.1676,408.772 99.4263,407.776C99.685,406.78 99.9394,406.118 101.005,406.311C104.579,405.534 105.603,402.72 105.072,400.321C104.541,397.922 102.516,395.324 101.066,394.696L99.3113,395C98.0514,392.689 99.3059,392.197 101.022,392.122C102.738,392.048 104.437,392.13 103.833,392.738C105.841,393.128 107.404,396.248 106.736,397.835C108.282,398.357 107.613,403.576 107.694,404.058C107.165,404.728 106.854,406.019 106.451,407.2C106.047,408.382 105.786,409.094 104.929,408.697Z" fill="#321818"/>
<path d="M83.6887,640C85.2895,635.044 85.0342,622.054 83.9873,615.689C83.9873,622.347 83.6887,632.088 83.6887,640Z" fill="#563B33"/>
<path d="M443.971,638.31C511.281,641.947 551.821,616.754 585.133,585.282L587.311,583C596.118,571.125 606.05,558.838 613.222,544.218L614,542L615.311,541C636.976,503.933 636.227,426.723 614.197,390.759L613,391L613,390L612,390L612.311,388C582.985,337.81 541.161,303.719 471.98,295.689C465.382,297.346 454.589,296.278 447.99,296.689L447.689,296C354.246,310.206 303.463,363.303 288.693,453.95C289.713,461.405 290.28,474.849 288.698,480.923C290.579,499.385 295.708,516.733 300.734,533.162L300.689,534C329.244,589.917 371.466,628.631 443.971,638.31ZM472.916,621.7C469.022,623.76 458.624,622.077 452.011,622.689C357.174,606.795 299.913,550.773 307.311,440.021C309.274,433.233 311.023,423.838 314.282,417.132C316.072,409.477 320.125,401.613 323.285,394.125C327.679,387.009 333,378.619 338.251,371.184C344.782,363.47 353.35,355.763 361.211,348.229C370.342,340.738 381.326,333.23 393.133,327.281C405.952,321.784 420.71,316.41 437.047,313.308C456.511,311.09 481.884,311.816 498.917,316.3C516.181,321.402 532.804,328.811 546.827,338.259C561.516,347.957 575.101,360.342 585.746,375.181C597.18,391.832 607.344,411.25 612.696,435.068C619.067,463.848 615.55,502.455 605.717,523.87C594.648,548.288 580.03,571.3 558.811,586.753C536.369,605.785 509.958,618.44 472.916,621.7Z" fill="#CFCDCE"/>
<path d="M145.689,629C146.971,600.487 146.948,567.355 145.998,537.689C145.998,567.116 145.689,598.491 145.689,629Z" fill="#A79275"/>
<path d="M451.988,623.311C458.601,622.7 469.199,624.357 473.093,622.297C510.135,619.037 536.754,606.275 559.196,587.242C580.415,571.789 595.214,548.547 606.284,524.129C616.117,502.714 619.675,463.712 613.304,434.933C607.952,411.115 597.69,391.474 586.256,374.823C575.611,359.985 561.861,347.439 547.172,337.741C533.149,328.293 516.349,320.803 499.084,315.7C482.051,311.216 456.418,310.474 436.954,312.692C420.617,315.794 405.689,321.22 392.87,326.717C381.063,332.665 369.929,340.273 360.797,347.764C352.937,355.297 344.29,363.09 337.759,370.803C332.508,378.238 327.126,386.725 322.732,393.841C319.573,401.329 315.488,409.272 313.697,416.926C310.438,423.633 308.664,433.127 306.7,439.915C299.303,550.667 357.151,607.418 451.988,623.311Z" fill="#201F20"/>
<path d="M585.702,602.908L587.311,603C587.311,601.359 587.311,596.078 587.311,593C586.308,592.999 585.55,594.766 585.608,596.896C585.666,599.026 585.931,601.426 585.702,602.908Z" fill="#4B3E3C"/>
<path d="M587.694,590.057C589.205,589.546 590.247,588.075 589.959,586.652C589.672,585.23 588.448,583.498 587.087,582.701L584.689,585C585.145,585.462 587.552,587.8 587.694,590.057Z" fill="#7A6756"/>
<path d="M129.689,560C130.607,560.045 132.465,560.43 133.62,560.331C134.776,560.232 135.701,559.383 135.16,558.733L135,558C133.564,558 129.889,558.311 130,558.311L129.689,560Z" fill="#563B33"/>
<path d="M128.913,558.299L130,558C131.436,558 135.246,557.72 135.135,557.72C134.93,556.951 137.512,555.218 137.306,552.945L136.311,553C136.311,549.578 136.311,544.004 136.311,542C136.311,539.263 136.311,534.278 136.311,533L136,532L135.311,532C135.311,528.922 135.311,523.641 135.311,522L135,521L134.311,521C134.47,519.79 134.257,517.643 134.236,515.874C134.215,514.105 134.179,513.007 135.105,513.293C136.071,508.871 133.533,504.656 134.3,499.083L133.311,499C133.894,494.777 132.102,486.579 134.209,485.231C135.167,479.739 133.013,474.171 133.31,468.03L132.311,468C132.54,466.518 132.288,464.009 132.23,461.879C132.172,459.749 132.131,458.28 133.134,458.281C132.92,457.577 133.784,451.37 132.06,450.694L131.311,451C131.311,447.922 131.311,442.641 131.311,441C131.54,439.518 131.288,437.009 131.23,434.879C131.172,432.749 131.132,431.28 132.135,431.28C133.002,428.045 130.424,424.743 131.292,420.109L130.311,420C130.563,418.368 130.3,415.688 130.231,413.386C130.162,411.084 130.104,409.442 131.129,409.283C128.21,405.99 129.63,396.063 129.728,388.062C129.827,380.061 128.286,373.456 120.811,376.752C120.215,381.309 121.891,390.073 119.781,391.779C121.326,395.293 117.113,401.29 119.774,404.215C121.739,406.017 120.142,413.304 120.708,415.107C125.676,419.754 116.185,428.61 121.805,432.243C123.711,434.797 122.156,442.512 122.696,445.066C124.676,450.068 119.321,454.51 121.813,458.249L122.689,459C124.653,460.802 123.171,468.363 123.736,470.165L123.689,471C124.458,471.485 124.927,473.98 124.844,476.111C124.761,478.243 124.362,479.711 122.924,478.698C123.006,479.18 122.402,484.785 123.948,485.307L124.689,485C125.773,490.268 126.336,502.034 124.72,505.864C121.098,509.16 127.39,512.104 125.701,517.912C126.92,520.981 127.472,531.154 125.864,532.72L124.689,534C123.792,536.333 126.313,537.399 125.892,537.708L126.689,538C128.653,539.802 127.137,547.291 127.703,549.093C128.099,550.338 126.97,557.163 128.913,558.299Z" fill="#CFCDCE"/>
<path d="M135.689,553L137.311,553C137.311,550.996 137.311,545.422 137.311,542L135.689,542C135.689,544.004 135.689,549.578 135.689,553Z" fill="#7A6756"/>
<path d="M127,549L128.311,549C127.746,547.197 128.898,539.498 126.933,537.696C126.933,540.433 126.689,545.722 126.689,547L127,549Z" fill="#B7AA9F"/>
<path d="M125.689,547L127.311,547C127.311,545.722 127.311,540.737 127.311,538L125.689,538C125.689,539.278 125.689,544.263 125.689,547Z" fill="#563B33"/>
<path d="M613.311,544C615.114,543.434 622.347,545.238 624.149,543.273C621.071,543.273 615.641,542.689 614,542.689L614,542L613.311,544Z" fill="#A79275"/>
<path d="M614,543C615.641,543 620.922,543.311 624,543.311L628.311,543C625.965,540.54 616.086,543.469 615.264,540.835L614,542L614,543Z" fill="#7A6756"/>
<path d="M627.855,543.276C697.652,543.276 765.38,543.311 834.007,543.311C866.117,541.769 902.03,542.622 934.14,542.278C934.14,491.283 934.311,439.995 934.311,389C830.988,389 727.197,388.715 623.874,388.715C623.224,389.949 620.806,389.769 618.438,389.634C616.069,389.498 613.567,389.724 613.69,391.032C635.721,426.996 636.393,503.781 614.728,540.849C615.55,543.483 625.509,540.816 627.855,543.276Z" fill="#2A1D14"/>
<path d="M833.993,542.689C868.544,542.689 900.652,543.311 934,543.311L933.689,542C901.578,542.344 866.102,541.146 833.993,542.689Z" fill="#A79275"/>
<path d="M101.828,542.26C102.746,542.305 104.465,542.43 105.62,542.331C106.776,542.232 107.701,541.383 107.16,540.733L106.311,541C105.99,540.603 105.623,539.536 105.283,538.791C104.944,538.046 104.074,537.434 103.753,537.81C103.261,539.064 100.932,541.145 101.828,542.26Z" fill="#66625E"/>
<path d="M135.689,542L137.311,542C136.724,540.947 137.935,533.755 135.91,532.702C135.91,533.98 135.689,539.263 135.689,542Z" fill="#563B33"/>
<path d="M106.207,541.233L107.311,541C108.799,538.937 108.618,531.382 107.13,530.717C105.753,530.058 104.877,531.079 104.622,531.908C104.367,532.737 104.664,533.353 104.061,532.695C105.144,533.266 104.862,534.741 104.633,535.839C104.403,536.938 104.108,537.661 103.941,537.694C104.548,537.805 104.786,539.049 105.117,539.803C105.447,540.557 106.135,541.36 106.207,541.233Z" fill="#8D8481"/>
<path d="M295.689,535C296.695,535.789 299.273,534.328 301.002,534.311L301.311,533C300.135,531.036 297.655,533.039 294.015,532.689L295.689,535Z" fill="#A79275"/>
<path d="M124.698,533.925L126.311,533C126.311,528.194 126.311,521.456 126.311,518C124.203,520.066 125.303,529.032 124.698,533.925Z" fill="#7A6756"/>
<path d="M104.04,533.309C104.492,533.043 105.165,532.135 105.665,531.551C106.165,530.966 106.476,530.707 107.024,531.31C104.999,528.118 102.4,527.664 101.356,528.748C100.313,529.832 100.839,532.453 104.04,533.309Z" fill="#66625E"/>
<path d="M125.689,533C127.297,531.434 127.189,520.759 125.97,517.69C125.97,521.146 125.689,528.194 125.689,533Z" fill="#B7AA9F"/>
<path d="M134.689,532L136.311,532C135.734,530.573 136.918,523.125 134.922,521.698C134.922,523.339 134.689,528.922 134.689,532Z" fill="#7A6756"/>
<path d="M237.986,529.689C248.809,529.689 262.017,530.31 274.025,530.31C264.657,528.792 248.672,528.713 237.986,529.689Z" fill="#7A6756"/>
<path d="M145.689,527C147.304,525.058 147.162,514.124 145.974,510.69C145.974,514.506 145.689,521.848 145.689,527Z" fill="#7A6756"/>
<path d="M133.699,520.921L134.689,521C135.466,521.345 135.821,520.118 135.496,518.448C135.171,516.778 134.758,514.8 135.281,513.135C134.355,512.848 133.592,514.112 133.614,515.881C133.635,517.651 133.858,519.711 133.699,520.921Z" fill="#B7AA9F"/>
<path d="M101.076,516.698C101.994,516.743 103.465,517.43 104.62,517.331C105.776,517.232 106.701,516.383 106.16,515.733L102,516L103.311,513C101.604,512.166 100.606,513.233 100.595,514.476C100.584,515.719 101.324,516.837 101.076,516.698Z" fill="#4B3E3C"/>
<path d="M102,516L106,516L107,515L104,515L104,512L103,513L102,516Z" fill="#66625E"/>
<path d="M60.6887,515L62.3113,515C62.3113,512.632 62.3113,506.767 62.3113,503L60.6887,503C60.6887,505.368 60.6887,511.233 60.6887,515Z" fill="#7F6240"/>
<path d="M104,515L107,515L107,513L106.311,513C106.51,511.659 106.274,509.327 106.232,507.375C106.189,505.422 106.005,504.16 106.976,504.31L106.311,502C104.596,501.158 103.173,501.665 102.815,502.562C102.457,503.458 102.596,504.92 102.742,505.175C103.229,505.537 106.895,509.512 103.893,511.708L104,515Z" fill="#8D8481"/>
<path d="M105.701,512.912L106.689,513C107.403,513.29 108.41,511.284 108.424,509.083C108.438,506.882 107.886,504.196 107.117,503.712C106.146,503.561 105.567,505.436 105.609,507.388C105.651,509.341 105.9,511.571 105.701,512.912Z" fill="#B7AA9F"/>
<path d="M123.896,505.706L125.311,506C126.927,502.17 126.069,489.957 124.984,484.689C124.984,488.111 124.689,493.996 124.689,496C124.232,497.548 125.903,504.291 123.896,505.706Z" fill="#B7AA9F"/>
<path d="M101.931,505.304L103.311,505C103.165,504.745 103.036,503.689 103.393,502.792C103.751,501.895 104.372,501.456 106.088,502.299C105.446,499.858 102.153,499.092 100.278,499.985C98.4025,500.878 97.7883,503.433 101.931,505.304Z" fill="#66625E"/>
<path d="M60.6887,503L62.3113,503C62.3113,500.996 62.3113,495.422 62.3113,492L60.6887,492C60.6887,494.004 60.6887,499.578 60.6887,503Z" fill="#5A3A1C"/>
<path d="M132.7,498.917L134.311,499C134.311,495.906 134.311,489.459 134.311,485C132.204,486.349 133.282,494.694 132.7,498.917Z" fill="#B7AA9F"/>
<path d="M123.712,495.881L125.311,496C125.311,493.996 125.311,488.422 125.311,485L124.311,485C123.813,484.785 123.39,486.607 123.614,488.932C123.837,491.257 124.109,493.966 123.712,495.881Z" fill="#7A6756"/>
<path d="M60.6887,492L62.3113,492C62.3113,484.641 62.3113,474.598 62.3113,466L60.6887,466C60.6887,473.359 60.6887,483.402 60.6887,492Z" fill="#3A1400"/>
<path d="M99.6887,491C100.607,491.045 102.465,491.43 103.62,491.331C104.776,491.232 105.701,490.383 105.16,489.733L105,489L102,489L99.6887,491Z" fill="#4B3E3C"/>
<path d="M101.833,488.737L105,489L107,487L105,487L105.311,484C104.455,483.602 103.363,484.417 102.96,485.598C102.556,486.78 102.363,488.067 101.833,488.737Z" fill="#8D8481"/>
<path d="M105,487L107.311,487C108.661,485.976 109.259,475.657 106.094,474.703C104.782,474.264 103.263,474.459 102.454,474.904C101.645,475.35 101.267,476.593 101.816,477.251C103.216,477.492 105.337,480.19 104.705,483.9L105,487Z" fill="#B7AA9F"/>
<path d="M288.689,481C290.27,474.926 290.01,461.144 288.989,453.689C288.989,461.397 288.689,472.06 288.689,481Z" fill="#66625E"/>
<path d="M122.848,478.728C124.286,479.741 125.384,478.268 125.467,476.136C125.55,474.004 124.695,471.183 123.926,470.698C123.608,471.659 124.7,477.842 122.848,478.728Z" fill="#B7AA9F"/>
<path d="M98.8715,477.284L102.311,477C101.762,476.342 101.945,475.895 102.754,475.45C103.563,475.004 104.785,474.857 106.097,475.296C106.731,473.567 103.524,472.266 100.955,472.6C98.3868,472.933 96.2313,474.89 98.8715,477.284Z" fill="#4B3E3C"/>
<path d="M121.689,470L123.311,470C123.311,466.578 123.311,461.004 123.311,459L121.689,458C121.689,460.368 121.689,466.233 121.689,470Z" fill="#563B33"/>
<path d="M122.689,470L124.311,470C123.746,468.197 124.898,460.498 122.933,458.696C122.933,460.7 122.689,466.578 122.689,470Z" fill="#7A6756"/>
<path d="M131.702,467.908L133.311,468C133.311,466.359 133.311,461.078 133.311,458C132.308,457.999 131.55,459.766 131.608,461.896C131.666,464.026 131.931,466.426 131.702,467.908Z" fill="#B7AA9F"/>
<path d="M60.6887,466L62.3113,466C62.3113,464.359 62.3113,459.078 62.3113,456L60.6887,456C60.6887,457.641 60.6887,462.922 60.6887,466Z" fill="#5A3A1C"/>
<path d="M99.0735,464.303C99.9913,464.348 101.465,464.43 102.62,464.331C103.776,464.232 104.701,463.383 104.16,462.733L106,462C104.564,462 100.889,462.311 101,462.311L101.311,460C98.8108,459.142 97.5934,460.213 97.6708,461.453C97.7482,462.694 98.8827,464.406 99.0735,464.303Z" fill="#4B3E3C"/>
<path d="M101,462C102.436,462 106.111,461.689 106,461.689L107,460L104,460L103.689,458C102.998,458.028 102.478,458.508 101.978,459.092C101.478,459.676 101.468,460.097 101.158,459.732L101,462Z" fill="#8D8481"/>
<path d="M104,460L106.689,460C107.123,460.01 108.244,458.138 108.385,456.064C108.526,453.99 108.103,451.421 107.105,450.707L104.689,452C104.607,452.482 105.495,457.171 103.948,457.693L104,460Z" fill="#B7AA9F"/>
<path d="M60.696,455.933L62.3113,456C62.3113,454.359 62.3113,449.078 62.3113,446C62.3113,443.6 62.3113,438.918 62.3113,438C60.216,440.795 61.31,450.357 60.696,455.933Z" fill="#7F6240"/>
<path d="M103.949,451.693L105,452L107,451L106.311,448C105.008,447.731 103.01,447.442 101.911,447.764C100.812,448.086 100.179,449.306 100.878,450.286C101.961,449.921 102.638,450.323 103.139,450.908C103.639,451.492 104.032,451.665 103.949,451.693Z" fill="#8D8481"/>
<path d="M130.689,451L132.311,451C132.311,449.359 132.311,444.078 132.311,441L130.689,441C130.689,442.641 130.689,447.922 130.689,451Z" fill="#B7AA9F"/>
<path d="M146.762,450.8C148.87,448.733 147.633,440.093 148.238,435.2C146.13,437.267 147.367,445.907 146.762,450.8Z" fill="#A79275"/>
<path d="M99.8912,450.292L101.311,450C100.612,449.019 100.987,448.684 102.086,448.361C103.185,448.039 104.798,448.026 106.101,448.295C106.591,447.416 103.639,446.327 101.357,446.554C99.0744,446.781 97.2513,448.322 99.8912,450.292Z" fill="#66625E"/>
<path d="M61.6887,446C62.6917,446.001 63.4501,444.234 63.3922,442.104C63.3343,439.974 63.0691,437.574 63.2975,436.092L62,436L61.6887,438C61.6887,438.918 61.6887,443.6 61.6887,446Z" fill="#5A3A1C"/>
<path d="M121.689,445L123.311,445C122.771,442.446 123.854,434.247 121.949,431.693C121.949,434.425 121.689,440.887 121.689,445Z" fill="#7A6756"/>
<path d="M130.702,440.908L132.311,441C132.311,439.359 132.311,434.078 132.311,431C131.308,430.999 130.55,432.766 130.608,434.896C130.666,437.026 130.931,439.426 130.702,440.908Z" fill="#7A6756"/>
<path d="M98.7465,437.181C100.614,437.621 102.712,437.411 103.471,437.023C104.231,436.635 104.034,435.604 102.128,435.716C101.613,433.924 100.317,433.561 99.5573,433.949C98.7978,434.337 98.1935,435.941 98.7465,437.181Z" fill="#4B3E3C"/>
<path d="M61.7025,435.908L63.3113,436C63.3113,434.359 63.3113,429.078 63.3113,426C62.3083,425.999 61.5499,427.766 61.6078,429.896C61.6657,432.026 61.9309,434.426 61.7025,435.908Z" fill="#7F6240"/>
<path d="M101.889,434.709C106.529,436.271 107.578,432.261 108.198,431.24L106.311,431C106.042,429.697 106.039,428.185 106.361,427.086C106.684,425.987 107.058,425.61 108.039,426.309C102.656,419.447 102.655,420.684 103.421,424.265C104.188,427.846 105.573,433.171 101.889,434.709Z" fill="#8D8481"/>
<path d="M105.712,431.119L108.311,431C108.311,429.564 107.689,425.889 107.689,426C106.708,425.301 106.086,425.812 105.764,426.911C105.442,428.01 105.443,429.816 105.712,431.119Z" fill="#B7AA9F"/>
<path d="M146.747,425.819C148.857,424.113 147.657,415.737 148.253,411.181C146.143,412.887 147.343,421.263 146.747,425.819Z" fill="#7F6240"/>
<path d="M98.8739,422.285C100.531,421.542 103.639,419.671 104.156,419.269C102.402,418.716 100.499,418.369 99.5205,418.976C98.5422,419.583 98.207,421.159 98.8739,422.285Z" fill="#4B3E3C"/>
<path d="M129.702,419.908L131.311,420C131.311,417.996 131.311,412.422 131.311,409C130.286,409.159 129.539,411.102 129.609,413.405C129.678,415.707 129.954,418.276 129.702,419.908Z" fill="#B7AA9F"/>
<path d="M119.689,415L121.311,415C120.746,413.197 121.898,405.498 119.933,403.696C119.933,405.7 119.689,411.578 119.689,415Z" fill="#563B33"/>
<path d="M98.7806,410.221C99.7738,410.18 101.749,410.407 103.124,410.36C104.499,410.314 105.755,409.607 105.263,408.834C104.01,406.729 102.21,409.419 101.095,408.704L101.311,406C100.245,405.807 99.0823,406.624 98.8236,407.619C98.5649,408.615 98.6798,410.011 98.7806,410.221Z" fill="#4B3E3C"/>
<path d="M100.689,409C101.803,409.716 103.504,407.089 104.757,409.194C105.614,409.592 106.637,408.583 107.04,407.402C107.444,406.22 107.637,404.933 108.167,404.263L106.311,404C106.352,403.007 106.215,401.272 106.262,399.897C106.308,398.522 106.296,397.812 107.069,398.304C107.738,396.717 106.101,393.093 104.092,392.703C102.771,392.099 101.531,392.561 101.031,393.146C100.531,393.73 100.505,394.992 100.826,395.258C102.277,395.887 103.933,398.057 104.464,400.456C104.995,402.854 104.54,404.914 100.966,405.69L100.689,409Z" fill="#66625E"/>
<path d="M105.69,403.974L108.311,404C108.23,403.518 108.675,398.238 107.128,397.716C106.355,397.225 105.686,398.501 105.64,399.876C105.593,401.251 105.731,402.981 105.69,403.974Z" fill="#8D8481"/>
<path d="M98.7896,395.229L101.311,395C100.498,393.468 101.054,393.342 102.053,393.256C103.052,393.171 104.373,392.881 104.191,392.754C104.796,392.147 102.711,391.426 100.995,391.5C99.279,391.574 97.5297,392.919 98.7896,395.229Z" fill="#4B3E3C"/>
<path d="M118.7,391.917L120.311,392C120.311,387.541 120.311,381.094 120.311,378C118.204,379.349 119.282,387.694 118.7,391.917Z" fill="#563B33"/>
<path d="M119.689,392C121.799,390.294 120.705,381.635 121.301,377.079L119.689,378C119.689,381.094 119.689,387.541 119.689,392Z" fill="#B7AA9F"/>
<path d="M613,391L614.311,391C614.188,389.692 616.034,390.12 618.402,390.255C620.771,390.391 623.565,390.46 624.214,389.226L622.689,389C621.206,389.228 619.026,388.666 616.896,388.608C614.766,388.55 612.688,388.997 612.689,390.001L613,391Z" fill="#7A6756"/>
<path d="M612,390L613.311,390C613.31,388.997 614.749,389.172 616.879,389.23C619.009,389.288 621.673,389.498 623.156,389.27C622.997,388.245 620.898,387.539 618.595,387.609C616.293,387.678 613.656,387.941 612.024,387.69L612,390Z" fill="#A79275"/>
<path d="M147.689,352C149.286,350.808 149.22,340.397 147.966,337.691C147.966,340.785 147.689,347.541 147.689,352Z" fill="#A79275"/>
<path d="M147.689,305C149.309,301.925 149.099,290.223 147.981,285.689C147.981,290.579 147.689,298.81 147.689,305Z" fill="#A79275"/>
<path d="M448.311,297C454.91,296.59 465.44,297.966 472.039,296.309C465.38,296.309 455.912,295.689 448,295.689L448.311,297Z" fill="#66625E"/>
<path d="M85.6895,292.977C86.7684,292.871 87.3655,290.807 87.3335,288.542C87.3014,286.277 87.0939,284.111 88.1432,283.276C86.6767,282.994 85.7535,284.289 85.6356,286.405C85.5177,288.52 85.7514,291.155 85.6895,292.977Z" fill="#7A6756"/>
<path d="M123,285C124.641,285 129.922,285.311 133,285.311L133,284C132.437,284 128.068,283.689 126,283.689L123,284L123,285Z" fill="#7F6240"/>
<path d="M133,285C134.641,285 140.061,285.278 143.139,285.278C143.14,284.275 141.234,283.55 139.104,283.608C136.974,283.666 134.506,283.918 133.024,283.69L133,285Z" fill="#A79275"/>
<path d="M109,284C111.004,284 116.578,284.311 120,284.311L120,283C117.996,283 112.422,282.689 109,282.689L109,284Z" fill="#7F6240"/>
<path d="M120,284L123,284L126.311,284C126.803,283.227 125.499,282.686 124.124,282.64C122.749,282.593 121,282.73 120.006,282.689L120,284Z" fill="#C4A77F"/>
</g>
<g id="layer1">
<path d="M263,766C275.177,766 289.134,766 300,766C312.67,766.493 325.849,765.715 336,765C346.44,763.262 359.655,762.521 368,760C379.455,759.456 388.902,756.901 399,755C407.917,751.74 419.083,748.949 428,747C437.471,744.294 447.987,740.853 456,738C465.613,735.436 475.764,731.63 484,729C491.518,724.519 500.705,721.703 508,717C516.365,713.188 524.729,707.595 531,703C537.94,697.763 546.526,692.392 551,686C557.68,680.503 563.474,672.34 568,666C572.63,658.632 576.265,650.264 580,642C583.204,633.027 585.307,621.173 587,612C591.66,597.668 576.371,604.233 588,591C593.96,582.767 594.575,574.78 601,569C605.492,561.493 610.083,554.082 615,547C625.201,541.441 618.12,533.655 625,538C627.946,533.566 632.553,540.322 622,546C629.084,540.907 645.955,543.821 656,543C667.999,543 680.001,543 692,543C704.177,543 718.134,543 729,543C740.999,543 753.001,543 765,543C777.177,543 791.134,543 802,543C813.999,543 826.001,543 838,543C848.378,541.201 863.622,542.488 874,542C886.177,542 900.134,542 911,542C922.106,544.513 947.14,539.063 923,539C911.001,539 898.999,539 887,539C874.823,539 860.866,539 850,539C839.701,535.594 826.394,540.608 817,538C804.823,538 790.866,538 780,538C768.001,538 755.999,538 744,538C731.823,538 717.866,538 707,538C694.823,538 680.866,538 670,538C659.123,536.7 641.239,540.627 636,535C622.853,532.899 623.205,527.153 628,515C631.127,505.95 633.104,493.97 634,484C635.622,474.408 635.43,457.215 634,449C632.658,438.165 630.799,426.067 628,418C622.461,408.108 622.759,398.448 634,396C640.78,390.603 658.077,393.943 668,393C680.177,393 694.134,393 705,393C717.177,393 731.134,393 742,393C753.999,393 766.001,393 778,393C790.177,393 804.134,393 815,393C826.999,393 839.001,393 851,393C863.177,393 877.134,393 888,393C899.999,393 912.001,393 924,393C949.293,391.212 917.883,386.458 911,389C898.823,389 884.866,389 874,389C861.823,389 847.866,389 837,389C825.001,389 812.999,389 801,389C788.823,389 774.866,389 764,389C752.001,389 739.999,389 728,389C715.823,389 701.866,389 691,389C679.001,389 666.999,389 655,389C643.645,389.155 626.773,389.495 621,388C628.375,392.801 631.327,394.063 623,397C621.664,392.25 617.612,392.915 612,383C606.582,376.419 603.316,367.683 597,362C591.689,355.134 585.665,347.201 580,342C574.37,335.631 567.313,330.686 560,326C553.19,320.633 544.428,315.438 537,312C528.902,308.1 520.655,304.344 511,302C502.541,298.281 490.632,296.234 481,295C468.823,295 454.866,295 444,295C431.907,295.084 421.215,298.349 412,300C403.11,303.108 394.361,306.362 386,310C378.237,314.414 368.797,318.931 363,324C354.86,328.038 347.985,335.119 342,340C336.149,346.326 328.292,352.426 324,359C319.559,366.558 314.016,373.017 310,381C305.616,388.793 300.555,397.689 298,406C294.417,414.594 291.122,425.256 290,435C287.486,444.663 287.995,459.129 288,470C287.453,482.546 288.461,493.54 290,504C289.994,520.136 299.986,520.707 293,506C291.444,495.557 289.392,485.607 290,473C289.995,460.818 289.486,446.352 292,438C293.239,427.24 296.312,418.311 299,409C302.615,400.438 306.449,390.315 311,384C314.944,375.767 320.914,367.78 326,362C329.741,353.564 339.077,348.943 343,342C350.044,337.045 356.326,331.325 363,326C370.924,321.747 378.829,315.695 387,313C395.098,309.1 403.345,305.344 413,303C422.085,299.908 434.065,297.931 444,297C455.999,297 468.001,297 480,297C490.111,299.067 502.388,300.746 510,304C520.069,306.109 528.538,311.596 537,314C544.428,318.749 553.19,323.944 560,328C565.997,334.001 573.854,338.147 579,345C585.481,350.696 591.921,358.213 597,364C601.361,371.638 606.39,378.612 610,387C615.161,394.016 619.257,403.877 622,412C625.198,420.801 627.083,430.918 629,441C631.219,450.958 631.296,464.838 631,476C630.069,487.246 628.302,499.436 626,508C623.776,517.953 619.886,528.02 617,536C612.428,543.426 608.394,551.395 604,559C599.899,567.076 593.01,574.144 588,580C582.156,586.333 574.533,592.667 570,599C563.031,604.208 554.528,609.662 548,614C539.69,617.689 533.13,623.131 524,626C515.917,630.094 504.139,632.273 496,635C485.084,636.261 473.458,638.592 462,638C449.374,638.449 436.42,637.446 428,635C417.532,633.469 408.642,630.357 400,627C390.788,624.035 381.2,619.666 375,615C366.592,611.409 360.466,605.533 353,601C347.591,594.232 338.475,589.391 334,583C327.758,577.243 323.737,569.262 318,563C312.95,555.873 308.708,546.158 305,539C305.023,530.384 285.005,519.918 297,532C308.025,548.056 296.2,533.224 288,532C278.468,529.533 266.831,529.167 255,529C242.031,528.208 230.764,530.898 222,533C212.276,535.275 204.17,539.171 198,545C191.868,551.045 184.609,557.743 180,564C175.429,571.427 171.515,579.516 167,587C164.162,596.339 160.508,606.642 159,616C156.96,626.137 158.481,641.615 158,652C157.208,664.969 159.898,676.236 162,685C163.638,695.361 166.482,704.519 170,713C173.399,721.778 180.017,729.117 185,735C191.296,740.703 198.482,745.519 206,750C214.658,753.519 223.363,758.771 233,760C241.973,763.026 253.027,763.975 263,766ZM142,662C149.22,648.922 144.068,622.152 146,605C146,585.002 146,564.998 146,545C144.985,523.687 147.387,504.471 147,485C147,465.002 147,444.998 147,425C148.941,406.644 147.433,383.517 148,365C148,345.002 148,324.998 148,305C157.386,275.616 127.174,285.824 109,284C81.5419,273.351 84.9485,298.7 84,317C83.5424,336.84 75.4036,350.319 70,364C64.3369,378.335 63.2093,397.211 63,417C62.1966,436.494 60.4656,456.381 61,476C60.5416,496.456 61.3618,515.64 63,534C62.2324,555.065 69.0515,569.864 75,583C79.7296,598.268 86.2728,611.729 84,634C77.1108,662.991 107.65,646.909 125,651C129.735,651 136.77,651 140,651C148.333,625.548 136.798,663.698 142,662ZM92,645C102.665,645.207 157.481,643.946 123,647C117.667,647 112.333,647 107,647C82.7361,659.768 90.2998,623.129 92,645ZM447,623C459.938,623.082 474.89,623.447 484,621C495.459,619.603 506.466,616.022 515,613C524.211,609.355 534.371,604.927 541,600C549.303,595.447 557.788,589.345 564,584C570.152,577.296 578.404,570.96 583,564C588.295,556.439 594.285,547.842 598,540C602.765,531.909 606.693,521.249 610,513C612.203,502.538 614.718,492.384 616,481C615.925,468.219 616.646,452.91 614,444C612.638,432.506 609.895,420.661 606,413C603.233,402.911 597.608,393.948 594,386C588.203,378.941 582.774,369.783 577,364C570.334,357.81 563.666,349.89 557,345C549.227,339.917 541.322,333.234 533,330C525.813,324.331 513.811,321.745 506,318C495.601,315.734 485.254,313.411 474,312C461.219,312.075 445.91,311.354 437,314C425.534,315.39 413.951,318.395 406,322C396.492,325.348 386.59,330.034 380,335C371.165,339.021 363.258,345.702 357,351C350.848,357.704 342.596,364.04 338,371C333.13,378.986 326.513,386.957 323,395C318.899,403.755 313.593,413.037 312,423C307.871,431.537 307.246,443.581 305,454C304.818,467.038 304.579,481.865 307,491C308.397,502.459 311.978,513.466 315,522C318.225,531.631 323.236,541.208 328,548C332.452,556.404 339.056,564.388 344,571C350.126,577.73 357.735,584.709 364,590C371.34,595.516 380.52,600.923 388,605C396.654,609.202 406.437,614.007 416,616C425.075,619.59 436.236,621.099 447,623ZM142,568C144.755,581.956 140.965,595.204 142,610C142.778,621.731 141.194,653.774 141,623C141,608.335 141,593.665 141,579C140.051,565.542 142.231,537.264 142,568ZM68,538C68.6899,564.121 64.2699,513.746 66,505C69.5148,475.687 67.5357,530.612 68,538ZM849,538C863.213,538 879.067,538 892,538C905.76,537.547 922.799,538.732 934,537C919.787,537 903.933,537 891,537C877.24,537.453 860.201,536.268 849,538ZM107,527C114.445,549.847 91.2395,569.276 104,539C98.333,520.925 106.431,511.139 101,494C103.874,473.943 102.362,465.287 104,445C105.644,438.215 99.6558,442.5 102,448C99.9102,427.654 107.865,447.387 105,420C103.355,414.967 102.021,423.207 101,414C101.563,410.564 99.8892,404.889 102,403C101.076,420.349 106.4,387.315 103,389C97.5378,363.754 116.068,403.615 108,416C106.496,436.518 109.288,450.398 107,469C108.553,486.289 108.553,509.71 107,527ZM135,526C136.433,538.815 138.047,574.452 129,567C126.787,550.265 126.419,530.304 125,514C126.318,493.734 122.671,477.052 123,459C121.306,442.786 122.298,420.483 121,407C118.134,386.534 120.089,370.393 127,364C130.343,379.605 129.044,401.233 131,417C130.987,435.961 133.176,454.101 133,472C134.176,489.489 134.592,507.744 135,526ZM141,290C144.637,295.112 139.274,300.478 140,291C127.232,288.878 109.042,290.578 96,290C88.8183,286.389 132.268,287.246 141,290Z" fill="#250000" fill-opacity="0.379767"/>
</g>
</svg>
