<?xml version='1.0' encoding='utf-8'?>
<!-- Generator: imaengine 6.0   -->
<svg xmlns:xlink="http://www.w3.org/1999/xlink" xmlns="http://www.w3.org/2000/svg" viewBox="0,0,320,103" style="enable-background:new 0 0 320 103;" version="1.1">
<defs/>
<g id="layer0">
<path d="M-0.0705,103C6.8095,103 15.431,103.063 21.0314,103.063C19.4324,83.3718 25.3122,70.2024 25.0705,52.999C27.0145,48.7693 25.9564,41.2525 25.8164,34.8018C25.6763,28.351 26.4113,23.0323 32.0275,23.0649C33.5943,20.4985 31.167,19.4568 28.5634,18.5181C25.9598,17.5795 23.2198,16.6999 24.0673,14.0209C22.8883,5.27351 32.6202,5.86786 33.0697,0.0106953C22.0818,0.0106953 9.75839,-0.0630571 -0.0315286,-0.0630571C-0.0315286,34.2778 -0.0705,67.4611 -0.0705,103Z" fill="#0200C4"/>
<path d="M20.9304,103.011C23.3302,103.011 28.1133,103.063 29.0315,103.063C29.7551,76.7292 37.7185,49.2394 32.0648,22.9723C26.4487,22.9396 25.5354,28.3541 25.6754,34.8048C25.8155,41.2556 26.8794,48.7421 24.9354,52.9717C25.1771,70.1752 19.3314,83.32 20.9304,103.011Z" fill="#3926B9"/>
<path d="M28.9296,102.996C30.6752,102.996 34.8134,103.063 35.0315,103.063C36.4327,85.0256 36.0034,64.2642 39.0691,49.0138C39.2101,45.3726 41.2626,37.8936 41.378,31.8207C41.4933,25.7477 39.5647,21.0074 31.9624,22.9404C37.6161,49.2075 29.6532,76.6622 28.9296,102.996Z" fill="#0B05B3"/>
<path d="M34.9303,102.989C46.9382,102.989 60.2077,103.063 71.0311,103.063C70.516,100.148 74.5812,99.4095 74.0665,97.9767C74.4689,95.0561 76.609,96.8508 77.0115,97.0696C79.9438,93.5462 75.3028,88.0816 76.0647,85.028C72.4436,84.4851 70.6462,87.961 67.9776,86.9331C67.8665,87.5402 67.0472,88.0068 66.2932,88.3372C65.5393,88.6676 64.8674,88.9989 64.9943,89.0703C64.2762,88.8036 63.1443,87.7532 62.4766,86.8508C61.809,85.9484 61.645,85.1856 63.0336,85.062C61.5287,72.6815 78.6787,64.8717 85.0401,56.058L84.0705,56C83.8693,55.3283 83.1975,54.4807 82.5481,53.8755C81.8987,53.2704 81.171,52.8441 80.9697,52.9363C75.0114,55.9183 70.864,62.0968 64.9891,63.9303L62.0705,64C61.316,63.7697 60.9387,62.0146 60.9386,60.4446C60.9386,58.8745 61.2227,57.5565 61.9774,58.0668L62,57L60,57L59.9295,56C58.2442,56.383 57.0236,59.3614 56.0425,58.9438C55.8546,52.9115 57.0331,46.5257 58.0658,43.0252C48.2004,37.0098 46.7995,27.1725 50.4411,19.0059C54.0828,10.8393 62.7011,4.38874 73,5.0705C75.2513,4.92199 77.1555,1.97406 76.0476,-0.0520287C61.6675,-0.0520287 46.1897,-0.0630941 32.9685,-0.0630941C32.5191,5.79407 22.7511,5.26221 23.9302,14.0096C23.0827,16.6886 25.912,17.7121 28.5156,18.6508C31.1192,19.5894 33.5313,20.3727 31.9645,22.9391C39.5668,21.006 41.3523,25.745 41.237,31.818C41.1216,37.891 39.0705,45.3561 38.9296,48.9972C35.8638,64.2477 36.3316,84.9517 34.9303,102.989Z" fill="#4C2AE1"/>
<path d="M70.9335,103.023C72.3699,103.023 76.111,102.929 76,102.929L76,101L75,101L73.9295,98C74.4441,99.4328 70.4184,100.109 70.9335,103.023Z" fill="#2A14A4"/>
<path d="M76,103C86.3066,103 97.9325,103.063 107.031,103.063C108.447,96.6287 121.645,96.0429 117.049,87.9491C104.347,86.9472 100.03,76.4458 97.0079,66.9299C92.5176,75.4654 84.5362,81.6665 75.9592,84.9425C75.1973,87.9961 79.8759,93.4343 76.9436,96.9576C77.8404,99.2907 75.5554,100.757 75.9757,101.066L76,103Z" fill="#6C2FD8"/>
<path d="M106.935,102.972C113.125,102.972 121.137,103.065 126.028,103.065C128.114,99.7219 134.039,97.1676 138.098,94.3547C142.157,91.5418 144.323,88.3349 138.999,83.9295C134.945,87.444 127.627,89.2256 121.031,88.9369C121.369,87.8815 120.164,87.765 118.995,87.8492C117.827,87.9334 116.653,88.3512 116.99,88.0697C121.585,96.1635 108.351,96.537 106.935,102.972Z" fill="#8432C0"/>
<path d="M125.956,102.945C140.674,102.945 156.454,103.069 170.016,103.069C168.933,102.498 168.903,101.21 169.132,100.111C169.361,99.0125 169.84,98.1037 170.007,98.0701C168.571,98.0701 164.911,98.067 165.022,98.067C159.981,93.6879 161.54,88.7111 164.937,84.3294C168.335,79.9477 173.601,76.142 176.052,74.0479C176.522,70.4233 173.157,67.336 168.745,65.6303C164.333,63.9246 158.782,63.4946 154.96,64.9419C151.674,73.3237 144.469,78.9836 138.953,83.947C144.277,88.3524 142.077,91.4259 138.018,94.2388C133.958,97.0517 128.043,99.6019 125.956,102.945Z" fill="#9735AA"/>
<path d="M169.982,103.068C201.495,103.068 233.597,103.063 264.032,103.063C264.032,101.317 264.071,97.2181 264.071,97L263.071,97C260.775,96.4674 261.018,95.0406 261.842,93.5681C262.667,92.0956 264.074,90.5767 264.07,89.9992L264.071,86C261.379,83.651 262.024,81.7672 263.539,81.006C265.055,80.2448 267.308,80.642 267.939,83.0358C280.918,81.7193 287.356,61.5611 298.019,68.068C297.839,66.867 296.484,65.2257 295.58,63.7578C294.677,62.2898 294.242,60.9882 296.035,60.061C305.288,53.6449 308.177,39.8265 305.791,28.3089C303.406,16.7914 295.696,7.44469 283.986,9.93092C281.695,10.3774 279.809,13.4509 278.01,12.9302L278.071,10C276.986,9.88486 276.392,8.66943 275.871,7.60603C275.349,6.54263 274.813,5.56245 273.985,5.93119C272.548,5.93119 268.891,6.07048 269.002,6.07048C261.77,5.734 256.719,1.53008 252.012,-0.0695038C250.266,-0.0695038 246.189,-0.064442 245.971,-0.064442C244.919,1.96122 238.034,0.344492 236.981,0.932093L237,0C228.745,0 218.981,-0.064442 211.971,-0.064442C210.919,1.96122 204.034,0.344492 202.981,0.932093L203,0C189.297,0 174.506,-0.0630931 161.969,-0.0630931C161.63,4.40431 160.269,9.87113 159.93,12.9885C168.751,15.8357 173.687,23.7644 173.93,34.0017C173.832,37.3131 170.899,41.3782 169.329,44.8483C167.758,48.3184 167.6,51.2588 172.978,52.0671C178.253,55.0476 183.185,59.8476 187.976,62.0662C194.598,63.7464 195.406,52.5761 198.058,49.0397C199.744,43.1571 200.818,35.0954 203.062,31.0331C205.782,23.105 213.944,19.4083 219.039,15.0587C224.977,12.7418 234.213,12.2822 240.009,11.0699C268.596,9.42303 275.836,26.694 272.348,44.9077C268.86,63.1215 254.632,82.1378 239.996,83.9296L237.07,85C234.523,84.1259 230.945,82.1504 232.066,79.0245C229.112,73.4327 233.17,67.0989 235.055,65.0446C237.88,58.5872 244.162,54.1757 246.067,48.0234C247.125,46.9 249.27,43.8166 250.328,40.9304C251.386,38.0441 251.306,35.2627 248.015,34.9311C241.509,32.6082 232.375,34.8733 226.987,34.9307C198.282,46.2215 202.17,90.121 169.985,97.9312C169.818,97.9647 169.223,98.9837 168.994,100.083C168.764,101.181 168.899,102.497 169.982,103.068Z" fill="#B63872"/>
<path d="M263.929,103C282.695,103 302.392,103.063 320.032,103.063C320.032,68.7222 320.071,35.5389 320.071,0C297.271,0 273.682,-0.069605 251.989,-0.069605C256.696,1.52997 261.797,5.72803 269.028,6.06451C269.554,4.76044 270.892,4.23454 272.071,4.29465C273.251,4.35477 274.186,4.89305 273.944,5.95666C274.772,5.58792 275.222,6.60475 275.744,7.66815C276.266,8.73155 276.943,9.94968 278.028,10.0648C278.258,9.31035 279.985,8.93868 281.555,8.93862C283.125,8.93856 284.476,9.18363 283.966,9.93833C295.676,7.4521 303.267,16.82 305.653,28.3375C308.039,39.8551 305.211,53.5272 295.958,59.9433C297.163,60.9613 298.644,62.6143 299.344,64.1432C300.044,65.6722 300.01,67.0635 298.005,67.9297C287.342,61.4228 280.975,81.6132 267.996,82.9296L266.93,85C267.636,85.2201 267.307,86.7517 266.839,88.3474C266.371,89.9431 265.77,91.629 265.935,92.0261C266.14,94.2997 263.727,96.2493 263.932,97.0179C263.932,97.236 263.929,101.254 263.929,103Z" fill="#B4261B"/>
<path d="M75,101L76.0705,101C76.5466,100.758 76.8729,99.8205 77.0426,98.9058C77.2122,97.9912 77.1913,97.039 77.0365,96.9397C76.634,96.7209 74.3343,95.0607 73.932,97.9813L75,101Z" fill="#4521C4"/>
<path d="M164.972,98.0647C166.408,98.0647 170.119,97.93 170.008,97.93C202.194,90.1198 198.309,46.3599 227.014,35.0691C232.402,35.0116 241.478,32.7458 247.984,35.0687C251.275,35.4003 251.254,37.9956 250.196,40.8819C249.138,43.7681 247.004,46.832 245.945,47.9555C244.041,54.1078 237.762,58.5118 234.937,64.9692C233.052,67.0235 228.983,73.4398 231.937,79.0316C232.639,82.4419 238.304,83.016 239.983,84.0685C254.62,82.2767 268.999,63.148 272.487,44.9342C275.974,26.7205 268.578,9.28325 239.991,10.9301C234.194,12.1424 224.905,12.6211 218.966,14.9381C213.872,19.2877 205.653,23.0482 202.934,30.9763C200.689,35.0386 199.618,43.0963 197.933,48.979C195.281,52.5154 194.645,63.6135 188.023,61.9333C183.232,59.7147 178.299,54.9143 173.024,51.9338C167.646,51.1255 167.887,48.3765 169.457,44.9064C171.027,41.4364 173.973,37.3135 174.07,34.0021C173.828,23.7648 168.837,15.7786 160.016,12.9313C150.486,11.6562 144.121,15.0651 138.979,16.9327C127.621,19.7533 124.459,31.0585 126.368,41.7161C128.276,52.3737 135.246,62.5155 143.972,63.0645C144.68,64.0671 146.933,64.0974 148.993,64.1089C151.053,64.1204 152.879,64.0561 152.93,65.0075L155.071,65C158.893,63.5527 164.282,64.0561 168.694,65.7618C173.106,67.4675 176.401,70.3645 175.93,73.9891C173.48,76.0831 168.224,79.8613 164.826,84.243C161.428,88.6247 159.931,93.6856 164.972,98.0647Z" fill="#BBABE9"/>
<path d="M262.992,97.07L264.071,97C263.865,96.2314 266.275,94.2611 266.069,91.9875L265,92L263.93,90C263.933,90.5774 262.544,92.0267 261.719,93.4992C260.895,94.9717 260.697,96.5375 262.992,97.07Z" fill="#AD2F3C"/>
<path d="M265,92L266.07,92C265.906,91.6029 266.507,89.9828 266.974,88.3871C267.442,86.7914 267.718,85.1505 267.011,84.9303L264,86L264,90L265,92Z" fill="#AB2D37"/>
<path d="M65.0105,89.0697C65.4073,88.7483 66.3645,88.4035 67.1095,88.0642C67.8545,87.7249 68.4046,87.2565 68.0276,86.9351L66.0705,87C65.9594,86.3929 65.1038,85.864 64.3498,85.5336C63.5959,85.2032 62.889,85.1401 63.0158,85.0687C61.6272,85.1923 61.6956,86.0322 62.3633,86.9347C63.0309,87.8371 64.2924,88.8031 65.0105,89.0697Z" fill="#7254E5"/>
<path d="M120.97,88.9364C127.565,89.225 134.993,87.5675 139.046,84.053C144.562,79.0895 151.769,73.4253 155.055,65.0435L152.929,65C151.877,67.0257 145.034,65.3445 143.981,65.9321L143.93,65C138.108,70.8471 133.599,79.0508 122.999,78.9295C107.823,79.7245 110.251,61.9106 102.011,56.9303C96.7049,58.3491 94.0951,60.8814 96.9357,67.029C99.9576,76.5449 104.302,87.0685 117.003,88.0704C117.876,87.9157 119.126,87.9265 120.041,88.0961C120.955,88.2657 121.501,88.4601 120.97,88.9364Z" fill="#9C7ED1"/>
<path d="M65.9724,86.9351L67.9295,87C70.5981,88.0278 72.3863,84.5272 76.0074,85.0701C84.5845,81.7941 92.5723,75.5679 97.0626,67.0325C94.2219,60.8849 96.7267,58.4814 102.032,57.0626C86.7099,40.1024 111.634,3.03837 73.0006,4.9295C62.7018,4.24774 53.954,10.7819 50.3124,18.9485C46.6707,27.1151 48.1048,37.0486 57.9703,43.0639C59.1687,43.4046 60.8135,43.847 62.0872,44.4834C63.3609,45.1198 64.2286,45.8583 63.9353,46.9719C65.3481,47.2701 67.4313,47.5802 69.0958,47.9875C70.7602,48.3947 72.0012,48.915 71.9306,49.9878C76.551,48.7892 78.7188,52.3616 81.0163,52.0686C82.8191,51.4083 84.465,52.2295 85.3724,53.3169C86.2798,54.4043 86.3999,55.6268 84.9673,55.9375C78.6059,64.7512 61.4254,72.6299 62.9303,85.0104C63.3271,85.3318 64.306,85.7249 65.0511,86.0642C65.7961,86.4035 66.3493,86.6138 65.9724,86.9351Z" fill="#856BE5"/>
<path d="M263.972,86.0646L267,85L268.07,83C267.439,80.6063 264.991,80.1188 263.476,80.88C261.961,81.6412 261.28,83.7157 263.972,86.0646Z" fill="#B33347"/>
<path d="M236.988,85.0695L240.07,84C238.391,82.9474 232.709,82.3402 232.007,78.9298C230.885,82.0558 234.44,84.1954 236.988,85.0695Z" fill="#C9C4FA"/>
<path d="M123.001,79.0705C133.602,79.1918 138.211,70.9101 144.032,65.063L144.07,63C135.345,62.451 128.415,52.3489 126.506,41.6913C124.598,31.0337 127.65,19.8906 139.009,17.07L138.071,17C137.862,13.4815 135.179,6.34383 136.068,0.0190804C115.956,0.0190804 94.9643,-0.0645607 75.9717,-0.0645607C77.0796,1.96153 75.2507,4.78099 72.9994,4.9295C111.633,3.03837 86.6292,40.0912 101.952,57.0514C110.193,62.0317 107.826,79.8655 123.001,79.0705Z" fill="#7B2FCA"/>
<path d="M297.937,68.0315C299.942,67.1653 300.172,65.6135 299.472,64.0845C298.772,62.5556 297.214,60.948 296.009,59.93C294.215,60.8572 294.557,62.3637 295.46,63.8317C296.364,65.2996 297.757,66.8306 297.937,68.0315Z" fill="#B52E2F"/>
<path d="M144.07,66C145.124,65.4124 152.011,67.0566 153.063,65.031C153.013,64.0796 151.054,63.9794 148.994,63.9679C146.933,63.9564 144.749,63.945 144.041,62.9425L144,65L144.07,66Z" fill="#A88FDB"/>
<path d="M61.9894,64.0697L65.0705,64C64.0577,62.2757 60.9741,60.4002 62.0613,58.0349C61.3066,57.5245 60.7976,58.8746 60.7976,60.4446C60.7977,62.0146 61.2349,63.8394 61.9894,64.0697Z" fill="#6545C2"/>
<path d="M64.9657,64.0616C70.8406,62.2281 75.0587,56.0503 81.0171,53.0684L80.9295,52C78.632,52.293 76.5967,48.735 71.9763,49.9336C68.2865,51.7422 65.1738,55.9397 61.9892,56.9303L61.9295,58C60.8423,60.3653 63.9529,62.3373 64.9657,64.0616Z" fill="#785EA8"/>
<path d="M55.9296,59.0032C56.9106,59.4208 58.3517,56.443 60.037,56.06C58.9494,50.8596 64.2483,49.9052 64.0704,46.9956C64.3636,45.882 63.424,44.9937 62.1503,44.3573C60.8765,43.7208 59.1747,43.2743 57.9763,42.9336C56.9436,46.4342 55.7417,52.9709 55.9296,59.0032Z" fill="#0B04A5"/>
<path d="M60,57L62.0705,57C65.2552,56.0093 68.3543,51.8637 72.0441,50.055C72.1147,48.9822 70.7937,48.2578 69.1293,47.8505C67.4648,47.4432 65.3863,47.2328 63.9736,46.9346C64.1514,49.8442 58.8474,50.8268 59.935,56.0272L60,57Z" fill="#542CE6"/>
<path d="M83.9395,56.0362L85.0705,56C86.5031,55.6892 86.3881,54.314 85.4807,53.2266C84.5732,52.1392 82.7901,51.2704 80.9873,51.9307L81.0705,53C81.2717,52.9078 81.8026,53.3735 82.452,53.9787C83.1014,54.5838 83.7384,55.3646 83.9395,56.0362Z" fill="#7A53DE"/>
<path d="M155.02,47.0677C156.782,45.7856 159.141,41.0118 159.729,37.2239C160.318,33.4359 159.097,30.4986 153.98,32.9324C148.794,33.4881 147.5,37.0658 148.298,40.4238C149.096,43.7819 152.027,47.0554 155.02,47.0677Z" fill="#9635AD"/>
<path d="M85.0705,35C86.789,34.9586 87.3538,32.6444 87.2067,30.5C87.0595,28.3556 86.0847,26.327 84.9547,26.9459C85.1759,28.367 85.0898,30.1191 84.8787,31.4932C84.6675,32.8673 84.3689,33.8474 83.9923,33.9299L85.0705,35Z" fill="#754BDF"/>
<path d="M81.9893,34.0697L84.0705,34C84.4471,33.9175 84.8069,32.8887 85.018,31.5146C85.2292,30.1405 85.2897,28.4044 85.0685,26.9833C77.6517,24.8748 74.9131,26.0779 75.0924,28.0701C75.2716,30.0623 78.2895,32.9299 81.9893,34.0697Z" fill="#6533E1"/>
<path d="M137.93,17.0083L139.071,17C144.212,15.1324 150.498,11.7896 160.028,13.0647C160.367,9.94733 161.731,4.47797 162.07,0.0105582C153.472,0.0105582 143.328,-0.0631797 135.969,-0.0631797C135.08,6.26157 137.721,13.4898 137.93,17.0083Z" fill="#9232AC"/>
<path d="M277.929,13C279.728,13.5206 281.742,10.509 284.032,10.0626C284.543,9.30786 283.125,8.79756 281.555,8.79762C279.985,8.79768 278.17,9.2088 277.94,9.96327L277.929,13Z" fill="#AE2C34"/>
<path d="M268.945,5.95578C270.381,5.95578 274.142,5.93663 274.031,5.93663C274.272,4.87302 273.258,4.21395 272.079,4.15383C270.9,4.09372 269.47,4.65171 268.945,5.95578Z" fill="#AB2C37"/>
<path d="M203.07,1C204.124,0.412399 210.996,2.07647 212.049,0.0508008C209.312,0.0508008 204.278,-0.0705 203,-0.0705L203.07,1Z" fill="#721638"/>
<path d="M237.07,1C238.124,0.412399 244.996,2.07647 246.049,0.0508008C243.312,0.0508008 238.278,-0.0705 237,-0.0705L237.07,1Z" fill="#8C1D2B"/>
</g>
</svg>
