<?xml version='1.0' encoding='utf-8'?>
<!-- Generator: imaengine 6.0   -->
<svg xmlns:xlink="http://www.w3.org/1999/xlink" xmlns="http://www.w3.org/2000/svg" viewBox="0,0,320,103" style="enable-background:new 0 0 320 103;" version="1.1">
<defs/>
<g id="layer0">
<path d="M0,103C6.53519,103 14.7542,103.071 20,103.071L20,102C15.1943,102 8.45576,101.929 5,101.929L5,101C3.56363,101 -0.111021,101.071 0,101.071L0,103Z" fill="#837ECC"/>
<path d="M20,103C22.3998,103 27.0818,103.071 28,103.071L28.0705,102C25.693,95.9852 30.9472,94.1295 28.0596,89.9623C29.8046,81.0599 31.1818,70.6657 32.026,62.0655C36.5616,72.5343 40.2298,88.6083 43.9395,101.036L46,103C48.0683,103 52.4366,103.07 53,103.07L53,102L53.0705,99C47.2932,82.9853 41.6676,66.0778 40.0702,46.9939C39.5602,45.7583 37.9941,43.3123 38.0673,43.021C36.0918,41.5747 30.0059,41.928 28,41.9295L26.9295,44C24.671,56.4597 21.7741,69.283 21.9295,83.0008C21.8219,84.0931 22.003,86.0435 21.9954,87.6211C21.9878,89.1988 21.8414,90.3355 20.9794,89.9326C21.2994,91.404 21.7443,93.2337 21.7867,94.6209C21.8291,96.0081 21.4607,96.956 19.9712,96.9357C18.9367,99.2093 18.9406,101.298 19.9755,102.066L20,103Z" fill="#8A80D7"/>
<path d="M28,103C33.8444,103 41.4667,103.071 46,103.071L43.9295,101C40.54,103.109 31.5646,101.325 27.9941,101.93L28,103Z" fill="#9084D7"/>
<path d="M53,103C68.0563,103 84.1281,103.063 98.0315,103.063C98.0037,102.373 97.3356,101.661 96.7513,101.161C96.167,100.661 95.6626,100.374 96.0275,100.065L94.9295,100C95.0565,100.845 94.4043,101.364 93.6504,101.694C92.8965,102.025 92.1536,102.11 92.0423,101.944C88.964,101.944 83.6408,101.929 82,101.929C79.6002,101.929 74.9182,101.929 74,101.929C71.2629,101.929 66.2781,101.929 65,101.929C61.2331,101.929 55.3683,101.929 53,101.929L53,103Z" fill="#9B82D3"/>
<path d="M97.9725,102.935L99,103L99.0705,102C98.4879,97.7768 100.089,89.2804 97.9818,87.9319C97.7534,89.4143 97.9526,91.9848 98.0105,94.1144C98.0684,96.244 98.0031,97.9303 97,97.9295L95.9295,100C95.9573,100.69 96.6644,101.339 97.2487,101.839C97.833,102.339 98.3374,102.626 97.9725,102.935Z" fill="#987FE2"/>
<path d="M99,103C105.535,103 113.754,103.071 119,103.071L119,102L118,102C111.81,102 103.89,101.929 99,101.929L99,103Z" fill="#CDC4EB"/>
<path d="M119,103C130.328,103 142.865,103.071 153,103.071L153,102C142.012,102 129.79,101.929 120,101.929L119,102L119,103Z" fill="#B385C6"/>
<path d="M153,103C155.737,103 160.722,103.071 162,103.071L162,102C159.6,102 154.918,101.929 154,101.929L153,102L153,103Z" fill="#CCB9DB"/>
<path d="M162,103C172.647,103 184.556,103.071 194,103.071L194,102L193,102L192,102C189.6,102 184.918,101.929 184,101.929C181.6,101.929 176.918,101.929 176,101.929C171.541,101.929 165.094,101.93 162,101.93L162,103Z" fill="#BF86BB"/>
<path d="M194,103L195,103L195.071,102C195.071,97.5408 195.07,91.0942 195.07,88L193.929,89C193.929,93.1129 193.929,99.2683 193.929,102L194,103Z" fill="#B659A0"/>
<path d="M195,103C199.459,103 205.906,103.07 209,103.07L209,102L208,102L207,102C203.233,102 197.368,101.929 195,101.929L195,103Z" fill="#CFA4D0"/>
<path d="M209,103C219.307,103 230.902,103.071 240,103.071L240,102C229.693,102 218.098,101.929 209,101.929L209,103Z" fill="#C788A9"/>
<path d="M240,103C242.737,103 247.722,103.071 249,103.071L249,102L248,102L244,102L243,102L242,102L241,102L240,102L240,103Z" fill="#C993A5"/>
<path d="M249,103L250,103L250.07,102C250.07,98.5782 250.071,93.0045 250.071,91L249,91L248.93,93C248.93,95.7371 248.929,100.722 248.929,102L249,103Z" fill="#BC4D6B"/>
<path d="M250,103C268.092,103 287.038,103.071 304,103.071L304,102C295.402,102 285.359,101.929 278,101.929C268.718,101.929 258.057,101.929 250,101.929L250,103Z" fill="#C58896"/>
<path d="M304,103C308.113,103 314.268,103.071 317,103.071L316,102C312.233,102 306.368,101.929 304,101.929L304,103Z" fill="#D7C6DE"/>
<path d="M317,103L320.071,103C320.071,88.6199 320.071,73.2211 320.071,60C318.966,72.9373 312.082,81.2769 312.93,95.0044C313.446,98.0586 313.906,96.9926 314.061,95.1952C314.217,93.3978 314.121,90.7962 313.983,90.9316C314.814,90.6266 314.919,93.1893 315.04,95.886C315.162,98.5828 315.292,101.548 315.975,102.066L317,103Z" fill="#C33B37"/>
<path d="M5,102C8.45576,102 15.2144,102.068 20.0201,102.068C18.9853,101.299 19.0176,99.3211 20.0521,97.0474L19,94L17,94C13.9217,94 8.64075,93.9295 7,93.9295L6,93L4.9295,95C4.38183,96.5324 4.87255,98.199 5.25315,99.3885C5.63375,100.578 5.98511,101.221 5.01038,100.93L5,102Z" fill="#3028D3"/>
<path d="M27.9492,102.049C31.5198,101.444 40.6569,103.162 44.0464,101.053C40.3368,88.6252 36.5287,72.3986 31.9931,61.9298C31.1489,70.53 29.676,81.0829 27.9311,89.9853C30.8187,94.1524 25.5717,96.0342 27.9492,102.049Z" fill="#432BF2"/>
<path d="M53,102C55.3683,102 61.2645,102.063 65.0315,102.063C64.4419,94.3109 65.9876,84.7624 66.0705,82.0021C66.5136,78.5789 71.6162,75.1445 73.0476,74.052C74.8843,71.0829 73.1228,62.5769 75.0507,61.049C74.9489,55.1292 74.6151,54.8303 74.2834,56.318C73.9517,57.8057 73.5777,60.9608 73.0064,61.9298C76.3494,51.3623 68.1265,50.881 67.0688,45.9846C65.2235,41.917 70.952,14.3261 66.0583,-0.0396945L61.9295,0C63.9501,7.62331 61.6436,9.0818 61.9296,16.0029C61.9296,22.5381 61.9295,30.7542 61.9295,36C62.1503,38.362 61.8989,43.8738 61.8429,48.2897C61.787,52.7056 62.0608,56.0556 63.0637,54.0301C64.0258,48.9538 63.9106,52.6335 63.9297,56.5073C63.9487,60.3811 64.0344,64.4893 64.9962,60.0704C65.0603,77.4706 60.8988,83.7794 57.9884,100.93C57.6959,100.189 56.3558,99.9419 55.1228,99.7538C53.8898,99.5658 52.8282,99.553 53.0527,99.0468L53,102Z" fill="#572BEC"/>
<path d="M64.9303,102.011C66.2084,102.011 71.2942,102.063 74.0313,102.063C76.8537,81.9913 76.3123,41.9141 75.0704,-0.00416996C72.3333,-0.00416996 67.248,-0.0637232 65.9698,-0.0637232C70.8635,14.3021 65.0902,41.9607 66.9354,46.0283C67.9931,50.9246 76.3324,51.3628 72.9894,61.9303C73.5607,60.9613 74.0893,57.8364 74.421,56.3487C74.7527,54.861 74.8277,55.0817 74.9295,61.0015C73.0016,62.5294 74.7795,70.9897 72.9428,73.9587C71.5114,75.0513 66.3732,78.5678 65.9301,81.991C65.8473,84.7513 64.3408,94.2584 64.9303,102.011Z" fill="#5A2BE8"/>
<path d="M73.9321,101.981C74.8503,101.981 79.6316,102.063 82.0314,102.063C78.9726,71.3581 88.315,33.462 83.0673,-0.021087C80.6675,-0.021087 75.8867,-0.0630627 74.9685,-0.0630627C76.2104,41.8552 76.7546,81.909 73.9321,101.981Z" fill="#602CE3"/>
<path d="M81.9309,102.014C83.5716,102.014 88.9529,102.063 92.0312,102.063C92.8082,97.5193 91.2039,93.226 91.07,90.9916L90.0705,91C90.0705,87.9217 90.0705,82.6408 90.0705,81C90.299,79.5175 90.0474,77.0152 89.9895,74.8856C89.9316,72.756 90.0283,71.0623 91.0313,71.0631C90.5073,66.4263 92.9142,62.5843 93.07,60.0085L91.0705,60C90.2552,41.3075 95.2599,22.045 93.0691,-0.013735C89.9909,-0.013735 84.6095,-0.0632088 82.9688,-0.0632088C88.2165,33.4199 78.872,71.3088 81.9309,102.014Z" fill="#662DDE"/>
<path d="M91.9317,101.982C93.015,102.347 93.9285,101.925 94.4286,101.341C94.9287,100.756 95.1237,99.9701 95.0402,99.9421C94.8213,96.0481 92.2264,92.4235 90.9876,90.9306C91.1215,93.165 92.7088,97.4384 91.9317,101.982Z" fill="#6934DB"/>
<path d="M98.932,102.019C103.822,102.019 111.842,102.063 118.032,102.063C118.032,96.5646 118.071,89.1753 118.071,85C118.682,79.7667 116.953,70.4721 119.056,68.0423C117.468,55.4718 120.721,50.7497 125.147,50.7671C129.573,50.7846 135.053,55.5272 137.935,62.0279C138.862,65.56 142.726,68.119 142.93,71.0088C147.233,71.5444 150.607,69.0197 152.022,68.0668L152.071,64C149.76,63.2323 148.922,58.7174 148.049,57.9494C145.212,54.2516 142.659,48.5655 139.038,46.9406C127.422,33.3957 114.462,36.0806 105.681,45.8032C96.8999,55.5258 92.201,72.3838 96.9408,87.0383L97.9295,88C100.037,89.3485 98.3495,97.7956 98.932,102.019Z" fill="#B6A8EC"/>
<path d="M117.929,102L119.07,102C119.07,98.5782 119.071,93.0045 119.071,91C119.071,89.2544 119.071,85.2181 119.071,85L117.929,85C117.929,89.1753 117.929,96.5016 117.929,102Z" fill="#9F7AD4"/>
<path d="M118.93,102L120.07,102C120.07,98.5782 120.071,93.0045 120.071,91L118.929,91C118.929,93.0045 118.93,98.5782 118.93,102Z" fill="#9568C6"/>
<path d="M119.93,102C129.719,102 142.012,102.071 153,102.071L154,102L153,100L152.071,100C150.219,99.1143 151.384,92.9387 151.067,91.9779C149.872,88.4348 150.9,86.3708 149.039,83.941L148.071,84C148.071,82.5636 147.929,78.889 147.929,79L147.071,79C147.117,75.1871 143.233,73.2004 143.07,70.9948C142.866,68.105 138.965,65.4728 138.038,61.9408C129.447,69.0811 128.29,84.7056 119.95,90.9501C119.95,92.9546 119.93,98.5782 119.93,102Z" fill="#8A38B0"/>
<path d="M154,102C154.918,102 159.613,102.069 162.013,102.069C158.752,100.769 162.588,94.2332 160.053,91.9531C160.316,86.8835 157.216,83.2932 157.069,79.985C154.894,81.5768 150.814,83.4178 148.966,83.9383C150.827,86.3682 149.752,88.5034 150.947,92.0465C152.931,91.6017 153.168,93.3868 153.049,95.4159C152.93,97.4449 152.486,99.7383 152.978,100.067L154,102Z" fill="#B294CC"/>
<path d="M161.986,102.069C165.08,102.069 171.572,102.063 176.032,102.063C176.032,94.4947 176.071,85.3067 176.071,79C175.329,73.7291 174.942,76.1363 174.878,80.0333C174.815,83.9302 174.936,89.3162 174.93,89.9993C174.494,96.4568 174.285,94.8763 174.094,91.4734C173.902,88.0705 173.868,82.8618 174.069,82.0161C174.01,78.9794 174.418,75.0238 174.135,71.9414C173.852,68.8591 172.811,66.5633 170,66.9295C168.336,66.7368 167.43,64.8476 167.107,62.7964C166.785,60.7453 167.06,58.6719 168.013,58.0693C173.803,59.4004 175.017,54.0435 173.997,49.9296C174.452,53.1794 174.963,55.6057 175.379,56.0728C175.795,56.5398 176.191,55.1157 176.07,50.9978C183.186,39.4308 179.126,15.2789 179.07,-0.000513659C177.002,-0.000513659 172.534,-0.0639855 171.97,-0.0639855C173.771,4.32534 172.668,13.3756 172.93,18.004C174.392,37.4782 174.265,53.4698 164.959,56.9425C161.767,72.3084 166.38,84.148 161.948,93.9527L159.929,92C162.465,94.2802 158.726,100.769 161.986,102.069Z" fill="#A3359D"/>
<path d="M175.929,102C176.848,102 181.63,102.064 184.029,102.064C185.807,98.0541 185.461,89.4443 183.044,87.9451C180.884,84.6071 179.995,78.1931 178.056,75.957C174.101,64.0741 177.921,52.3542 185.04,50.0581C185.04,33.3139 185.071,15.6045 185.071,0C183.325,0 179.187,-0.0630572 178.968,-0.0630572C179.024,15.2164 183.054,39.3983 175.939,50.9653C176.059,55.0832 175.9,56.446 175.484,55.9789C175.068,55.5119 174.46,53.1796 174.005,49.9297C175.025,54.0436 173.779,59.2614 167.989,57.9304C167.036,58.5329 166.645,60.7672 166.968,62.8183C167.29,64.8695 168.337,66.8778 170,67.0705C172.812,66.7043 173.712,68.8719 173.994,71.9543C174.277,75.0367 173.871,78.9647 173.93,82.0014C173.729,82.8471 173.762,88.0784 173.953,91.4813C174.144,94.8842 174.635,96.4621 175.07,90.0047C175.077,89.3216 174.956,83.9325 175.019,80.0356C175.083,76.1386 175.189,73.7388 175.93,79.0098C175.93,85.3164 175.929,94.4316 175.929,102Z" fill="#A83698"/>
<path d="M183.947,101.953C184.865,101.953 189.632,102.063 192.032,102.063C192.032,97.9502 192.071,91.7317 192.071,89L191.071,89C177.636,60.5109 197.581,38.0381 193.069,-0.0162696C190.669,-0.0162696 185.887,-0.0630571 184.968,-0.0630571C184.968,15.5415 184.929,33.2558 184.929,50C177.811,52.296 173.979,64.1415 177.934,76.0245C179.873,78.2606 180.784,84.7059 182.945,88.0439C185.362,89.5431 185.725,97.9432 183.947,101.953Z" fill="#AD3791"/>
<path d="M191.929,102L193.071,102C193.071,97.8871 193.071,91.7317 193.071,89L191.929,89C191.929,91.7317 191.929,97.8871 191.929,102Z" fill="#B24085"/>
<path d="M192.929,102L194.071,102C194.071,99.2683 194.071,93.1129 194.071,89L192.929,89C192.929,91.7317 192.929,97.8871 192.929,102Z" fill="#B55095"/>
<path d="M194.929,102C197.298,102 203.233,102.071 207,102.071L207,101L206.07,101C206.634,97.1043 204.945,89.0526 207.043,88.056C207.291,87.2701 207.584,85.8932 207.906,84.7943C208.229,83.6954 208.56,82.8852 209.023,83.0667C208.977,73.3967 212.812,66.2013 215.057,60.0415L214.071,60C215.089,51.3423 212.443,38.1193 207.031,33.9366C199.528,32.7136 204.224,44.8098 196.979,41.9327C195.474,46.2718 193.942,52.4791 193.93,56.9998C193.831,65.2815 198.276,73.8009 194.944,80.9574C195.812,81.1396 196.112,83.2221 196.052,85.0726C195.992,86.9232 195.613,88.5155 194.985,87.9311C194.985,91.0254 194.929,97.5408 194.929,102Z" fill="#BB74B9"/>
<path d="M207,102L208.07,102C208.634,98.1043 206.946,90.0522 209.043,89.0555C209.698,85.5498 209.719,84.9937 209.064,82.9701C208.601,82.7886 208.093,83.6557 207.771,84.7546C207.449,85.8535 207.181,87.1933 206.933,87.9792C206.933,92.0921 206.929,98.2683 206.929,101L207,102Z" fill="#BA5BA1"/>
<path d="M207.932,101.98L209.071,102C209.071,97.8871 209.071,91.7317 209.071,89C206.973,89.9966 208.496,98.0847 207.932,101.98Z" fill="#BB549A"/>
<path d="M208.929,102C218.028,102 229.693,102.071 240,102.071L241.07,102C241.664,93.9952 240.065,82.3813 242.066,77.024C242.117,72.5139 240.208,67.97 241.069,64.015C239.762,57.0665 237.618,49.4147 235.06,44.9631C233.581,43.2568 231.714,40.3932 229.657,38.6464C227.6,36.8997 225.24,36.2616 222.946,38.955C218.863,44.4964 216.611,53.2573 214.932,59.9827C212.687,66.1424 208.884,73.3304 208.93,83.0003C209.584,85.0239 209.585,85.4815 208.931,88.9872C208.931,91.7189 208.929,97.8871 208.929,102Z" fill="#BA3A76"/>
<path d="M240.93,101.99L242.07,102C242.07,98.5782 242.071,93.0045 242.071,91C242.071,87.9217 242.071,82.6408 242.071,81C242.876,78.4826 242.797,77.9195 241.991,76.9301C239.989,82.2874 241.523,93.9849 240.93,101.99Z" fill="#BA4E78"/>
<path d="M241.93,102L243.07,102C243.07,98.5782 243.071,93.0045 243.071,91L241.929,91C241.929,93.0045 241.93,98.5782 241.93,102Z" fill="#BA5370"/>
<path d="M242.93,102L244.07,102C244.07,98.5782 244.071,93.0045 244.071,91L242.929,91C242.929,93.0045 242.93,98.5782 242.93,102Z" fill="#BB5A71"/>
<path d="M243.93,102L248.071,102C248.269,100.659 248.033,98.3323 247.991,96.3798C247.949,94.4273 248.023,92.9196 248.995,93.0703L249,91C247.564,91 243.857,91.0631 243.968,91.0631C243.968,93.0675 243.93,98.5782 243.93,102Z" fill="#BB5D71"/>
<path d="M247.932,101.98L249.071,102C249.071,100.722 249.071,95.7371 249.071,93C248.099,92.8493 247.808,94.4304 247.85,96.3829C247.892,98.3353 248.131,100.639 247.932,101.98Z" fill="#BC566E"/>
<path d="M249.93,102C257.986,102 268.736,102.068 278.019,102.068C284.932,97.5803 286.579,78.8579 285.07,63.9902C294.51,59.3484 296.181,60.7721 296.999,75.0705C295.811,59.5026 300.766,48.9451 304.066,39.024C294.711,26.6905 296.236,38.404 286.007,41.9299C279.002,37.6071 282.464,21.6951 279.06,14.9635C269.723,7.95622 268.041,16.3338 267.07,-0.00831745C258.815,-0.00831745 248.978,-0.0632715 241.969,-0.0632715C239.621,12.4866 246.061,27.0032 239.952,30.948C240.175,35.1843 244.488,37.3355 243.931,40.9875C247.111,43.997 247.621,51.4471 248.934,55.0241C250.665,60.8607 249.727,70.8982 249.93,77.0024C251.184,79.7085 251.547,89.758 249.95,90.9501C249.95,92.9545 249.93,98.5782 249.93,102Z" fill="#B93959"/>
<path d="M277.978,101.933C285.337,101.933 295.433,102.063 304.031,102.063C301.883,92.8836 298.932,83.2568 297.069,74.9847C296.25,60.6863 294.396,59.3031 284.956,63.945C286.466,78.8127 284.892,97.4453 277.978,101.933Z" fill="#B93849"/>
<path d="M303.936,102.03C306.304,102.03 312.253,102.067 316.02,102.067C315.337,101.55 315.302,98.5765 315.181,95.8797C315.059,93.1829 314.844,90.6258 314.013,90.9307C314.151,90.7954 314.076,93.3857 313.921,95.1831C313.765,96.9805 313.586,98.0425 313.07,94.9883C312.222,81.2608 318.966,72.9433 320.07,60.006C320.07,46.3027 320.071,31.5378 320.071,19C316.506,21.9703 312.137,25.903 309.945,28.9564C307.238,31.4019 306.126,37.3084 303.951,38.9494C300.651,48.8706 295.742,59.4375 296.93,75.0054C298.793,83.2775 301.788,92.8501 303.936,102.03Z" fill="#C7A9D4"/>
<path d="M-0.0705,101C1.36587,101 5.10106,100.93 4.99004,100.93C5.96477,101.22 5.76804,100.535 5.38744,99.3455C5.00684,98.1561 4.50969,96.5734 5.05736,95.041C3.62099,95.041 -0.14255,95.0631 -0.0315286,95.0631C-0.0315286,96.8087 -0.0705,100.782 -0.0705,101Z" fill="#0E0BCE"/>
<path d="M58.0053,101.07C60.9157,83.9193 65.1312,77.3786 65.0671,59.9784C64.1052,64.3973 64.0897,60.3804 64.0707,56.5066C64.0516,52.6328 63.8929,48.91 62.9308,53.9863C61.9279,56.0118 61.928,52.7074 61.9839,48.2915C62.0398,43.8756 62.291,38.3554 62.0702,35.9935C62.0702,30.7476 62.0705,22.5352 62.0705,16C61.7846,9.07889 64.0829,7.59029 62.0623,-0.0330197C58.984,-0.0330197 53.6093,-0.0630812 51.9685,-0.0630812C52.777,13.0059 51.5526,19.0361 49.943,20.9585C48.8264,31.7923 53.8349,45.3921 49.0075,52.9299C47.8887,49.2429 41.796,48.5758 39.9849,46.9311C41.5823,66.015 47.1565,83.0095 52.9338,99.0242C52.7093,99.5305 53.8685,99.7052 55.1015,99.8932C56.3345,100.081 57.7128,100.329 58.0053,101.07Z" fill="#502AF0"/>
<path d="M205.932,100.98L207.071,101C207.071,98.2683 207.07,92.1129 207.07,88C204.973,88.9966 206.496,97.0847 205.932,100.98Z" fill="#BB6CB2"/>
<path d="M94.9299,100.008L96,100L97.0705,98C97.0705,94.5782 97.0705,89.0045 97.0705,87C92.3307,72.3455 97.0046,55.6203 105.786,45.8977C114.567,36.1751 127.337,33.5076 138.953,47.0525C142.574,48.6773 145.124,54.3613 147.962,58.0591L150,57L150,56L149.07,56C149.07,51.8871 149.071,45.7317 149.071,43L149.07,40C145.844,36.0019 140.092,32.8092 136.016,30.9313L135,30L131.929,30C130.514,32.0062 123.545,30.4732 121.997,30.9296C119.385,30.3861 117.477,32.8435 115.999,31.9295C110.77,35.2976 104.946,39.6057 101.942,43.9602C98.681,48.9545 94.8426,54.8757 92.9337,59.976C92.7779,62.5519 90.4059,66.371 90.9299,71.0079C90.9299,74.0861 90.9295,79.3592 90.9295,81C90.0445,85.436 92.4241,90.3021 90.9621,90.9406C92.2009,92.4334 94.7111,96.1139 94.9299,100.008Z" fill="#7F4BC7"/>
<path d="M151.984,100.069L153.071,100C152.579,99.6715 153.071,97.4532 153.189,95.4241C153.308,93.395 152.948,91.4947 150.964,91.9395C151.281,92.9004 150.132,99.1829 151.984,100.069Z" fill="#A56DBF"/>
<path d="M96.9295,98C97.9326,98.0008 98.2093,96.2402 98.1514,94.1106C98.0936,91.981 97.8389,89.5032 98.0674,88.0208L96.9295,87C96.9295,89.0045 96.9295,94.5782 96.9295,98Z" fill="#8C71DE"/>
<path d="M19.9295,97C21.419,97.0203 21.97,96.0038 21.9276,94.6166C21.8852,93.2294 21.3846,91.4433 21.0647,89.9719L20.0705,90C19.015,89.6627 18.765,90.8363 18.8492,92.0048C18.9334,93.1734 19.3177,94.2765 19.0362,93.9395L19.9295,97Z" fill="#6055E0"/>
<path d="M-0.0705,95C1.36587,95 5.11102,94.9295 5,94.9295L6.0705,93C6.0705,90.6002 6.0705,85.9182 6.0705,85C4.32488,85 0.186552,84.9369 -0.0315286,84.9369C-0.0315286,88.0152 -0.0705,93.3592 -0.0705,95Z" fill="#2824DE"/>
<path d="M7,94C8.64075,94 13.9392,94.0683 17.0174,94.0683C14.413,92.5231 14.762,85.4191 16.0628,82.0321C20.312,79.7785 18.9135,77.0739 16.6591,74.9517C14.4047,72.8295 11.27,71.3169 12.0382,71.0592C8.6934,63.9292 8.89797,58.3256 9.07049,48.0012C8.57731,41.6636 9.31251,34.8832 10.0275,31.0649C11.6933,33.512 12.3038,38.886 11.93,41.9916C10.7663,50.4803 12.6772,57.3281 14.1696,60.109C15.6621,62.8898 16.8724,61.5884 14.0664,53.9763C13.8027,35.811 14.8872,15.4659 13.0686,-0.0161237C11.0004,-0.0161237 6.5321,-0.0631479 5.96865,-0.0631479C5.56292,3.29803 0.753669,4.41731 -0.0631992,5.96876C-0.0631992,29.7751 -0.0705,54.2959 -0.0705,77C1.23681,77.7522 4.10334,78.3256 6.06308,79.1418C8.02282,79.9579 9.1167,80.9527 6.97043,82.936L5.9295,85C5.9295,85.9182 5.9295,90.6002 5.9295,93L7,94Z" fill="#2F28F2"/>
<path d="M16.9799,94.0676L19.0705,94C18.9158,93.1271 18.9265,91.874 19.0961,90.9593C19.2657,90.0446 19.537,89.5375 20.0132,90.0692C20.034,88.7214 19.8699,86.5064 20.0041,84.8926C20.1384,83.2788 20.5777,82.2645 22.0199,83.0676C21.8645,69.3499 24.8077,56.4838 27.0663,44.024L26.0705,44C28.8366,28.2784 25.0971,14.2032 25.0705,-0.000263971C21.3036,-0.000263971 15.337,-0.0631431 12.9686,-0.0631431C14.7872,15.4189 13.6658,35.8357 13.9295,54.0011C16.7355,61.6132 15.7863,62.8231 14.2939,60.0423C12.8015,57.2615 10.9062,50.4983 12.0698,42.0096C12.4437,38.904 11.656,33.3773 9.9903,30.9302C9.27527,34.7484 8.43653,41.6679 8.92971,48.0055C8.75719,58.3299 8.59727,63.9101 11.9421,71.0402C11.1739,71.2979 14.3081,72.9322 16.5624,75.0544C18.8168,77.1765 20.2054,79.6911 15.9562,81.9448C14.6554,85.3318 14.3755,92.5224 16.9799,94.0676Z" fill="#3629F0"/>
<path d="M162.071,94C166.503,84.1953 161.875,72.3865 165.067,57.0206C174.373,53.548 174.533,37.469 173.07,17.9947C172.809,13.3664 173.855,4.34461 172.055,-0.0447177C169.986,-0.0447177 165.532,-0.0631674 164.969,-0.0631674C161.835,23.4478 167.907,35.8592 159.97,51.936C157.644,50.6354 156.449,46.9275 155.011,43.8817C153.574,40.8359 151.906,38.4479 148.983,39.9317L149,43L149.929,44C155.242,48.9513 156.109,51.7258 153.933,58.9776C154.49,59.6207 154.963,60.9694 155.435,62.0831C155.907,63.1967 156.427,64.1663 156.984,64.0686C157.949,64.8694 158.633,66.6467 158.76,68.2416C158.888,69.8365 158.495,71.1128 157.02,70.9323C156.543,70.6902 156.266,69.7948 156.096,68.8801C155.926,67.9655 155.892,67.152 156.047,67.0526C155.582,65.4493 153.112,63.3662 151.983,63.9316L151.929,68C153.489,68.5087 154.252,72.0918 153.935,72.9716C155.7,74.2853 156.605,78.7028 156.932,80.0168C157.079,83.325 160.194,86.9231 159.93,91.9927L162.071,94Z" fill="#9E35A1"/>
<path d="M89.9295,91L91.0705,91C92.5326,90.3616 90.1805,85.4621 91.0655,81.0261L89.9295,81C89.9295,82.6408 89.9295,87.9217 89.9295,91Z" fill="#6B3DDB"/>
<path d="M118.929,91L120.07,91C128.41,84.7555 129.459,69.1899 138.05,62.0496C135.168,55.5489 129.574,50.6436 125.148,50.6261C120.721,50.6087 117.342,55.4383 118.93,68.0088C118.93,73.5072 118.929,80.8247 118.929,85C118.929,85.2181 118.929,89.2544 118.929,91Z" fill="#8332BF"/>
<path d="M241.929,91L243.071,91C242.842,89.5175 243.094,87.019 243.151,84.8894C243.209,82.7598 242.972,80.9361 241.968,80.937C241.968,82.5777 241.929,87.9217 241.929,91Z" fill="#BB5781"/>
<path d="M242.933,91.0208L244,91C245.436,91 249.142,90.9368 249.031,90.9368C249.614,86.7136 247.94,78.4006 250.048,77.0521C249.845,70.9478 250.727,60.7663 248.995,54.9297C248.661,62.1774 247.587,66.3259 243.003,65.9296L240.929,64C240.069,67.9551 241.98,72.4891 241.93,76.9991C242.735,77.9886 242.746,78.4445 241.941,80.962C242.944,80.9611 243.068,82.756 243.01,84.8856C242.953,87.0152 242.704,89.5383 242.933,91.0208Z" fill="#BC6791"/>
<path d="M248.932,90.9813L250.071,91C250.071,86.5408 250.071,80.0942 250.071,77C247.963,78.3485 249.515,86.7581 248.932,90.9813Z" fill="#BC547B"/>
<path d="M249.93,91C251.526,89.8079 251.246,79.6359 249.992,76.9299C249.992,80.0242 249.93,86.5408 249.93,91Z" fill="#BC4E75"/>
<path d="M19.9295,89.9978L20.9295,90C21.7916,90.403 22.1288,89.1995 22.1364,87.6218C22.144,86.0441 21.9623,84.1016 22.0699,83.0092C20.6277,82.2061 19.9979,83.2671 19.8636,84.8809C19.7294,86.4948 19.9503,88.65 19.9295,89.9978Z" fill="#5347E7"/>
<path d="M190.949,89.0484L192,89L193.07,89C193.902,84.0842 190.624,76.9124 188.903,70.5647C187.182,64.217 186.986,58.7529 194.038,57.0595C194.05,52.5388 195.561,46.3625 197.067,42.0233C200.741,33.0113 205.522,24.0617 214.033,21.0623C218.468,17.1092 228.572,19.7301 231.014,22.0691C229.727,14.0735 221.164,11.9907 225.059,0.038497C214.412,0.038497 202.413,-0.0631448 192.969,-0.0631448C197.481,37.9912 177.515,60.5593 190.949,89.0484Z" fill="#B53886"/>
<path d="M192.933,88.9774L194,89L195.07,88C194.007,87.419 193.827,85.6586 194.004,84.0449C194.18,82.4311 194.669,81.0293 195.026,81.0653C198.358,73.9088 193.972,65.2839 194.07,57.0022C187.019,58.6956 187.046,64.2539 188.767,70.6016C190.488,76.9493 193.765,84.0616 192.933,88.9774Z" fill="#B13A91"/>
<path d="M194.961,88.0588C195.589,88.6432 196.133,86.9277 196.193,85.0772C196.253,83.2266 195.879,81.1125 195.011,80.9303C194.653,80.8943 194.04,82.4158 193.864,84.0295C193.687,85.6433 193.897,87.4778 194.961,88.0588Z" fill="#B75DA9"/>
<path d="M0,85C0.21808,85 4.25438,85.0705 6,85.0705L7,83C4.93174,83 0.563449,82.9295 0,82.9295L0,85Z" fill="#120FD4"/>
<path d="M117.931,84.984L119.071,85C119.071,80.8247 119.071,73.4984 119.071,68C116.967,70.4299 118.542,79.7506 117.931,84.984Z" fill="#B19CEA"/>
<path d="M148.071,84L149.071,84C150.918,83.4795 154.874,81.6426 157.049,80.0507C156.722,78.7367 155.749,74.2449 153.985,72.9311C155.847,78.5597 149.608,78.2267 147.957,78.9439C147.957,80.3803 148.071,84.111 148.071,84Z" fill="#B399D8"/>
<path d="M-0.0705,83C0.492949,83 4.95439,83.0668 7.02265,83.0668C9.16892,81.0835 8.07703,79.8277 6.11729,79.0116C4.15755,78.1955 1.28773,77.6845 -0.0195843,76.9323C-0.0195843,78.6779 -0.0705,82.7819 -0.0705,83Z" fill="#0D0BD3"/>
<path d="M89.9326,80.9792L91.0705,81C91.0705,79.3592 91.0705,74.0783 91.0705,71C90.0674,70.9992 89.7907,72.7598 89.8486,74.8894C89.9064,77.019 90.1611,79.4968 89.9326,80.9792Z" fill="#6C43DB"/>
<path d="M146.93,78.9983L148.071,79C149.722,78.2827 155.929,78.6064 154.067,72.9778C154.383,72.0979 153.55,68.4388 151.991,67.9301C150.575,68.8829 147.274,71.471 142.972,70.9355C143.134,73.1411 146.976,75.1854 146.93,78.9983Z" fill="#B49DE1"/>
<path d="M156.971,70.9355C158.447,71.1161 159.028,69.8253 158.901,68.2304C158.773,66.6354 157.992,64.7357 157.027,63.9349L155.93,67C155.033,69.3331 157.392,70.6264 156.971,70.9355Z" fill="#99348A"/>
<path d="M155.939,67.0354L156.929,64C156.373,64.0976 156.037,63.1417 155.565,62.0281C155.093,60.9145 154.592,59.5821 154.035,58.939L153.071,59C153.197,58.1548 152.461,57.5069 151.707,57.1765C150.953,56.8461 150.069,56.7768 149.958,56.9436L147.93,58C148.802,58.7681 149.694,63.3026 152.005,64.0703C153.134,63.5049 155.474,65.432 155.939,67.0354Z" fill="#963471"/>
<path d="M242.929,66C247.513,66.3963 248.737,62.2511 249.07,55.0033C247.757,51.4264 247.166,43.9406 243.985,40.9311C243.686,46.2175 239.983,43.8447 238.009,46.9301C238.136,46.085 237.461,45.5069 236.707,45.1765C235.953,44.8461 235.052,44.7946 234.941,44.9614C237.499,49.413 239.627,57.0764 240.934,64.0248L242.929,66Z" fill="#BB6C9E"/>
<path d="M90.9298,60.0061L93.0705,60C94.9794,54.8997 98.7821,49.0503 102.043,44.056L101,44L100.93,43C99.2442,43.383 98.0158,46.3562 97.0347,45.9386C107.446,37.0648 100.828,11.9691 105.058,0.0407818C101.291,0.0407818 95.3369,-0.0631188 92.9686,-0.0631188C95.1594,21.9957 90.1145,41.3136 90.9298,60.0061Z" fill="#6D2ED7"/>
<path d="M213.931,59.9838L215.071,60C216.75,53.2746 218.973,44.5838 223.056,39.0425C225.153,36.5355 225.425,31.6497 223.907,27.6171C222.389,23.5846 219.008,20.2942 213.984,20.9313C205.473,23.9307 200.614,32.9525 196.939,41.9645C204.184,44.8417 199.472,32.8426 206.974,34.0657C212.387,38.2483 214.95,51.3261 213.931,59.9838Z" fill="#BC71B3"/>
<path d="M152.988,58.9305L154.071,59C156.247,51.7482 155.298,48.8824 149.985,43.9311C149.985,47.698 149.929,53.6317 149.929,56L150.071,57C151.154,56.635 151.821,57.1668 152.321,57.7511C152.822,58.3353 153.072,58.9025 152.988,58.9305Z" fill="#9838A8"/>
<path d="M148.93,56L150.071,56C150.071,53.6317 150.071,47.7669 150.071,44L148.929,43C148.929,45.7317 148.93,51.8871 148.93,56Z" fill="#9640AD"/>
<path d="M48.9863,53.0692C53.8137,45.5314 48.9534,31.8419 50.07,21.0082C51.6796,19.0857 52.8784,13.0603 52.07,-0.00865666C49.6702,-0.00865666 44.8867,-0.0630882 43.9685,-0.0630882C42.7156,17.7425 44.5904,31.303 40.996,44.9296C41.5558,43.4176 40.6461,42.4761 39.6626,42.1314C38.6791,41.7868 37.5607,42.136 37.9348,43.0267C37.8616,43.318 39.4263,45.7948 39.9364,47.0304C41.7475,48.6751 47.8675,49.3822 48.9863,53.0692Z" fill="#4A2AF4"/>
<path d="M160.016,52.0686C167.953,35.9919 161.935,23.5291 165.068,0.018157C163.323,0.018157 159.187,-0.0630641 158.968,-0.0630641C158.495,14.1816 159.761,31.126 158.003,42.9295C158.082,27.0288 157.497,43.8926 155.061,38.9649C148.734,33.5456 145.618,31.0167 135.986,30.9309C140.062,32.8088 145.756,36.0702 148.982,40.0682C151.906,38.5845 153.446,40.896 154.884,43.9418C156.321,46.9877 157.69,50.7681 160.016,52.0686Z" fill="#9B34A6"/>
<path d="M238.019,46.9321C239.992,43.8466 243.771,46.2905 244.07,41.004C244.628,37.352 240.293,35.2288 240.07,30.9926L239.07,31C237.65,26.9226 233.3,23.8688 231.047,21.9471C228.605,19.6081 218.411,16.9805 213.976,20.9337C219,20.2966 222.257,23.6343 223.775,27.6668C225.293,31.6994 225.097,36.4226 223,38.9295C225.294,36.2361 227.509,37.0071 229.566,38.7539C231.623,40.5007 233.499,43.3605 234.978,45.0669C236.061,44.7018 236.821,45.1668 237.321,45.7511C237.822,46.3353 238.102,46.9041 238.019,46.9321Z" fill="#BA6FAB"/>
<path d="M96.9602,45.9418C97.9413,46.3594 99.3503,43.4438 101.036,43.0609C105.789,31.984 118.613,22.6905 113.063,-0.0309438C110.664,-0.0309438 105.888,-0.0637734 104.97,-0.0637734C100.74,11.8645 107.371,37.068 96.9602,45.9418Z" fill="#742FD1"/>
<path d="M41.003,44.9296C44.5974,31.3029 42.8168,17.8154 44.0698,0.00982536C42.3242,0.00982536 38.1893,-0.0643597 37.9712,-0.0643597C35.9704,3.93307 37.2837,15.673 37.2114,25.7617C37.1392,35.8504 35.7207,44.2825 28.0107,41.9303C30.0166,41.9289 36.0387,41.6228 38.0142,43.0691C37.6401,42.1784 38.6325,41.9198 39.616,42.2645C40.5995,42.6092 41.5628,43.4175 41.003,44.9296Z" fill="#4529F4"/>
<path d="M25.9335,43.9766L27,44L27.9295,42C35.6396,44.3522 37.2802,35.8514 37.3524,25.7627C37.4247,15.674 36.049,4.04731 38.0498,0.0498772C33.937,0.0498772 27.7002,-0.0630571 24.9685,-0.0630571C24.9951,14.1404 28.6996,28.255 25.9335,43.9766Z" fill="#3F29F0"/>
<path d="M101,44L102.071,44C105.075,39.6455 110.792,35.4352 116.022,32.0671L115.071,32C120.468,27.2588 127.122,12.9538 123.06,-0.0373844C119.982,-0.0373844 114.61,-0.0634151 112.969,-0.0634151C118.519,22.658 105.7,31.8772 100.947,42.9541L101,44Z" fill="#7A2FCA"/>
<path d="M157.948,42.9522C159.707,31.1487 158.597,14.2493 159.07,0.00467759L154.929,0C153.202,10.2806 158.475,28.5756 151.005,31.9297C147.222,29.4686 139.292,25.4943 134.968,29.9373L135.929,31C145.561,31.0858 148.622,33.6301 154.95,39.0494C157.386,43.977 158.028,27.0515 157.948,42.9522Z" fill="#9733AA"/>
<path d="M285.992,42.07C296.22,38.5441 294.634,26.7362 303.989,39.0696C306.164,37.4285 307.322,31.5098 310.029,29.0642L308.071,29C301.907,24.1755 304.662,9.18922 304.07,-0.00899629C296.502,-0.00899629 287.307,-0.0705 281,-0.0705L281,1L280.929,2C280.247,4.05499 273.655,2.33995 272.972,2.93538L273,2L272,2L272,1L271,1L271,0L266.929,0C267.9,16.3421 269.614,8.04424 278.952,15.0515C282.355,21.7831 278.986,37.7472 285.992,42.07Z" fill="#B73848"/>
<path d="M114.972,31.9355L115.929,32C117.407,32.914 119.381,30.5266 121.993,31.0701L122,30L120.071,30C125.563,21.1122 135.244,15.3779 133.068,-0.0191755C129.99,-0.0191755 124.61,-0.0636265 122.97,-0.0636265C127.032,12.9275 120.369,27.1942 114.972,31.9355Z" fill="#8430C0"/>
<path d="M150.994,32.0703C158.464,28.7161 153.34,10.3031 155.067,0.0224552C150.608,0.0224552 144.063,-0.0634341 140.969,-0.0634341C146.339,21.3309 133.502,24.2757 125.978,28.9331C126.971,28.9741 128.737,28.9748 130.111,29.0212C131.486,29.0677 132.448,29.1713 131.956,29.9446L135.071,30C139.395,25.5571 147.212,29.6092 150.994,32.0703Z" fill="#9232B0"/>
<path d="M122.071,31C123.619,30.5436 130.642,32.0464 132.058,30.0402C132.549,29.267 131.49,28.9268 130.116,28.8803C128.741,28.8339 126.995,28.9705 126.001,28.9295L124,29L122,30L122.071,31Z" fill="#8647BF"/>
<path d="M238.942,31.0403L240.07,31C246.179,27.0552 239.718,12.5746 242.066,0.0247081C236.568,0.0247081 229.145,-0.0636714 224.97,-0.0636714C221.074,11.8885 229.644,14.0178 230.931,22.0134C233.184,23.9351 237.521,26.9629 238.942,31.0403Z" fill="#B83870"/>
<path d="M119.956,29.9452L122,30L124.071,29C133.399,22.8072 139.086,13.765 137.068,-0.0198102L132.929,0C135.105,15.3971 125.448,21.0574 119.956,29.9452Z" fill="#8731BD"/>
<path d="M123.978,28.9331L126.07,29C133.595,24.3426 146.433,21.3627 141.063,-0.0316273L136.929,0C138.948,13.7848 133.306,22.7403 123.978,28.9331Z" fill="#8B32B7"/>
<path d="M307.974,29.0657L310.071,29C312.263,25.9466 316.487,22.0185 320.051,19.0482C320.051,12.8582 320.071,4.89014 320.071,0C314.918,0 307.785,-0.0630831 303.969,-0.0630831C304.56,9.13513 301.811,24.2411 307.974,29.0657Z" fill="#BD393B"/>
<path d="M-0.0705,6C0.746368,4.44855 5.6628,3.37772 6.06853,0.016545C4.32291,0.016545 0.186552,-0.0630571 -0.0315286,-0.0630571C-0.0315286,1.68256 -0.0705,5.78192 -0.0705,6Z" fill="#0705D0"/>
<path d="M273.071,3C273.753,2.40457 280.377,4.09398 281.059,2.03899C278.659,2.03899 273.918,1.9295 273,1.9295L273.071,3Z" fill="#AE2D38"/>
<path d="M272,2L273,2C273.918,2 278.6,2.0705 281,2.0705L281,1C278.263,1 273.278,0.9295 272,0.9295L272,2Z" fill="#AC2C34"/>
<path d="M271,1L272,1C273.278,1 278.263,1.0705 281,1.0705L281,0C277.922,0 272.641,-0.0705 271,-0.0705L271,1Z" fill="#A4231F"/>
</g>
</svg>
