<?xml version='1.0' encoding='utf-8'?>
<!-- Generator: imaengine 6.0   -->
<svg xmlns:xlink="http://www.w3.org/1999/xlink" xmlns="http://www.w3.org/2000/svg" viewBox="0,0,320,103" style="enable-background:new 0 0 320 103;" version="1.1">
<defs/>
<g id="layer0">
<path d="M-0.0705,103L4.0705,103C3.0681,99.6325 2.52218,93.4245 2.00027,90.1679C1.47835,86.9114 0.839844,86.5987 -0.0700917,94.9924C-0.0700917,97.3922 -0.0705,102.082 -0.0705,103Z" fill="#0200CA"/>
<path d="M3.93942,103.036C10.1294,103.036 18.1403,103.064 23.0304,103.064C25.1356,96.2285 23.5259,84.1693 24.0703,77.0053C24.0703,70.8154 24.0705,62.8901 24.0705,58C26.5222,46.9504 21.3653,42.0613 21.0704,34.997C20.6816,32.0324 20.8828,26.6535 21.2059,23.6999C21.5289,20.7463 21.87,20.2832 21.9668,27.0622C23.1498,20.387 23.5507,23.2653 23.8489,26.5262C24.1472,29.7871 24.4459,33.3771 25.0699,28.0088C20.7573,21.3336 20.8305,9.01726 20.0695,-0.0117178C13.5343,-0.0117178 5.24584,-0.0705 0,-0.0705L-0.0705,1C4.12544,15.6791 4.06083,38.8029 -0.0669525,50.9779C-0.0669525,55.4371 -0.0705,61.9058 -0.0705,65C-0.0708085,49.3598 1.33578,54.4298 2.03904,63.4971C2.74231,72.5644 2.77782,85.5678 -0.0349243,85.9388C-0.0349243,88.6759 -0.0705,93.7219 -0.0705,95C0.839436,86.6063 1.33913,86.9337 1.86104,90.1903C2.38296,93.4468 2.93703,99.6686 3.93942,103.036Z" fill="#0100C3"/>
<path d="M22.94,102.963C27.7457,102.963 34.5758,103.063 38.0315,103.063C38.0302,91.2626 39.1708,88.5515 40.0698,82.0096C39.3453,74.1035 41.716,70.4306 40.0641,66.9707C39.2232,62.7345 41.5941,59.9784 37.9991,58.9295C42.2352,60.2819 41.475,54.1818 40.5005,46.5129C39.5259,38.8439 38.395,29.718 42.057,25.0414C44.7355,19.1867 42.6234,12.3595 41.0177,7.316C39.412,2.27249 38.248,-0.958662 42.9924,0.0700893C35.424,0.0700893 26.2752,-0.0631016 19.9686,-0.0631016C20.7295,8.96587 20.6267,21.3607 24.9393,28.0359C24.3152,33.4042 24.2876,29.7742 23.9894,26.5134C23.6911,23.2525 23.186,20.2544 22.0031,26.9296C21.9063,20.1505 21.3887,20.731 21.0657,23.6845C20.7427,26.6381 20.5413,32.0445 20.9301,35.0091C21.2249,42.0734 26.3828,46.9353 23.9311,57.9849C23.9311,62.875 23.9295,70.81 23.9295,77C23.3851,84.164 25.0452,96.1279 22.94,102.963Z" fill="#0100B4"/>
<path d="M37.9295,103C45.1539,103 54.0773,103.063 60.0313,103.063C62.3358,84.954 57.9491,70.5918 62.0459,65.0535C58.2637,64.2126 58.7688,57.8961 60.0413,56.0571L59.0705,56C59.478,34.6278 64.5314,11.2127 57.0424,-0.0563359C52.5832,-0.0563359 46.1017,-0.0701076 43.0074,-0.0701076C38.263,-1.09886 39.2776,2.31527 40.8834,7.35877C42.4891,12.4023 44.6152,19.1142 41.9367,24.969C38.2747,29.6456 39.3861,38.8617 40.3606,46.5307C41.3352,54.1996 42.237,60.2819 38.0009,58.9295C41.5958,59.9784 39.09,62.7781 39.931,67.0143C41.5828,70.4742 39.2052,74.1004 39.9298,82.0065C39.0307,88.5484 37.9282,91.1995 37.9295,103Z" fill="#0200A6"/>
<path d="M59.9317,102.983C61.6773,102.983 65.8133,103.063 66.0314,103.063C66.43,98.7876 67.8939,86.2689 67.0691,78.9861C66.0146,78.8566 65.7763,81.7302 65.8655,84.9414C65.9547,88.1526 66.3045,91.6449 66.0021,92.9295C62.9402,74.1888 69.4458,75.3684 64.0463,65.9469L64,65L61.9295,65C57.8327,70.5384 62.2362,84.8735 59.9317,102.983Z" fill="#07009D"/>
<path d="M65.9307,102.987C70.0435,102.987 76.2967,103.065 79.0284,103.065C74.525,94.6582 78.9043,71.7113 76.0501,65.9504C72.2832,65.9504 66.3403,65.9353 63.9719,65.9353C69.3714,75.3568 62.9351,74.3297 65.997,93.0704C66.2994,91.7858 66.0956,88.1487 66.0064,84.9375C65.9172,81.7263 65.911,78.932 66.9655,79.0615C67.7903,86.3443 66.3293,98.7116 65.9307,102.987Z" fill="#0C0196"/>
<path d="M78.9519,103.052C82.7188,103.052 88.6632,103.063 91.0315,103.063C90.4261,94.1843 91.9745,73.0746 90.0664,63.9762C84.2959,63.0115 79.8377,65.3081 76.0035,64.9296L75.9295,66C78.7837,71.7609 74.4485,94.6452 78.9519,103.052Z" fill="#15018D"/>
<path d="M90.9301,103.01C93.6673,103.01 98.7534,103.063 100.032,103.063C99.9784,94.6359 100.426,84.6103 100.144,76.7371C99.862,68.8639 98.827,63.0101 96.0089,62.9301C93.3207,62.3101 90.082,63.5618 89.9335,63.9766C91.8416,73.0751 90.3248,94.1307 90.9301,103.01Z" fill="#1E0284"/>
<path d="M99.9295,103.001C104.042,103.001 110.296,103.065 113.028,103.065C107.607,93.7675 114.277,71.2737 109.044,62.9448C104.931,62.9448 98.7307,62.9295 95.999,62.9295C98.8171,63.0095 99.7211,68.869 100.003,76.7422C100.286,84.6154 99.8764,94.5737 99.9295,103.001Z" fill="#25027D"/>
<path d="M112.954,103.054L116.071,103C116.258,88.0944 117.058,71.4964 112.046,62.9464L108.93,63C114.163,71.3289 107.533,93.7563 112.954,103.054Z" fill="#2B0378"/>
<path d="M115.93,102.998C117.675,102.998 121.813,103.063 122.032,103.063C121.958,96.2301 123.455,86.6145 123.202,78.5476C122.949,70.4807 120.92,63.829 114.005,62.9296L111.929,63C116.942,71.5501 116.117,88.0926 115.93,102.998Z" fill="#300473"/>
<path d="M121.93,103.002L126.071,103C127.396,91.2994 127.182,76.9637 127.07,64.999C123.605,63.6591 117.832,62.5458 113.992,62.93C120.907,63.8293 122.808,70.4851 123.061,78.552C123.314,86.6189 121.856,96.1685 121.93,103.002Z" fill="#33046F"/>
<path d="M125.931,102.984C128,102.984 132.468,103.063 133.031,103.063C134.039,95.0059 132.083,75.5898 131.069,64.9868L126.929,65C127.041,76.9646 127.256,91.2838 125.931,102.984Z" fill="#37056B"/>
<path d="M132.932,102.983C134.677,102.983 138.813,103.063 139.031,103.063C137.907,90.2335 141.823,67.7798 135.014,64.931L130.93,65C131.944,75.603 133.939,94.9256 132.932,102.983Z" fill="#3B0667"/>
<path d="M138.931,103.012L142.071,103C142.071,90.3134 142.071,76.5103 142.071,65C140.002,65 135.55,64.9308 134.987,64.9308C141.795,67.7796 137.806,90.1825 138.931,103.012Z" fill="#3F0664"/>
<path d="M141.929,103L145.071,103C147.766,91.1584 145.124,76.0647 145.07,64.9993L141.929,65C141.929,76.5103 141.929,90.3134 141.929,103Z" fill="#420761"/>
<path d="M144.936,102.971C146.681,102.971 150.813,103.063 151.032,103.063C150.882,91.8232 153.461,73.937 147.04,64.9423L144.929,65C144.983,76.0654 147.631,91.1292 144.936,102.971Z" fill="#45085E"/>
<path d="M150.93,103.002C152.366,103.002 156.143,102.937 156.031,102.937C156.834,89.533 156.132,67.6205 154.049,63.9493C151.424,63.7236 148.784,65.811 146.986,64.931C153.406,73.9258 150.78,91.762 150.93,103.002Z" fill="#48095B"/>
<path d="M155.93,102.992L160.071,103C160.071,90.9921 160.071,77.8234 160.071,67C159.799,60.9916 157.365,73.3757 158.07,63.0078C156.213,62.5872 154.779,64.8263 153.994,63.9298C156.077,67.601 156.733,89.5877 155.93,102.992Z" fill="#4D0A56"/>
<path d="M159.929,103C161.366,103 165.142,102.937 165.031,102.937C163.656,89.5943 168.216,69.3108 161.029,62.9356L157.929,63C157.224,73.3679 159.658,60.9948 159.93,67.0032C159.93,77.8266 159.929,90.9921 159.929,103Z" fill="#500B53"/>
<path d="M164.931,103.014L169.071,103C169.309,96.5384 170.558,86.8624 170.248,78.5161C169.938,70.1698 168.005,63.083 162.007,61.9298L160.929,63C168.117,69.3753 163.555,89.6716 164.931,103.014Z" fill="#540C4F"/>
<path d="M168.93,102.995C171.329,102.995 176.113,103.063 177.032,103.063C176.795,87.2379 179.664,63.0256 169.989,60.9304C168.285,61.9631 163.554,62.2061 162,61.9295C167.998,63.0827 169.797,70.175 170.107,78.5213C170.417,86.8676 169.168,96.5332 168.93,102.995Z" fill="#570D4B"/>
<path d="M176.93,103.002C179.329,103.002 184.113,103.063 185.032,103.063C184.534,86.1345 185.084,74.0594 182.066,59.976C177.027,59.0491 172.996,61.1981 169.996,60.9296C179.67,63.0249 176.693,87.177 176.93,103.002Z" fill="#5C0D47"/>
<path d="M184.93,103.004L187.071,103C187.584,86.553 189.412,73.74 185.06,59.9623L181.93,60C184.947,74.0833 184.432,86.0756 184.93,103.004Z" fill="#600F43"/>
<path d="M186.93,102.996L190.071,103C193.477,88.3484 190.02,68.7328 188.064,59.9713L188,59L186,59L184.929,60C189.282,73.7776 187.444,86.5486 186.93,102.996Z" fill="#63103F"/>
<path d="M189.936,102.97C192.004,102.97 196.468,103.063 197.032,103.063C197.561,85.115 198.864,65.3316 187.98,59.9324C189.936,68.6939 193.343,88.3187 189.936,102.97Z" fill="#66113B"/>
<path d="M196.93,102.996C198.366,102.996 202.143,102.937 202.032,102.937C201.809,84.7303 204.81,62.4296 191.009,58.9301L188,59L187.93,60C198.814,65.3992 197.459,85.0478 196.93,102.996Z" fill="#6A1238"/>
<path d="M201.93,103.002L205.07,103C204.393,94.2951 205.561,83.5317 204.939,74.7037C204.318,65.8757 201.841,58.9127 194.004,57.9296L190.929,59C204.731,62.4995 201.707,84.7951 201.93,103.002Z" fill="#6C1335"/>
<path d="M204.93,103.011L209.07,103C206.976,91.4324 209.817,67.8307 204.046,57.9465C200.968,57.9465 195.636,57.9296 193.996,57.9296C201.832,58.9127 204.177,65.8856 204.799,74.7136C205.42,83.5416 204.252,94.3059 204.93,103.011Z" fill="#6F1333"/>
<path d="M208.934,103.024C210.679,103.024 214.812,103.064 215.03,103.064C222.869,82 206.814,71.2723 208.069,58.0131L203.93,58C209.7,67.8843 206.839,91.4564 208.934,103.024Z" fill="#73142F"/>
<path d="M214.943,102.958C217.343,102.958 222.113,103.063 223.031,103.063C220.362,89.0117 225.829,68.7191 219.045,56.9458C215.412,57.0793 211.12,58.7113 207.974,57.9343C206.719,71.1935 222.783,81.8941 214.943,102.958Z" fill="#77152C"/>
<path d="M222.934,103.025C224.68,103.025 228.813,103.063 229.031,103.063C227.273,81.3861 231.484,73.3023 224.052,56.9526C222.616,56.9526 218.861,57.0647 218.972,57.0647C225.756,68.838 220.265,88.9734 222.934,103.025Z" fill="#7C1628"/>
<path d="M228.93,103.011L232.07,103C233.771,96.1269 232.426,84.4696 231.954,74.611C231.481,64.7523 231.809,56.7627 236.998,57.0705L237.071,56C231.629,55.0175 227.632,57.4972 223.975,56.9342C231.407,73.2839 227.172,81.3343 228.93,103.011Z" fill="#801725"/>
<path d="M231.937,102.969C233.682,102.969 237.813,103.063 238.032,103.063C237.397,88.5028 238.816,63.1671 237.062,56.9668C231.873,56.6591 231.341,64.7591 231.813,74.6177C232.285,84.4764 233.637,96.0956 231.937,102.969Z" fill="#841821"/>
<path d="M237.93,103.006C239.998,103.006 244.468,103.063 245.031,103.063C245.884,89.2463 247.901,65.7895 243.05,55.9505C241.305,55.9505 237.218,55.9295 237,55.9295L236.93,57C238.683,63.2003 237.296,88.4459 237.93,103.006Z" fill="#89191E"/>
<path d="M244.93,102.991C249.389,102.991 255.937,103.063 259.031,103.063C259.84,92.7987 255.588,86.4671 261.026,82.0654L261.071,81C254.019,76.3053 258.712,66.6339 263.047,64.0529C263.174,60.4491 263.138,55.0679 261.045,52.946C254.048,49.2579 248.846,56.6845 242.974,55.9343C247.825,65.7733 245.783,89.1746 244.93,102.991Z" fill="#901B19"/>
<path d="M258.93,102.989C261.667,102.989 266.753,103.063 268.031,103.063C268.877,96.5118 268.159,89.1088 266.058,82.9602L263,84L260.929,82C255.491,86.4018 259.739,92.7246 258.93,102.989Z" fill="#981D15"/>
<path d="M267.932,102.982C273.43,102.982 280.856,103.063 285.032,103.063C285.005,85.5704 285.015,62.3471 285.07,49.0006L281.071,49C272.384,48.2258 266.414,51.7222 260.97,52.9364C263.062,55.0582 263.058,60.3835 262.931,63.9874C266.553,61.1982 272.247,64.1917 272.94,66.0373C274.796,66.4043 275.253,68.9628 275.023,71.4222C274.792,73.8816 273.911,76.1383 272.976,75.9336C271.826,78.5502 269.642,82.1998 267.004,81.9296L265.93,83C268.03,89.1486 268.777,96.4311 267.932,102.982Z" fill="#A22016"/>
<path d="M284.93,103C290.774,103 298.498,103.063 303.032,103.063C302.508,84.1473 303.913,62.457 302.069,45.9846L300.93,46C298.106,49.3665 289.993,49.0703 284.969,48.9366C284.913,62.2831 284.903,85.5076 284.93,103Z" fill="#AF2319"/>
<path d="M302.93,103.004C308.428,103.004 315.856,103.063 320.032,103.063C320.032,83.9607 320.071,63.9778 320.071,46C317.333,46 312.278,45.9295 311,45.9295L309,44L308,44L307,42L304,42L303,43L301.929,46C303.773,62.4724 302.407,84.0882 302.93,103.004Z" fill="#BC261A"/>
<path d="M21.9703,94.9361C23.935,93.1339 22.4641,85.8667 23.0297,84.0639C21.065,85.8661 22.5359,93.1333 21.9703,94.9361Z" fill="#0100BD"/>
<path d="M-0.0705,86C2.74225,85.629 2.88288,72.5535 2.17962,63.4862C1.47635,54.4189 -0.0708085,49.3598 -0.0705,65C-0.0705,71.88 -0.0705,80.3995 -0.0705,86Z" fill="#0200CA"/>
<path d="M263,84L266,83L267,82L265.07,82C265.408,80.9445 264.164,80.765 262.995,80.8492C261.827,80.9334 260.69,81.3465 261.027,81.0651L261,82L263,84Z" fill="#A82B3A"/>
<path d="M264.971,81.9357L266.929,82C269.568,82.2702 271.915,78.6439 273.065,76.0273C273.065,72.9491 273.07,67.6408 273.07,66C272.377,64.1545 266.581,61.1533 262.959,63.9425C258.624,66.5234 253.933,76.3741 260.984,81.0687C261.857,80.914 263.126,80.9265 264.041,81.0961C264.955,81.2657 265.503,81.4594 264.971,81.9357Z" fill="#B63656"/>
<path d="M272.93,76C273.864,76.2047 274.933,73.8948 275.163,71.4353C275.393,68.9759 274.829,66.3018 272.973,65.9348C272.973,67.5755 272.93,72.9217 272.93,76Z" fill="#AD2B36"/>
<path d="M64,66C66.3683,66 72.2331,66.0705 76,66.0705L76,65C72.2331,65 66.3683,64.9295 64,64.9295L64,66Z" fill="#BFBEF7"/>
<path d="M61.9922,65.0701L64,65C66.3683,65 72.2296,65.0704 75.9965,65.0704C79.8308,65.4489 84.2554,63.1009 90.0258,64.0656C90.1744,63.6507 93.3037,62.4501 95.9919,63.07C98.7236,63.07 104.887,63.0705 109,63.0705L112,63L114.071,63C117.91,62.6158 123.521,63.7292 126.987,65.0692L131,65L135,65C135.563,65 139.932,65.0705 142,65.0705L145,65L146.93,65C148.728,65.8801 151.364,63.8439 153.989,64.0697C155.846,64.4903 157.18,62.1647 157.965,63.0612L161,63L161.93,62C163.484,62.2766 168.313,62.1012 170.017,61.0684C173.017,61.3369 176.954,59.1433 181.994,60.0702L185,60L186,59C184.564,59 180.903,59.0691 181.014,59.0691C184.92,57.3376 185.91,52.5341 184.528,48.7369C183.145,44.9396 179.357,42.0115 173.981,43.9321C167.932,45.1079 161.046,47.0442 155.98,47.9323C153.608,48.9825 149.115,50.0382 147.002,49.9295L144,51L140.93,51C138.376,52.9054 130.547,51.39 127.993,51.9299L128,51L127,51C123.922,51 118.641,50.9295 117,50.9295C114.932,50.9295 110.563,50.9295 110,50.9295C104.156,50.9295 96.5234,50.9302 91.9901,50.9302C88.2844,52.0302 81.7444,52.2466 78.9758,52.9338C75.8314,54.5951 68.0672,53.5664 65.9781,54.933L65,54L62.9295,54C63.0565,54.8452 62.4043,55.364 61.6504,55.6944C60.8965,56.0248 60.1119,56.0963 60.0006,55.9295C58.7281,57.7685 58.2099,64.2292 61.9922,65.0701Z" fill="#BDB5F1"/>
<path d="M180.985,58.9312C182.421,58.9312 186.111,58.9295 186,58.9295L188.071,59C187.123,52.6255 198.515,59.9643 197.07,49.9896C191.766,36.8365 188.898,50.515 180.028,42.9352L177.929,43C177.687,43.4761 176.795,43.7342 175.88,43.9039C174.965,44.0736 174.151,44.1072 174.052,43.9524C179.428,42.0318 183.013,44.9878 184.395,48.7851C185.778,52.5824 184.891,57.1997 180.985,58.9312Z" fill="#BEADE4"/>
<path d="M187.932,59.0201L191,59L194,58C195.641,58 200.922,58.0705 204,58.0705L207.93,58C211.075,58.777 215.368,57.204 219.001,57.0705C220.438,57.0705 224.106,56.9297 223.995,56.9297C227.652,57.4927 231.552,55.0877 236.994,56.0702C237.212,56.0702 241.25,56.0704 242.996,56.0704C248.867,56.8206 253.993,49.3817 260.99,53.0698C266.434,51.8557 272.32,48.296 281.006,49.0702C285.1,47.9442 284.527,42.9321 283.685,38.374C282.844,33.816 281.723,29.7123 284.996,30.0704C281.574,30.0704 276.033,29.9356 274.029,29.9356C272.976,27.9099 266.07,29.5192 265.017,28.9316C258.112,29.2506 254.634,34.6056 248.004,33.9296C245.935,33.9296 241.541,33.9331 240.978,33.9331C238.8,35.8677 231.17,34.3771 228.991,34.9301C226.923,34.9301 222.534,34.9357 221.971,34.9357C221.085,36.7871 214.931,35.6188 213.97,35.9361C212.357,37.0601 208.278,37.9671 206.969,37.9365C207.154,38.994 205.847,39.0905 204.505,39.0027C203.163,38.9149 201.772,38.7617 201.956,39.0552L199.93,39C198.276,39.4146 195.201,40.5518 194.018,39.9318L191.93,40C192.267,41.0555 191.174,41.0944 190.005,41.0102C188.837,40.926 187.62,40.7746 187.957,41.0561C186.057,42.2343 181.883,43.1913 179.982,42.9318C188.852,50.5116 191.631,36.8725 196.934,50.0256C198.38,60.0003 186.985,52.6456 187.932,59.0201Z" fill="#C2A9DE"/>
<path d="M58.9296,55.9973L59.9295,56C61.0127,56.365 61.9285,55.9249 62.4286,55.3406C62.9287,54.7563 63.1213,53.9685 63.0378,53.9405C73.324,34.1436 57.8998,16.9181 70.0402,0.0579083C65.9274,0.0579083 59.7046,-0.0650824 56.9729,-0.0650824C64.4619,11.2039 59.3371,34.6251 58.9296,55.9973Z" fill="#07009D"/>
<path d="M66.0705,55C68.1596,53.6334 75.8778,54.7283 79.0222,53.0669C101.757,50.3053 82.8446,11.7793 94.0327,0.0624557C89.9198,0.0624557 83.7035,-0.0646067 80.9718,-0.0646067C71.634,16.6912 85.4607,51.0197 64.995,53.9297L66.0705,55Z" fill="#15018D"/>
<path d="M62.9511,53.9492L65.0705,54C85.5362,51.09 71.7093,16.8083 81.0471,0.0524752C77.6253,0.0524752 71.978,-0.0653272 69.9735,-0.0653272C57.8331,16.7948 73.2373,34.1523 62.9511,53.9492Z" fill="#0C0196"/>
<path d="M79.0043,52.9296C81.7728,52.2424 88.3047,52.1698 92.0104,51.0697L90.0705,51C94.4543,41.8994 101.023,49.7815 100.07,34.9954C97.1022,23.0823 100.613,2.83278 101.067,0.0216853C98.9988,0.0216853 94.5395,-0.0662983 93.976,-0.0662983C82.7879,11.6506 101.739,50.1681 79.0043,52.9296Z" fill="#1D0284"/>
<path d="M128.07,52C130.625,51.4601 138.471,52.9714 141.025,51.0661L140.071,51C145.617,48.7679 137.871,5.56556 145.025,0.0658068C143.28,0.0658068 139.187,-0.0633977 138.969,-0.0633977C137.256,7.13557 139.107,20.5525 139.106,31.8046C139.104,43.0566 137.286,52.1368 128.005,50.9296L128.07,52Z" fill="#3E0664"/>
<path d="M-0.0705,51C4.05728,38.825 4.19101,15.6088 -0.00492704,0.929672C-0.00492704,17.6739 -0.0705,35.3955 -0.0705,51Z" fill="#0100CA"/>
<path d="M89.9492,50.9511L92,51C96.5333,51 104.156,51.0705 110,51.0705L110,50L109.071,50C111.615,35.7943 111.342,9.32985 112.07,0.0108832C108.648,0.0108832 102.973,-0.0632183 100.969,-0.0632183C100.514,2.74788 96.9634,23.1037 99.9315,35.0168C100.884,49.8029 94.333,41.8505 89.9492,50.9511Z" fill="#25027D"/>
<path d="M110,51C110.563,51 114.925,51.0701 116.993,51.0701C123.932,52.5104 125.493,46.6002 123.998,40.9295C124.918,46.0122 125.574,46.0915 125.886,43.9452C126.198,41.7989 126.238,37.494 126.07,33.9966C125.945,27.6319 127.632,21.5734 127.07,9.99657C126.846,8.00525 131.706,6.06318 130.062,-0.0334583C127.325,-0.0334583 122.247,-0.0632292 120.969,-0.0632292C122.69,10.2354 123.713,22.5273 122.689,32.1958C121.665,41.8642 118.624,48.9018 112,48.9295L110,50L110,51Z" fill="#33046E"/>
<path d="M117.007,50.9299C118.648,50.9299 123.928,51.0702 127.006,51.0702C131.929,50.217 132.773,39.7249 132.932,28.3519C133.091,16.9788 132.608,4.70552 135.049,0.051024C133.612,0.051024 129.858,0.0634887 129.969,0.0634887C131.613,6.16013 126.706,8.01654 126.93,10.0079C127.492,21.5847 125.804,27.6367 125.93,34.0014C126.097,37.4988 126.058,41.7786 125.747,43.925C125.435,46.0713 124.924,46.0123 124.003,40.9296C125.499,46.6003 123.946,52.3701 117.007,50.9299Z" fill="#37056B"/>
<path d="M126.994,50.9298L127.93,51C137.211,52.2071 139.245,43.0566 139.247,31.8046C139.248,20.5525 137.351,7.22926 139.064,0.0302915L134.929,0C132.489,4.6545 132.95,16.9769 132.791,28.3499C132.632,39.723 131.917,50.0765 126.994,50.9298Z" fill="#3B0667"/>
<path d="M139.986,50.9309L141,51L144.071,51C150.114,43.5978 140.615,8.58356 150.029,0.0642311C148.593,0.0642311 144.868,0.0674385 144.979,0.0674385C137.825,5.56719 145.532,48.6988 139.986,50.9309Z" fill="#420761"/>
<path d="M143.963,50.9399L147.07,50C156.172,46.8218 146.046,6.21975 155.019,1.06776L155,0C153.564,0 149.867,0.0668388 149.978,0.0668388C140.563,8.58617 150.007,43.5377 143.963,50.9399Z" fill="#45085E"/>
<path d="M108.934,49.9762L110,50L112.071,49C120.612,34.5474 112.085,11.4066 118.049,0.051059C116.303,0.051059 112.187,-0.0630954 111.969,-0.0630954C111.241,9.25587 111.478,35.7705 108.934,49.9762Z" fill="#2B0377"/>
<path d="M146.986,49.9309C149.099,50.0396 153.671,49.1061 156.043,48.056C155.699,43.5996 158.947,40.6822 160.048,39.0514C158.191,38.6308 156.842,40.854 156.056,39.9575C154.975,30.4222 157.662,10.8551 155.048,0.948092C146.075,6.10008 156.088,46.7527 146.986,49.9309Z" fill="#48095B"/>
<path d="M111.955,48.9461C118.579,48.9184 121.805,41.879 122.829,32.2106C123.854,22.5422 122.788,10.2763 121.067,-0.0223506L117.929,0C111.966,11.3555 120.496,34.4935 111.955,48.9461Z" fill="#300473"/>
<path d="M280.99,48.9302L284.929,49C289.953,49.1337 298.23,49.413 301.053,46.0465C298.973,44.0132 300.606,36.1781 300.069,33.9835C300.041,33.2931 299.336,32.6607 298.751,32.1607C298.167,31.6607 297.68,31.3641 298.045,31.0546C295.491,29.1493 287.566,30.4703 285.011,29.9304C281.738,29.5723 282.705,33.8416 283.547,38.3997C284.389,42.9577 285.085,47.8041 280.99,48.9302Z" fill="#C2A2D1"/>
<path d="M155.931,48.0129C160.997,47.1248 167.945,45.2461 173.994,44.0702C176.327,44.967 177.7,42.6497 178.009,43.0699C178.781,40.5525 175.267,40.0488 176.038,39.0593L175.071,39C174.869,38.3283 174.198,37.4807 173.548,36.8755C172.899,36.2704 172.185,35.8391 171.984,35.9313C170.548,35.9313 166.889,36.0705 167,36.0705L164.929,36C164.72,36.6632 163.676,36.944 162.68,37.2026C161.684,37.4613 160.764,37.7534 160.957,38.0555L159.93,39C158.829,40.6308 155.587,43.5566 155.931,48.0129Z" fill="#9E359F"/>
<path d="M300.969,46.0633L302,46L303.071,43C303.071,40.9317 303.071,36.5634 303.071,36C302.713,34.703 302.203,33.8062 301.678,33.4616C301.153,33.1169 300.485,33.2834 299.943,33.959C300.48,36.1536 298.889,44.0301 300.969,46.0633Z" fill="#C299C3"/>
<path d="M311,46C312.278,46 317.294,46.0631 320.032,46.0631C320.032,42.9848 320.071,37.6408 320.071,36C316.649,36 311.004,35.9295 309,35.9295L308.929,37C308.929,39.0683 308.93,43.4366 308.93,44L311,46Z" fill="#C795B8"/>
<path d="M308,44L309.07,44C309.07,43.4366 309.071,39.0683 309.071,37C307.812,36.7753 307.166,37.8682 306.978,39.1012C306.79,40.3341 306.919,41.7125 306.93,42.0054L308,44Z" fill="#C48BAD"/>
<path d="M177.94,42.9631L179.929,43C181.83,43.2595 186.121,42.2455 188.021,41.0673L186.071,41C189.001,30.1443 187.29,13.2546 188.07,0.00824176L185.929,0C174.482,3.27045 184.913,29.3337 175.959,33.9426C177.566,36.1407 173.826,36.4673 175.945,39.0445C175.174,40.0339 178.712,40.4457 177.94,42.9631Z" fill="#5F0E44"/>
<path d="M302.929,43L304.071,42C304.071,40.5636 303.929,36.889 303.929,37L302.929,36C302.929,36.5634 302.929,40.9317 302.929,43Z" fill="#BD6274"/>
<path d="M304.071,42L307.07,42C307.059,41.7071 306.929,40.3554 307.117,39.1224C307.305,37.8895 307.735,36.8455 308.994,37.0702L309.071,36C305.883,34.8803 306.331,39.6804 305.019,38.9322L303.929,37C303.929,38.4364 304.071,42.111 304.071,42Z" fill="#BB4E56"/>
<path d="M185.938,40.9665L187.93,41C188.802,41.1547 190.152,41.2122 191.066,41.0426C191.981,40.8729 192.561,40.4119 192.029,39.9357L190.07,40C191.815,35.5978 190.862,25.6841 190.825,16.828C190.787,7.97191 191.596,0.243808 197.001,0.0704909C194.264,0.0704909 189.247,-0.0630789 187.969,-0.0630789C187.189,13.1833 188.869,30.1108 185.938,40.9665Z" fill="#63103D"/>
<path d="M155.931,40.0129C157.788,40.4335 159.18,38.1647 159.965,39.0612L161,38L159.071,38C161.235,24.7704 157.087,3.42396 165.015,0.0689728C161.936,0.0689728 156.641,-0.0705 155,-0.0705L154.93,1C157.544,10.907 154.849,30.4776 155.931,40.0129Z" fill="#4D0A55"/>
<path d="M189.945,39.9562L192,40L194.071,40C200.967,31.5023 192.976,7.25104 200.032,0.0628197L196.929,0C191.524,0.173317 190.646,7.9725 190.684,16.8286C190.721,25.6847 191.689,35.554 189.945,39.9562Z" fill="#66113A"/>
<path d="M193.951,39.9498C195.134,40.5698 198.379,39.4771 200.033,39.0625C203.819,34.503 200.116,9.39606 204.054,0.0454157L199.93,0C192.874,7.18822 200.847,31.4521 193.951,39.9498Z" fill="#6A1237"/>
<path d="M174.94,39.0362L176.071,39C173.951,36.4228 177.647,36.14 176.04,33.9418L175,34L173,33L172.071,36C172.272,35.9078 172.803,36.3735 173.452,36.9787C174.101,37.5838 174.738,38.3646 174.94,39.0362Z" fill="#550F47"/>
<path d="M199.964,38.9396L202.07,39C209.056,29.1873 199.919,2.8261 210.01,0.0698515C208.264,0.0698515 204.189,-0.064029 203.97,-0.064029C200.033,9.28661 203.75,34.3801 199.964,38.9396Z" fill="#6D1234"/>
<path d="M202.002,38.9295C201.817,38.636 203.153,39.0556 204.496,39.1434C205.838,39.2312 207.254,39.0452 207.069,37.9876C211.262,25.4295 202.778,5.26227 214.016,0.0686899L209.93,0C199.839,2.75625 208.987,29.1168 202.002,38.9295Z" fill="#6F1332"/>
<path d="M304.929,39C306.241,39.7482 305.8,34.9498 308.988,36.0694C310.992,36.0694 316.61,36.0631 320.032,36.0631C320.032,24.3949 320.071,11.4794 320.071,1C306.013,-4.34864 303.407,2.11177 302.939,10.4311C302.471,18.7504 304.03,28.8709 297.96,30.9422C297.987,31.6326 298.664,32.3393 299.249,32.8393C299.833,33.3393 300.371,33.6203 300.006,33.9298C300.549,33.2541 301.075,33.2348 301.6,33.5794C302.126,33.9241 302.581,34.737 302.938,36.034L304,37L304.929,39Z" fill="#BC271B"/>
<path d="M158.933,37.9781L161.07,38C160.877,37.6979 161.72,37.5978 162.716,37.3391C163.712,37.0804 164.85,36.7009 165.06,36.0377L164.07,36C165.833,32.2399 164.903,23.0226 164.872,14.8541C164.842,6.68554 165.638,-0.363724 170.997,0.0704422C169.252,0.0704422 165.205,-0.0691984 164.987,-0.0691984C157.059,3.28579 161.097,24.7485 158.933,37.9781Z" fill="#510B52"/>
<path d="M206.941,37.9615C208.25,37.9921 212.41,37.1906 214.023,36.0666L212.07,36C219.597,34.4028 212.998,8.82076 218.046,0.053231L213.929,0C202.692,5.19358 211.134,25.4033 206.941,37.9615Z" fill="#73142E"/>
<path d="M163.949,35.9518L165,36L167.07,36C173.534,28.1803 165.143,5.65595 175.019,0.0678373L171.071,0C165.711,-0.434166 164.701,6.68607 164.731,14.8546C164.762,23.0231 165.711,32.1917 163.949,35.9518Z" fill="#540C4E"/>
<path d="M166.964,35.9397C168.4,35.9397 172.111,35.9295 172,35.9295L173.07,33C180.028,25.6005 175.045,5.43124 180.033,0.0620808C178.597,0.0620808 174.872,0.0684553 174.983,0.0684553C165.107,5.65657 173.427,28.12 166.964,35.9397Z" fill="#570D4A"/>
<path d="M211.993,35.9299L214.071,36C215.031,35.6827 221.178,36.8807 222.064,35.0293C224.595,18.2286 218.284,6.67022 229.021,0.0673861C225.599,0.0673861 219.976,-0.0646883 217.972,-0.0646883C212.924,8.70284 219.519,34.3327 211.993,35.9299Z" fill="#78152B"/>
<path d="M221.932,34.9797C222.496,34.9797 226.953,35.0672 229.021,35.0672C235.36,29.8861 228.903,8.11072 234.043,0.0554936C232.607,0.0554936 228.871,0.0681993 228.982,0.0681993C218.246,6.67103 224.464,18.179 221.932,34.9797Z" fill="#7D1627"/>
<path d="M228.983,34.9316C231.162,34.3787 238.85,35.9991 241.029,34.0644L240.071,34C244.007,25.2503 239.755,7.27407 244.045,0.053943C240.967,0.053943 235.613,-0.064965 233.973,-0.064965C228.832,7.99026 235.322,29.7505 228.983,34.9316Z" fill="#851820"/>
<path d="M175,34L176.071,34C185.024,29.3912 174.562,3.34025 186.01,0.0697916C184.264,0.0697916 180.194,-0.0661985 179.976,-0.0661985C174.987,5.30296 179.924,25.5383 172.967,32.9378L175,34Z" fill="#5B0D47"/>
<path d="M239.948,33.9528L241,34C241.563,34 245.955,34.0664 248.024,34.0664C255.013,27.0136 248.572,5.49369 256.024,0.0662445C252.257,0.0662445 246.34,-0.0647699 243.972,-0.0647699C239.682,7.15535 243.885,25.2031 239.948,33.9528Z" fill="#8C1A1B"/>
<path d="M247.965,33.9389C254.595,34.615 258.127,29.3815 265.033,29.0625C264.562,23.703 262.076,3.87015 267.025,0.0658071C263.603,0.0658071 257.985,-0.0676309 255.98,-0.0676309C248.528,5.35981 254.954,26.8861 247.965,33.9389Z" fill="#931C17"/>
<path d="M297.988,31.0695C304.059,28.9982 302.612,18.7584 303.08,10.439C303.548,2.11968 305.929,-4.27938 319.987,1.06926L320,0C309.693,0 298.076,-0.0668339 288.978,-0.0668339C283.035,5.31827 285.298,20.2289 284.93,29.9956C287.484,30.5355 295.434,29.1641 297.988,31.0695Z" fill="#AF2319"/>
<path d="M273.951,30.0508C275.956,30.0508 281.61,30.0631 285.032,30.0631C285.4,20.2963 283.086,5.44932 289.029,0.0642167C281.805,0.0642167 272.933,-0.0674386 266.979,-0.0674386C262.03,3.73691 264.46,23.6487 264.93,29.0083C265.983,29.5959 272.899,28.0251 273.951,30.0508Z" fill="#A01F16"/>
</g>
</svg>
